  0
SECTION
  2
HEADER
  9
$ACADVER
  1
AC1024
  9
$ACADMAINTVER
 70
     6
  9
$DWGCODEPAGE
  3
ANSI_1252
  9
$INSBASE
 10
0.0
 20
0.0
 30
0.0
  9
$EXTMIN
 10
1.000000000000000E+20
 20
1.000000000000000E+20
 30
1.000000000000000E+20
  9
$EXTMAX
 10
-1.000000000000000E+20
 20
-1.000000000000000E+20
 30
-1.000000000000000E+20
  9
$LIMMIN
 10
0.0
 20
0.0
  9
$LIMMAX
 10
12.0
 20
9.0
  9
$ORTHOMODE
 70
     0
  9
$REGENMODE
 70
     1
  9
$FILLMODE
 70
     1
  9
$QTEXTMODE
 70
     0
  9
$MIRRTEXT
 70
     1
  9
$LTSCALE
 40
1.0
  9
$ATTMODE
 70
     1
  9
$TEXTSIZE
 40
0.2
  9
$TRACEWID
 40
0.05
  9
$TEXTSTYLE
  7
Standard
  9
$CLAYER
  8
0
  9
$CELTYPE
  6
ByLayer
  9
$CECOLOR
 62
   256
  9
$CELTSCALE
 40
1.0
  9
$DISPSILH
 70
     0
  9
$DIMSCALE
 40
1.0
  9
$DIMASZ
 40
0.18
  9
$DIMEXO
 40
0.0625
  9
$DIMDLI
 40
0.38
  9
$DIMRND
 40
0.0
  9
$DIMDLE
 40
0.0
  9
$DIMEXE
 40
0.18
  9
$DIMTP
 40
0.0
  9
$DIMTM
 40
0.0
  9
$DIMTXT
 40
0.18
  9
$DIMCEN
 40
0.09
  9
$DIMTSZ
 40
0.0
  9
$DIMTOL
 70
     0
  9
$DIMLIM
 70
     0
  9
$DIMTIH
 70
     1
  9
$DIMTOH
 70
     1
  9
$DIMSE1
 70
     0
  9
$DIMSE2
 70
     0
  9
$DIMTAD
 70
     0
  9
$DIMZIN
 70
     0
  9
$DIMBLK
  1

  9
$DIMASO
 70
     1
  9
$DIMSHO
 70
     1
  9
$DIMPOST
  1

  9
$DIMAPOST
  1

  9
$DIMALT
 70
     0
  9
$DIMALTD
 70
     2
  9
$DIMALTF
 40
25.4
  9
$DIMLFAC
 40
1.0
  9
$DIMTOFL
 70
     0
  9
$DIMTVP
 40
0.0
  9
$DIMTIX
 70
     0
  9
$DIMSOXD
 70
     0
  9
$DIMSAH
 70
     0
  9
$DIMBLK1
  1

  9
$DIMBLK2
  1

  9
$DIMSTYLE
  2
Standard
  9
$DIMCLRD
 70
     0
  9
$DIMCLRE
 70
     0
  9
$DIMCLRT
 70
     0
  9
$DIMTFAC
 40
1.0
  9
$DIMGAP
 40
0.09
  9
$DIMJUST
 70
     0
  9
$DIMSD1
 70
     0
  9
$DIMSD2
 70
     0
  9
$DIMTOLJ
 70
     1
  9
$DIMTZIN
 70
     0
  9
$DIMALTZ
 70
     0
  9
$DIMALTTZ
 70
     0
  9
$DIMUPT
 70
     0
  9
$DIMDEC
 70
     4
  9
$DIMTDEC
 70
     4
  9
$DIMALTU
 70
     2
  9
$DIMALTTD
 70
     2
  9
$DIMTXSTY
  7
Standard
  9
$DIMAUNIT
 70
     0
  9
$DIMADEC
 70
     0
  9
$DIMALTRND
 40
0.0
  9
$DIMAZIN
 70
     0
  9
$DIMDSEP
 70
    46
  9
$DIMATFIT
 70
     3
  9
$DIMFRAC
 70
     0
  9
$DIMLDRBLK
  1

  9
$DIMLUNIT
 70
     2
  9
$DIMLWD
 70
    -2
  9
$DIMLWE
 70
    -2
  9
$DIMTMOVE
 70
     0
  9
$DIMFXL
 40
1.0
  9
$DIMFXLON
 70
     0
  9
$DIMJOGANG
 40
0.7853981633974483
  9
$DIMTFILL
 70
     0
  9
$DIMTFILLCLR
 70
     0
  9
$DIMARCSYM
 70
     0
  9
$DIMLTYPE
  6

  9
$DIMLTEX1
  6

  9
$DIMLTEX2
  6

  9
$DIMTXTDIRECTION
 70
     0
  9
$LUNITS
 70
     2
  9
$LUPREC
 70
     4
  9
$SKETCHINC
 40
0.1
  9
$FILLETRAD
 40
0.5
  9
$AUNITS
 70
     0
  9
$AUPREC
 70
     0
  9
$MENU
  1
.
  9
$ELEVATION
 40
0.0
  9
$PELEVATION
 40
0.0
  9
$THICKNESS
 40
0.0
  9
$LIMCHECK
 70
     0
  9
$CHAMFERA
 40
0.5
  9
$CHAMFERB
 40
0.5
  9
$CHAMFERC
 40
1.0
  9
$CHAMFERD
 40
0.0
  9
$SKPOLY
 70
     0
  9
$TDCREATE
 40
2459453.847911886
  9
$TDUCREATE
 40
2459453.764578553
  9
$TDUPDATE
 40
2459453.847911921
  9
$TDUUPDATE
 40
2459453.764578588
  9
$TDINDWG
 40
0.0000000116
  9
$TDUSRTIMER
 40
0.0000000116
  9
$USRTIMER
 70
     1
  9
$ANGBASE
 50
0.0
  9
$ANGDIR
 70
     0
  9
$PDMODE
 70
     0
  9
$PDSIZE
 40
0.0
  9
$PLINEWID
 40
0.0
  9
$SPLFRAME
 70
     0
  9
$SPLINETYPE
 70
     6
  9
$SPLINESEGS
 70
     8
  9
$HANDSEED
  5
B6
  9
$SURFTAB1
 70
     6
  9
$SURFTAB2
 70
     6
  9
$SURFTYPE
 70
     6
  9
$SURFU
 70
     6
  9
$SURFV
 70
     6
  9
$UCSBASE
  2

  9
$UCSNAME
  2

  9
$UCSORG
 10
0.0
 20
0.0
 30
0.0
  9
$UCSXDIR
 10
1.0
 20
0.0
 30
0.0
  9
$UCSYDIR
 10
0.0
 20
1.0
 30
0.0
  9
$UCSORTHOREF
  2

  9
$UCSORTHOVIEW
 70
     0
  9
$UCSORGTOP
 10
0.0
 20
0.0
 30
0.0
  9
$UCSORGBOTTOM
 10
0.0
 20
0.0
 30
0.0
  9
$UCSORGLEFT
 10
0.0
 20
0.0
 30
0.0
  9
$UCSORGRIGHT
 10
0.0
 20
0.0
 30
0.0
  9
$UCSORGFRONT
 10
0.0
 20
0.0
 30
0.0
  9
$UCSORGBACK
 10
0.0
 20
0.0
 30
0.0
  9
$PUCSBASE
  2

  9
$PUCSNAME
  2

  9
$PUCSORG
 10
0.0
 20
0.0
 30
0.0
  9
$PUCSXDIR
 10
1.0
 20
0.0
 30
0.0
  9
$PUCSYDIR
 10
0.0
 20
1.0
 30
0.0
  9
$PUCSORTHOREF
  2

  9
$PUCSORTHOVIEW
 70
     0
  9
$PUCSORGTOP
 10
0.0
 20
0.0
 30
0.0
  9
$PUCSORGBOTTOM
 10
0.0
 20
0.0
 30
0.0
  9
$PUCSORGLEFT
 10
0.0
 20
0.0
 30
0.0
  9
$PUCSORGRIGHT
 10
0.0
 20
0.0
 30
0.0
  9
$PUCSORGFRONT
 10
0.0
 20
0.0
 30
0.0
  9
$PUCSORGBACK
 10
0.0
 20
0.0
 30
0.0
  9
$USERI1
 70
     0
  9
$USERI2
 70
     0
  9
$USERI3
 70
     0
  9
$USERI4
 70
     0
  9
$USERI5
 70
     0
  9
$USERR1
 40
0.0
  9
$USERR2
 40
0.0
  9
$USERR3
 40
0.0
  9
$USERR4
 40
0.0
  9
$USERR5
 40
0.0
  9
$WORLDVIEW
 70
     1
  9
$SHADEDGE
 70
     3
  9
$SHADEDIF
 70
    70
  9
$TILEMODE
 70
     1
  9
$MAXACTVP
 70
    64
  9
$PINSBASE
 10
0.0
 20
0.0
 30
0.0
  9
$PLIMCHECK
 70
     0
  9
$PEXTMIN
 10
1.000000000000000E+20
 20
1.000000000000000E+20
 30
1.000000000000000E+20
  9
$PEXTMAX
 10
-1.000000000000000E+20
 20
-1.000000000000000E+20
 30
-1.000000000000000E+20
  9
$PLIMMIN
 10
0.0
 20
0.0
  9
$PLIMMAX
 10
12.0
 20
9.0
  9
$UNITMODE
 70
     0
  9
$VISRETAIN
 70
     1
  9
$PLINEGEN
 70
     0
  9
$PSLTSCALE
 70
     1
  9
$TREEDEPTH
 70
  3020
  9
$CMLSTYLE
  2
Standard
  9
$CMLJUST
 70
     0
  9
$CMLSCALE
 40
1.0
  9
$PROXYGRAPHICS
 70
     1
  9
$MEASUREMENT
 70
     0
  9
$CELWEIGHT
370
    -1
  9
$ENDCAPS
280
     0
  9
$JOINSTYLE
280
     0
  9
$LWDISPLAY
290
     1
  9
$INSUNITS
 70
     4
  9
$HYPERLINKBASE
  1

  9
$STYLESHEET
  1

  9
$XEDIT
290
     1
  9
$CEPSNTYPE
380
     0
  9
$PSTYLEMODE
290
     1
  9
$FINGERPRINTGUID
  2
{6D27BFDC-C4D3-46AA-9FA9-964296E7827F}
  9
$VERSIONGUID
  2
{FAEB1C32-E019-11D5-929B-00C0DF256EC4}
  9
$EXTNAMES
290
     1
  9
$PSVPSCALE
 40
0.0
  9
$OLESTARTUP
290
     0
  9
$SORTENTS
280
   127
  9
$INDEXCTL
280
     0
  9
$HIDETEXT
280
     1
  9
$XCLIPFRAME
280
     2
  9
$HALOGAP
280
     0
  9
$OBSCOLOR
 70
   257
  9
$OBSLTYPE
280
     0
  9
$INTERSECTIONDISPLAY
280
     0
  9
$INTERSECTIONCOLOR
 70
   257
  9
$DIMASSOC
280
     2
  9
$PROJECTNAME
  1

  9
$CAMERADISPLAY
290
     0
  9
$LENSLENGTH
 40
50.0
  9
$CAMERAHEIGHT
 40
0.0
  9
$STEPSPERSEC
 40
2.0
  9
$STEPSIZE
 40
6.0
  9
$3DDWFPREC
 40
2.0
  9
$PSOLWIDTH
 40
0.25
  9
$PSOLHEIGHT
 40
4.0
  9
$LOFTANG1
 40
1.570796326794897
  9
$LOFTANG2
 40
1.570796326794897
  9
$LOFTMAG1
 40
0.0
  9
$LOFTMAG2
 40
0.0
  9
$LOFTPARAM
 70
     7
  9
$LOFTNORMALS
280
     1
  9
$LATITUDE
 40
37.795
  9
$LONGITUDE
 40
-122.394
  9
$NORTHDIRECTION
 40
0.0
  9
$TIMEZONE
 70
 -8000
  9
$LIGHTGLYPHDISPLAY
280
     1
  9
$TILEMODELIGHTSYNCH
280
     1
  9
$CMATERIAL
347
3C
  9
$SOLIDHIST
280
     1
  9
$SHOWHIST
280
     1
  9
$DWFFRAME
280
     2
  9
$DGNFRAME
280
     2
  9
$REALWORLDSCALE
290
     1
  9
$INTERFERECOLOR
 62
   256
  9
$CSHADOW
280
     0
  9
$SHADOWPLANELOCATION
 40
0.0
  0
ENDSEC
  0
SECTION
  2
CLASSES
  0
CLASS
  1
ACDBDICTIONARYWDFLT
  2
AcDbDictionaryWithDefault
  3
ObjectDBX Classes
 90
        0
 91
        4
280
     0
281
     0
  0
CLASS
  1
VISUALSTYLE
  2
AcDbVisualStyle
  3
ObjectDBX Classes
 90
     4095
 91
        4
280
     0
281
     0
  0
CLASS
  1
MATERIAL
  2
AcDbMaterial
  3
ObjectDBX Classes
 90
     1153
 91
        4
280
     0
281
     0
  0
CLASS
  1
SUN
  2
AcDbSun
  3
SCENEOE
 90
     1024
 91
        4
280
     0
281
     0
  0
ENDSEC
  0
SECTION
  2
TABLES
  0
TABLE
  2
VPORT
  5
8
330
0
100
AcDbSymbolTable
 70
     1
  0
VPORT
  5
29
330
8
100
AcDbSymbolTableRecord
100
AcDbViewportTableRecord
  2
*Active
 70
     0
 10
0.0
 20
0.0
 11
1.0
 21
1.0
 12
0.0
 22
0.0
 13
0.0
 23
0.0
 14
0.5
 24
0.5
 15
0.5
 25
0.5
 16
0.0
 26
0.0
 36
1.0
 17
202.7499999493115
 27
-203.195949949201
 37
0.0
 40
406.3918998984019
 41
0.9978053204308406
 42
50.0
 43
0.0
 44
0.0
 50
0.0
 51
0.0
 71
     0
 72
   100
 73
     1
 74
     3
 75
     0
 76
     0
 77
     0
 78
     0
281
     0
 65
     1
110
0.0
120
0.0
130
0.0
111
1.0
121
0.0
131
0.0
112
0.0
122
1.0
132
0.0
 79
     0
146
0.0
 60
     3
 61
     5
292
     1
282
     1
141
0.0
142
0.0
 63
   250
361
3F
  0
ENDTAB
  0
TABLE
  2
LTYPE
  5
5
330
0
100
AcDbSymbolTable
 70
     1
  0
LTYPE
  5
14
330
5
100
AcDbSymbolTableRecord
100
AcDbLinetypeTableRecord
  2
ByBlock
 70
     0
  3

 72
    65
 73
     0
 40
0.0
  0
LTYPE
  5
15
330
5
100
AcDbSymbolTableRecord
100
AcDbLinetypeTableRecord
  2
ByLayer
 70
     0
  3

 72
    65
 73
     0
 40
0.0
  0
LTYPE
  5
16
330
5
100
AcDbSymbolTableRecord
100
AcDbLinetypeTableRecord
  2
Continuous
 70
     0
  3
Solid line
 72
    65
 73
     0
 40
0.0
  0
ENDTAB
  0
TABLE
  2
LAYER
  5
2
330
0
100
AcDbSymbolTable
 70
     6
  0
LAYER
  5
10
330
2
100
AcDbSymbolTableRecord
100
AcDbLayerTableRecord
  2
0
 70
     0
 62
     7
  6
Continuous
370
    -3
390
F
347
3E
  0
LAYER
  5
40
330
2
100
AcDbSymbolTableRecord
100
AcDbLayerTableRecord
  2
bot 290.5
 70
     0
 62
     7
  6
Continuous
370
    -3
390
F
347
3E
  0
LAYER
  5
48
330
2
100
AcDbSymbolTableRecord
100
AcDbLayerTableRecord
  2
top 290.5
 70
     0
 62
     7
  6
Continuous
370
    -3
390
F
347
3E
  0
LAYER
  5
6D
330
2
100
AcDbSymbolTableRecord
100
AcDbLayerTableRecord
  2
top 292.5
 70
     0
 62
     7
  6
Continuous
370
    -3
390
F
347
3E
  0
LAYER
  5
94
330
2
100
AcDbSymbolTableRecord
100
AcDbLayerTableRecord
  2
mid 292.5
 70
     0
 62
     7
  6
Continuous
370
    -3
390
F
347
3E
  0
LAYER
  5
A3
330
2
100
AcDbSymbolTableRecord
100
AcDbLayerTableRecord
  2
Mid 294.5
 70
     0
 62
     7
  6
Continuous
370
    -3
390
F
347
3E
  0
ENDTAB
  0
TABLE
  2
STYLE
  5
3
330
0
100
AcDbSymbolTable
 70
     1
  0
STYLE
  5
11
330
3
100
AcDbSymbolTableRecord
100
AcDbTextStyleTableRecord
  2
Standard
 70
     0
 40
0.0
 41
1.0
 50
0.0
 71
     0
 42
0.2
  3
txt
  4

  0
ENDTAB
  0
TABLE
  2
VIEW
  5
6
330
0
100
AcDbSymbolTable
 70
     0
  0
ENDTAB
  0
TABLE
  2
UCS
  5
7
330
0
100
AcDbSymbolTable
 70
     0
  0
ENDTAB
  0
TABLE
  2
APPID
  5
9
330
0
100
AcDbSymbolTable
 70
     1
  0
APPID
  5
12
330
9
100
AcDbSymbolTableRecord
100
AcDbRegAppTableRecord
  2
ACAD
 70
     0
  0
ENDTAB
  0
TABLE
  2
DIMSTYLE
  5
A
330
0
100
AcDbSymbolTable
 70
     1
100
AcDbDimStyleTable
  0
DIMSTYLE
105
27
330
A
100
AcDbSymbolTableRecord
100
AcDbDimStyleTableRecord
  2
Standard
 70
     0
178
     0
340
11
  0
ENDTAB
  0
TABLE
  2
BLOCK_RECORD
  5
1
330
0
100
AcDbSymbolTable
 70
    15
  0
BLOCK_RECORD
  5
1F
330
1
100
AcDbSymbolTableRecord
100
AcDbBlockTableRecord
  2
*Model_Space
340
22
 70
     0
280
     1
281
     0
  0
BLOCK_RECORD
  5
1B
330
1
100
AcDbSymbolTableRecord
100
AcDbBlockTableRecord
  2
*Paper_Space
340
1E
 70
     0
280
     1
281
     0
  0
BLOCK_RECORD
  5
23
330
1
100
AcDbSymbolTableRecord
100
AcDbBlockTableRecord
  2
*Paper_Space0
340
26
 70
     0
280
     1
281
     0
  0
BLOCK_RECORD
  5
4F
330
1
100
AcDbSymbolTableRecord
100
AcDbBlockTableRecord
  2
block 2
340
0
102
{BLKREFS
331
50
102
}
 70
     0
280
     1
281
     0
  0
BLOCK_RECORD
  5
54
330
1
100
AcDbSymbolTableRecord
100
AcDbBlockTableRecord
  2
block 3
340
0
102
{BLKREFS
331
55
102
}
 70
     0
280
     1
281
     0
  0
BLOCK_RECORD
  5
59
330
1
100
AcDbSymbolTableRecord
100
AcDbBlockTableRecord
  2
block 4
340
0
102
{BLKREFS
331
5A
102
}
 70
     0
280
     1
281
     0
  0
BLOCK_RECORD
  5
5E
330
1
100
AcDbSymbolTableRecord
100
AcDbBlockTableRecord
  2
block 5
340
0
102
{BLKREFS
331
5F
102
}
 70
     0
280
     1
281
     0
  0
BLOCK_RECORD
  5
63
330
1
100
AcDbSymbolTableRecord
100
AcDbBlockTableRecord
  2
block 6
340
0
102
{BLKREFS
331
64
102
}
 70
     0
280
     1
281
     0
  0
BLOCK_RECORD
  5
68
330
1
100
AcDbSymbolTableRecord
100
AcDbBlockTableRecord
  2
block 7
340
0
102
{BLKREFS
331
69
102
}
 70
     0
280
     1
281
     0
  0
BLOCK_RECORD
  5
74
330
1
100
AcDbSymbolTableRecord
100
AcDbBlockTableRecord
  2
block 8
340
0
102
{BLKREFS
331
75
102
}
 70
     0
280
     1
281
     0
  0
BLOCK_RECORD
  5
79
330
1
100
AcDbSymbolTableRecord
100
AcDbBlockTableRecord
  2
block 9
340
0
102
{BLKREFS
331
7A
102
}
 70
     0
280
     1
281
     0
  0
BLOCK_RECORD
  5
7E
330
1
100
AcDbSymbolTableRecord
100
AcDbBlockTableRecord
  2
block 10
340
0
102
{BLKREFS
331
7F
102
}
 70
     0
280
     1
281
     0
  0
BLOCK_RECORD
  5
83
330
1
100
AcDbSymbolTableRecord
100
AcDbBlockTableRecord
  2
block 11
340
0
102
{BLKREFS
331
84
102
}
 70
     0
280
     1
281
     0
  0
BLOCK_RECORD
  5
88
330
1
100
AcDbSymbolTableRecord
100
AcDbBlockTableRecord
  2
block 12
340
0
102
{BLKREFS
331
89
102
}
 70
     0
280
     1
281
     0
  0
BLOCK_RECORD
  5
8D
330
1
100
AcDbSymbolTableRecord
100
AcDbBlockTableRecord
  2
block 13
340
0
102
{BLKREFS
331
8E
102
}
 70
     0
280
     1
281
     0
  0
BLOCK_RECORD
  5
9B
330
1
100
AcDbSymbolTableRecord
100
AcDbBlockTableRecord
  2
block 14
340
0
102
{BLKREFS
331
9C
102
}
 70
     0
280
     1
281
     0
  0
BLOCK_RECORD
  5
AA
330
1
100
AcDbSymbolTableRecord
100
AcDbBlockTableRecord
  2
block 15
340
0
102
{BLKREFS
331
AB
102
}
 70
     0
280
     1
281
     0
  0
ENDTAB
  0
ENDSEC
  0
SECTION
  2
BLOCKS
  0
BLOCK
  5
20
330
1F
100
AcDbEntity
  8
0
100
AcDbBlockBegin
  2
*Model_Space
 70
     0
 10
0.0
 20
0.0
 30
0.0
  3
*Model_Space
  1

  0
ENDBLK
  5
21
330
1F
100
AcDbEntity
  8
0
100
AcDbBlockEnd
  0
BLOCK
  5
1C
330
1B
100
AcDbEntity
 67
     1
  8
0
100
AcDbBlockBegin
  2
*Paper_Space
 70
     0
 10
0.0
 20
0.0
 30
0.0
  3
*Paper_Space
  1

  0
ENDBLK
  5
1D
330
1B
100
AcDbEntity
 67
     1
  8
0
100
AcDbBlockEnd
  0
BLOCK
  5
24
330
23
100
AcDbEntity
  8
0
100
AcDbBlockBegin
  2
*Paper_Space0
 70
     0
 10
0.0
 20
0.0
 30
0.0
  3
*Paper_Space0
  1

  0
ENDBLK
  5
25
330
23
100
AcDbEntity
  8
0
100
AcDbBlockEnd
  0
BLOCK
  5
51
330
4F
100
AcDbEntity
  8
0
100
AcDbBlockBegin
  2
block 2
 70
     0
 10
0.0
 20
0.0
 30
0.0
  3
block 2
  1

  0
SPLINE
  5
53
330
4F
100
AcDbEntity
  8
top 290.5
 62
     7
420
 16777215
370
    25
100
AcDbSpline
210
0.0
220
0.0
230
1.0
 70
    11
 71
     3
 72
    59
 73
    55
 74
     0
 42
0.0000000001
 43
0.0000000001
 12
1.0
 22
0.0
 32
0.0
 13
1.0
 23
0.0
 33
0.0
 40
0.0
 40
0.0
 40
0.0
 40
0.0
 40
1.0
 40
1.0
 40
1.0
 40
2.0
 40
2.0
 40
2.0
 40
3.0
 40
3.0
 40
3.0
 40
4.0
 40
4.0
 40
4.0
 40
5.0
 40
5.0
 40
5.0
 40
6.0
 40
6.0
 40
6.0
 40
7.0
 40
7.0
 40
7.0
 40
8.0
 40
8.0
 40
8.0
 40
9.0
 40
9.0
 40
9.0
 40
10.0
 40
10.0
 40
10.0
 40
11.0
 40
11.0
 40
11.0
 40
12.0
 40
12.0
 40
12.0
 40
13.0
 40
13.0
 40
13.0
 40
14.0
 40
14.0
 40
14.0
 40
15.0
 40
15.0
 40
15.0
 40
16.0
 40
16.0
 40
16.0
 40
17.0
 40
17.0
 40
17.0
 40
18.0
 40
18.0
 40
18.0
 40
18.0
 10
0.9999999997500936
 20
-208.3956999479026
 30
0.0
 10
0.9999999997500936
 20
-204.5297067000529
 30
0.0
 10
4.134006750151101
 20
-201.3956999496522
 30
0.0
 10
7.999999998000106
 20
-201.3956999496522
 30
0.0
 10
7.999999998000106
 20
-201.3956999496522
 30
0.0
 10
53.78710091203905
 20
-201.3956999496522
 30
0.0
 10
53.78710091203905
 20
-201.3956999496522
 30
0.0
 10
72.35379630416462
 20
-201.898702692002
 30
0.0
 10
85.18968165942094
 20
-204.1305065648906
 30
0.0
 10
99.21315622297347
 20
-206.7080448638273
 30
0.0
 10
116.3536109928776
 20
-209.8584893867175
 30
0.0
 10
131.2438261407063
 20
-212.7622373377939
 30
0.0
 10
150.131717938949
 20
-211.8146077407563
 30
0.0
 10
166.9855803118853
 20
-210.9690279915916
 30
0.0
 10
182.2335949266321
 20
-207.3959592307937
 30
0.0
 10
198.9813493977317
 20
-204.8365656358656
 30
0.0
 10
208.5618841999221
 20
-203.372467302503
 30
0.0
 10
218.851030490616
 20
-201.7468046114665
 30
0.0
 10
233.1991276909893
 20
-201.3956999496522
 30
0.0
 10
233.1991276909893
 20
-201.3956999496522
 30
0.0
 10
284.4999999288748
 20
-201.3956999496522
 30
0.0
 10
284.4999999288748
 20
-201.3956999496522
 30
0.0
 10
288.3659931767232
 20
-201.3956999496522
 30
0.0
 10
291.4999999271238
 20
-204.5297067000529
 30
0.0
 10
291.4999999271238
 20
-208.3956999479019
 30
0.0
 10
291.4999999271238
 20
-208.3956999479019
 30
0.0
 10
291.4999999271238
 20
-281.9076552756959
 30
0.0
 10
291.4999999271238
 20
-281.9076552756959
 30
0.0
 10
291.4999999271238
 20
-290.1476237055339
 30
0.0
 10
284.8532644880232
 20
-296.8448588577089
 30
0.0
 10
276.6135320826344
 20
-296.9072256141426
 30
0.0
 10
276.6135320826344
 20
-296.9072256141426
 30
0.0
 10
233.1991276909893
 20
-297.2358304099292
 30
0.0
 10
233.1991276909893
 20
-297.2358304099292
 30
0.0
 10
218.851030490616
 20
-297.5869350717422
 30
0.0
 10
208.5618841999221
 20
-298.7713178319376
 30
0.0
 10
198.9813493977317
 20
-300.2354161652989
 30
0.0
 10
182.2335949266321
 20
-302.7948097602271
 30
0.0
 10
166.9855803118853
 20
-306.3678785210255
 30
0.0
 10
150.131717938949
 20
-307.2134582701902
 30
0.0
 10
131.2438261407063
 20
-308.1610878672279
 30
0.0
 10
116.3536109928776
 20
-305.2573399161515
 30
0.0
 10
99.21315622297347
 20
-302.1068953932606
 30
0.0
 10
85.18968165942094
 20
-299.5293570943246
 30
0.0
 10
72.35379630416462
 20
-297.297553221436
 30
0.0
 10
53.78710091203905
 20
-296.7945504790862
 30
0.0
 10
53.78710091203905
 20
-296.7945504790862
 30
0.0
 10
15.99999999600021
 20
-296.7945504790862
 30
0.0
 10
15.99999999600021
 20
-296.7945504790862
 30
0.0
 10
7.715728750609212
 20
-296.7945504790862
 30
0.0
 10
0.9999999997500936
 20
-290.0788217282261
 30
0.0
 10
0.9999999997500936
 20
-281.7945504828364
 30
0.0
 10
0.9999999997500936
 20
-281.7945504828364
 30
0.0
 10
0.9999999997500936
 20
-208.3956999479026
 30
0.0
 10
0.9999999997500936
 20
-208.3956999479026
 30
0.0
  0
INSERT
  5
55
330
4F
100
AcDbEntity
  8
top 290.5
100
AcDbBlockReference
  2
block 3
 10
0.0
 20
0.0
 30
0.0
  0
INSERT
  5
5A
330
4F
100
AcDbEntity
  8
top 290.5
100
AcDbBlockReference
  2
block 4
 10
0.0
 20
0.0
 30
0.0
  0
INSERT
  5
5F
330
4F
100
AcDbEntity
  8
top 290.5
100
AcDbBlockReference
  2
block 5
 10
0.0
 20
0.0
 30
0.0
  0
INSERT
  5
64
330
4F
100
AcDbEntity
  8
top 290.5
100
AcDbBlockReference
  2
block 6
 10
0.0
 20
0.0
 30
0.0
  0
INSERT
  5
69
330
4F
100
AcDbEntity
  8
top 290.5
100
AcDbBlockReference
  2
block 7
 10
0.0
 20
0.0
 30
0.0
  0
ENDBLK
  5
52
330
4F
100
AcDbEntity
  8
0
100
AcDbBlockEnd
  0
BLOCK
  5
56
330
54
100
AcDbEntity
  8
0
100
AcDbBlockBegin
  2
block 3
 70
     0
 10
0.0
 20
0.0
 30
0.0
  3
block 3
  1

  0
SPLINE
  5
58
330
54
100
AcDbEntity
  8
top 290.5
 62
     7
420
 16777215
370
    25
100
AcDbSpline
210
0.0
220
0.0
230
1.0
 70
    11
 71
     3
 72
   119
 73
   115
 74
     0
 42
0.0000000001
 43
0.0000000001
 12
1.0
 22
0.0
 32
0.0
 13
1.0
 23
0.0
 33
0.0
 40
0.0
 40
0.0
 40
0.0
 40
0.0
 40
1.0
 40
1.0
 40
1.0
 40
2.0
 40
2.0
 40
2.0
 40
3.0
 40
3.0
 40
3.0
 40
4.0
 40
4.0
 40
4.0
 40
5.0
 40
5.0
 40
5.0
 40
6.0
 40
6.0
 40
6.0
 40
7.0
 40
7.0
 40
7.0
 40
8.0
 40
8.0
 40
8.0
 40
9.0
 40
9.0
 40
9.0
 40
10.0
 40
10.0
 40
10.0
 40
11.0
 40
11.0
 40
11.0
 40
12.0
 40
12.0
 40
12.0
 40
13.0
 40
13.0
 40
13.0
 40
14.0
 40
14.0
 40
14.0
 40
15.0
 40
15.0
 40
15.0
 40
16.0
 40
16.0
 40
16.0
 40
17.0
 40
17.0
 40
17.0
 40
18.0
 40
18.0
 40
18.0
 40
19.0
 40
19.0
 40
19.0
 40
20.0
 40
20.0
 40
20.0
 40
21.0
 40
21.0
 40
21.0
 40
22.0
 40
22.0
 40
22.0
 40
23.0
 40
23.0
 40
23.0
 40
24.0
 40
24.0
 40
24.0
 40
25.0
 40
25.0
 40
25.0
 40
26.0
 40
26.0
 40
26.0
 40
27.0
 40
27.0
 40
27.0
 40
28.0
 40
28.0
 40
28.0
 40
29.0
 40
29.0
 40
29.0
 40
30.0
 40
30.0
 40
30.0
 40
31.0
 40
31.0
 40
31.0
 40
32.0
 40
32.0
 40
32.0
 40
33.0
 40
33.0
 40
33.0
 40
34.0
 40
34.0
 40
34.0
 40
35.0
 40
35.0
 40
35.0
 40
36.0
 40
36.0
 40
36.0
 40
37.0
 40
37.0
 40
37.0
 40
38.0
 40
38.0
 40
38.0
 40
38.0
 10
147.2488727232736
 20
-240.4608898765636
 30
0.0
 10
146.6267848983908
 20
-240.5483160102913
 30
0.0
 10
146.0516036119875
 20
-240.1149052850792
 30
0.0
 10
145.9641455100634
 20
-239.4928219537375
 30
0.0
 10
145.9641455100634
 20
-239.4928219537375
 30
0.0
 10
143.4756419747453
 20
-221.7922712300499
 30
0.0
 10
143.4756419747453
 20
-221.7922712300499
 30
0.0
 10
143.3881971252157
 20
-221.170282162059
 30
0.0
 10
143.8214366832785
 20
-220.5951383425221
 30
0.0
 10
144.4434024968263
 20
-220.5075282450026
 30
0.0
 10
144.4434024968263
 20
-220.5075282450026
 30
0.0
 10
221.6918887427935
 20
-209.6263073389047
 30
0.0
 10
221.6918887427935
 20
-209.6263073389047
 30
0.0
 10
221.7444518136215
 20
-209.6189033053377
 30
0.0
 10
221.7974686877176
 20
-209.6151876676534
 30
0.0
 10
221.8505506632646
 20
-209.6151876676534
 30
0.0
 10
221.8505506632646
 20
-209.6151876676534
 30
0.0
 10
278.240974856313
 20
-209.6151876676534
 30
0.0
 10
278.240974856313
 20
-209.6151876676534
 30
0.0
 10
278.8691987592445
 20
-209.6151876676534
 30
0.0
 10
279.3784748563126
 20
-210.1244637647208
 30
0.0
 10
279.3784748563126
 20
-210.7526876676529
 30
0.0
 10
279.3784748563126
 20
-210.7526876676529
 30
0.0
 10
279.3784748563126
 20
-228.3553876677787
 30
0.0
 10
279.3784748563126
 20
-228.3553876677787
 30
0.0
 10
279.3784748563126
 20
-228.6315300426245
 30
0.0
 10
279.6023324813413
 20
-228.8553876676532
 30
0.0
 10
279.8784748561871
 20
-228.8553876676532
 30
0.0
 10
279.8784748561871
 20
-228.8553876676532
 30
0.0
 10
280.9079748563128
 20
-228.8553876676532
 30
0.0
 10
280.9079748563128
 20
-228.8553876676532
 30
0.0
 10
281.5361987592443
 20
-228.8553876676532
 30
0.0
 10
282.0454748563124
 20
-229.3646637647207
 30
0.0
 10
282.0454748563124
 20
-229.9928876676528
 30
0.0
 10
282.0454748563124
 20
-229.9928876676528
 30
0.0
 10
282.0454748563124
 20
-248.0968876676527
 30
0.0
 10
282.0454748563124
 20
-248.0968876676527
 30
0.0
 10
282.0454748563124
 20
-248.0968876676527
 30
0.0
 10
283.5749748563113
 20
-248.0968876676527
 30
0.0
 10
283.5749748563113
 20
-248.0968876676527
 30
0.0
 10
284.2031987592441
 20
-248.0968876676527
 30
0.0
 10
284.7124748563122
 20
-248.6061637647208
 30
0.0
 10
284.7124748563122
 20
-249.2343876676535
 30
0.0
 10
284.7124748563122
 20
-249.2343876676535
 30
0.0
 10
284.7124748563122
 20
-267.110087667653
 30
0.0
 10
284.7124748563122
 20
-267.110087667653
 30
0.0
 10
284.7124748563122
 20
-267.7383115705845
 30
0.0
 10
284.2031987592441
 20
-268.2475876676525
 30
0.0
 10
283.5749748563126
 20
-268.2475876676525
 30
0.0
 10
283.5749748563126
 20
-268.2475876676525
 30
0.0
 10
283.1134748561867
 20
-268.2475876676525
 30
0.0
 10
283.1134748561867
 20
-268.2475876676525
 30
0.0
 10
282.8373324813409
 20
-268.2475876676525
 30
0.0
 10
282.6134748563121
 20
-268.4714452926812
 30
0.0
 10
282.6134748563121
 20
-268.7475876675271
 30
0.0
 10
282.6134748563121
 20
-268.7475876675271
 30
0.0
 10
282.6134748563121
 20
-286.3489876676533
 30
0.0
 10
282.6134748563121
 20
-286.3489876676533
 30
0.0
 10
282.6134748563121
 20
-286.9772115705847
 30
0.0
 10
282.1041987592441
 20
-287.4864876676528
 30
0.0
 10
281.4759748563126
 20
-287.4864876676528
 30
0.0
 10
281.4759748563126
 20
-287.4864876676528
 30
0.0
 10
235.0279748563103
 20
-287.4864876676528
 30
0.0
 10
235.0279748563103
 20
-287.4864876676528
 30
0.0
 10
234.3997509533788
 20
-287.4864876676528
 30
0.0
 10
233.8904748563121
 20
-286.977211570586
 30
0.0
 10
233.8904748563121
 20
-286.3489876676545
 30
0.0
 10
233.8904748563121
 20
-286.3489876676545
 30
0.0
 10
233.8904748563121
 20
-269.2475876674017
 30
0.0
 10
233.8904748563121
 20
-269.2475876674017
 30
0.0
 10
233.8904748563121
 20
-268.69530291771
 30
0.0
 10
233.4427596062546
 20
-268.2475876676525
 30
0.0
 10
232.8904748565617
 20
-268.2475876676525
 30
0.0
 10
232.8904748565617
 20
-268.2475876676525
 30
0.0
 10
223.2933381873124
 20
-268.2475876676525
 30
0.0
 10
223.2933381873124
 20
-268.2475876676525
 30
0.0
 10
223.2933381873124
 20
-268.2475876676525
 30
0.0
 10
214.8148648020875
 20
-269.4391926893801
 30
0.0
 10
214.8148648020875
 20
-269.4391926893801
 30
0.0
 10
214.2679707038598
 20
-269.5160557901057
 30
0.0
 10
213.8869274870039
 20
-270.0217001065942
 30
0.0
 10
213.9637685855186
 20
-270.5685972966651
 30
0.0
 10
213.9637685855186
 20
-270.5685972966651
 30
0.0
 10
216.3169645261524
 20
-287.3168774811067
 30
0.0
 10
216.3169645261524
 20
-287.3168774811067
 30
0.0
 10
216.4043706063019
 20
-287.938968270444
 30
0.0
 10
215.9709411053148
 20
-288.5141356621457
 30
0.0
 10
215.3488547799273
 20
-288.6015735074488
 30
0.0
 10
215.3488547799273
 20
-288.6015735074488
 30
0.0
 10
150.4881257406955
 20
-297.7181256008572
 30
0.0
 10
150.4881257406955
 20
-297.7181256008572
 30
0.0
 10
149.8660312917203
 20
-297.8055645879778
 30
0.0
 10
149.290836621807
 20
-297.3721522519535
 30
0.0
 10
149.2033773576003
 20
-296.7500606533785
 30
0.0
 10
149.2033773576003
 20
-296.7500606533785
 30
0.0
 10
144.0626977223655
 20
-260.1847677589616
 30
0.0
 10
144.0626977223655
 20
-260.1847677589616
 30
0.0
 10
143.9752400035222
 20
-259.5626871524473
 30
0.0
 10
144.408617076614
 20
-258.9874853209995
 30
0.0
 10
145.0306926460115
 20
-258.8999917809863
 30
0.0
 10
145.0306926460115
 20
-258.8999917809863
 30
0.0
 10
152.84244305023
 20
-257.8012865268456
 30
0.0
 10
152.84244305023
 20
-257.8012865268456
 30
0.0
 10
153.1158965380968
 20
-257.7628259042783
 30
0.0
 10
153.3063946181822
 20
-257.5099677924185
 30
0.0
 10
153.2679303991459
 20
-257.2365148104114
 30
0.0
 10
153.2679303991459
 20
-257.2365148104114
 30
0.0
 10
150.9069511832269
 20
-240.4516476472353
 30
0.0
 10
150.9069511832269
 20
-240.4516476472353
 30
0.0
 10
150.8684906433913
 20
-240.1782208217018
 30
0.0
 10
150.6156723703672
 20
-239.987731161012
 30
0.0
 10
150.3422408499222
 20
-240.0261583086199
 30
0.0
 10
150.3422408499222
 20
-240.0261583086199
 30
0.0
 10
147.2488727232736
 20
-240.4608898765636
 30
0.0
 10
147.2488727232736
 20
-240.4608898765636
 30
0.0
  0
ENDBLK
  5
57
330
54
100
AcDbEntity
  8
0
100
AcDbBlockEnd
  0
BLOCK
  5
5B
330
59
100
AcDbEntity
  8
0
100
AcDbBlockBegin
  2
block 4
 70
     0
 10
0.0
 20
0.0
 30
0.0
  3
block 4
  1

  0
SPLINE
  5
5D
330
59
100
AcDbEntity
  8
top 290.5
 62
     7
420
 16777215
370
    25
100
AcDbSpline
210
0.0
220
0.0
230
1.0
 70
    11
 71
     3
 72
   122
 73
   118
 74
     0
 42
0.0000000001
 43
0.0000000001
 12
1.0
 22
0.0
 32
0.0
 13
1.0
 23
0.0
 33
0.0
 40
0.0
 40
0.0
 40
0.0
 40
0.0
 40
1.0
 40
1.0
 40
1.0
 40
2.0
 40
2.0
 40
2.0
 40
3.0
 40
3.0
 40
3.0
 40
4.0
 40
4.0
 40
4.0
 40
5.0
 40
5.0
 40
5.0
 40
6.0
 40
6.0
 40
6.0
 40
7.0
 40
7.0
 40
7.0
 40
8.0
 40
8.0
 40
8.0
 40
9.0
 40
9.0
 40
9.0
 40
10.0
 40
10.0
 40
10.0
 40
11.0
 40
11.0
 40
11.0
 40
12.0
 40
12.0
 40
12.0
 40
13.0
 40
13.0
 40
13.0
 40
14.0
 40
14.0
 40
14.0
 40
15.0
 40
15.0
 40
15.0
 40
16.0
 40
16.0
 40
16.0
 40
17.0
 40
17.0
 40
17.0
 40
18.0
 40
18.0
 40
18.0
 40
19.0
 40
19.0
 40
19.0
 40
20.0
 40
20.0
 40
20.0
 40
21.0
 40
21.0
 40
21.0
 40
22.0
 40
22.0
 40
22.0
 40
23.0
 40
23.0
 40
23.0
 40
24.0
 40
24.0
 40
24.0
 40
25.0
 40
25.0
 40
25.0
 40
26.0
 40
26.0
 40
26.0
 40
27.0
 40
27.0
 40
27.0
 40
28.0
 40
28.0
 40
28.0
 40
29.0
 40
29.0
 40
29.0
 40
30.0
 40
30.0
 40
30.0
 40
31.0
 40
31.0
 40
31.0
 40
32.0
 40
32.0
 40
32.0
 40
33.0
 40
33.0
 40
33.0
 40
34.0
 40
34.0
 40
34.0
 40
35.0
 40
35.0
 40
35.0
 40
36.0
 40
36.0
 40
36.0
 40
37.0
 40
37.0
 40
37.0
 40
38.0
 40
38.0
 40
38.0
 40
39.0
 40
39.0
 40
39.0
 40
39.0
 10
131.1098547952378
 20
-296.749899756581
 30
0.0
 10
131.0224484894922
 20
-297.3720298986599
 30
0.0
 10
130.4472443307489
 20
-297.805501106056
 30
0.0
 10
129.8251173999759
 20
-297.7180719463099
 30
0.0
 10
129.8251173999759
 20
-297.7180719463099
 30
0.0
 10
69.67797559937767
 20
-289.2654334111792
 30
0.0
 10
69.67797559937767
 20
-289.2654334111792
 30
0.0
 10
69.0558073916168
 20
-289.1779633783164
 30
0.0
 10
68.62239226223296
 20
-288.6027454963688
 30
0.0
 10
68.70985354224892
 20
-287.9806395594792
 30
0.0
 10
68.70985354224892
 20
-287.9806395594792
 30
0.0
 10
71.06438567611286
 20
-271.2330179971631
 30
0.0
 10
71.06438567611286
 20
-271.2330179971631
 30
0.0
 10
71.14127581316194
 20
-270.6861038571292
 30
0.0
 10
70.76023977159474
 20
-270.1804128510178
 30
0.0
 10
70.2133240764562
 20
-270.103533776134
 30
0.0
 10
70.2133240764562
 20
-270.103533776134
 30
0.0
 10
56.9636747441177
 20
-268.241051510107
 30
0.0
 10
56.9636747441177
 20
-268.241051510107
 30
0.0
 10
56.36194470329548
 20
-268.1564672692828
 30
0.0
 10
55.82447485631256
 20
-268.6236699168067
 30
0.0
 10
55.82447485631256
 20
-269.2313158135456
 30
0.0
 10
55.82447485631256
 20
-269.2313158135456
 30
0.0
 10
55.82447485631256
 20
-286.1971776676532
 30
0.0
 10
55.82447485631256
 20
-286.1971776676532
 30
0.0
 10
55.82447485631256
 20
-286.8254015705847
 30
0.0
 10
55.31519875924516
 20
-287.3346776676527
 30
0.0
 10
54.68697485631305
 20
-287.3346776676527
 30
0.0
 10
54.68697485631305
 20
-287.3346776676527
 30
0.0
 10
8.23897485631074
 20
-287.3346776676527
 30
0.0
 10
8.23897485631074
 20
-287.3346776676527
 30
0.0
 10
7.61075095337863
 20
-287.3346776676527
 30
0.0
 10
7.101474856311222
 20
-286.8254015705847
 30
0.0
 10
7.101474856311222
 20
-286.1971776676532
 30
0.0
 10
7.101474856311222
 20
-286.1971776676532
 30
0.0
 10
7.101474856311222
 20
-268.595777667527
 30
0.0
 10
7.101474856311222
 20
-268.595777667527
 30
0.0
 10
7.101474856311222
 20
-268.3196352926812
 30
0.0
 10
6.87761723128283
 20
-268.0957776676525
 30
0.0
 10
6.601474856436656
 20
-268.0957776676525
 30
0.0
 10
6.601474856436656
 20
-268.0957776676525
 30
0.0
 10
6.142974856310615
 20
-268.0957776676525
 30
0.0
 10
6.142974856310615
 20
-268.0957776676525
 30
0.0
 10
5.514750953378504
 20
-268.0957776676525
 30
0.0
 10
5.005474856311096
 20
-267.5865015705844
 30
0.0
 10
5.005474856311096
 20
-266.958277667653
 30
0.0
 10
5.005474856311096
 20
-266.958277667653
 30
0.0
 10
5.005474856311096
 20
-249.0825776676528
 30
0.0
 10
5.005474856311096
 20
-249.0825776676528
 30
0.0
 10
5.005474856311096
 20
-248.4543537647201
 30
0.0
 10
5.514750953378504
 20
-247.9450776676527
 30
0.0
 10
6.142974856311256
 20
-247.9450776676527
 30
0.0
 10
6.142974856311256
 20
-247.9450776676527
 30
0.0
 10
7.457474856436288
 20
-247.9450776676527
 30
0.0
 10
7.457474856436288
 20
-247.9450776676527
 30
0.0
 10
7.733617231282462
 20
-247.9450776676527
 30
0.0
 10
7.957474856311174
 20
-247.721220042624
 30
0.0
 10
7.957474856311174
 20
-247.4450776677781
 30
0.0
 10
7.957474856311174
 20
-247.4450776677781
 30
0.0
 10
7.957474856311174
 20
-229.8410776676527
 30
0.0
 10
7.957474856311174
 20
-229.8410776676527
 30
0.0
 10
7.957474856311174
 20
-229.2128537647206
 30
0.0
 10
8.466750953378583
 20
-228.7035776676532
 30
0.0
 10
9.094974856310694
 20
-228.7035776676532
 30
0.0
 10
9.094974856310694
 20
-228.7035776676532
 30
0.0
 10
10.03047485643681
 20
-228.7035776676532
 30
0.0
 10
10.03047485643681
 20
-228.7035776676532
 30
0.0
 10
10.30661723128298
 20
-228.7035776676532
 30
0.0
 10
10.53047485631169
 20
-228.4797200426245
 30
0.0
 10
10.53047485631169
 20
-228.2035776677786
 30
0.0
 10
10.53047485631169
 20
-228.2035776677786
 30
0.0
 10
10.53047485631169
 20
-210.6008776676529
 30
0.0
 10
10.53047485631169
 20
-210.6008776676529
 30
0.0
 10
10.53047485631169
 20
-209.9726537647207
 30
0.0
 10
11.0397509533791
 20
-209.4633776676534
 30
0.0
 10
11.66797485631121
 20
-209.4633776676534
 30
0.0
 10
11.66797485631121
 20
-209.4633776676534
 30
0.0
 10
50.47365955423142
 20
-209.4633776676534
 30
0.0
 10
50.47365955423142
 20
-209.4633776676534
 30
0.0
 10
50.64680640477097
 20
-209.4633776676534
 30
0.0
 10
50.8020546077425
 20
-209.3699420387026
 30
0.0
 10
50.89694831558164
 20
-209.2251144996633
 30
0.0
 10
51.13385642592092
 20
-208.8635434389437
 30
0.0
 10
51.56302236086576
 20
-208.6601683191011
 30
0.0
 10
52.00641525560732
 20
-208.7223907655012
 30
0.0
 10
52.00641525560732
 20
-208.7223907655012
 30
0.0
 10
126.4368435615849
 20
-219.167401027658
 30
0.0
 10
126.4368435615849
 20
-219.167401027658
 30
0.0
 10
127.0587573896178
 20
-219.2546757681619
 30
0.0
 10
127.4922753615097
 20
-219.8294380777759
 30
0.0
 10
127.4053033118853
 20
-220.4513943080788
 30
0.0
 10
127.4053033118853
 20
-220.4513943080788
 30
0.0
 10
124.9915974111435
 20
-237.7123353755395
 30
0.0
 10
124.9915974111435
 20
-237.7123353755395
 30
0.0
 10
124.9533736196995
 20
-237.9856821040237
 30
0.0
 10
125.1438699446781
 20
-238.2382991663039
 30
0.0
 10
125.4171899725437
 20
-238.27671341591
 30
0.0
 10
125.4171899725437
 20
-238.27671341591
 30
0.0
 10
128.4990365096109
 20
-238.7098570206728
 30
0.0
 10
128.4990365096109
 20
-238.7098570206728
 30
0.0
 10
129.12113318691
 20
-238.7972907050158
 30
0.0
 10
129.5545696464177
 20
-239.3724697648209
 30
0.0
 10
129.4671541826775
 20
-239.9945690026946
 30
0.0
 10
129.4671541826775
 20
-239.9945690026946
 30
0.0
 10
127.0441594883086
 20
-257.2380072714448
 30
0.0
 10
127.0441594883086
 20
-257.2380072714448
 30
0.0
 10
127.0057385680848
 20
-257.5114328664955
 30
0.0
 10
127.1962231015309
 20
-257.7642432284581
 30
0.0
 10
127.4696426759908
 20
-257.8027069703693
 30
0.0
 10
127.4696426759908
 20
-257.8027069703693
 30
0.0
 10
135.2789356488464
 20
-258.9012919199228
 30
0.0
 10
135.2789356488464
 20
-258.9012919199228
 30
0.0
 10
135.9009558201785
 20
-258.9887956159578
 30
0.0
 10
136.3343063101404
 20
-259.5639240364092
 30
0.0
 10
136.2469132691388
 20
-260.1859597642804
 30
0.0
 10
136.2469132691388
 20
-260.1859597642804
 30
0.0
 10
131.1098547952378
 20
-296.749899756581
 30
0.0
 10
131.1098547952378
 20
-296.749899756581
 30
0.0
  0
ENDBLK
  5
5C
330
59
100
AcDbEntity
  8
0
100
AcDbBlockEnd
  0
BLOCK
  5
60
330
5E
100
AcDbEntity
  8
0
100
AcDbBlockBegin
  2
block 5
 70
     0
 10
0.0
 20
0.0
 30
0.0
  3
block 5
  1

  0
SPLINE
  5
62
330
5E
100
AcDbEntity
  8
top 290.5
 62
     7
420
 16777215
370
    25
100
AcDbSpline
210
0.0
220
0.0
230
1.0
 70
    11
 71
     3
 72
    20
 73
    16
 74
     0
 42
0.0000000001
 43
0.0000000001
 12
1.0
 22
0.0
 32
0.0
 13
1.0
 23
0.0
 33
0.0
 40
0.0
 40
0.0
 40
0.0
 40
0.0
 40
1.0
 40
1.0
 40
1.0
 40
2.0
 40
2.0
 40
2.0
 40
3.0
 40
3.0
 40
3.0
 40
4.0
 40
4.0
 40
4.0
 40
5.0
 40
5.0
 40
5.0
 40
5.0
 10
284.0544748563121
 20
-219.6188771987264
 30
0.0
 10
284.0544748563121
 20
-219.3427348238119
 30
0.0
 10
284.278332481396
 20
-219.1188771987261
 30
0.0
 10
284.5544748563124
 20
-219.1188771987261
 30
0.0
 10
284.830617231225
 20
-219.1188771987261
 30
0.0
 10
285.0544748563127
 20
-219.3427348238119
 30
0.0
 10
285.0544748563127
 20
-219.6188771987264
 30
0.0
 10
285.0544748563127
 20
-219.8950195736416
 30
0.0
 10
284.830617231225
 20
-220.1188771987268
 30
0.0
 10
284.5544748563124
 20
-220.1188771987268
 30
0.0
 10
284.278332481396
 20
-220.1188771987268
 30
0.0
 10
284.0544748563121
 20
-219.8950195736416
 30
0.0
 10
284.0544748563121
 20
-219.6188771987264
 30
0.0
 10
284.0544748563121
 20
-219.6188771987264
 30
0.0
 10
284.0544748563121
 20
-219.6188771987264
 30
0.0
 10
284.0544748563121
 20
-219.6188771987264
 30
0.0
  0
ENDBLK
  5
61
330
5E
100
AcDbEntity
  8
0
100
AcDbBlockEnd
  0
BLOCK
  5
65
330
63
100
AcDbEntity
  8
0
100
AcDbBlockBegin
  2
block 6
 70
     0
 10
0.0
 20
0.0
 30
0.0
  3
block 6
  1

  0
SPLINE
  5
67
330
63
100
AcDbEntity
  8
top 290.5
 62
     7
420
 16777215
370
    25
100
AcDbSpline
210
0.0
220
0.0
230
1.0
 70
    11
 71
     3
 72
    20
 73
    16
 74
     0
 42
0.0000000001
 43
0.0000000001
 12
1.0
 22
0.0
 32
0.0
 13
1.0
 23
0.0
 33
0.0
 40
0.0
 40
0.0
 40
0.0
 40
0.0
 40
1.0
 40
1.0
 40
1.0
 40
2.0
 40
2.0
 40
2.0
 40
3.0
 40
3.0
 40
3.0
 40
4.0
 40
4.0
 40
4.0
 40
5.0
 40
5.0
 40
5.0
 40
5.0
 10
284.0544748563121
 20
-213.868877198727
 30
0.0
 10
284.0544748563121
 20
-213.5927348238119
 30
0.0
 10
284.278332481396
 20
-213.3688771987267
 30
0.0
 10
284.5544748563124
 20
-213.3688771987267
 30
0.0
 10
284.830617231225
 20
-213.3688771987267
 30
0.0
 10
285.0544748563127
 20
-213.5927348238119
 30
0.0
 10
285.0544748563127
 20
-213.868877198727
 30
0.0
 10
285.0544748563127
 20
-214.1450195736422
 30
0.0
 10
284.830617231225
 20
-214.3688771987261
 30
0.0
 10
284.5544748563124
 20
-214.3688771987261
 30
0.0
 10
284.278332481396
 20
-214.3688771987261
 30
0.0
 10
284.0544748563121
 20
-214.1450195736422
 30
0.0
 10
284.0544748563121
 20
-213.868877198727
 30
0.0
 10
284.0544748563121
 20
-213.868877198727
 30
0.0
 10
284.0544748563121
 20
-213.868877198727
 30
0.0
 10
284.0544748563121
 20
-213.868877198727
 30
0.0
  0
ENDBLK
  5
66
330
63
100
AcDbEntity
  8
0
100
AcDbBlockEnd
  0
BLOCK
  5
6A
330
68
100
AcDbEntity
  8
0
100
AcDbBlockBegin
  2
block 7
 70
     0
 10
0.0
 20
0.0
 30
0.0
  3
block 7
  1

  0
SPLINE
  5
6C
330
68
100
AcDbEntity
  8
top 290.5
 62
     7
420
 16777215
370
    25
100
AcDbSpline
210
0.0
220
0.0
230
1.0
 70
    11
 71
     3
 72
    20
 73
    16
 74
     0
 42
0.0000000001
 43
0.0000000001
 12
1.0
 22
0.0
 32
0.0
 13
1.0
 23
0.0
 33
0.0
 40
0.0
 40
0.0
 40
0.0
 40
0.0
 40
1.0
 40
1.0
 40
1.0
 40
2.0
 40
2.0
 40
2.0
 40
3.0
 40
3.0
 40
3.0
 40
4.0
 40
4.0
 40
4.0
 40
5.0
 40
5.0
 40
5.0
 40
5.0
 10
284.0544748563121
 20
-225.3688771987271
 30
0.0
 10
284.0544748563121
 20
-225.092734823812
 30
0.0
 10
284.278332481396
 20
-224.8688771987268
 30
0.0
 10
284.5544748563124
 20
-224.8688771987268
 30
0.0
 10
284.830617231225
 20
-224.8688771987268
 30
0.0
 10
285.0544748563127
 20
-225.092734823812
 30
0.0
 10
285.0544748563127
 20
-225.3688771987271
 30
0.0
 10
285.0544748563127
 20
-225.6450195736423
 30
0.0
 10
284.830617231225
 20
-225.8688771987268
 30
0.0
 10
284.5544748563124
 20
-225.8688771987268
 30
0.0
 10
284.278332481396
 20
-225.8688771987268
 30
0.0
 10
284.0544748563121
 20
-225.6450195736423
 30
0.0
 10
284.0544748563121
 20
-225.3688771987271
 30
0.0
 10
284.0544748563121
 20
-225.3688771987271
 30
0.0
 10
284.0544748563121
 20
-225.3688771987271
 30
0.0
 10
284.0544748563121
 20
-225.3688771987271
 30
0.0
  0
ENDBLK
  5
6B
330
68
100
AcDbEntity
  8
0
100
AcDbBlockEnd
  0
BLOCK
  5
76
330
74
100
AcDbEntity
  8
0
100
AcDbBlockBegin
  2
block 8
 70
     0
 10
0.0
 20
0.0
 30
0.0
  3
block 8
  1

  0
SPLINE
  5
78
330
74
100
AcDbEntity
  8
top 292.5
 62
     7
420
 16777215
370
    25
100
AcDbSpline
210
0.0
220
0.0
230
1.0
 70
    11
 71
     3
 72
    59
 73
    55
 74
     0
 42
0.0000000001
 43
0.0000000001
 12
1.0
 22
0.0
 32
0.0
 13
1.0
 23
0.0
 33
0.0
 40
0.0
 40
0.0
 40
0.0
 40
0.0
 40
1.0
 40
1.0
 40
1.0
 40
2.0
 40
2.0
 40
2.0
 40
3.0
 40
3.0
 40
3.0
 40
4.0
 40
4.0
 40
4.0
 40
5.0
 40
5.0
 40
5.0
 40
6.0
 40
6.0
 40
6.0
 40
7.0
 40
7.0
 40
7.0
 40
8.0
 40
8.0
 40
8.0
 40
9.0
 40
9.0
 40
9.0
 40
10.0
 40
10.0
 40
10.0
 40
11.0
 40
11.0
 40
11.0
 40
12.0
 40
12.0
 40
12.0
 40
13.0
 40
13.0
 40
13.0
 40
14.0
 40
14.0
 40
14.0
 40
15.0
 40
15.0
 40
15.0
 40
16.0
 40
16.0
 40
16.0
 40
17.0
 40
17.0
 40
17.0
 40
18.0
 40
18.0
 40
18.0
 40
18.0
 10
0.0
 20
-107.7620999730603
 30
0.0
 10
0.0
 20
-103.8961067252107
 30
0.0
 10
3.134006750401007
 20
-100.76209997481
 30
0.0
 10
6.999999998250013
 20
-100.76209997481
 30
0.0
 10
6.999999998250013
 20
-100.76209997481
 30
0.0
 10
53.15052329378549
 20
-100.76209997481
 30
0.0
 10
53.15052329378549
 20
-100.76209997481
 30
0.0
 10
71.84504447174308
 20
-101.2745933349402
 30
0.0
 10
84.76930081051253
 20
-103.5485067148642
 30
0.0
 10
98.8893225311288
 20
-106.1746778118933
 30
0.0
 10
116.1477838743197
 20
-109.3845646842723
 30
0.0
 10
131.1405134121505
 20
-112.3431003325387
 30
0.0
 10
150.1584423312065
 20
-111.377590931783
 30
0.0
 10
167.128338180033
 20
-110.5160568477292
 30
0.0
 10
182.4813305201829
 20
-106.875571695218
 30
0.0
 10
199.3443879480547
 20
-104.2678876551027
 30
0.0
 10
208.9908816817581
 20
-102.7761648248832
 30
0.0
 10
219.3508654684275
 20
-101.1198292528843
 30
0.0
 10
233.797744749356
 20
-100.76209997481
 30
0.0
 10
233.797744749356
 20
-100.76209997481
 30
0.0
 10
285.4999999286246
 20
-100.76209997481
 30
0.0
 10
285.4999999286246
 20
-100.76209997481
 30
0.0
 10
289.3659931764743
 20
-100.76209997481
 30
0.0
 10
292.4999999268749
 20
-103.8961067252107
 30
0.0
 10
292.4999999268749
 20
-107.762099973059
 30
0.0
 10
292.4999999268749
 20
-107.762099973059
 30
0.0
 10
292.4999999268749
 20
-183.075374526609
 30
0.0
 10
292.4999999268749
 20
-183.075374526609
 30
0.0
 10
292.4999999268749
 20
-191.3148161321198
 30
0.0
 10
285.8540831298308
 20
-198.01182965354
 30
0.0
 10
277.6148831844988
 20
-198.074934577673
 30
0.0
 10
277.6148831844988
 20
-198.074934577673
 30
0.0
 10
233.797744749356
 20
-198.4105347833942
 30
0.0
 10
233.797744749356
 20
-198.4105347833942
 30
0.0
 10
219.3508654684275
 20
-198.7682640614684
 30
0.0
 10
208.9908816817581
 20
-199.9749936661955
 30
0.0
 10
199.3443879480547
 20
-201.4667164964125
 30
0.0
 10
182.4813305201829
 20
-204.0744005365291
 30
0.0
 10
167.128338180033
 20
-207.7148856890402
 30
0.0
 10
150.1584423312065
 20
-208.5764197730954
 30
0.0
 10
131.1405134121505
 20
-209.5419291738498
 30
0.0
 10
116.1477838743197
 20
-206.5833935255834
 30
0.0
 10
98.8893225311288
 20
-203.3735066532044
 30
0.0
 10
84.76930081051253
 20
-200.747335556174
 30
0.0
 10
71.84504447174308
 20
-198.4734221762513
 30
0.0
 10
53.15052329378549
 20
-197.9609288161197
 30
0.0
 10
53.15052329378549
 20
-197.9609288161197
 30
0.0
 10
14.99999999625012
 20
-197.9609288161197
 30
0.0
 10
14.99999999625012
 20
-197.9609288161197
 30
0.0
 10
6.715728750859118
 20
-197.9609288161197
 30
0.0
 10
0.0
 20
-191.245200065261
 30
0.0
 10
0.0
 20
-182.96092881987
 30
0.0
 10
0.0
 20
-182.96092881987
 30
0.0
 10
0.0
 20
-107.7620999730603
 30
0.0
 10
0.0
 20
-107.7620999730603
 30
0.0
  0
INSERT
  5
7A
330
74
100
AcDbEntity
  8
top 292.5
100
AcDbBlockReference
  2
block 9
 10
0.0
 20
0.0
 30
0.0
  0
INSERT
  5
7F
330
74
100
AcDbEntity
  8
top 292.5
100
AcDbBlockReference
  2
block 10
 10
0.0
 20
0.0
 30
0.0
  0
INSERT
  5
84
330
74
100
AcDbEntity
  8
top 292.5
100
AcDbBlockReference
  2
block 11
 10
0.0
 20
0.0
 30
0.0
  0
INSERT
  5
89
330
74
100
AcDbEntity
  8
top 292.5
100
AcDbBlockReference
  2
block 12
 10
0.0
 20
0.0
 30
0.0
  0
INSERT
  5
8E
330
74
100
AcDbEntity
  8
top 292.5
100
AcDbBlockReference
  2
block 13
 10
0.0
 20
0.0
 30
0.0
  0
ENDBLK
  5
77
330
74
100
AcDbEntity
  8
0
100
AcDbBlockEnd
  0
BLOCK
  5
7B
330
79
100
AcDbEntity
  8
0
100
AcDbBlockBegin
  2
block 9
 70
     0
 10
0.0
 20
0.0
 30
0.0
  3
block 9
  1

  0
SPLINE
  5
7D
330
79
100
AcDbEntity
  8
top 292.5
 62
     7
420
 16777215
370
    25
100
AcDbSpline
210
0.0
220
0.0
230
1.0
 70
    11
 71
     3
 72
   101
 73
    97
 74
     0
 42
0.0000000001
 43
0.0000000001
 12
1.0
 22
0.0
 32
0.0
 13
1.0
 23
0.0
 33
0.0
 40
0.0
 40
0.0
 40
0.0
 40
0.0
 40
1.0
 40
1.0
 40
1.0
 40
2.0
 40
2.0
 40
2.0
 40
3.0
 40
3.0
 40
3.0
 40
4.0
 40
4.0
 40
4.0
 40
5.0
 40
5.0
 40
5.0
 40
6.0
 40
6.0
 40
6.0
 40
7.0
 40
7.0
 40
7.0
 40
8.0
 40
8.0
 40
8.0
 40
9.0
 40
9.0
 40
9.0
 40
10.0
 40
10.0
 40
10.0
 40
11.0
 40
11.0
 40
11.0
 40
12.0
 40
12.0
 40
12.0
 40
13.0
 40
13.0
 40
13.0
 40
14.0
 40
14.0
 40
14.0
 40
15.0
 40
15.0
 40
15.0
 40
16.0
 40
16.0
 40
16.0
 40
17.0
 40
17.0
 40
17.0
 40
18.0
 40
18.0
 40
18.0
 40
19.0
 40
19.0
 40
19.0
 40
20.0
 40
20.0
 40
20.0
 40
21.0
 40
21.0
 40
21.0
 40
22.0
 40
22.0
 40
22.0
 40
23.0
 40
23.0
 40
23.0
 40
24.0
 40
24.0
 40
24.0
 40
25.0
 40
25.0
 40
25.0
 40
26.0
 40
26.0
 40
26.0
 40
27.0
 40
27.0
 40
27.0
 40
28.0
 40
28.0
 40
28.0
 40
29.0
 40
29.0
 40
29.0
 40
30.0
 40
30.0
 40
30.0
 40
31.0
 40
31.0
 40
31.0
 40
32.0
 40
32.0
 40
32.0
 40
32.0
 10
147.2488727232742
 20
-140.8272899014711
 30
0.0
 10
146.6267848983901
 20
-140.9147160351982
 30
0.0
 10
146.0516036119894
 20
-140.4813053099861
 30
0.0
 10
145.9641455100637
 20
-139.8592219786444
 30
0.0
 10
145.9641455100637
 20
-139.8592219786444
 30
0.0
 10
143.4756419747456
 20
-122.1586712549581
 30
0.0
 10
143.4756419747456
 20
-122.1586712549581
 30
0.0
 10
143.3881971252166
 20
-121.5366821869671
 30
0.0
 10
143.8214366832779
 20
-120.9615383674303
 30
0.0
 10
144.4434024968285
 20
-120.8739282699095
 30
0.0
 10
144.4434024968285
 20
-120.8739282699095
 30
0.0
 10
221.6918887427941
 20
-109.9927073638116
 30
0.0
 10
221.6918887427941
 20
-109.9927073638116
 30
0.0
 10
221.744451830518
 20
-109.9853033286634
 30
0.0
 10
221.7974687046694
 20
-109.9815876917697
 30
0.0
 10
221.8505506802163
 20
-109.9815876925603
 30
0.0
 10
221.8505506802163
 20
-109.9815876925603
 30
0.0
 10
278.2409748563111
 20
-109.9815876925603
 30
0.0
 10
278.2409748563111
 20
-109.9815876925603
 30
0.0
 10
278.8691987592438
 20
-109.9815876925603
 30
0.0
 10
279.3784748563132
 20
-110.4908637896283
 30
0.0
 10
279.3784748563132
 20
-111.1190876925611
 30
0.0
 10
279.3784748563132
 20
-111.1190876925611
 30
0.0
 10
279.3784748563132
 20
-129.2217876925614
 30
0.0
 10
279.3784748563132
 20
-129.2217876925614
 30
0.0
 10
279.3784748563132
 20
-129.2217876925614
 30
0.0
 10
280.9079748563109
 20
-129.2217876925614
 30
0.0
 10
280.9079748563109
 20
-129.2217876925614
 30
0.0
 10
281.5361987592449
 20
-129.2217876925614
 30
0.0
 10
282.045474856313
 20
-129.7310637896282
 30
0.0
 10
282.045474856313
 20
-130.359287692561
 30
0.0
 10
282.045474856313
 20
-130.359287692561
 30
0.0
 10
282.045474856313
 20
-148.4632876925609
 30
0.0
 10
282.045474856313
 20
-148.4632876925609
 30
0.0
 10
282.045474856313
 20
-148.4632876925609
 30
0.0
 10
283.5749748563107
 20
-148.4632876925609
 30
0.0
 10
283.5749748563107
 20
-148.4632876925609
 30
0.0
 10
284.2031987592447
 20
-148.4632876925609
 30
0.0
 10
284.7124748563128
 20
-148.972563789629
 30
0.0
 10
284.7124748563128
 20
-149.6007876925604
 30
0.0
 10
284.7124748563128
 20
-149.6007876925604
 30
0.0
 10
284.7124748563128
 20
-167.4764876925612
 30
0.0
 10
284.7124748563128
 20
-167.4764876925612
 30
0.0
 10
284.7124748563128
 20
-168.1047115954927
 30
0.0
 10
284.2031987592447
 20
-168.6139876925607
 30
0.0
 10
283.5749748563107
 20
-168.6139876925607
 30
0.0
 10
283.5749748563107
 20
-168.6139876925607
 30
0.0
 10
282.6134748563128
 20
-168.6139876925607
 30
0.0
 10
282.6134748563128
 20
-168.6139876925607
 30
0.0
 10
282.6134748563128
 20
-168.6139876925607
 30
0.0
 10
282.6134748563128
 20
-186.7153876925601
 30
0.0
 10
282.6134748563128
 20
-186.7153876925601
 30
0.0
 10
282.6134748563128
 20
-187.3436115954929
 30
0.0
 10
282.1041987592447
 20
-187.852887692561
 30
0.0
 10
281.4759748563107
 20
-187.852887692561
 30
0.0
 10
281.4759748563107
 20
-187.852887692561
 30
0.0
 10
235.0279748563109
 20
-187.852887692561
 30
0.0
 10
235.0279748563109
 20
-187.852887692561
 30
0.0
 10
234.3997509533782
 20
-187.852887692561
 30
0.0
 10
233.8904748563127
 20
-187.3436115954929
 30
0.0
 10
233.8904748563127
 20
-186.7153876925601
 30
0.0
 10
233.8904748563127
 20
-186.7153876925601
 30
0.0
 10
233.8904748563127
 20
-168.6139876925607
 30
0.0
 10
233.8904748563127
 20
-168.6139876925607
 30
0.0
 10
233.8904748563127
 20
-168.6139876925607
 30
0.0
 10
223.2933381873131
 20
-168.6139876925607
 30
0.0
 10
223.2933381873131
 20
-168.6139876925607
 30
0.0
 10
223.2933381873131
 20
-168.6139876925607
 30
0.0
 10
213.8246371082958
 20
-169.9447640295678
 30
0.0
 10
213.8246371082958
 20
-169.9447640295678
 30
0.0
 10
213.8246371082958
 20
-169.9447640295678
 30
0.0
 10
216.3169645261531
 20
-187.6832775060136
 30
0.0
 10
216.3169645261531
 20
-187.6832775060136
 30
0.0
 10
216.4043706062988
 20
-188.3053682953509
 30
0.0
 10
215.9709411053128
 20
-188.8805356870539
 30
0.0
 10
215.3488547799241
 20
-188.967973532357
 30
0.0
 10
215.3488547799241
 20
-188.967973532357
 30
0.0
 10
150.4881257406967
 20
-198.0845256257654
 30
0.0
 10
150.4881257406967
 20
-198.0845256257654
 30
0.0
 10
149.8660312736343
 20
-198.1719646059748
 30
0.0
 10
149.2908366101791
 20
-197.7385522613813
 30
0.0
 10
149.2033773552411
 20
-197.1164606615024
 30
0.0
 10
149.2033773552411
 20
-197.1164606615024
 30
0.0
 10
144.0626977223658
 20
-160.5511677838698
 30
0.0
 10
144.0626977223658
 20
-160.5511677838698
 30
0.0
 10
143.9752400035241
 20
-159.9290871773555
 30
0.0
 10
144.408617076614
 20
-159.3538853459064
 30
0.0
 10
145.0306926460128
 20
-159.2663918058932
 30
0.0
 10
145.0306926460128
 20
-159.2663918058932
 30
0.0
 10
153.3375762968817
 20
-158.0980471660268
 30
0.0
 10
153.3375762968817
 20
-158.0980471660268
 30
0.0
 10
153.3375762968817
 20
-158.0980471660268
 30
0.0
 10
150.8373147062683
 20
-140.322982316382
 30
0.0
 10
150.8373147062683
 20
-140.322982316382
 30
0.0
 10
150.8373147062683
 20
-140.322982316382
 30
0.0
 10
147.2488727232742
 20
-140.8272899014711
 30
0.0
 10
147.2488727232742
 20
-140.8272899014711
 30
0.0
  0
ENDBLK
  5
7C
330
79
100
AcDbEntity
  8
0
100
AcDbBlockEnd
  0
BLOCK
  5
80
330
7E
100
AcDbEntity
  8
0
100
AcDbBlockBegin
  2
block 10
 70
     0
 10
0.0
 20
0.0
 30
0.0
  3
block 10
  1

  0
SPLINE
  5
82
330
7E
100
AcDbEntity
  8
top 292.5
 62
     7
420
 16777215
370
    25
100
AcDbSpline
210
0.0
220
0.0
230
1.0
 70
    11
 71
     3
 72
    98
 73
    94
 74
     0
 42
0.0000000001
 43
0.0000000001
 12
1.0
 22
0.0
 32
0.0
 13
1.0
 23
0.0
 33
0.0
 40
0.0
 40
0.0
 40
0.0
 40
0.0
 40
1.0
 40
1.0
 40
1.0
 40
2.0
 40
2.0
 40
2.0
 40
3.0
 40
3.0
 40
3.0
 40
4.0
 40
4.0
 40
4.0
 40
5.0
 40
5.0
 40
5.0
 40
6.0
 40
6.0
 40
6.0
 40
7.0
 40
7.0
 40
7.0
 40
8.0
 40
8.0
 40
8.0
 40
9.0
 40
9.0
 40
9.0
 40
10.0
 40
10.0
 40
10.0
 40
11.0
 40
11.0
 40
11.0
 40
12.0
 40
12.0
 40
12.0
 40
13.0
 40
13.0
 40
13.0
 40
14.0
 40
14.0
 40
14.0
 40
15.0
 40
15.0
 40
15.0
 40
16.0
 40
16.0
 40
16.0
 40
17.0
 40
17.0
 40
17.0
 40
18.0
 40
18.0
 40
18.0
 40
19.0
 40
19.0
 40
19.0
 40
20.0
 40
20.0
 40
20.0
 40
21.0
 40
21.0
 40
21.0
 40
22.0
 40
22.0
 40
22.0
 40
23.0
 40
23.0
 40
23.0
 40
24.0
 40
24.0
 40
24.0
 40
25.0
 40
25.0
 40
25.0
 40
26.0
 40
26.0
 40
26.0
 40
27.0
 40
27.0
 40
27.0
 40
28.0
 40
28.0
 40
28.0
 40
29.0
 40
29.0
 40
29.0
 40
30.0
 40
30.0
 40
30.0
 40
31.0
 40
31.0
 40
31.0
 40
31.0
 10
131.1098547952381
 20
-197.1162997814891
 30
0.0
 10
131.0224220920427
 20
-197.7384519321985
 30
0.0
 10
130.4472281709306
 20
-198.171898859981
 30
0.0
 10
129.8251173999759
 20
-198.0844719712181
 30
0.0
 10
129.8251173999759
 20
-198.0844719712181
 30
0.0
 10
69.677975599378
 20
-189.6318334360873
 30
0.0
 10
69.677975599378
 20
-189.6318334360873
 30
0.0
 10
69.05580739161711
 20
-189.5443634032233
 30
0.0
 10
68.62239226223328
 20
-188.9691455212757
 30
0.0
 10
68.70985354224925
 20
-188.3470395843862
 30
0.0
 10
68.70985354224925
 20
-188.3470395843862
 30
0.0
 10
71.20360840966183
 20
-170.609136504649
 30
0.0
 10
71.20360840966183
 20
-170.609136504649
 30
0.0
 10
71.20360840966183
 20
-170.609136504649
 30
0.0
 10
55.82447485631289
 20
-168.4473160072521
 30
0.0
 10
55.82447485631289
 20
-168.4473160072521
 30
0.0
 10
55.82447485631289
 20
-168.4473160072521
 30
0.0
 10
55.82447485631289
 20
-186.5635776925601
 30
0.0
 10
55.82447485631289
 20
-186.5635776925601
 30
0.0
 10
55.82447485631289
 20
-187.1918015954928
 30
0.0
 10
55.31519875924484
 20
-187.7010776925609
 30
0.0
 10
54.6869748563108
 20
-187.7010776925609
 30
0.0
 10
54.6869748563108
 20
-187.7010776925609
 30
0.0
 10
8.238974856311703
 20
-187.7010776925609
 30
0.0
 10
8.238974856311703
 20
-187.7010776925609
 30
0.0
 10
7.610750953378951
 20
-187.7010776925609
 30
0.0
 10
7.101474856311542
 20
-187.1918015954928
 30
0.0
 10
7.101474856311542
 20
-186.5635776925601
 30
0.0
 10
7.101474856311542
 20
-186.5635776925601
 30
0.0
 10
7.101474856311542
 20
-168.4621776925594
 30
0.0
 10
7.101474856311542
 20
-168.4621776925594
 30
0.0
 10
7.101474856311542
 20
-168.4621776925594
 30
0.0
 10
6.142974856311578
 20
-168.4621776925594
 30
0.0
 10
6.142974856311578
 20
-168.4621776925594
 30
0.0
 10
5.514750953379467
 20
-168.4621776925594
 30
0.0
 10
5.005474856311417
 20
-167.9529015954926
 30
0.0
 10
5.005474856311417
 20
-167.3246776925598
 30
0.0
 10
5.005474856311417
 20
-167.3246776925598
 30
0.0
 10
5.005474856311417
 20
-149.4489776925617
 30
0.0
 10
5.005474856311417
 20
-149.4489776925617
 30
0.0
 10
5.005474856311417
 20
-148.8207537896276
 30
0.0
 10
5.514750953379467
 20
-148.3114776925609
 30
0.0
 10
6.142974856311578
 20
-148.3114776925609
 30
0.0
 10
6.142974856311578
 20
-148.3114776925609
 30
0.0
 10
7.957474856311496
 20
-148.3114776925609
 30
0.0
 10
7.957474856311496
 20
-148.3114776925609
 30
0.0
 10
7.957474856311496
 20
-148.3114776925609
 30
0.0
 10
7.957474856311496
 20
-130.2074776925609
 30
0.0
 10
7.957474856311496
 20
-130.2074776925609
 30
0.0
 10
7.957474856311496
 20
-129.5792537896282
 30
0.0
 10
8.466750953379545
 20
-129.0699776925601
 30
0.0
 10
9.094974856312298
 20
-129.0699776925601
 30
0.0
 10
9.094974856312298
 20
-129.0699776925601
 30
0.0
 10
10.53047485631201
 20
-129.0699776925601
 30
0.0
 10
10.53047485631201
 20
-129.0699776925601
 30
0.0
 10
10.53047485631201
 20
-129.0699776925601
 30
0.0
 10
10.53047485631201
 20
-110.9672776925598
 30
0.0
 10
10.53047485631201
 20
-110.9672776925598
 30
0.0
 10
10.53047485631201
 20
-110.3390537896283
 30
0.0
 10
11.03975095337878
 20
-109.8297776925603
 30
0.0
 10
11.66797485631153
 20
-109.8297776925603
 30
0.0
 10
11.66797485631153
 20
-109.8297776925603
 30
0.0
 10
50.77814204691742
 20
-109.8297776925603
 30
0.0
 10
50.77814204691742
 20
-109.8297776925603
 30
0.0
 10
50.96060095463203
 20
-109.3232176317893
 30
0.0
 10
51.47322143371465
 20
-109.0139663527672
 30
0.0
 10
52.00641525560764
 20
-109.0887907904088
 30
0.0
 10
52.00641525560764
 20
-109.0887907904088
 30
0.0
 10
126.4368435615845
 20
-119.5338010525649
 30
0.0
 10
126.4368435615845
 20
-119.5338010525649
 30
0.0
 10
127.0587573896188
 20
-119.62107579307
 30
0.0
 10
127.4922753615101
 20
-120.1958381026828
 30
0.0
 10
127.4053033118856
 20
-120.8177943329857
 30
0.0
 10
127.4053033118856
 20
-120.8177943329857
 30
0.0
 10
124.9224012319336
 20
-138.5735724769429
 30
0.0
 10
124.9224012319336
 20
-138.5735724769429
 30
0.0
 10
124.9224012319336
 20
-138.5735724769429
 30
0.0
 10
128.4990365096112
 20
-139.0762570455797
 30
0.0
 10
128.4990365096112
 20
-139.0762570455797
 30
0.0
 10
129.121133202391
 20
-139.1636907415528
 30
0.0
 10
129.5545696533291
 20
-139.7388698078173
 30
0.0
 10
129.4671541803189
 20
-140.3609690443884
 30
0.0
 10
129.4671541803189
 20
-140.3609690443884
 30
0.0
 10
126.9745954490433
 20
-158.0994654240442
 30
0.0
 10
126.9745954490433
 20
-158.0994654240442
 30
0.0
 10
126.9745954490433
 20
-158.0994654240442
 30
0.0
 10
135.2789356488425
 20
-159.267691944831
 30
0.0
 10
135.2789356488425
 20
-159.267691944831
 30
0.0
 10
135.9009558201759
 20
-159.355195640866
 30
0.0
 10
136.33430631014
 20
-159.9303240613174
 30
0.0
 10
136.2469132691392
 20
-160.5523597891886
 30
0.0
 10
136.2469132691392
 20
-160.5523597891886
 30
0.0
 10
131.1098547952381
 20
-197.1162997814891
 30
0.0
 10
131.1098547952381
 20
-197.1162997814891
 30
0.0
  0
ENDBLK
  5
81
330
7E
100
AcDbEntity
  8
0
100
AcDbBlockEnd
  0
BLOCK
  5
85
330
83
100
AcDbEntity
  8
0
100
AcDbBlockBegin
  2
block 11
 70
     0
 10
0.0
 20
0.0
 30
0.0
  3
block 11
  1

  0
SPLINE
  5
87
330
83
100
AcDbEntity
  8
top 292.5
 62
     7
420
 16777215
370
    25
100
AcDbSpline
210
0.0
220
0.0
230
1.0
 70
    11
 71
     3
 72
    20
 73
    16
 74
     0
 42
0.0000000001
 43
0.0000000001
 12
1.0
 22
0.0
 32
0.0
 13
1.0
 23
0.0
 33
0.0
 40
0.0
 40
0.0
 40
0.0
 40
0.0
 40
1.0
 40
1.0
 40
1.0
 40
2.0
 40
2.0
 40
2.0
 40
3.0
 40
3.0
 40
3.0
 40
4.0
 40
4.0
 40
4.0
 40
5.0
 40
5.0
 40
5.0
 40
5.0
 10
284.0544748563127
 20
-119.9852772236346
 30
0.0
 10
284.0544748563127
 20
-119.7091348487194
 30
0.0
 10
284.2783324813966
 20
-119.4852772236343
 30
0.0
 10
284.554474856313
 20
-119.4852772236343
 30
0.0
 10
284.8306172312256
 20
-119.4852772236343
 30
0.0
 10
285.0544748563134
 20
-119.7091348487194
 30
0.0
 10
285.0544748563134
 20
-119.9852772236346
 30
0.0
 10
285.0544748563134
 20
-120.2614195985498
 30
0.0
 10
284.8306172312256
 20
-120.4852772236336
 30
0.0
 10
284.554474856313
 20
-120.4852772236336
 30
0.0
 10
284.2783324813966
 20
-120.4852772236336
 30
0.0
 10
284.0544748563127
 20
-120.2614195985498
 30
0.0
 10
284.0544748563127
 20
-119.9852772236346
 30
0.0
 10
284.0544748563127
 20
-119.9852772236346
 30
0.0
 10
284.0544748563127
 20
-119.9852772236346
 30
0.0
 10
284.0544748563127
 20
-119.9852772236346
 30
0.0
  0
ENDBLK
  5
86
330
83
100
AcDbEntity
  8
0
100
AcDbBlockEnd
  0
BLOCK
  5
8A
330
88
100
AcDbEntity
  8
0
100
AcDbBlockBegin
  2
block 12
 70
     0
 10
0.0
 20
0.0
 30
0.0
  3
block 12
  1

  0
SPLINE
  5
8C
330
88
100
AcDbEntity
  8
top 292.5
 62
     7
420
 16777215
370
    25
100
AcDbSpline
210
0.0
220
0.0
230
1.0
 70
    11
 71
     3
 72
    20
 73
    16
 74
     0
 42
0.0000000001
 43
0.0000000001
 12
1.0
 22
0.0
 32
0.0
 13
1.0
 23
0.0
 33
0.0
 40
0.0
 40
0.0
 40
0.0
 40
0.0
 40
1.0
 40
1.0
 40
1.0
 40
2.0
 40
2.0
 40
2.0
 40
3.0
 40
3.0
 40
3.0
 40
4.0
 40
4.0
 40
4.0
 40
5.0
 40
5.0
 40
5.0
 40
5.0
 10
284.0544748563127
 20
-114.2352772236339
 30
0.0
 10
284.0544748563127
 20
-113.9591348487188
 30
0.0
 10
284.2783324813966
 20
-113.7352772236349
 30
0.0
 10
284.554474856313
 20
-113.7352772236349
 30
0.0
 10
284.8306172312256
 20
-113.7352772236349
 30
0.0
 10
285.0544748563134
 20
-113.9591348487188
 30
0.0
 10
285.0544748563134
 20
-114.2352772236339
 30
0.0
 10
285.0544748563134
 20
-114.5114195985491
 30
0.0
 10
284.8306172312256
 20
-114.7352772236343
 30
0.0
 10
284.554474856313
 20
-114.7352772236343
 30
0.0
 10
284.2783324813966
 20
-114.7352772236343
 30
0.0
 10
284.0544748563127
 20
-114.5114195985491
 30
0.0
 10
284.0544748563127
 20
-114.2352772236339
 30
0.0
 10
284.0544748563127
 20
-114.2352772236339
 30
0.0
 10
284.0544748563127
 20
-114.2352772236339
 30
0.0
 10
284.0544748563127
 20
-114.2352772236339
 30
0.0
  0
ENDBLK
  5
8B
330
88
100
AcDbEntity
  8
0
100
AcDbBlockEnd
  0
BLOCK
  5
8F
330
8D
100
AcDbEntity
  8
0
100
AcDbBlockBegin
  2
block 13
 70
     0
 10
0.0
 20
0.0
 30
0.0
  3
block 13
  1

  0
SPLINE
  5
91
330
8D
100
AcDbEntity
  8
top 292.5
 62
     7
420
 16777215
370
    25
100
AcDbSpline
210
0.0
220
0.0
230
1.0
 70
    11
 71
     3
 72
    20
 73
    16
 74
     0
 42
0.0000000001
 43
0.0000000001
 12
1.0
 22
0.0
 32
0.0
 13
1.0
 23
0.0
 33
0.0
 40
0.0
 40
0.0
 40
0.0
 40
0.0
 40
1.0
 40
1.0
 40
1.0
 40
2.0
 40
2.0
 40
2.0
 40
3.0
 40
3.0
 40
3.0
 40
4.0
 40
4.0
 40
4.0
 40
5.0
 40
5.0
 40
5.0
 40
5.0
 10
284.0544748563127
 20
-125.735277223634
 30
0.0
 10
284.0544748563127
 20
-125.4591348487201
 30
0.0
 10
284.2783324813966
 20
-125.2352772236337
 30
0.0
 10
284.554474856313
 20
-125.2352772236337
 30
0.0
 10
284.8306172312256
 20
-125.2352772236337
 30
0.0
 10
285.0544748563134
 20
-125.4591348487201
 30
0.0
 10
285.0544748563134
 20
-125.735277223634
 30
0.0
 10
285.0544748563134
 20
-126.0114195985492
 30
0.0
 10
284.8306172312256
 20
-126.2352772236343
 30
0.0
 10
284.554474856313
 20
-126.2352772236343
 30
0.0
 10
284.2783324813966
 20
-126.2352772236343
 30
0.0
 10
284.0544748563127
 20
-126.0114195985492
 30
0.0
 10
284.0544748563127
 20
-125.735277223634
 30
0.0
 10
284.0544748563127
 20
-125.735277223634
 30
0.0
 10
284.0544748563127
 20
-125.735277223634
 30
0.0
 10
284.0544748563127
 20
-125.735277223634
 30
0.0
  0
ENDBLK
  5
90
330
8D
100
AcDbEntity
  8
0
100
AcDbBlockEnd
  0
BLOCK
  5
9D
330
9B
100
AcDbEntity
  8
0
100
AcDbBlockBegin
  2
block 14
 70
     0
 10
0.0
 20
0.0
 30
0.0
  3
block 14
  1

  0
POLYLINE
  5
9F
330
9B
100
AcDbEntity
  8
mid 292.5
 62
     7
420
 16777215
370
    25
100
AcDb2dPolyline
 66
     1
 10
0.0
 20
0.0
 30
0.0
  0
VERTEX
  5
A0
330
9F
100
AcDbEntity
  8
mid 292.5
 62
     7
420
 16777215
370
    25
100
AcDbVertex
100
AcDb2dVertex
 10
58.05988383372694
 20
-89.50866236789292
 30
0.0
  0
VERTEX
  5
B2
330
9F
100
AcDbEntity
  8
0
100
AcDbVertex
100
AcDb2dVertex
 10
58.05988383372694
 20
-89.50866236789292
 30
0.0
  0
SEQEND
  5
A1
330
9F
100
AcDbEntity
  8
mid 292.5
 62
     7
420
 16777215
370
    25
  0
ENDBLK
  5
9E
330
9B
100
AcDbEntity
  8
0
100
AcDbBlockEnd
  0
BLOCK
  5
AC
330
AA
100
AcDbEntity
  8
0
100
AcDbBlockBegin
  2
block 15
 70
     0
 10
0.0
 20
0.0
 30
0.0
  3
block 15
  1

  0
POLYLINE
  5
AE
330
AA
100
AcDbEntity
  8
Mid 294.5
 62
     7
420
 16777215
370
    25
100
AcDb2dPolyline
 66
     1
 10
0.0
 20
0.0
 30
0.0
  0
VERTEX
  5
AF
330
AE
100
AcDbEntity
  8
Mid 294.5
 62
     7
420
 16777215
370
    25
100
AcDbVertex
100
AcDb2dVertex
 10
386.0086622937669
 20
-235.4401160928984
 30
0.0
  0
VERTEX
  5
B3
330
AE
100
AcDbEntity
  8
0
100
AcDbVertex
100
AcDb2dVertex
 10
386.0086622937669
 20
-235.4401160928984
 30
0.0
  0
SEQEND
  5
B0
330
AE
100
AcDbEntity
  8
Mid 294.5
 62
     7
420
 16777215
370
    25
  0
ENDBLK
  5
AD
330
AA
100
AcDbEntity
  8
0
100
AcDbBlockEnd
  0
ENDSEC
  0
SECTION
  2
ENTITIES
  0
SPLINE
  5
41
330
1F
100
AcDbEntity
  8
bot 290.5
 62
     7
420
 16777215
370
    25
100
AcDbSpline
210
0.0
220
0.0
230
1.0
 70
    11
 71
     3
 72
    17
 73
    13
 74
     0
 42
0.0000000001
 43
0.0000000001
 12
1.0
 22
0.0
 32
0.0
 13
1.0
 23
0.0
 33
0.0
 40
0.0
 40
0.0
 40
0.0
 40
0.0
 40
1.0
 40
1.0
 40
1.0
 40
2.0
 40
2.0
 40
2.0
 40
3.0
 40
3.0
 40
3.0
 40
4.0
 40
4.0
 40
4.0
 40
4.0
 10
245.7633999385587
 20
-302.8872510904738
 30
0.0
 10
245.7633999385587
 20
-303.5250295193829
 30
0.0
 10
245.2462888247067
 20
-304.0420510901846
 30
0.0
 10
244.6083999388469
 20
-304.0420510901846
 30
0.0
 10
243.9705110529885
 20
-304.0420510901846
 30
0.0
 10
243.4533999391365
 20
-303.5250295193829
 30
0.0
 10
243.4533999391365
 20
-302.8872510904738
 30
0.0
 10
243.4533999391365
 20
-302.2494726615633
 30
0.0
 10
243.9705110529885
 20
-301.7324510907624
 30
0.0
 10
244.6083999388469
 20
-301.7324510907624
 30
0.0
 10
245.2462888247067
 20
-301.7324510907624
 30
0.0
 10
245.7633999385587
 20
-302.2494726615633
 30
0.0
 10
245.7633999385587
 20
-302.8872510904738
 30
0.0
  0
SPLINE
  5
42
330
1F
100
AcDbEntity
  8
bot 290.5
 62
     7
420
 16777215
370
    25
100
AcDbSpline
210
0.0
220
0.0
230
1.0
 70
    11
 71
     3
 72
    17
 73
    13
 74
     0
 42
0.0000000001
 43
0.0000000001
 12
1.0
 22
0.0
 32
0.0
 13
1.0
 23
0.0
 33
0.0
 40
0.0
 40
0.0
 40
0.0
 40
0.0
 40
1.0
 40
1.0
 40
1.0
 40
2.0
 40
2.0
 40
2.0
 40
3.0
 40
3.0
 40
3.0
 40
4.0
 40
4.0
 40
4.0
 40
4.0
 10
49.04819998773698
 20
-302.8872510904738
 30
0.0
 10
49.04819998773698
 20
-303.5250295193829
 30
0.0
 10
48.5310888738856
 20
-304.0420510901852
 30
0.0
 10
47.89319998802584
 20
-304.0420510901852
 30
0.0
 10
47.25531110216673
 20
-304.0420510901852
 30
0.0
 10
46.73819998831471
 20
-303.5250295193829
 30
0.0
 10
46.73819998831471
 20
-302.8872510904738
 30
0.0
 10
46.73819998831471
 20
-302.249472661564
 30
0.0
 10
47.25531110216673
 20
-301.7324510907624
 30
0.0
 10
47.89319998802584
 20
-301.7324510907624
 30
0.0
 10
48.5310888738856
 20
-301.7324510907624
 30
0.0
 10
49.04819998773698
 20
-302.249472661564
 30
0.0
 10
49.04819998773698
 20
-302.8872510904738
 30
0.0
  0
SPLINE
  5
43
330
1F
100
AcDbEntity
  8
bot 290.5
 62
     7
420
 16777215
370
    25
100
AcDbSpline
210
0.0
220
0.0
230
1.0
 70
    11
 71
     3
 72
    17
 73
    13
 74
     0
 42
0.0000000001
 43
0.0000000001
 12
1.0
 22
0.0
 32
0.0
 13
1.0
 23
0.0
 33
0.0
 40
0.0
 40
0.0
 40
0.0
 40
0.0
 40
1.0
 40
1.0
 40
1.0
 40
2.0
 40
2.0
 40
2.0
 40
3.0
 40
3.0
 40
3.0
 40
4.0
 40
4.0
 40
4.0
 40
4.0
 10
49.04819998773698
 20
-392.4379201169982
 30
0.0
 10
49.04819998773698
 20
-393.0756985459073
 30
0.0
 10
48.5310888738856
 20
-393.5927201167096
 30
0.0
 10
47.89319998802584
 20
-393.5927201167096
 30
0.0
 10
47.25531110216673
 20
-393.5927201167096
 30
0.0
 10
46.73819998831471
 20
-393.0756985459073
 30
0.0
 10
46.73819998831471
 20
-392.4379201169982
 30
0.0
 10
46.73819998831471
 20
-391.8001416880883
 30
0.0
 10
47.25531110216673
 20
-391.2831201172867
 30
0.0
 10
47.89319998802584
 20
-391.2831201172867
 30
0.0
 10
48.5310888738856
 20
-391.2831201172867
 30
0.0
 10
49.04819998773698
 20
-391.8001416880883
 30
0.0
 10
49.04819998773698
 20
-392.4379201169982
 30
0.0
  0
SPLINE
  5
44
330
1F
100
AcDbEntity
  8
bot 290.5
 62
     7
420
 16777215
370
    25
100
AcDbSpline
210
0.0
220
0.0
230
1.0
 70
    11
 71
     3
 72
    17
 73
    13
 74
     0
 42
0.0000000001
 43
0.0000000001
 12
1.0
 22
0.0
 32
0.0
 13
1.0
 23
0.0
 33
0.0
 40
0.0
 40
0.0
 40
0.0
 40
0.0
 40
1.0
 40
1.0
 40
1.0
 40
2.0
 40
2.0
 40
2.0
 40
3.0
 40
3.0
 40
3.0
 40
4.0
 40
4.0
 40
4.0
 40
4.0
 10
245.7633999385587
 20
-392.4121086563603
 30
0.0
 10
245.7633999385587
 20
-393.0498870852701
 30
0.0
 10
245.2462888247067
 20
-393.5669086560717
 30
0.0
 10
244.6083999388469
 20
-393.5669086560717
 30
0.0
 10
243.9705110529885
 20
-393.5669086560717
 30
0.0
 10
243.4533999391365
 20
-393.0498870852701
 30
0.0
 10
243.4533999391365
 20
-392.4121086563603
 30
0.0
 10
243.4533999391365
 20
-391.7743302274512
 30
0.0
 10
243.9705110529885
 20
-391.2573086566489
 30
0.0
 10
244.6083999388469
 20
-391.2573086566489
 30
0.0
 10
245.2462888247067
 20
-391.2573086566489
 30
0.0
 10
245.7633999385587
 20
-391.7743302274512
 30
0.0
 10
245.7633999385587
 20
-392.4121086563603
 30
0.0
  0
SPLINE
  5
45
330
1F
100
AcDbEntity
  8
bot 290.5
 62
     7
420
 16777215
370
    25
100
AcDbSpline
210
0.0
220
0.0
230
1.0
 70
    11
 71
     3
 72
    17
 73
    13
 74
     0
 42
0.0000000001
 43
0.0000000001
 12
1.0
 22
0.0
 32
0.0
 13
1.0
 23
0.0
 33
0.0
 40
0.0
 40
0.0
 40
0.0
 40
0.0
 40
1.0
 40
1.0
 40
1.0
 40
2.0
 40
2.0
 40
2.0
 40
3.0
 40
3.0
 40
3.0
 40
4.0
 40
4.0
 40
4.0
 40
4.0
 10
289.3826999276528
 20
-336.6486900392943
 30
0.0
 10
289.3826999276528
 20
-337.2864684682041
 30
0.0
 10
288.8655888138008
 20
-337.8034900390057
 30
0.0
 10
288.227699927941
 20
-337.8034900390057
 30
0.0
 10
287.5898110420826
 20
-337.8034900390057
 30
0.0
 10
287.0726999282306
 20
-337.2864684682041
 30
0.0
 10
287.0726999282306
 20
-336.6486900392943
 30
0.0
 10
287.0726999282306
 20
-336.0109116103851
 30
0.0
 10
287.5898110420826
 20
-335.4938900395828
 30
0.0
 10
288.227699927941
 20
-335.4938900395828
 30
0.0
 10
288.8655888138008
 20
-335.4938900395828
 30
0.0
 10
289.3826999276528
 20
-336.0109116103851
 30
0.0
 10
289.3826999276528
 20
-336.6486900392943
 30
0.0
  0
SPLINE
  5
46
330
1F
100
AcDbEntity
  8
bot 290.5
 62
     7
420
 16777215
370
    25
100
AcDbSpline
210
0.0
220
0.0
230
1.0
 70
    11
 71
     3
 72
    17
 73
    13
 74
     0
 42
0.0000000001
 43
0.0000000001
 12
1.0
 22
0.0
 32
0.0
 13
1.0
 23
0.0
 33
0.0
 40
0.0
 40
0.0
 40
0.0
 40
0.0
 40
1.0
 40
1.0
 40
1.0
 40
2.0
 40
2.0
 40
2.0
 40
3.0
 40
3.0
 40
3.0
 40
4.0
 40
4.0
 40
4.0
 40
4.0
 10
5.42729999864211
 20
-336.6486900392943
 30
0.0
 10
5.42729999864211
 20
-337.2864684682041
 30
0.0
 10
4.910188884790736
 20
-337.8034900390057
 30
0.0
 10
4.272299998930978
 20
-337.8034900390057
 30
0.0
 10
3.634411113071863
 20
-337.8034900390057
 30
0.0
 10
3.117299999219846
 20
-337.2864684682041
 30
0.0
 10
3.117299999219846
 20
-336.6486900392943
 30
0.0
 10
3.117299999219846
 20
-336.0109116103851
 30
0.0
 10
3.634411113071863
 20
-335.4938900395828
 30
0.0
 10
4.272299998930978
 20
-335.4938900395828
 30
0.0
 10
4.910188884790736
 20
-335.4938900395828
 30
0.0
 10
5.42729999864211
 20
-336.0109116103851
 30
0.0
 10
5.42729999864211
 20
-336.6486900392943
 30
0.0
  0
SPLINE
  5
47
330
1F
100
AcDbEntity
  8
bot 290.5
 62
     7
420
 16777215
370
    25
100
AcDbSpline
210
0.0
220
0.0
230
1.0
 70
    11
 71
     3
 72
    83
 73
    79
 74
     0
 42
0.0000000001
 43
0.0000000001
 12
1.0
 22
0.0
 32
0.0
 13
1.0
 23
0.0
 33
0.0
 40
0.0
 40
0.0
 40
0.0
 40
0.0
 40
1.0
 40
1.0
 40
1.0
 40
2.0
 40
2.0
 40
2.0
 40
3.0
 40
3.0
 40
3.0
 40
4.0
 40
4.0
 40
4.0
 40
5.0
 40
5.0
 40
5.0
 40
6.0
 40
6.0
 40
6.0
 40
7.0
 40
7.0
 40
7.0
 40
8.0
 40
8.0
 40
8.0
 40
9.0
 40
9.0
 40
9.0
 40
10.0
 40
10.0
 40
10.0
 40
11.0
 40
11.0
 40
11.0
 40
12.0
 40
12.0
 40
12.0
 40
13.0
 40
13.0
 40
13.0
 40
14.0
 40
14.0
 40
14.0
 40
15.0
 40
15.0
 40
15.0
 40
16.0
 40
16.0
 40
16.0
 40
17.0
 40
17.0
 40
17.0
 40
18.0
 40
18.0
 40
18.0
 40
19.0
 40
19.0
 40
19.0
 40
20.0
 40
20.0
 40
20.0
 40
21.0
 40
21.0
 40
21.0
 40
22.0
 40
22.0
 40
22.0
 40
23.0
 40
23.0
 40
23.0
 40
24.0
 40
24.0
 40
24.0
 40
25.0
 40
25.0
 40
25.0
 40
26.0
 40
26.0
 40
26.0
 40
26.0
 10
23.94431784058549
 20
-303.3918999241522
 30
0.0
 10
23.94431784058549
 20
-303.3918999241522
 30
0.0
 10
23.94431784058549
 20
-308.7722497170458
 30
0.0
 10
23.94431784058549
 20
-308.7722497170458
 30
0.0
 10
23.94431784058549
 20
-309.3245344667382
 30
0.0
 10
24.39203309064292
 20
-309.7722497167956
 30
0.0
 10
24.94431784033559
 20
-309.7722497167956
 30
0.0
 10
24.94431784033559
 20
-309.7722497167956
 30
0.0
 10
35.11481585490991
 20
-309.7722497167956
 30
0.0
 10
35.11481585490991
 20
-309.7722497167956
 30
0.0
 10
35.66710060460258
 20
-309.7722497167956
 30
0.0
 10
36.11481585466001
 20
-309.3245344667382
 30
0.0
 10
36.11481585466001
 20
-308.7722497170458
 30
0.0
 10
36.11481585466001
 20
-308.7722497170458
 30
0.0
 10
36.11481585466001
 20
-303.3918999241522
 30
0.0
 10
36.11481585466001
 20
-303.3918999241522
 30
0.0
 10
36.11481585466001
 20
-301.7350456750739
 30
0.0
 10
37.45796160483196
 20
-300.3918999249022
 30
0.0
 10
39.11481585390997
 20
-300.3918999249022
 30
0.0
 10
39.11481585390997
 20
-300.3918999249022
 30
0.0
 10
53.78710091203905
 20
-300.3918999249022
 30
0.0
 10
53.78710091203905
 20
-300.3918999249022
 30
0.0
 10
72.35379630416462
 20
-300.894902667252
 30
0.0
 10
85.18968165942094
 20
-303.12670654014
 30
0.0
 10
99.21315622297186
 20
-305.7042448390767
 30
0.0
 10
116.3536109928773
 20
-308.8546893619669
 30
0.0
 10
131.2438261407069
 20
-311.7584373130439
 30
0.0
 10
150.1317179389471
 20
-310.8108077160063
 30
0.0
 10
166.9855803118865
 20
-309.9652279668416
 30
0.0
 10
182.2335949266308
 20
-306.3921592060431
 30
0.0
 10
198.9813493977317
 20
-303.832765611115
 30
0.0
 10
208.5618841999221
 20
-302.3686672777524
 30
0.0
 10
218.8510304906173
 20
-300.7430045867152
 30
0.0
 10
233.1991276909906
 20
-300.3918999249022
 30
0.0
 10
233.1991276909906
 20
-300.3918999249022
 30
0.0
 10
284.4999999288748
 20
-300.3918999249022
 30
0.0
 10
284.4999999288748
 20
-300.3918999249022
 30
0.0
 10
288.3659931767238
 20
-300.3918999249022
 30
0.0
 10
291.4999999271245
 20
-303.5259066753029
 30
0.0
 10
291.4999999271245
 20
-307.3918999231513
 30
0.0
 10
291.4999999271245
 20
-307.3918999231513
 30
0.0
 10
291.4999999271245
 20
-380.9038552509465
 30
0.0
 10
291.4999999271245
 20
-380.9038552509465
 30
0.0
 10
291.4999999271245
 20
-389.1438236807846
 30
0.0
 10
284.8532644880239
 20
-395.8410588329595
 30
0.0
 10
276.6135320826344
 20
-395.9034255893933
 30
0.0
 10
276.6135320826344
 20
-395.9034255893933
 30
0.0
 10
233.1991276909906
 20
-396.2320303851799
 30
0.0
 10
233.1991276909906
 20
-396.2320303851799
 30
0.0
 10
218.8510304906147
 20
-396.5831350469929
 30
0.0
 10
208.5618841999221
 20
-397.7675178071876
 30
0.0
 10
198.9813493977317
 20
-399.2316161405502
 30
0.0
 10
182.2335949266308
 20
-401.7910097354784
 30
0.0
 10
166.9855803118865
 20
-405.3640784962762
 30
0.0
 10
150.1317179389471
 20
-406.2096582454409
 30
0.0
 10
131.2438261407069
 20
-407.1572878424792
 30
0.0
 10
116.3536109928773
 20
-404.2535398914015
 30
0.0
 10
99.21315622297186
 20
-401.1030953685119
 30
0.0
 10
85.1896816594203
 20
-398.5255570695752
 30
0.0
 10
72.35379630416462
 20
-396.2937531966873
 30
0.0
 10
53.78710091203905
 20
-395.7907504543375
 30
0.0
 10
53.78710091203905
 20
-395.7907504543375
 30
0.0
 10
15.99999999599925
 20
-395.7907504543375
 30
0.0
 10
15.99999999599925
 20
-395.7907504543375
 30
0.0
 10
7.71572875060857
 20
-395.7907504543375
 30
0.0
 10
0.9999999997494519
 20
-389.0750217034787
 30
0.0
 10
0.9999999997494519
 20
-380.7907504580876
 30
0.0
 10
0.9999999997494519
 20
-380.7907504580876
 30
0.0
 10
0.9999999997494519
 20
-307.3918999231519
 30
0.0
 10
0.9999999997494519
 20
-307.3918999231519
 30
0.0
 10
0.9999999997494519
 20
-303.5259066753029
 30
0.0
 10
4.134006750150459
 20
-300.3918999249022
 30
0.0
 10
7.999999997999465
 20
-300.3918999249022
 30
0.0
 10
7.999999997999465
 20
-300.3918999249022
 30
0.0
 10
20.94431784133554
 20
-300.3918999249022
 30
0.0
 10
20.94431784133554
 20
-300.3918999249022
 30
0.0
 10
22.60117209041355
 20
-300.3918999249022
 30
0.0
 10
23.94431784058549
 20
-301.7350456750739
 30
0.0
 10
23.94431784058549
 20
-303.3918999241522
 30
0.0
  0
SPLINE
  5
49
330
1F
100
AcDbEntity
  8
top 290.5
 62
     7
420
 16777215
370
    25
100
AcDbSpline
210
0.0
220
0.0
230
1.0
 70
    11
 71
     3
 72
    17
 73
    13
 74
     0
 42
0.0000000001
 43
0.0000000001
 12
1.0
 22
0.0
 32
0.0
 13
1.0
 23
0.0
 33
0.0
 40
0.0
 40
0.0
 40
0.0
 40
0.0
 40
1.0
 40
1.0
 40
1.0
 40
2.0
 40
2.0
 40
2.0
 40
3.0
 40
3.0
 40
3.0
 40
4.0
 40
4.0
 40
4.0
 40
4.0
 10
245.7633999385587
 20
-203.8910511152238
 30
0.0
 10
245.7633999385587
 20
-204.5288295441329
 30
0.0
 10
245.2462888247067
 20
-205.0458511149352
 30
0.0
 10
244.6083999388469
 20
-205.0458511149352
 30
0.0
 10
243.9705110529885
 20
-205.0458511149352
 30
0.0
 10
243.4533999391365
 20
-204.5288295441329
 30
0.0
 10
243.4533999391365
 20
-203.8910511152238
 30
0.0
 10
243.4533999391365
 20
-203.253272686314
 30
0.0
 10
243.9705110529885
 20
-202.7362511155123
 30
0.0
 10
244.6083999388469
 20
-202.7362511155123
 30
0.0
 10
245.2462888247067
 20
-202.7362511155123
 30
0.0
 10
245.7633999385587
 20
-203.253272686314
 30
0.0
 10
245.7633999385587
 20
-203.8910511152238
 30
0.0
  0
SPLINE
  5
4A
330
1F
100
AcDbEntity
  8
top 290.5
 62
     7
420
 16777215
370
    25
100
AcDbSpline
210
0.0
220
0.0
230
1.0
 70
    11
 71
     3
 72
    17
 73
    13
 74
     0
 42
0.0000000001
 43
0.0000000001
 12
1.0
 22
0.0
 32
0.0
 13
1.0
 23
0.0
 33
0.0
 40
0.0
 40
0.0
 40
0.0
 40
0.0
 40
1.0
 40
1.0
 40
1.0
 40
2.0
 40
2.0
 40
2.0
 40
3.0
 40
3.0
 40
3.0
 40
4.0
 40
4.0
 40
4.0
 40
4.0
 10
49.04819998773762
 20
-203.8910511152238
 30
0.0
 10
49.04819998773762
 20
-204.5288295441336
 30
0.0
 10
48.53108887388624
 20
-205.0458511149352
 30
0.0
 10
47.89319998802649
 20
-205.0458511149352
 30
0.0
 10
47.25531110216737
 20
-205.0458511149352
 30
0.0
 10
46.73819998831536
 20
-204.5288295441336
 30
0.0
 10
46.73819998831536
 20
-203.8910511152238
 30
0.0
 10
46.73819998831536
 20
-203.2532726863146
 30
0.0
 10
47.25531110216737
 20
-202.7362511155123
 30
0.0
 10
47.89319998802649
 20
-202.7362511155123
 30
0.0
 10
48.53108887388624
 20
-202.7362511155123
 30
0.0
 10
49.04819998773762
 20
-203.2532726863146
 30
0.0
 10
49.04819998773762
 20
-203.8910511152238
 30
0.0
  0
SPLINE
  5
4B
330
1F
100
AcDbEntity
  8
top 290.5
 62
     7
420
 16777215
370
    25
100
AcDbSpline
210
0.0
220
0.0
230
1.0
 70
    11
 71
     3
 72
    17
 73
    13
 74
     0
 42
0.0000000001
 43
0.0000000001
 12
1.0
 22
0.0
 32
0.0
 13
1.0
 23
0.0
 33
0.0
 40
0.0
 40
0.0
 40
0.0
 40
0.0
 40
1.0
 40
1.0
 40
1.0
 40
2.0
 40
2.0
 40
2.0
 40
3.0
 40
3.0
 40
3.0
 40
4.0
 40
4.0
 40
4.0
 40
4.0
 10
49.04819998773762
 20
-293.4417201417488
 30
0.0
 10
49.04819998773762
 20
-294.0794985706579
 30
0.0
 10
48.53108887388624
 20
-294.5965201414602
 30
0.0
 10
47.89319998802649
 20
-294.5965201414602
 30
0.0
 10
47.25531110216737
 20
-294.5965201414602
 30
0.0
 10
46.73819998831536
 20
-294.0794985706579
 30
0.0
 10
46.73819998831536
 20
-293.4417201417488
 30
0.0
 10
46.73819998831536
 20
-292.8039417128383
 30
0.0
 10
47.25531110216737
 20
-292.2869201420373
 30
0.0
 10
47.89319998802649
 20
-292.2869201420373
 30
0.0
 10
48.53108887388624
 20
-292.2869201420373
 30
0.0
 10
49.04819998773762
 20
-292.8039417128383
 30
0.0
 10
49.04819998773762
 20
-293.4417201417488
 30
0.0
  0
SPLINE
  5
4C
330
1F
100
AcDbEntity
  8
top 290.5
 62
     7
420
 16777215
370
    25
100
AcDbSpline
210
0.0
220
0.0
230
1.0
 70
    11
 71
     3
 72
    17
 73
    13
 74
     0
 42
0.0000000001
 43
0.0000000001
 12
1.0
 22
0.0
 32
0.0
 13
1.0
 23
0.0
 33
0.0
 40
0.0
 40
0.0
 40
0.0
 40
0.0
 40
1.0
 40
1.0
 40
1.0
 40
2.0
 40
2.0
 40
2.0
 40
3.0
 40
3.0
 40
3.0
 40
4.0
 40
4.0
 40
4.0
 40
4.0
 10
245.7633999385587
 20
-293.415908681111
 30
0.0
 10
245.7633999385587
 20
-294.0536871100201
 30
0.0
 10
245.2462888247067
 20
-294.5707086808224
 30
0.0
 10
244.6083999388469
 20
-294.5707086808224
 30
0.0
 10
243.9705110529885
 20
-294.5707086808224
 30
0.0
 10
243.4533999391365
 20
-294.0536871100201
 30
0.0
 10
243.4533999391365
 20
-293.415908681111
 30
0.0
 10
243.4533999391365
 20
-292.7781302522018
 30
0.0
 10
243.9705110529885
 20
-292.2611086813995
 30
0.0
 10
244.6083999388469
 20
-292.2611086813995
 30
0.0
 10
245.2462888247067
 20
-292.2611086813995
 30
0.0
 10
245.7633999385587
 20
-292.7781302522018
 30
0.0
 10
245.7633999385587
 20
-293.415908681111
 30
0.0
  0
SPLINE
  5
4D
330
1F
100
AcDbEntity
  8
top 290.5
 62
     7
420
 16777215
370
    25
100
AcDbSpline
210
0.0
220
0.0
230
1.0
 70
    11
 71
     3
 72
    17
 73
    13
 74
     0
 42
0.0000000001
 43
0.0000000001
 12
1.0
 22
0.0
 32
0.0
 13
1.0
 23
0.0
 33
0.0
 40
0.0
 40
0.0
 40
0.0
 40
0.0
 40
1.0
 40
1.0
 40
1.0
 40
2.0
 40
2.0
 40
2.0
 40
3.0
 40
3.0
 40
3.0
 40
4.0
 40
4.0
 40
4.0
 40
4.0
 10
289.3826999276528
 20
-237.6524900640449
 30
0.0
 10
289.3826999276528
 20
-238.2902684929547
 30
0.0
 10
288.8655888138008
 20
-238.8072900637557
 30
0.0
 10
288.227699927941
 20
-238.8072900637557
 30
0.0
 10
287.5898110420826
 20
-238.8072900637557
 30
0.0
 10
287.0726999282306
 20
-238.2902684929547
 30
0.0
 10
287.0726999282306
 20
-237.6524900640449
 30
0.0
 10
287.0726999282306
 20
-237.0147116351351
 30
0.0
 10
287.5898110420826
 20
-236.4976900643335
 30
0.0
 10
288.227699927941
 20
-236.4976900643335
 30
0.0
 10
288.8655888138008
 20
-236.4976900643335
 30
0.0
 10
289.3826999276528
 20
-237.0147116351351
 30
0.0
 10
289.3826999276528
 20
-237.6524900640449
 30
0.0
  0
SPLINE
  5
4E
330
1F
100
AcDbEntity
  8
top 290.5
 62
     7
420
 16777215
370
    25
100
AcDbSpline
210
0.0
220
0.0
230
1.0
 70
    11
 71
     3
 72
    17
 73
    13
 74
     0
 42
0.0000000001
 43
0.0000000001
 12
1.0
 22
0.0
 32
0.0
 13
1.0
 23
0.0
 33
0.0
 40
0.0
 40
0.0
 40
0.0
 40
0.0
 40
1.0
 40
1.0
 40
1.0
 40
2.0
 40
2.0
 40
2.0
 40
3.0
 40
3.0
 40
3.0
 40
4.0
 40
4.0
 40
4.0
 40
4.0
 10
5.427299998642752
 20
-237.6524900640449
 30
0.0
 10
5.427299998642752
 20
-238.2902684929547
 30
0.0
 10
4.910188884791378
 20
-238.8072900637557
 30
0.0
 10
4.27229999893162
 20
-238.8072900637557
 30
0.0
 10
3.634411113072505
 20
-238.8072900637557
 30
0.0
 10
3.117299999220488
 20
-238.2902684929547
 30
0.0
 10
3.117299999220488
 20
-237.6524900640449
 30
0.0
 10
3.117299999220488
 20
-237.0147116351351
 30
0.0
 10
3.634411113072505
 20
-236.4976900643335
 30
0.0
 10
4.27229999893162
 20
-236.4976900643335
 30
0.0
 10
4.910188884791378
 20
-236.4976900643335
 30
0.0
 10
5.427299998642752
 20
-237.0147116351351
 30
0.0
 10
5.427299998642752
 20
-237.6524900640449
 30
0.0
  0
INSERT
  5
50
330
1F
100
AcDbEntity
  8
top 290.5
100
AcDbBlockReference
  2
block 2
 10
0.0
 20
0.0
 30
0.0
  0
SPLINE
  5
6E
330
1F
100
AcDbEntity
  8
top 292.5
 62
     7
420
 16777215
370
    25
100
AcDbSpline
210
0.0
220
0.0
230
1.0
 70
    11
 71
     3
 72
    17
 73
    13
 74
     0
 42
0.0000000001
 43
0.0000000001
 12
1.0
 22
0.0
 32
0.0
 13
1.0
 23
0.0
 33
0.0
 40
0.0
 40
0.0
 40
0.0
 40
0.0
 40
1.0
 40
1.0
 40
1.0
 40
2.0
 40
2.0
 40
2.0
 40
3.0
 40
3.0
 40
3.0
 40
4.0
 40
4.0
 40
4.0
 40
4.0
 10
246.1750720098218
 20
-104.302299789005
 30
0.0
 10
246.1750720098218
 20
-105.1637811557643
 30
0.0
 10
245.4767033769722
 20
-105.8621497886152
 30
0.0
 10
244.6152220102116
 20
-105.8621497886152
 30
0.0
 10
243.7537406434511
 20
-105.8621497886152
 30
0.0
 10
243.0553720106015
 20
-105.1637811557643
 30
0.0
 10
243.0553720106015
 20
-104.302299789005
 30
0.0
 10
243.0553720106015
 20
-103.4408184222444
 30
0.0
 10
243.7537406434511
 20
-102.7424497893948
 30
0.0
 10
244.6152220102116
 20
-102.7424497893948
 30
0.0
 10
245.4767033769722
 20
-102.7424497893948
 30
0.0
 10
246.1750720098218
 20
-103.4408184222444
 30
0.0
 10
246.1750720098218
 20
-104.302299789005
 30
0.0
  0
SPLINE
  5
6F
330
1F
100
AcDbEntity
  8
top 292.5
 62
     7
420
 16777215
370
    25
100
AcDbSpline
210
0.0
220
0.0
230
1.0
 70
    11
 71
     3
 72
    17
 73
    13
 74
     0
 42
0.0000000001
 43
0.0000000001
 12
1.0
 22
0.0
 32
0.0
 13
1.0
 23
0.0
 33
0.0
 40
0.0
 40
0.0
 40
0.0
 40
0.0
 40
1.0
 40
1.0
 40
1.0
 40
2.0
 40
2.0
 40
2.0
 40
3.0
 40
3.0
 40
3.0
 40
4.0
 40
4.0
 40
4.0
 40
4.0
 10
49.45987205900102
 20
-104.302299789005
 30
0.0
 10
49.45987205900102
 20
-105.1637811557656
 30
0.0
 10
48.76150342615142
 20
-105.8621497886152
 30
0.0
 10
47.90002205939086
 20
-105.8621497886152
 30
0.0
 10
47.0385406926303
 20
-105.8621497886152
 30
0.0
 10
46.34017205978069
 20
-105.1637811557656
 30
0.0
 10
46.34017205978069
 20
-104.302299789005
 30
0.0
 10
46.34017205978069
 20
-103.4408184222444
 30
0.0
 10
47.0385406926303
 20
-102.7424497893948
 30
0.0
 10
47.90002205939086
 20
-102.7424497893948
 30
0.0
 10
48.76150342615142
 20
-102.7424497893948
 30
0.0
 10
49.45987205900102
 20
-103.4408184222444
 30
0.0
 10
49.45987205900102
 20
-104.302299789005
 30
0.0
  0
SPLINE
  5
70
330
1F
100
AcDbEntity
  8
top 292.5
 62
     7
420
 16777215
370
    25
100
AcDbSpline
210
0.0
220
0.0
230
1.0
 70
    11
 71
     3
 72
    17
 73
    13
 74
     0
 42
0.0000000001
 43
0.0000000001
 12
1.0
 22
0.0
 32
0.0
 13
1.0
 23
0.0
 33
0.0
 40
0.0
 40
0.0
 40
0.0
 40
0.0
 40
1.0
 40
1.0
 40
1.0
 40
2.0
 40
2.0
 40
2.0
 40
3.0
 40
3.0
 40
3.0
 40
4.0
 40
4.0
 40
4.0
 40
4.0
 10
49.45987205900102
 20
-193.85296881553
 30
0.0
 10
49.45987205900102
 20
-194.7144501822893
 30
0.0
 10
48.76150342615142
 20
-195.4128188151402
 30
0.0
 10
47.90002205939086
 20
-195.4128188151402
 30
0.0
 10
47.0385406926303
 20
-195.4128188151402
 30
0.0
 10
46.34017205978069
 20
-194.7144501822893
 30
0.0
 10
46.34017205978069
 20
-193.85296881553
 30
0.0
 10
46.34017205978069
 20
-192.9914874487694
 30
0.0
 10
47.0385406926303
 20
-192.2931188159198
 30
0.0
 10
47.90002205939086
 20
-192.2931188159198
 30
0.0
 10
48.76150342615142
 20
-192.2931188159198
 30
0.0
 10
49.45987205900102
 20
-192.9914874487694
 30
0.0
 10
49.45987205900102
 20
-193.85296881553
 30
0.0
  0
SPLINE
  5
71
330
1F
100
AcDbEntity
  8
top 292.5
 62
     7
420
 16777215
370
    25
100
AcDbSpline
210
0.0
220
0.0
230
1.0
 70
    11
 71
     3
 72
    17
 73
    13
 74
     0
 42
0.0000000001
 43
0.0000000001
 12
1.0
 22
0.0
 32
0.0
 13
1.0
 23
0.0
 33
0.0
 40
0.0
 40
0.0
 40
0.0
 40
0.0
 40
1.0
 40
1.0
 40
1.0
 40
2.0
 40
2.0
 40
2.0
 40
3.0
 40
3.0
 40
3.0
 40
4.0
 40
4.0
 40
4.0
 40
4.0
 10
246.1750720098218
 20
-193.8271573548922
 30
0.0
 10
246.1750720098218
 20
-194.6886387216528
 30
0.0
 10
245.4767033769722
 20
-195.3870073545023
 30
0.0
 10
244.6152220102116
 20
-195.3870073545023
 30
0.0
 10
243.7537406434511
 20
-195.3870073545023
 30
0.0
 10
243.0553720106015
 20
-194.6886387216528
 30
0.0
 10
243.0553720106015
 20
-193.8271573548922
 30
0.0
 10
243.0553720106015
 20
-192.9656759881316
 30
0.0
 10
243.7537406434511
 20
-192.267307355282
 30
0.0
 10
244.6152220102116
 20
-192.267307355282
 30
0.0
 10
245.4767033769722
 20
-192.267307355282
 30
0.0
 10
246.1750720098218
 20
-192.9656759881316
 30
0.0
 10
246.1750720098218
 20
-193.8271573548922
 30
0.0
  0
SPLINE
  5
72
330
1F
100
AcDbEntity
  8
top 292.5
 62
     7
420
 16777215
370
    25
100
AcDbSpline
210
0.0
220
0.0
230
1.0
 70
    11
 71
     3
 72
    17
 73
    13
 74
     0
 42
0.0000000001
 43
0.0000000001
 12
1.0
 22
0.0
 32
0.0
 13
1.0
 23
0.0
 33
0.0
 40
0.0
 40
0.0
 40
0.0
 40
0.0
 40
1.0
 40
1.0
 40
1.0
 40
2.0
 40
2.0
 40
2.0
 40
3.0
 40
3.0
 40
3.0
 40
4.0
 40
4.0
 40
4.0
 40
4.0
 10
289.7943719989159
 20
-138.0637387378255
 30
0.0
 10
289.7943719989159
 20
-138.9252201045861
 30
0.0
 10
289.0960033660663
 20
-139.6235887374357
 30
0.0
 10
288.2345219993057
 20
-139.6235887374357
 30
0.0
 10
287.3730406325452
 20
-139.6235887374357
 30
0.0
 10
286.6746719996956
 20
-138.9252201045861
 30
0.0
 10
286.6746719996956
 20
-138.0637387378255
 30
0.0
 10
286.6746719996956
 20
-137.2022573710662
 30
0.0
 10
287.3730406325452
 20
-136.5038887382153
 30
0.0
 10
288.2345219993057
 20
-136.5038887382153
 30
0.0
 10
289.0960033660663
 20
-136.5038887382153
 30
0.0
 10
289.7943719989159
 20
-137.2022573710662
 30
0.0
 10
289.7943719989159
 20
-138.0637387378255
 30
0.0
  0
SPLINE
  5
73
330
1F
100
AcDbEntity
  8
top 292.5
 62
     7
420
 16777215
370
    25
100
AcDbSpline
210
0.0
220
0.0
230
1.0
 70
    11
 71
     3
 72
    17
 73
    13
 74
     0
 42
0.0000000001
 43
0.0000000001
 12
1.0
 22
0.0
 32
0.0
 13
1.0
 23
0.0
 33
0.0
 40
0.0
 40
0.0
 40
0.0
 40
0.0
 40
1.0
 40
1.0
 40
1.0
 40
2.0
 40
2.0
 40
2.0
 40
3.0
 40
3.0
 40
3.0
 40
4.0
 40
4.0
 40
4.0
 40
4.0
 10
5.838972069906798
 20
-138.0637387378255
 30
0.0
 10
5.838972069906798
 20
-138.9252201045861
 30
0.0
 10
5.140603437055911
 20
-139.6235887374357
 30
0.0
 10
4.279122070296633
 20
-139.6235887374357
 30
0.0
 10
3.417640703536072
 20
-139.6235887374357
 30
0.0
 10
2.719272070686469
 20
-138.9252201045861
 30
0.0
 10
2.719272070686469
 20
-138.0637387378255
 30
0.0
 10
2.719272070686469
 20
-137.2022573710662
 30
0.0
 10
3.417640703536072
 20
-136.5038887382153
 30
0.0
 10
4.279122070296633
 20
-136.5038887382153
 30
0.0
 10
5.140603437055911
 20
-136.5038887382153
 30
0.0
 10
5.838972069906798
 20
-137.2022573710662
 30
0.0
 10
5.838972069906798
 20
-138.0637387378255
 30
0.0
  0
INSERT
  5
75
330
1F
100
AcDbEntity
  8
top 292.5
100
AcDbBlockReference
  2
block 8
 10
0.0
 20
0.0
 30
0.0
  0
SPLINE
  5
92
330
1F
100
AcDbEntity
  8
top 292.5
 62
     7
420
 16777215
370
    25
100
AcDbSpline
210
0.0
220
0.0
230
1.0
 70
    11
 71
     3
 72
    17
 73
    13
 74
     0
 42
0.0000000001
 43
0.0000000001
 12
1.0
 22
0.0
 32
0.0
 13
1.0
 23
0.0
 33
0.0
 40
0.0
 40
0.0
 40
0.0
 40
0.0
 40
1.0
 40
1.0
 40
1.0
 40
2.0
 40
2.0
 40
2.0
 40
3.0
 40
3.0
 40
3.0
 40
4.0
 40
4.0
 40
4.0
 40
4.0
 10
15.69999999607464
 20
-312.2418999219394
 30
0.0
 10
15.69999999607464
 20
-313.8159114584763
 30
0.0
 10
14.42401153332377
 20
-315.0918999212268
 30
0.0
 10
12.84999999678731
 20
-315.0918999212268
 30
0.0
 10
11.27598846025052
 20
-315.0918999212268
 30
0.0
 10
9.999999997499652
 20
-313.8159114584763
 30
0.0
 10
9.999999997499652
 20
-312.2418999219394
 30
0.0
 10
9.999999997499652
 20
-310.6678883854033
 30
0.0
 10
11.27598846025052
 20
-309.3918999226521
 30
0.0
 10
12.84999999678731
 20
-309.3918999226521
 30
0.0
 10
14.42401153332377
 20
-309.3918999226521
 30
0.0
 10
15.69999999607464
 20
-310.6678883854033
 30
0.0
 10
15.69999999607464
 20
-312.2418999219394
 30
0.0
  0
SPLINE
  5
93
330
1F
100
AcDbEntity
  8
top 292.5
 62
     7
420
 16777215
370
    25
100
AcDbSpline
210
0.0
220
0.0
230
1.0
 70
    11
 71
     3
 72
    17
 73
    13
 74
     0
 42
0.0000000001
 43
0.0000000001
 12
1.0
 22
0.0
 32
0.0
 13
1.0
 23
0.0
 33
0.0
 40
0.0
 40
0.0
 40
0.0
 40
0.0
 40
1.0
 40
1.0
 40
1.0
 40
2.0
 40
2.0
 40
2.0
 40
3.0
 40
3.0
 40
3.0
 40
4.0
 40
4.0
 40
4.0
 40
4.0
 10
282.4999999293746
 20
-312.267599921933
 30
0.0
 10
282.4999999293746
 20
-313.8416114584698
 30
0.0
 10
281.2240114666241
 20
-315.1175999212203
 30
0.0
 10
279.6499999300879
 20
-315.1175999212203
 30
0.0
 10
278.0759883935505
 20
-315.1175999212203
 30
0.0
 10
276.7999999308
 20
-313.8416114584698
 30
0.0
 10
276.7999999308
 20
-312.267599921933
 30
0.0
 10
276.7999999308
 20
-310.6935883853968
 30
0.0
 10
278.0759883935505
 20
-309.4175999226456
 30
0.0
 10
279.6499999300879
 20
-309.4175999226456
 30
0.0
 10
281.2240114666241
 20
-309.4175999226456
 30
0.0
 10
282.4999999293746
 20
-310.6935883853968
 30
0.0
 10
282.4999999293746
 20
-312.267599921933
 30
0.0
  0
SPLINE
  5
95
330
1F
100
AcDbEntity
  8
mid 292.5
 62
     7
420
 16777215
370
    25
100
AcDbSpline
210
0.0
220
0.0
230
1.0
 70
    11
 71
     3
 72
    17
 73
    13
 74
     0
 42
0.0000000001
 43
0.0000000001
 12
1.0
 22
0.0
 32
0.0
 13
1.0
 23
0.0
 33
0.0
 40
0.0
 40
0.0
 40
0.0
 40
0.0
 40
1.0
 40
1.0
 40
1.0
 40
2.0
 40
2.0
 40
2.0
 40
3.0
 40
3.0
 40
3.0
 40
4.0
 40
4.0
 40
4.0
 40
4.0
 10
246.1750720098218
 20
-3.540199814195668
 30
0.0
 10
246.1750720098218
 20
-4.401681180954946
 30
0.0
 10
245.4767033769722
 20
-5.100049813805192
 30
0.0
 10
244.6152220102116
 20
-5.100049813805192
 30
0.0
 10
243.7537406434511
 20
-5.100049813805192
 30
0.0
 10
243.0553720106015
 20
-4.401681180954946
 30
0.0
 10
243.0553720106015
 20
-3.540199814195668
 30
0.0
 10
243.0553720106015
 20
-2.678718447435107
 30
0.0
 10
243.7537406434511
 20
-1.980349814585504
 30
0.0
 10
244.6152220102116
 20
-1.980349814585504
 30
0.0
 10
245.4767033769722
 20
-1.980349814585504
 30
0.0
 10
246.1750720098218
 20
-2.678718447435107
 30
0.0
 10
246.1750720098218
 20
-3.540199814195668
 30
0.0
  0
SPLINE
  5
96
330
1F
100
AcDbEntity
  8
mid 292.5
 62
     7
420
 16777215
370
    25
100
AcDbSpline
210
0.0
220
0.0
230
1.0
 70
    11
 71
     3
 72
    17
 73
    13
 74
     0
 42
0.0000000001
 43
0.0000000001
 12
1.0
 22
0.0
 32
0.0
 13
1.0
 23
0.0
 33
0.0
 40
0.0
 40
0.0
 40
0.0
 40
0.0
 40
1.0
 40
1.0
 40
1.0
 40
2.0
 40
2.0
 40
2.0
 40
3.0
 40
3.0
 40
3.0
 40
4.0
 40
4.0
 40
4.0
 40
4.0
 10
49.45987205900102
 20
-3.540199814195668
 30
0.0
 10
49.45987205900102
 20
-4.401681180955587
 30
0.0
 10
48.76150342615142
 20
-5.100049813805833
 30
0.0
 10
47.90002205939086
 20
-5.100049813805833
 30
0.0
 10
47.0385406926303
 20
-5.100049813805833
 30
0.0
 10
46.34017205978069
 20
-4.401681180955587
 30
0.0
 10
46.34017205978069
 20
-3.540199814195668
 30
0.0
 10
46.34017205978069
 20
-2.678718447435107
 30
0.0
 10
47.0385406926303
 20
-1.980349814585504
 30
0.0
 10
47.90002205939086
 20
-1.980349814585504
 30
0.0
 10
48.76150342615142
 20
-1.980349814585504
 30
0.0
 10
49.45987205900102
 20
-2.678718447435107
 30
0.0
 10
49.45987205900102
 20
-3.540199814195668
 30
0.0
  0
SPLINE
  5
97
330
1F
100
AcDbEntity
  8
mid 292.5
 62
     7
420
 16777215
370
    25
100
AcDbSpline
210
0.0
220
0.0
230
1.0
 70
    11
 71
     3
 72
    17
 73
    13
 74
     0
 42
0.0000000001
 43
0.0000000001
 12
1.0
 22
0.0
 32
0.0
 13
1.0
 23
0.0
 33
0.0
 40
0.0
 40
0.0
 40
0.0
 40
0.0
 40
1.0
 40
1.0
 40
1.0
 40
2.0
 40
2.0
 40
2.0
 40
3.0
 40
3.0
 40
3.0
 40
4.0
 40
4.0
 40
4.0
 40
4.0
 10
49.45987205900102
 20
-93.09086884072002
 30
0.0
 10
49.45987205900102
 20
-93.9523502074793
 30
0.0
 10
48.76150342615142
 20
-94.65071884033019
 30
0.0
 10
47.90002205939086
 20
-94.65071884033019
 30
0.0
 10
47.0385406926303
 20
-94.65071884033019
 30
0.0
 10
46.34017205978069
 20
-93.9523502074793
 30
0.0
 10
46.34017205978069
 20
-93.09086884072002
 30
0.0
 10
46.34017205978069
 20
-92.22938747395945
 30
0.0
 10
47.0385406926303
 20
-91.53101884110986
 30
0.0
 10
47.90002205939086
 20
-91.53101884110986
 30
0.0
 10
48.76150342615142
 20
-91.53101884110986
 30
0.0
 10
49.45987205900102
 20
-92.22938747395945
 30
0.0
 10
49.45987205900102
 20
-93.09086884072002
 30
0.0
  0
SPLINE
  5
98
330
1F
100
AcDbEntity
  8
mid 292.5
 62
     7
420
 16777215
370
    25
100
AcDbSpline
210
0.0
220
0.0
230
1.0
 70
    11
 71
     3
 72
    17
 73
    13
 74
     0
 42
0.0000000001
 43
0.0000000001
 12
1.0
 22
0.0
 32
0.0
 13
1.0
 23
0.0
 33
0.0
 40
0.0
 40
0.0
 40
0.0
 40
0.0
 40
1.0
 40
1.0
 40
1.0
 40
2.0
 40
2.0
 40
2.0
 40
3.0
 40
3.0
 40
3.0
 40
4.0
 40
4.0
 40
4.0
 40
4.0
 10
246.1750720098218
 20
-93.0650573800822
 30
0.0
 10
246.1750720098218
 20
-93.92653874684277
 30
0.0
 10
245.4767033769722
 20
-94.62490737969236
 30
0.0
 10
244.6152220102116
 20
-94.62490737969236
 30
0.0
 10
243.7537406434511
 20
-94.62490737969236
 30
0.0
 10
243.0553720106015
 20
-93.92653874684277
 30
0.0
 10
243.0553720106015
 20
-93.0650573800822
 30
0.0
 10
243.0553720106015
 20
-92.20357601332164
 30
0.0
 10
243.7537406434511
 20
-91.50520738047203
 30
0.0
 10
244.6152220102116
 20
-91.50520738047203
 30
0.0
 10
245.4767033769722
 20
-91.50520738047203
 30
0.0
 10
246.1750720098218
 20
-92.20357601332164
 30
0.0
 10
246.1750720098218
 20
-93.0650573800822
 30
0.0
  0
SPLINE
  5
99
330
1F
100
AcDbEntity
  8
mid 292.5
 62
     7
420
 16777215
370
    25
100
AcDbSpline
210
0.0
220
0.0
230
1.0
 70
    11
 71
     3
 72
    17
 73
    13
 74
     0
 42
0.0000000001
 43
0.0000000001
 12
1.0
 22
0.0
 32
0.0
 13
1.0
 23
0.0
 33
0.0
 40
0.0
 40
0.0
 40
0.0
 40
0.0
 40
1.0
 40
1.0
 40
1.0
 40
2.0
 40
2.0
 40
2.0
 40
3.0
 40
3.0
 40
3.0
 40
4.0
 40
4.0
 40
4.0
 40
4.0
 10
289.7943719989159
 20
-37.30163876301616
 30
0.0
 10
289.7943719989159
 20
-38.16312012977671
 30
0.0
 10
289.0960033660663
 20
-38.86148876262632
 30
0.0
 10
288.2345219993057
 20
-38.86148876262632
 30
0.0
 10
287.3730406325452
 20
-38.86148876262632
 30
0.0
 10
286.6746719996956
 20
-38.16312012977671
 30
0.0
 10
286.6746719996956
 20
-37.30163876301616
 30
0.0
 10
286.6746719996956
 20
-36.44015739625624
 30
0.0
 10
287.3730406325452
 20
-35.74178876340599
 30
0.0
 10
288.2345219993057
 20
-35.74178876340599
 30
0.0
 10
289.0960033660663
 20
-35.74178876340599
 30
0.0
 10
289.7943719989159
 20
-36.44015739625624
 30
0.0
 10
289.7943719989159
 20
-37.30163876301616
 30
0.0
  0
SPLINE
  5
9A
330
1F
100
AcDbEntity
  8
mid 292.5
 62
     7
420
 16777215
370
    25
100
AcDbSpline
210
0.0
220
0.0
230
1.0
 70
    11
 71
     3
 72
    17
 73
    13
 74
     0
 42
0.0000000001
 43
0.0000000001
 12
1.0
 22
0.0
 32
0.0
 13
1.0
 23
0.0
 33
0.0
 40
0.0
 40
0.0
 40
0.0
 40
0.0
 40
1.0
 40
1.0
 40
1.0
 40
2.0
 40
2.0
 40
2.0
 40
3.0
 40
3.0
 40
3.0
 40
4.0
 40
4.0
 40
4.0
 40
4.0
 10
5.838972069906798
 20
-37.30163876301616
 30
0.0
 10
5.838972069906798
 20
-38.16312012977671
 30
0.0
 10
5.140603437055911
 20
-38.86148876262632
 30
0.0
 10
4.279122070296633
 20
-38.86148876262632
 30
0.0
 10
3.417640703536072
 20
-38.86148876262632
 30
0.0
 10
2.719272070686469
 20
-38.16312012977671
 30
0.0
 10
2.719272070686469
 20
-37.30163876301616
 30
0.0
 10
2.719272070686469
 20
-36.44015739625624
 30
0.0
 10
3.417640703536072
 20
-35.74178876340599
 30
0.0
 10
4.279122070296633
 20
-35.74178876340599
 30
0.0
 10
5.140603437055911
 20
-35.74178876340599
 30
0.0
 10
5.838972069906798
 20
-36.44015739625624
 30
0.0
 10
5.838972069906798
 20
-37.30163876301616
 30
0.0
  0
INSERT
  5
9C
330
1F
100
AcDbEntity
  8
mid 292.5
100
AcDbBlockReference
  2
block 14
 10
0.0
 20
0.0
 30
0.0
  0
SPLINE
  5
A2
330
1F
100
AcDbEntity
  8
mid 292.5
 62
     7
420
 16777215
370
    25
100
AcDbSpline
210
0.0
220
0.0
230
1.0
 70
    11
 71
     3
 72
   167
 73
   163
 74
     0
 42
0.0000000001
 43
0.0000000001
 12
1.0
 22
0.0
 32
0.0
 13
1.0
 23
0.0
 33
0.0
 40
0.0
 40
0.0
 40
0.0
 40
0.0
 40
1.0
 40
1.0
 40
1.0
 40
2.0
 40
2.0
 40
2.0
 40
3.0
 40
3.0
 40
3.0
 40
4.0
 40
4.0
 40
4.0
 40
5.0
 40
5.0
 40
5.0
 40
6.0
 40
6.0
 40
6.0
 40
7.0
 40
7.0
 40
7.0
 40
8.0
 40
8.0
 40
8.0
 40
9.0
 40
9.0
 40
9.0
 40
10.0
 40
10.0
 40
10.0
 40
11.0
 40
11.0
 40
11.0
 40
12.0
 40
12.0
 40
12.0
 40
13.0
 40
13.0
 40
13.0
 40
14.0
 40
14.0
 40
14.0
 40
15.0
 40
15.0
 40
15.0
 40
16.0
 40
16.0
 40
16.0
 40
17.0
 40
17.0
 40
17.0
 40
18.0
 40
18.0
 40
18.0
 40
19.0
 40
19.0
 40
19.0
 40
20.0
 40
20.0
 40
20.0
 40
21.0
 40
21.0
 40
21.0
 40
22.0
 40
22.0
 40
22.0
 40
23.0
 40
23.0
 40
23.0
 40
24.0
 40
24.0
 40
24.0
 40
25.0
 40
25.0
 40
25.0
 40
26.0
 40
26.0
 40
26.0
 40
27.0
 40
27.0
 40
27.0
 40
28.0
 40
28.0
 40
28.0
 40
29.0
 40
29.0
 40
29.0
 40
30.0
 40
30.0
 40
30.0
 40
31.0
 40
31.0
 40
31.0
 40
32.0
 40
32.0
 40
32.0
 40
33.0
 40
33.0
 40
33.0
 40
34.0
 40
34.0
 40
34.0
 40
35.0
 40
35.0
 40
35.0
 40
36.0
 40
36.0
 40
36.0
 40
37.0
 40
37.0
 40
37.0
 40
38.0
 40
38.0
 40
38.0
 40
39.0
 40
39.0
 40
39.0
 40
40.0
 40
40.0
 40
40.0
 40
41.0
 40
41.0
 40
41.0
 40
42.0
 40
42.0
 40
42.0
 40
43.0
 40
43.0
 40
43.0
 40
44.0
 40
44.0
 40
44.0
 40
45.0
 40
45.0
 40
45.0
 40
46.0
 40
46.0
 40
46.0
 40
47.0
 40
47.0
 40
47.0
 40
48.0
 40
48.0
 40
48.0
 40
49.0
 40
49.0
 40
49.0
 40
50.0
 40
50.0
 40
50.0
 40
51.0
 40
51.0
 40
51.0
 40
52.0
 40
52.0
 40
52.0
 40
53.0
 40
53.0
 40
53.0
 40
54.0
 40
54.0
 40
54.0
 40
54.0
 10
22.15455278310637
 20
-0.9994285355262403
 30
0.0
 10
22.15455278310637
 20
-0.9994285355262403
 30
0.0
 10
22.15479776216602
 20
-1.428115073483022
 30
0.0
 10
22.15479776216602
 20
-1.428115073483022
 30
0.0
 10
22.15479776216602
 20
-1.428115073483022
 30
0.0
 10
23.94467828116164
 20
-1.428135596024487
 30
0.0
 10
23.94467828116164
 20
-1.428135596024487
 30
0.0
 10
23.94467828116164
 20
-1.428135596024487
 30
0.0
 10
23.94323564742719
 20
-2.710262197241024
 30
0.0
 10
23.94323564742719
 20
-2.710262197241024
 30
0.0
 10
23.17662115753367
 20
-2.836781983196401
 30
0.0
 10
23.3014735711038
 20
-3.499569571468102
 30
0.0
 10
23.3014735711038
 20
-4.276553664198186
 30
0.0
 10
23.3014735711038
 20
-4.276553664198186
 30
0.0
 10
23.3014735711038
 20
-5.975553977320359
 30
0.0
 10
23.3014735711038
 20
-5.975553977320359
 30
0.0
 10
23.3014735711038
 20
-5.975553977320359
 30
0.0
 10
23.30147626258465
 20
-5.995351164696729
 30
0.0
 10
23.30147626258465
 20
-5.995351164696729
 30
0.0
 10
23.30147626258465
 20
-5.995351164696729
 30
0.0
 10
12.5879519660653
 20
-5.995351164696729
 30
0.0
 10
12.5879519660653
 20
-5.995351164696729
 30
0.0
 10
9.80683942301872
 20
-5.995351164696729
 30
0.0
 10
7.55230165045003
 20
-8.282198819103453
 30
0.0
 10
7.55230165045003
 20
-11.10316815628544
 30
0.0
 10
7.55230165045003
 20
-11.10316815628544
 30
0.0
 10
7.55230165045003
 20
-84.5902644475749
 30
0.0
 10
7.55230165045003
 20
-84.5902644475749
 30
0.0
 10
7.55230165045003
 20
-87.41943068967902
 30
0.0
 10
9.819466505416415
 20
-89.70965480680937
 30
0.0
 10
12.60863734212147
 20
-89.69803837547005
 30
0.0
 10
12.60863734212147
 20
-89.69803837547005
 30
0.0
 10
58.05988166381394
 20
-89.50866578301522
 30
0.0
 10
58.05988166381394
 20
-89.50866578301522
 30
0.0
 10
58.05988166381394
 20
-89.50866578301522
 30
0.0
 10
136.9685233745013
 20
-100.745350706557
 30
0.0
 10
136.9685233745013
 20
-100.745350706557
 30
0.0
 10
136.9685233745013
 20
-100.745350706557
 30
0.0
 10
146.0326987872743
 20
-100.745350706557
 30
0.0
 10
146.0326987872743
 20
-100.745350706557
 30
0.0
 10
146.0326987872743
 20
-100.745350706557
 30
0.0
 10
221.819222714454
 20
-89.50496230536858
 30
0.0
 10
221.819222714454
 20
-89.50496230536858
 30
0.0
 10
221.819222714454
 20
-89.50496230536858
 30
0.0
 10
279.6111731801492
 20
-89.50497307129197
 30
0.0
 10
279.6111731801492
 20
-89.50497307129197
 30
0.0
 10
282.3781446828212
 20
-89.50497307129197
 30
0.0
 10
284.6267800378906
 20
-87.24046874514369
 30
0.0
 10
284.6466969961646
 20
-84.4339163251232
 30
0.0
 10
284.6466969961646
 20
-84.4339163251232
 30
0.0
 10
284.9986565636765
 20
-36.66845602602327
 30
0.0
 10
284.9986565636765
 20
-36.66845602602327
 30
0.0
 10
285.0086042768901
 20
-35.26518250749388
 30
0.0
 10
286.1516654270492
 20
-33.10482234127236
 30
0.0
 10
287.5351511783853
 20
-33.10482503275321
 30
0.0
 10
288.925699375466
 20
-33.10482503275321
 30
0.0
 10
290.0523101946831
 20
-31.95440268247522
 30
0.0
 10
290.0523101946831
 20
-30.54391868675444
 30
0.0
 10
290.0523101946831
 20
-30.54391868675444
 30
0.0
 10
290.0523101946831
 20
-11.10316815628544
 30
0.0
 10
290.0523101946831
 20
-11.10316815628544
 30
0.0
 10
290.0523101946831
 20
-8.282198819103453
 30
0.0
 10
287.7977535817484
 20
-5.995351164696729
 30
0.0
 10
285.0166571875869
 20
-5.995351164696729
 30
0.0
 10
285.0166571875869
 20
-5.995351164696729
 30
0.0
 10
221.609739377104
 20
-5.995351164696729
 30
0.0
 10
221.609739377104
 20
-5.995351164696729
 30
0.0
 10
221.609739377104
 20
-5.995351164696729
 30
0.0
 10
146.0326987872743
 20
-17.42392925250731
 30
0.0
 10
146.0326987872743
 20
-17.42392925250731
 30
0.0
 10
146.0326987872743
 20
-17.42392925250731
 30
0.0
 10
141.1481132172064
 20
-17.42392925250731
 30
0.0
 10
141.1481132172064
 20
-17.42392925250731
 30
0.0
 10
141.1481132172064
 20
-17.42392925250731
 30
0.0
 10
136.9685233745013
 20
-17.42392925250731
 30
0.0
 10
136.9685233745013
 20
-17.42392925250731
 30
0.0
 10
136.9685233745013
 20
-17.42392925250731
 30
0.0
 10
58.56143373684936
 20
-5.995351164696729
 30
0.0
 10
58.56143373684936
 20
-5.995351164696729
 30
0.0
 10
58.56143373684936
 20
-5.995351164696729
 30
0.0
 10
37.00547397712197
 20
-5.995351164696729
 30
0.0
 10
37.00547397712197
 20
-5.995351164696729
 30
0.0
 10
37.00547397712197
 20
-5.995351164696729
 30
0.0
 10
37.00547397712197
 20
-5.975553977320359
 30
0.0
 10
37.00547397712197
 20
-5.975553977320359
 30
0.0
 10
37.00547397712197
 20
-5.975553977320359
 30
0.0
 10
37.00547397712197
 20
-4.276553664198186
 30
0.0
 10
37.00547397712197
 20
-4.276553664198186
 30
0.0
 10
37.00547397712197
 20
-3.481926914510435
 30
0.0
 10
36.90228798437705
 20
-2.809708040912757
 30
0.0
 10
36.11481451791268
 20
-2.703340381370562
 30
0.0
 10
36.11481451791268
 20
-2.703340381370562
 30
0.0
 10
36.11481720939352
 20
-1.428115073483022
 30
0.0
 10
36.11481720939352
 20
-1.428115073483022
 30
0.0
 10
36.11481720939352
 20
-1.428115073483022
 30
0.0
 10
38.10819252085265
 20
-1.428115073483022
 30
0.0
 10
38.10819252085265
 20
-1.428115073483022
 30
0.0
 10
38.10819252085265
 20
-1.428115073483022
 30
0.0
 10
38.10819278435032
 20
-0.999999384266064
 30
0.0
 10
38.10819278435032
 20
-0.999999384266064
 30
0.0
 10
38.10819312427177
 20
-0.4477148749349249
 30
0.0
 10
38.55590827476734
 20
0.0
 30
0.0
 10
39.10819278409848
 20
0.0
 30
0.0
 10
39.10819278409848
 20
0.0
 30
0.0
 10
53.15052329378549
 20
0.0
 30
0.0
 10
53.15052329378549
 20
0.0
 30
0.0
 10
71.84504447174308
 20
-0.51249336012962
 30
0.0
 10
84.76930081051253
 20
-2.786406740053599
 30
0.0
 10
98.88932253112752
 20
-5.412577837083358
 30
0.0
 10
116.1477838743197
 20
-8.622464709462351
 30
0.0
 10
131.1405134121518
 20
-11.58100035772934
 30
0.0
 10
150.1584423312059
 20
-10.61549095697369
 30
0.0
 10
167.1283381800343
 20
-9.753956872919215
 30
0.0
 10
182.4813305201816
 20
-6.11347172040804
 30
0.0
 10
199.3443879480547
 20
-3.505787680292095
 30
0.0
 10
208.9908816817568
 20
-2.014064850073212
 30
0.0
 10
219.35086546843
 20
-0.3577292780736331
 30
0.0
 10
233.797744749356
 20
0.0
 30
0.0
 10
233.797744749356
 20
0.0
 30
0.0
 10
285.4999999286246
 20
0.0
 30
0.0
 10
285.4999999286246
 20
0.0
 30
0.0
 10
289.3659931764743
 20
0.0
 30
0.0
 10
292.4999999268749
 20
-3.134006750400686
 30
0.0
 10
292.4999999268749
 20
-6.999999998249693
 30
0.0
 10
292.4999999268749
 20
-6.999999998249693
 30
0.0
 10
292.4999999268749
 20
-82.31327455179895
 30
0.0
 10
292.4999999268749
 20
-82.31327455179895
 30
0.0
 10
292.4999999268749
 20
-90.5527161573098
 30
0.0
 10
285.8540831298308
 20
-97.24972967873126
 30
0.0
 10
277.6148831844988
 20
-97.31283460286298
 30
0.0
 10
277.6148831844988
 20
-97.31283460286298
 30
0.0
 10
233.797744749356
 20
-97.64843480858416
 30
0.0
 10
233.797744749356
 20
-97.64843480858416
 30
0.0
 10
219.3508654684275
 20
-98.00616408665843
 30
0.0
 10
208.9908816817568
 20
-99.21289369138556
 30
0.0
 10
199.3443879480547
 20
-100.7046165216038
 30
0.0
 10
182.4813305201816
 20
-103.3123005617191
 30
0.0
 10
167.1283381800343
 20
-106.9527857142303
 30
0.0
 10
150.1584423312059
 20
-107.8143197982841
 30
0.0
 10
131.1405134121518
 20
-108.779829199041
 30
0.0
 10
116.1477838743197
 20
-105.8212935507734
 30
0.0
 10
98.88932253112752
 20
-102.6114066783944
 30
0.0
 10
84.76930081051253
 20
-99.9852355813653
 30
0.0
 10
71.84504447174308
 20
-97.71132220144132
 30
0.0
 10
53.15052329378549
 20
-97.19882884131106
 30
0.0
 10
53.15052329378549
 20
-97.19882884131106
 30
0.0
 10
14.99999999625012
 20
-97.19882884131106
 30
0.0
 10
14.99999999625012
 20
-97.19882884131106
 30
0.0
 10
6.715728750859118
 20
-97.19882884131106
 30
0.0
 10
0.0
 20
-90.48310009045098
 30
0.0
 10
0.0
 20
-82.19882884506126
 30
0.0
 10
0.0
 20
-82.19882884506126
 30
0.0
 10
0.0
 20
-6.999999998250013
 30
0.0
 10
0.0
 20
-6.999999998250013
 30
0.0
 10
0.0
 20
-3.134006750401007
 30
0.0
 10
3.134006750401007
 20
0.0
 30
0.0
 10
6.999999998250013
 20
0.0
 30
0.0
 10
6.999999998250013
 20
0.0
 30
0.0
 10
21.15455294664205
 20
0.0
 30
0.0
 10
21.15455294664205
 20
0.0
 30
0.0
 10
21.70661453886565
 20
0.0
 30
0.0
 10
22.15423729965723
 20
-0.4473670334462752
 30
0.0
 10
22.15455278310637
 20
-0.9994285355262403
 30
0.0
  0
SPLINE
  5
A4
330
1F
100
AcDbEntity
  8
Mid 294.5
 62
     7
420
 16777215
370
    25
100
AcDbSpline
210
0.0
220
0.0
230
1.0
 70
    11
 71
     3
 72
    17
 73
    13
 74
     0
 42
0.0000000001
 43
0.0000000001
 12
1.0
 22
0.0
 32
0.0
 13
1.0
 23
0.0
 33
0.0
 40
0.0
 40
0.0
 40
0.0
 40
0.0
 40
1.0
 40
1.0
 40
1.0
 40
2.0
 40
2.0
 40
2.0
 40
3.0
 40
3.0
 40
3.0
 40
4.0
 40
4.0
 40
4.0
 40
4.0
 10
300.040199740071
 20
-47.3249279168029
 30
0.0
 10
300.9016811068303
 20
-47.3249279168029
 30
0.0
 10
301.6000497396798
 20
-48.0232965496525
 30
0.0
 10
301.6000497396798
 20
-48.88477791641306
 30
0.0
 10
301.6000497396798
 20
-49.74625928317362
 30
0.0
 10
300.9016811068303
 20
-50.44462791602323
 30
0.0
 10
300.040199740071
 20
-50.44462791602323
 30
0.0
 10
299.1787183733104
 20
-50.44462791602323
 30
0.0
 10
298.4803497404608
 20
-49.74625928317362
 30
0.0
 10
298.4803497404608
 20
-48.88477791641306
 30
0.0
 10
298.4803497404608
 20
-48.0232965496525
 30
0.0
 10
299.1787183733104
 20
-47.3249279168029
 30
0.0
 10
300.040199740071
 20
-47.3249279168029
 30
0.0
  0
SPLINE
  5
A5
330
1F
100
AcDbEntity
  8
Mid 294.5
 62
     7
420
 16777215
370
    25
100
AcDbSpline
210
0.0
220
0.0
230
1.0
 70
    11
 71
     3
 72
    17
 73
    13
 74
     0
 42
0.0000000001
 43
0.0000000001
 12
1.0
 22
0.0
 32
0.0
 13
1.0
 23
0.0
 33
0.0
 40
0.0
 40
0.0
 40
0.0
 40
0.0
 40
1.0
 40
1.0
 40
1.0
 40
2.0
 40
2.0
 40
2.0
 40
3.0
 40
3.0
 40
3.0
 40
4.0
 40
4.0
 40
4.0
 40
4.0
 10
300.040199740071
 20
-244.0401278676243
 30
0.0
 10
300.9016811068303
 20
-244.0401278676243
 30
0.0
 10
301.6000497396811
 20
-244.7384965004739
 30
0.0
 10
301.6000497396811
 20
-245.5999778672345
 30
0.0
 10
301.6000497396811
 20
-246.461459233995
 30
0.0
 10
300.9016811068303
 20
-247.1598278668446
 30
0.0
 10
300.040199740071
 20
-247.1598278668446
 30
0.0
 10
299.1787183733104
 20
-247.1598278668446
 30
0.0
 10
298.4803497404608
 20
-246.461459233995
 30
0.0
 10
298.4803497404608
 20
-245.5999778672345
 30
0.0
 10
298.4803497404608
 20
-244.7384965004739
 30
0.0
 10
299.1787183733104
 20
-244.0401278676243
 30
0.0
 10
300.040199740071
 20
-244.0401278676243
 30
0.0
  0
SPLINE
  5
A6
330
1F
100
AcDbEntity
  8
Mid 294.5
 62
     7
420
 16777215
370
    25
100
AcDbSpline
210
0.0
220
0.0
230
1.0
 70
    11
 71
     3
 72
    17
 73
    13
 74
     0
 42
0.0000000001
 43
0.0000000001
 12
1.0
 22
0.0
 32
0.0
 13
1.0
 23
0.0
 33
0.0
 40
0.0
 40
0.0
 40
0.0
 40
0.0
 40
1.0
 40
1.0
 40
1.0
 40
2.0
 40
2.0
 40
2.0
 40
3.0
 40
3.0
 40
3.0
 40
4.0
 40
4.0
 40
4.0
 40
4.0
 10
389.5908687665953
 20
-244.0401278676243
 30
0.0
 10
390.4523501333546
 20
-244.0401278676243
 30
0.0
 10
391.1507187662055
 20
-244.7384965004739
 30
0.0
 10
391.1507187662055
 20
-245.5999778672345
 30
0.0
 10
391.1507187662055
 20
-246.461459233995
 30
0.0
 10
390.4523501333546
 20
-247.1598278668446
 30
0.0
 10
389.5908687665953
 20
-247.1598278668446
 30
0.0
 10
388.7293873998348
 20
-247.1598278668446
 30
0.0
 10
388.0310187669851
 20
-246.461459233995
 30
0.0
 10
388.0310187669851
 20
-245.5999778672345
 30
0.0
 10
388.0310187669851
 20
-244.7384965004739
 30
0.0
 10
388.7293873998348
 20
-244.0401278676243
 30
0.0
 10
389.5908687665953
 20
-244.0401278676243
 30
0.0
  0
SPLINE
  5
A7
330
1F
100
AcDbEntity
  8
Mid 294.5
 62
     7
420
 16777215
370
    25
100
AcDbSpline
210
0.0
220
0.0
230
1.0
 70
    11
 71
     3
 72
    17
 73
    13
 74
     0
 42
0.0000000001
 43
0.0000000001
 12
1.0
 22
0.0
 32
0.0
 13
1.0
 23
0.0
 33
0.0
 40
0.0
 40
0.0
 40
0.0
 40
0.0
 40
1.0
 40
1.0
 40
1.0
 40
2.0
 40
2.0
 40
2.0
 40
3.0
 40
3.0
 40
3.0
 40
4.0
 40
4.0
 40
4.0
 40
4.0
 10
389.5650573059575
 20
-47.3249279168029
 30
0.0
 10
390.426538672718
 20
-47.3249279168029
 30
0.0
 10
391.1249073055677
 20
-48.0232965496525
 30
0.0
 10
391.1249073055677
 20
-48.88477791641306
 30
0.0
 10
391.1249073055677
 20
-49.74625928317362
 30
0.0
 10
390.426538672718
 20
-50.44462791602323
 30
0.0
 10
389.5650573059575
 20
-50.44462791602323
 30
0.0
 10
388.7035759391969
 20
-50.44462791602323
 30
0.0
 10
388.0052073063474
 20
-49.74625928317362
 30
0.0
 10
388.0052073063474
 20
-48.88477791641306
 30
0.0
 10
388.0052073063474
 20
-48.0232965496525
 30
0.0
 10
388.7035759391969
 20
-47.3249279168029
 30
0.0
 10
389.5650573059575
 20
-47.3249279168029
 30
0.0
  0
SPLINE
  5
A8
330
1F
100
AcDbEntity
  8
Mid 294.5
 62
     7
420
 16777215
370
    25
100
AcDbSpline
210
0.0
220
0.0
230
1.0
 70
    11
 71
     3
 72
    17
 73
    13
 74
     0
 42
0.0000000001
 43
0.0000000001
 12
1.0
 22
0.0
 32
0.0
 13
1.0
 23
0.0
 33
0.0
 40
0.0
 40
0.0
 40
0.0
 40
0.0
 40
1.0
 40
1.0
 40
1.0
 40
2.0
 40
2.0
 40
2.0
 40
3.0
 40
3.0
 40
3.0
 40
4.0
 40
4.0
 40
4.0
 40
4.0
 10
333.8016386888914
 20
-3.705627927708782
 30
0.0
 10
334.663120055652
 20
-3.705627927708782
 30
0.0
 10
335.3614886885016
 20
-4.403996560558385
 30
0.0
 10
335.3614886885016
 20
-5.265477927318947
 30
0.0
 10
335.3614886885016
 20
-6.126959294079508
 30
0.0
 10
334.663120055652
 20
-6.825327926929111
 30
0.0
 10
333.8016386888914
 20
-6.825327926929111
 30
0.0
 10
332.9401573221309
 20
-6.825327926929111
 30
0.0
 10
332.2417886892813
 20
-6.126959294079508
 30
0.0
 10
332.2417886892813
 20
-5.265477927318947
 30
0.0
 10
332.2417886892813
 20
-4.403996560558385
 30
0.0
 10
332.9401573221309
 20
-3.705627927708782
 30
0.0
 10
333.8016386888914
 20
-3.705627927708782
 30
0.0
  0
SPLINE
  5
A9
330
1F
100
AcDbEntity
  8
Mid 294.5
 62
     7
420
 16777215
370
    25
100
AcDbSpline
210
0.0
220
0.0
230
1.0
 70
    11
 71
     3
 72
    17
 73
    13
 74
     0
 42
0.0000000001
 43
0.0000000001
 12
1.0
 22
0.0
 32
0.0
 13
1.0
 23
0.0
 33
0.0
 40
0.0
 40
0.0
 40
0.0
 40
0.0
 40
1.0
 40
1.0
 40
1.0
 40
2.0
 40
2.0
 40
2.0
 40
3.0
 40
3.0
 40
3.0
 40
4.0
 40
4.0
 40
4.0
 40
4.0
 10
333.8016386888914
 20
-287.6610278567185
 30
0.0
 10
334.663120055652
 20
-287.6610278567185
 30
0.0
 10
335.3614886885016
 20
-288.3593964895694
 30
0.0
 10
335.3614886885016
 20
-289.2208778563287
 30
0.0
 10
335.3614886885016
 20
-290.0823592230893
 30
0.0
 10
334.663120055652
 20
-290.7807278559389
 30
0.0
 10
333.8016386888914
 20
-290.7807278559389
 30
0.0
 10
332.9401573221309
 20
-290.7807278559389
 30
0.0
 10
332.2417886892813
 20
-290.0823592230893
 30
0.0
 10
332.2417886892813
 20
-289.2208778563287
 30
0.0
 10
332.2417886892813
 20
-288.3593964895694
 30
0.0
 10
332.9401573221309
 20
-287.6610278567185
 30
0.0
 10
333.8016386888914
 20
-287.6610278567185
 30
0.0
  0
INSERT
  5
AB
330
1F
100
AcDbEntity
  8
Mid 294.5
100
AcDbBlockReference
  2
block 15
 10
0.0
 20
0.0
 30
0.0
  0
SPLINE
  5
B1
330
1F
100
AcDbEntity
  8
Mid 294.5
 62
     7
420
 16777215
370
    25
100
AcDbSpline
210
0.0
220
0.0
230
1.0
 70
    11
 71
     3
 72
   167
 73
   163
 74
     0
 42
0.0000000001
 43
0.0000000001
 12
1.0
 22
0.0
 32
0.0
 13
1.0
 23
0.0
 33
0.0
 40
0.0
 40
0.0
 40
0.0
 40
0.0
 40
1.0
 40
1.0
 40
1.0
 40
2.0
 40
2.0
 40
2.0
 40
3.0
 40
3.0
 40
3.0
 40
4.0
 40
4.0
 40
4.0
 40
5.0
 40
5.0
 40
5.0
 40
6.0
 40
6.0
 40
6.0
 40
7.0
 40
7.0
 40
7.0
 40
8.0
 40
8.0
 40
8.0
 40
9.0
 40
9.0
 40
9.0
 40
10.0
 40
10.0
 40
10.0
 40
11.0
 40
11.0
 40
11.0
 40
12.0
 40
12.0
 40
12.0
 40
13.0
 40
13.0
 40
13.0
 40
14.0
 40
14.0
 40
14.0
 40
15.0
 40
15.0
 40
15.0
 40
16.0
 40
16.0
 40
16.0
 40
17.0
 40
17.0
 40
17.0
 40
18.0
 40
18.0
 40
18.0
 40
19.0
 40
19.0
 40
19.0
 40
20.0
 40
20.0
 40
20.0
 40
21.0
 40
21.0
 40
21.0
 40
22.0
 40
22.0
 40
22.0
 40
23.0
 40
23.0
 40
23.0
 40
24.0
 40
24.0
 40
24.0
 40
25.0
 40
25.0
 40
25.0
 40
26.0
 40
26.0
 40
26.0
 40
27.0
 40
27.0
 40
27.0
 40
28.0
 40
28.0
 40
28.0
 40
29.0
 40
29.0
 40
29.0
 40
30.0
 40
30.0
 40
30.0
 40
31.0
 40
31.0
 40
31.0
 40
32.0
 40
32.0
 40
32.0
 40
33.0
 40
33.0
 40
33.0
 40
34.0
 40
34.0
 40
34.0
 40
35.0
 40
35.0
 40
35.0
 40
36.0
 40
36.0
 40
36.0
 40
37.0
 40
37.0
 40
37.0
 40
38.0
 40
38.0
 40
38.0
 40
39.0
 40
39.0
 40
39.0
 40
40.0
 40
40.0
 40
40.0
 40
41.0
 40
41.0
 40
41.0
 40
42.0
 40
42.0
 40
42.0
 40
43.0
 40
43.0
 40
43.0
 40
44.0
 40
44.0
 40
44.0
 40
45.0
 40
45.0
 40
45.0
 40
46.0
 40
46.0
 40
46.0
 40
47.0
 40
47.0
 40
47.0
 40
48.0
 40
48.0
 40
48.0
 40
49.0
 40
49.0
 40
49.0
 40
50.0
 40
50.0
 40
50.0
 40
51.0
 40
51.0
 40
51.0
 40
52.0
 40
52.0
 40
52.0
 40
53.0
 40
53.0
 40
53.0
 40
54.0
 40
54.0
 40
54.0
 40
54.0
 10
295.4999999261249
 20
-272.3454469799833
 30
0.0
 10
295.4999999261249
 20
-271.7933853877594
 30
0.0
 10
295.9473669595712
 20
-271.3457626269678
 30
0.0
 10
296.4994284616511
 20
-271.345447143519
 30
0.0
 10
296.4994284616511
 20
-271.345447143519
 30
0.0
 10
296.9281149996086
 20
-271.3452021644593
 30
0.0
 10
296.9281149996086
 20
-271.3452021644593
 30
0.0
 10
296.9281149996086
 20
-271.3452021644593
 30
0.0
 10
296.92813552215
 20
-269.5553216454637
 30
0.0
 10
296.92813552215
 20
-269.5553216454637
 30
0.0
 10
296.92813552215
 20
-269.5553216454637
 30
0.0
 10
299.2102621231157
 20
-269.5567642791981
 30
0.0
 10
299.2102621231157
 20
-269.5567642791981
 30
0.0
 10
299.3367819090711
 20
-270.3233787690917
 30
0.0
 10
299.9995694973427
 20
-270.1985263555216
 30
0.0
 10
300.7765535900729
 20
-270.1985263555216
 30
0.0
 10
300.7765535900729
 20
-270.1985263555216
 30
0.0
 10
302.475553903195
 20
-270.1985263555216
 30
0.0
 10
302.475553903195
 20
-270.1985263555216
 30
0.0
 10
302.475553903195
 20
-270.1985263555216
 30
0.0
 10
302.4953510905714
 20
-270.1985236640407
 30
0.0
 10
302.4953510905714
 20
-270.1985236640407
 30
0.0
 10
302.4953510905714
 20
-270.1985236640407
 30
0.0
 10
302.4953510905714
 20
-280.91204796056
 30
0.0
 10
302.4953510905714
 20
-280.91204796056
 30
0.0
 10
302.4953510905714
 20
-283.6931605036066
 30
0.0
 10
304.7821987449781
 20
-285.9476982761753
 30
0.0
 10
307.6031680821601
 20
-285.9476982761753
 30
0.0
 10
307.6031680821601
 20
-285.9476982761753
 30
0.0
 10
381.0902643734502
 20
-285.9476982761753
 30
0.0
 10
381.0902643734502
 20
-285.9476982761753
 30
0.0
 10
383.9194306155543
 20
-285.9476982761753
 30
0.0
 10
386.2096547326847
 20
-283.6805334212089
 30
0.0
 10
386.1980383013453
 20
-280.8913625845039
 30
0.0
 10
386.1980383013453
 20
-280.8913625845039
 30
0.0
 10
386.0086657088905
 20
-235.4401182628114
 30
0.0
 10
386.0086657088905
 20
-235.4401182628114
 30
0.0
 10
386.0086657088905
 20
-235.4401182628114
 30
0.0
 10
397.2453506324322
 20
-156.531476552124
 30
0.0
 10
397.2453506324322
 20
-156.531476552124
 30
0.0
 10
397.2453506324322
 20
-156.531476552124
 30
0.0
 10
397.2453506324322
 20
-147.467301139351
 30
0.0
 10
397.2453506324322
 20
-147.467301139351
 30
0.0
 10
397.2453506324322
 20
-147.467301139351
 30
0.0
 10
386.0049622312439
 20
-71.68077721217136
 30
0.0
 10
386.0049622312439
 20
-71.68077721217136
 30
0.0
 10
386.0049622312439
 20
-71.68077721217136
 30
0.0
 10
386.0049729971673
 20
-13.88882674647612
 30
0.0
 10
386.0049729971673
 20
-13.88882674647612
 30
0.0
 10
386.0049729971673
 20
-11.12185524380414
 30
0.0
 10
383.740468671019
 20
-8.873219888734793
 30
0.0
 10
380.9339162509985
 20
-8.853302930460693
 30
0.0
 10
380.9339162509985
 20
-8.853302930460693
 30
0.0
 10
333.168455951898
 20
-8.501343362948857
 30
0.0
 10
333.168455951898
 20
-8.501343362948857
 30
0.0
 10
331.7651824333685
 20
-8.491395649735198
 30
0.0
 10
329.604822267147
 20
-7.348334499576084
 30
0.0
 10
329.6048249586279
 20
-5.964848748240098
 30
0.0
 10
329.6048249586279
 20
-4.574300551159349
 30
0.0
 10
328.4544026083499
 20
-3.447689731942305
 30
0.0
 10
327.0439186126291
 20
-3.447689731942305
 30
0.0
 10
327.0439186126291
 20
-3.447689731942305
 30
0.0
 10
307.6031680821601
 20
-3.447689731942305
 30
0.0
 10
307.6031680821601
 20
-3.447689731942305
 30
0.0
 10
304.7821987449781
 20
-3.447689731942305
 30
0.0
 10
302.4953510905714
 20
-5.702246344876929
 30
0.0
 10
302.4953510905714
 20
-8.483342739038426
 30
0.0
 10
302.4953510905714
 20
-8.483342739038426
 30
0.0
 10
302.4953510905714
 20
-71.89026054952133
 30
0.0
 10
302.4953510905714
 20
-71.89026054952133
 30
0.0
 10
302.4953510905714
 20
-71.89026054952133
 30
0.0
 10
313.923929178382
 20
-147.467301139351
 30
0.0
 10
313.923929178382
 20
-147.467301139351
 30
0.0
 10
313.923929178382
 20
-147.467301139351
 30
0.0
 10
313.923929178382
 20
-152.3518867094189
 30
0.0
 10
313.923929178382
 20
-152.3518867094189
 30
0.0
 10
313.923929178382
 20
-152.3518867094189
 30
0.0
 10
313.923929178382
 20
-156.531476552124
 30
0.0
 10
313.923929178382
 20
-156.531476552124
 30
0.0
 10
313.923929178382
 20
-156.531476552124
 30
0.0
 10
302.4953510905714
 20
-234.938566189776
 30
0.0
 10
302.4953510905714
 20
-234.938566189776
 30
0.0
 10
302.4953510905714
 20
-234.938566189776
 30
0.0
 10
302.4953510905714
 20
-256.4945259495034
 30
0.0
 10
302.4953510905714
 20
-256.4945259495034
 30
0.0
 10
302.4953510905714
 20
-256.4945259495034
 30
0.0
 10
302.475553903195
 20
-256.4945259495034
 30
0.0
 10
302.475553903195
 20
-256.4945259495034
 30
0.0
 10
302.475553903195
 20
-256.4945259495034
 30
0.0
 10
300.7765535900729
 20
-256.4945259495034
 30
0.0
 10
300.7765535900729
 20
-256.4945259495034
 30
0.0
 10
299.9819268403851
 20
-256.4945259495034
 30
0.0
 10
299.3097079667874
 20
-256.5977119422483
 30
0.0
 10
299.2033403072452
 20
-257.3851854087127
 30
0.0
 10
299.2033403072452
 20
-257.3851854087127
 30
0.0
 10
296.9281149996086
 20
-257.3851827172318
 30
0.0
 10
296.9281149996086
 20
-257.3851827172318
 30
0.0
 10
296.9281149996086
 20
-257.3851827172318
 30
0.0
 10
296.9281149996086
 20
-255.3918074057727
 30
0.0
 10
296.9281149996086
 20
-255.3918074057727
 30
0.0
 10
296.9281149996086
 20
-255.3918074057727
 30
0.0
 10
296.4999993103916
 20
-255.391807142275
 30
0.0
 10
296.4999993103916
 20
-255.391807142275
 30
0.0
 10
295.9477148010598
 20
-255.3918068023536
 30
0.0
 10
295.4999999261249
 20
-254.9440916518577
 30
0.0
 10
295.4999999261249
 20
-254.3918071425259
 30
0.0
 10
295.4999999261249
 20
-254.3918071425259
 30
0.0
 10
295.4999999261249
 20
-240.9860542510937
 30
0.0
 10
295.4999999261249
 20
-240.9860542510937
 30
0.0
 10
296.0219839040349
 20
-222.1637072873041
 30
0.0
 10
298.3380067909944
 20
-209.1510799650216
 30
0.0
 10
301.0128106861171
 20
-194.9345110873422
 30
0.0
 10
304.2821399079843
 20
-177.5580431708633
 30
0.0
 10
307.2954632534418
 20
-162.4627992430291
 30
0.0
 10
306.3120740489682
 20
-143.3148332031606
 30
0.0
 10
305.4345856300239
 20
-126.2289038784426
 30
0.0
 10
301.7266840857994
 20
-110.7709338128937
 30
0.0
 10
299.0707096004963
 20
-93.79257342824889
 30
0.0
 10
297.5513622734225
 20
-84.08012076303312
 30
0.0
 10
295.8643538204591
 20
-73.64929948038387
 30
0.0
 10
295.4999999261249
 20
-59.10363811890395
 30
0.0
 10
295.4999999261249
 20
-59.10363811890395
 30
0.0
 10
295.4999999261249
 20
-6.999999998249693
 30
0.0
 10
295.4999999261249
 20
-6.999999998249693
 30
0.0
 10
295.4999999261249
 20
-3.134006750400686
 30
0.0
 10
298.6340066765256
 20
0.0
 30
0.0
 10
302.4999999243745
 20
0.0
 30
0.0
 10
302.4999999243745
 20
0.0
 30
0.0
 10
379.6145753714451
 20
0.0
 30
0.0
 10
379.6145753714451
 20
0.0
 30
0.0
 10
387.8534973184255
 20
0.0
 30
0.0
 10
394.5502921842553
 20
-6.645109331288945
 30
0.0
 10
394.6141251556332
 20
-14.88378399413302
 30
0.0
 10
394.6141251556332
 20
-14.88378399413302
 30
0.0
 10
394.9567390830162
 20
-59.10363811890395
 30
0.0
 10
394.9567390830162
 20
-59.10363811890395
 30
0.0
 10
395.3210929773504
 20
-73.64929948038579
 30
0.0
 10
396.5501694266093
 20
-84.08012076303312
 30
0.0
 10
398.0695167536838
 20
-93.79257342824889
 30
0.0
 10
400.7254912389863
 20
-110.7709338128937
 30
0.0
 10
404.4333927832108
 20
-126.2289038784426
 30
0.0
 10
405.3108812021551
 20
-143.3148332031606
 30
0.0
 10
406.2942704066287
 20
-162.4627992430291
 30
0.0
 10
403.2809470611712
 20
-177.5580431708633
 30
0.0
 10
400.0116178393041
 20
-194.9345110873422
 30
0.0
 10
397.3368139441819
 20
-209.1510799650216
 30
0.0
 10
395.0207910572218
 20
-222.1637072873041
 30
0.0
 10
394.4988070793117
 20
-240.9860542510937
 30
0.0
 10
394.4988070793117
 20
-240.9860542510937
 30
0.0
 10
394.4988070793117
 20
-279.4999999301253
 30
0.0
 10
394.4988070793117
 20
-279.4999999301253
 30
0.0
 10
394.4988070793117
 20
-287.7842711755163
 30
0.0
 10
387.7830783284523
 20
-294.4999999263751
 30
0.0
 10
379.498807083062
 20
-294.4999999263751
 30
0.0
 10
379.498807083062
 20
-294.4999999263751
 30
0.0
 10
302.4999999243745
 20
-294.4999999263751
 30
0.0
 10
302.4999999243745
 20
-294.4999999263751
 30
0.0
 10
298.6340066765262
 20
-294.4999999263751
 30
0.0
 10
295.4999999261249
 20
-291.3659931759744
 30
0.0
 10
295.4999999261249
 20
-287.4999999281248
 30
0.0
 10
295.4999999261249
 20
-287.4999999281248
 30
0.0
 10
295.4999999261249
 20
-272.3454469799833
 30
0.0
 10
295.4999999261249
 20
-272.3454469799833
 30
0.0
  0
ENDSEC
  0
SECTION
  2
OBJECTS
  0
DICTIONARY
  5
C
330
0
100
AcDbDictionary
281
     1
  3
ACAD_GROUP
350
D
  3
ACAD_LAYOUT
350
1A
  3
ACAD_MATERIAL
350
3B
  3
ACAD_MLEADERSTYLE
350
B5
  3
ACAD_MLINESTYLE
350
17
  3
ACAD_PLOTSETTINGS
350
19
  3
ACAD_PLOTSTYLENAME
350
E
  3
ACAD_TABLESTYLE
350
B4
  3
ACAD_VISUALSTYLE
350
2A
  0
SUN
  5
3F
330
29
100
AcDbSun
 90
        1
290
     0
 63
     7
421
 16777215
 40
1.0
291
     1
 91
  2455826
 92
 54000000
292
     0
 70
     2
 71
   256
280
     1
  0
DICTIONARY
  5
D
102
{ACAD_REACTORS
330
C
102
}
330
C
100
AcDbDictionary
281
     1
  0
DICTIONARY
  5
1A
102
{ACAD_REACTORS
330
C
102
}
330
C
100
AcDbDictionary
281
     1
  3
Layout1
350
1E
  3
Layout2
350
26
  3
Model
350
22
  0
DICTIONARY
  5
3B
102
{ACAD_REACTORS
330
C
102
}
330
C
100
AcDbDictionary
281
     1
  3
ByBlock
350
3D
  3
ByLayer
350
3C
  3
Global
350
3E
  0
DICTIONARY
  5
B5
102
{ACAD_REACTORS
330
C
102
}
330
C
100
AcDbDictionary
281
     1
  0
DICTIONARY
  5
17
102
{ACAD_REACTORS
330
C
102
}
330
C
100
AcDbDictionary
281
     1
  3
Standard
350
18
  0
DICTIONARY
  5
19
102
{ACAD_REACTORS
330
C
102
}
330
C
100
AcDbDictionary
281
     1
  0
ACDBDICTIONARYWDFLT
  5
E
102
{ACAD_REACTORS
330
C
102
}
330
C
100
AcDbDictionary
281
     1
  3
Normal
350
F
100
AcDbDictionaryWithDefault
340
F
  0
DICTIONARY
  5
B4
102
{ACAD_REACTORS
330
C
102
}
330
C
100
AcDbDictionary
281
     1
  0
DICTIONARY
  5
2A
102
{ACAD_REACTORS
330
C
102
}
330
C
100
AcDbDictionary
281
     1
  3
2dWireframe
350
2F
  3
3D Hidden
350
31
  3
3dWireframe
350
30
  3
Basic
350
32
  3
Brighten
350
36
  3
ColorChange
350
3A
  3
Conceptual
350
34
  3
Dim
350
35
  3
Facepattern
350
39
  3
Flat
350
2B
  3
FlatWithEdges
350
2C
  3
Gouraud
350
2D
  3
GouraudWithEdges
350
2E
  3
Linepattern
350
38
  3
Realistic
350
33
  3
Thicken
350
37
  0
LAYOUT
  5
1E
102
{ACAD_REACTORS
330
1A
102
}
330
1A
100
AcDbPlotSettings
  1

  2
none_device
  4

  6

 40
0.0
 41
0.0
 42
0.0
 43
0.0
 44
0.0
 45
0.0
 46
0.0
 47
0.0
 48
0.0
 49
0.0
140
0.0
141
0.0
142
1.0
143
1.0
 70
   688
 72
     0
 73
     0
 74
     5
  7

 75
    16
 76
     0
 77
     2
 78
   300
147
1.0
148
0.0
149
0.0
100
AcDbLayout
  1
Layout1
 70
     1
 71
     1
 10
0.0
 20
0.0
 11
12.0
 21
9.0
 12
0.0
 22
0.0
 32
0.0
 14
1.000000000000000E+20
 24
1.000000000000000E+20
 34
1.000000000000000E+20
 15
-1.000000000000000E+20
 25
-1.000000000000000E+20
 35
-1.000000000000000E+20
146
0.0
 13
0.0
 23
0.0
 33
0.0
 16
1.0
 26
0.0
 36
0.0
 17
0.0
 27
1.0
 37
0.0
 76
     0
330
1B
  0
LAYOUT
  5
26
102
{ACAD_REACTORS
330
1A
102
}
330
1A
100
AcDbPlotSettings
  1

  2
none_device
  4

  6

 40
0.0
 41
0.0
 42
0.0
 43
0.0
 44
0.0
 45
0.0
 46
0.0
 47
0.0
 48
0.0
 49
0.0
140
0.0
141
0.0
142
1.0
143
1.0
 70
   688
 72
     0
 73
     0
 74
     5
  7

 75
    16
 76
     0
 77
     2
 78
   300
147
1.0
148
0.0
149
0.0
100
AcDbLayout
  1
Layout2
 70
     1
 71
     2
 10
0.0
 20
0.0
 11
0.0
 21
0.0
 12
0.0
 22
0.0
 32
0.0
 14
0.0
 24
0.0
 34
0.0
 15
0.0
 25
0.0
 35
0.0
146
0.0
 13
0.0
 23
0.0
 33
0.0
 16
1.0
 26
0.0
 36
0.0
 17
0.0
 27
1.0
 37
0.0
 76
     0
330
23
  0
LAYOUT
  5
22
102
{ACAD_REACTORS
330
1A
102
}
330
1A
100
AcDbPlotSettings
  1

  2
none_device
  4

  6

 40
0.0
 41
0.0
 42
0.0
 43
0.0
 44
0.0
 45
0.0
 46
0.0
 47
0.0
 48
0.0
 49
0.0
140
0.0
141
0.0
142
1.0
143
1.0
 70
  1712
 72
     0
 73
     0
 74
     0
  7

 75
     0
 76
     0
 77
     2
 78
   300
147
1.0
148
0.0
149
0.0
100
AcDbLayout
  1
Model
 70
     1
 71
     0
 10
0.0
 20
0.0
 11
12.0
 21
9.0
 12
0.0
 22
0.0
 32
0.0
 14
1.000000000000000E+20
 24
1.000000000000000E+20
 34
1.000000000000000E+20
 15
-1.000000000000000E+20
 25
-1.000000000000000E+20
 35
-1.000000000000000E+20
146
0.0
 13
0.0
 23
0.0
 33
0.0
 16
1.0
 26
0.0
 36
0.0
 17
0.0
 27
1.0
 37
0.0
 76
     0
330
1F
331
29
  0
MATERIAL
  5
3D
102
{ACAD_REACTORS
330
3B
102
}
330
3B
100
AcDbMaterial
  1
ByBlock
 72
     1
 94
      127
  0
MATERIAL
  5
3C
102
{ACAD_REACTORS
330
3B
102
}
330
3B
100
AcDbMaterial
  1
ByLayer
 72
     1
 94
      127
  0
MATERIAL
  5
3E
102
{ACAD_REACTORS
330
3B
102
}
330
3B
100
AcDbMaterial
  1
Global
 72
     1
 94
      127
  0
MLINESTYLE
  5
18
102
{ACAD_REACTORS
330
17
102
}
330
17
100
AcDbMlineStyle
  2
Standard
 70
     0
  3

 62
   256
 51
90.0
 52
90.0
 71
     2
 49
0.5
 62
   256
  6
BYLAYER
 49
-0.5
 62
   256
  6
BYLAYER
  0
ACDBPLACEHOLDER
  5
F
102
{ACAD_REACTORS
330
E
102
}
330
E
  0
VISUALSTYLE
  5
2F
102
{ACAD_REACTORS
330
2A
102
}
330
2A
100
AcDbVisualStyle
  2
2dWireframe
 70
     4
177
     2
291
     0
 71
     0
176
     1
 72
     2
176
     1
 73
     0
176
     1
 90
        0
176
     1
 40
-0.6
176
     1
 41
-30.0
176
     1
 62
     5
 63
     7
421
 16777215
176
     1
 74
     1
176
     1
 91
        4
176
     1
 64
     7
176
     1
 65
   257
176
     1
 75
     1
176
     1
175
     1
176
     1
 42
1.0
176
     1
 92
        0
176
     1
 66
   257
176
     1
 43
1.0
176
     1
 76
     1
176
     1
 77
     6
176
     1
 78
     2
176
     1
 67
     7
176
     1
 79
     5
176
     1
170
     0
176
     1
171
     0
176
     1
290
     0
176
     1
 93
        1
176
     1
 44
0.0
176
     1
173
     0
176
     1
  0
VISUALSTYLE
  5
31
102
{ACAD_REACTORS
330
2A
102
}
330
2A
100
AcDbVisualStyle
  2
3D Hidden
 70
     6
177
     2
291
     0
 71
     1
176
     1
 72
     2
176
     1
 73
     2
176
     1
 90
        0
176
     1
 40
-0.6
176
     1
 41
-30.0
176
     1
 62
     5
 63
     7
421
 16777215
176
     1
 74
     2
176
     1
 91
        2
176
     1
 64
     7
176
     1
 65
   257
176
     1
 75
     2
176
     1
175
     1
176
     1
 42
40.0
176
     1
 92
        0
176
     1
 66
   257
176
     1
 43
1.0
176
     1
 76
     1
176
     1
 77
     6
176
     1
 78
     2
176
     1
 67
     7
176
     1
 79
     3
176
     1
170
     0
176
     1
171
     0
176
     1
290
     0
176
     1
 93
        1
176
     1
 44
0.0
176
     1
173
     0
176
     1
  0
VISUALSTYLE
  5
30
102
{ACAD_REACTORS
330
2A
102
}
330
2A
100
AcDbVisualStyle
  2
3dWireframe
 70
     5
177
     2
291
     0
 71
     0
176
     1
 72
     2
176
     1
 73
     0
176
     1
 90
        0
176
     1
 40
-0.6
176
     1
 41
-30.0
176
     1
 62
     5
 63
     7
421
 16777215
176
     1
 74
     1
176
     1
 91
        4
176
     1
 64
     7
176
     1
 65
   257
176
     1
 75
     1
176
     1
175
     1
176
     1
 42
1.0
176
     1
 92
        0
176
     1
 66
   257
176
     1
 43
1.0
176
     1
 76
     1
176
     1
 77
     6
176
     1
 78
     2
176
     1
 67
     7
176
     1
 79
     5
176
     1
170
     0
176
     1
171
     0
176
     1
290
     0
176
     1
 93
        1
176
     1
 44
0.0
176
     1
173
     0
176
     1
  0
VISUALSTYLE
  5
32
102
{ACAD_REACTORS
330
2A
102
}
330
2A
100
AcDbVisualStyle
  2
Basic
 70
     7
177
     2
291
     1
 71
     1
176
     1
 72
     0
176
     1
 73
     1
176
     1
 90
        0
176
     1
 40
-0.6
176
     1
 41
-30.0
176
     1
 62
     5
 63
     7
421
 16777215
176
     1
 74
     0
176
     1
 91
        4
176
     1
 64
     7
176
     1
 65
   257
176
     1
 75
     1
176
     1
175
     1
176
     1
 42
1.0
176
     1
 92
        8
176
     1
 66
     7
176
     1
 43
1.0
176
     1
 76
     1
176
     1
 77
     6
176
     1
 78
     2
176
     1
 67
     7
176
     1
 79
     5
176
     1
170
     0
176
     1
171
     0
176
     1
290
     0
176
     1
 93
        1
176
     1
 44
0.0
176
     1
173
     0
176
     1
  0
VISUALSTYLE
  5
36
102
{ACAD_REACTORS
330
2A
102
}
330
2A
100
AcDbVisualStyle
  2
Brighten
 70
    12
177
     2
291
     1
 71
     2
176
     1
 72
     2
176
     1
 73
     0
176
     1
 90
        0
176
     1
 40
-0.6
176
     1
 41
-30.0
176
     1
 62
     5
 63
     7
421
 16777215
176
     1
 74
     1
176
     1
 91
        4
176
     1
 64
     7
176
     1
 65
   257
176
     1
 75
     1
176
     1
175
     1
176
     1
 42
1.0
176
     1
 92
        8
176
     1
 66
     7
176
     1
 43
1.0
176
     1
 76
     1
176
     1
 77
     6
176
     1
 78
     2
176
     1
 67
     7
176
     1
 79
     5
176
     1
170
     0
176
     1
171
     0
176
     1
290
     0
176
     1
 93
        1
176
     1
 44
50.0
176
     1
173
     0
176
     1
  0
VISUALSTYLE
  5
3A
102
{ACAD_REACTORS
330
2A
102
}
330
2A
100
AcDbVisualStyle
  2
ColorChange
 70
    16
177
     2
291
     1
 71
     2
176
     1
 72
     2
176
     1
 73
     3
176
     1
 90
        0
176
     1
 40
-0.6
176
     1
 41
-30.0
176
     1
 62
     5
 63
     8
421
  8421504
176
     1
 74
     1
176
     1
 91
        4
176
     1
 64
     7
176
     1
 65
   257
176
     1
 75
     1
176
     1
175
     1
176
     1
 42
1.0
176
     1
 92
        8
176
     1
 66
     8
424
  8421504
176
     1
 43
1.0
176
     1
 76
     1
176
     1
 77
     6
176
     1
 78
     2
176
     1
 67
     7
176
     1
 79
     5
176
     1
170
     0
176
     1
171
     0
176
     1
290
     0
176
     1
 93
        1
176
     1
 44
0.0
176
     1
173
     0
176
     1
  0
VISUALSTYLE
  5
34
102
{ACAD_REACTORS
330
2A
102
}
330
2A
100
AcDbVisualStyle
  2
Conceptual
 70
     9
177
     2
291
     0
 71
     3
176
     1
 72
     2
176
     1
 73
     0
176
     1
 90
        0
176
     1
 40
-0.6
176
     1
 41
-30.0
176
     1
 62
     5
 63
     7
421
 16777215
176
     1
 74
     2
176
     1
 91
        2
176
     1
 64
     7
176
     1
 65
   257
176
     1
 75
     1
176
     1
175
     1
176
     1
 42
40.0
176
     1
 92
        8
176
     1
 66
     7
176
     1
 43
1.0
176
     1
 76
     1
176
     1
 77
     6
176
     1
 78
     2
176
     1
 67
     7
176
     1
 79
     3
176
     1
170
     0
176
     1
171
     0
176
     1
290
     0
176
     1
 93
        1
176
     1
 44
0.0
176
     1
173
     0
176
     1
  0
VISUALSTYLE
  5
35
102
{ACAD_REACTORS
330
2A
102
}
330
2A
100
AcDbVisualStyle
  2
Dim
 70
    11
177
     2
291
     1
 71
     2
176
     1
 72
     2
176
     1
 73
     0
176
     1
 90
        0
176
     1
 40
-0.6
176
     1
 41
-30.0
176
     1
 62
     5
 63
     7
421
 16777215
176
     1
 74
     1
176
     1
 91
        4
176
     1
 64
     7
176
     1
 65
   257
176
     1
 75
     1
176
     1
175
     1
176
     1
 42
1.0
176
     1
 92
        8
176
     1
 66
     7
176
     1
 43
1.0
176
     1
 76
     1
176
     1
 77
     6
176
     1
 78
     2
176
     1
 67
     7
176
     1
 79
     5
176
     1
170
     0
176
     1
171
     0
176
     1
290
     0
176
     1
 93
        1
176
     1
 44
-50.0
176
     1
173
     0
176
     1
  0
VISUALSTYLE
  5
39
102
{ACAD_REACTORS
330
2A
102
}
330
2A
100
AcDbVisualStyle
  2
Facepattern
 70
    15
177
     2
291
     1
 71
     2
176
     1
 72
     2
176
     1
 73
     0
176
     1
 90
        0
176
     1
 40
-0.6
176
     1
 41
-30.0
176
     1
 62
     5
 63
     7
421
 16777215
176
     1
 74
     1
176
     1
 91
        4
176
     1
 64
     7
176
     1
 65
   257
176
     1
 75
     1
176
     1
175
     1
176
     1
 42
1.0
176
     1
 92
        8
176
     1
 66
     7
176
     1
 43
1.0
176
     1
 76
     1
176
     1
 77
     6
176
     1
 78
     2
176
     1
 67
     7
176
     1
 79
     5
176
     1
170
     0
176
     1
171
     0
176
     1
290
     0
176
     1
 93
        1
176
     1
 44
0.0
176
     1
173
     0
176
     1
  0
VISUALSTYLE
  5
2B
102
{ACAD_REACTORS
330
2A
102
}
330
2A
100
AcDbVisualStyle
  2
Flat
 70
     0
177
     2
291
     1
 71
     2
176
     1
 72
     1
176
     1
 73
     1
176
     1
 90
        2
176
     1
 40
-0.6
176
     1
 41
30.0
176
     1
 62
     5
 63
     7
421
 16777215
176
     1
 74
     0
176
     1
 91
        4
176
     1
 64
     7
176
     1
 65
   257
176
     1
 75
     1
176
     1
175
     1
176
     1
 42
1.0
176
     1
 92
        8
176
     1
 66
     7
176
     1
 43
1.0
176
     1
 76
     1
176
     1
 77
     6
176
     1
 78
     2
176
     1
 67
     7
176
     1
 79
     5
176
     1
170
     0
176
     1
171
     0
176
     1
290
     0
176
     1
 93
       13
176
     1
 44
0.0
176
     1
173
     0
176
     1
  0
VISUALSTYLE
  5
2C
102
{ACAD_REACTORS
330
2A
102
}
330
2A
100
AcDbVisualStyle
  2
FlatWithEdges
 70
     1
177
     2
291
     1
 71
     2
176
     1
 72
     1
176
     1
 73
     1
176
     1
 90
        2
176
     1
 40
-0.6
176
     1
 41
30.0
176
     1
 62
     5
 63
     7
421
 16777215
176
     1
 74
     1
176
     1
 91
        4
176
     1
 64
     7
176
     1
 65
   257
176
     1
 75
     1
176
     1
175
     1
176
     1
 42
1.0
176
     1
 92
        0
176
     1
 66
   257
176
     1
 43
1.0
176
     1
 76
     1
176
     1
 77
     6
176
     1
 78
     2
176
     1
 67
     7
176
     1
 79
     5
176
     1
170
     0
176
     1
171
     0
176
     1
290
     0
176
     1
 93
       13
176
     1
 44
0.0
176
     1
173
     0
176
     1
  0
VISUALSTYLE
  5
2D
102
{ACAD_REACTORS
330
2A
102
}
330
2A
100
AcDbVisualStyle
  2
Gouraud
 70
     2
177
     2
291
     1
 71
     2
176
     1
 72
     2
176
     1
 73
     1
176
     1
 90
        2
176
     1
 40
-0.6
176
     1
 41
30.0
176
     1
 62
     5
 63
     7
421
 16777215
176
     1
 74
     0
176
     1
 91
        4
176
     1
 64
     7
176
     1
 65
   257
176
     1
 75
     1
176
     1
175
     1
176
     1
 42
1.0
176
     1
 92
        0
176
     1
 66
     7
176
     1
 43
1.0
176
     1
 76
     1
176
     1
 77
     6
176
     1
 78
     2
176
     1
 67
     7
176
     1
 79
     5
176
     1
170
     0
176
     1
171
     0
176
     1
290
     0
176
     1
 93
       13
176
     1
 44
0.0
176
     1
173
     0
176
     1
  0
VISUALSTYLE
  5
2E
102
{ACAD_REACTORS
330
2A
102
}
330
2A
100
AcDbVisualStyle
  2
GouraudWithEdges
 70
     3
177
     2
291
     1
 71
     2
176
     1
 72
     2
176
     1
 73
     1
176
     1
 90
        2
176
     1
 40
-0.6
176
     1
 41
30.0
176
     1
 62
     5
 63
     7
421
 16777215
176
     1
 74
     1
176
     1
 91
        4
176
     1
 64
     7
176
     1
 65
   257
176
     1
 75
     1
176
     1
175
     1
176
     1
 42
1.0
176
     1
 92
        0
176
     1
 66
   257
176
     1
 43
1.0
176
     1
 76
     1
176
     1
 77
     6
176
     1
 78
     2
176
     1
 67
     7
176
     1
 79
     5
176
     1
170
     0
176
     1
171
     0
176
     1
290
     0
176
     1
 93
       13
176
     1
 44
0.0
176
     1
173
     0
176
     1
  0
VISUALSTYLE
  5
38
102
{ACAD_REACTORS
330
2A
102
}
330
2A
100
AcDbVisualStyle
  2
Linepattern
 70
    14
177
     2
291
     1
 71
     2
176
     1
 72
     2
176
     1
 73
     0
176
     1
 90
        0
176
     1
 40
-0.6
176
     1
 41
-30.0
176
     1
 62
     5
 63
     7
421
 16777215
176
     1
 74
     1
176
     1
 91
        4
176
     1
 64
     7
176
     1
 65
   257
176
     1
 75
     7
176
     1
175
     7
176
     1
 42
1.0
176
     1
 92
        8
176
     1
 66
     7
176
     1
 43
1.0
176
     1
 76
     1
176
     1
 77
     6
176
     1
 78
     2
176
     1
 67
     7
176
     1
 79
     5
176
     1
170
     0
176
     1
171
     0
176
     1
290
     0
176
     1
 93
        1
176
     1
 44
0.0
176
     1
173
     0
176
     1
  0
VISUALSTYLE
  5
33
102
{ACAD_REACTORS
330
2A
102
}
330
2A
100
AcDbVisualStyle
  2
Realistic
 70
     8
177
     2
291
     0
 71
     2
176
     1
 72
     2
176
     1
 73
     0
176
     1
 90
        0
176
     1
 40
-0.6
176
     1
 41
-30.0
176
     1
 62
     5
 63
     7
421
 16777215
176
     1
 74
     1
176
     1
 91
        0
176
     1
 64
     7
176
     1
 65
   257
176
     1
 75
     1
176
     1
175
     1
176
     1
 42
1.0
176
     1
 92
        8
176
     1
 66
     8
424
  7895160
176
     1
 43
1.0
176
     1
 76
     1
176
     1
 77
     6
176
     1
 78
     2
176
     1
 67
     7
176
     1
 79
     5
176
     1
170
     0
176
     1
171
     0
176
     1
290
     0
176
     1
 93
       13
176
     1
 44
0.0
176
     1
173
     0
176
     1
  0
VISUALSTYLE
  5
37
102
{ACAD_REACTORS
330
2A
102
}
330
2A
100
AcDbVisualStyle
  2
Thicken
 70
    13
177
     2
291
     1
 71
     2
176
     1
 72
     2
176
     1
 73
     0
176
     1
 90
        0
176
     1
 40
-0.6
176
     1
 41
-30.0
176
     1
 62
     5
 63
     7
421
 16777215
176
     1
 74
     1
176
     1
 91
        4
176
     1
 64
     7
176
     1
 65
   257
176
     1
 75
     1
176
     1
175
     1
176
     1
 42
1.0
176
     1
 92
       12
176
     1
 66
     7
176
     1
 43
1.0
176
     1
 76
     1
176
     1
 77
     6
176
     1
 78
     2
176
     1
 67
     7
176
     1
 79
     5
176
     1
170
     0
176
     1
171
     0
176
     1
290
     0
176
     1
 93
        1
176
     1
 44
0.0
176
     1
173
     0
176
     1
  0
ENDSEC
  0
EOF
