  0
SECTION
  2
HEADER
  9
$ACADVER
  1
AC1024
  9
$ACADMAINTVER
 70
     6
  9
$DWGCODEPAGE
  3
ANSI_1252
  9
$INSBASE
 10
0.0
 20
0.0
 30
0.0
  9
$EXTMIN
 10
1.000000000000000E+20
 20
1.000000000000000E+20
 30
1.000000000000000E+20
  9
$EXTMAX
 10
-1.000000000000000E+20
 20
-1.000000000000000E+20
 30
-1.000000000000000E+20
  9
$LIMMIN
 10
0.0
 20
0.0
  9
$LIMMAX
 10
12.0
 20
9.0
  9
$ORTHOMODE
 70
     0
  9
$REGENMODE
 70
     1
  9
$FILLMODE
 70
     1
  9
$QTEXTMODE
 70
     0
  9
$MIRRTEXT
 70
     1
  9
$LTSCALE
 40
1.0
  9
$ATTMODE
 70
     1
  9
$TEXTSIZE
 40
0.2
  9
$TRACEWID
 40
0.05
  9
$TEXTSTYLE
  7
Standard
  9
$CLAYER
  8
0
  9
$CELTYPE
  6
ByLayer
  9
$CECOLOR
 62
   256
  9
$CELTSCALE
 40
1.0
  9
$DISPSILH
 70
     0
  9
$DIMSCALE
 40
1.0
  9
$DIMASZ
 40
0.18
  9
$DIMEXO
 40
0.0625
  9
$DIMDLI
 40
0.38
  9
$DIMRND
 40
0.0
  9
$DIMDLE
 40
0.0
  9
$DIMEXE
 40
0.18
  9
$DIMTP
 40
0.0
  9
$DIMTM
 40
0.0
  9
$DIMTXT
 40
0.18
  9
$DIMCEN
 40
0.09
  9
$DIMTSZ
 40
0.0
  9
$DIMTOL
 70
     0
  9
$DIMLIM
 70
     0
  9
$DIMTIH
 70
     1
  9
$DIMTOH
 70
     1
  9
$DIMSE1
 70
     0
  9
$DIMSE2
 70
     0
  9
$DIMTAD
 70
     0
  9
$DIMZIN
 70
     0
  9
$DIMBLK
  1

  9
$DIMASO
 70
     1
  9
$DIMSHO
 70
     1
  9
$DIMPOST
  1

  9
$DIMAPOST
  1

  9
$DIMALT
 70
     0
  9
$DIMALTD
 70
     2
  9
$DIMALTF
 40
25.4
  9
$DIMLFAC
 40
1.0
  9
$DIMTOFL
 70
     0
  9
$DIMTVP
 40
0.0
  9
$DIMTIX
 70
     0
  9
$DIMSOXD
 70
     0
  9
$DIMSAH
 70
     0
  9
$DIMBLK1
  1

  9
$DIMBLK2
  1

  9
$DIMSTYLE
  2
Standard
  9
$DIMCLRD
 70
     0
  9
$DIMCLRE
 70
     0
  9
$DIMCLRT
 70
     0
  9
$DIMTFAC
 40
1.0
  9
$DIMGAP
 40
0.09
  9
$DIMJUST
 70
     0
  9
$DIMSD1
 70
     0
  9
$DIMSD2
 70
     0
  9
$DIMTOLJ
 70
     1
  9
$DIMTZIN
 70
     0
  9
$DIMALTZ
 70
     0
  9
$DIMALTTZ
 70
     0
  9
$DIMUPT
 70
     0
  9
$DIMDEC
 70
     4
  9
$DIMTDEC
 70
     4
  9
$DIMALTU
 70
     2
  9
$DIMALTTD
 70
     2
  9
$DIMTXSTY
  7
Standard
  9
$DIMAUNIT
 70
     0
  9
$DIMADEC
 70
     0
  9
$DIMALTRND
 40
0.0
  9
$DIMAZIN
 70
     0
  9
$DIMDSEP
 70
    46
  9
$DIMATFIT
 70
     3
  9
$DIMFRAC
 70
     0
  9
$DIMLDRBLK
  1

  9
$DIMLUNIT
 70
     2
  9
$DIMLWD
 70
    -2
  9
$DIMLWE
 70
    -2
  9
$DIMTMOVE
 70
     0
  9
$DIMFXL
 40
1.0
  9
$DIMFXLON
 70
     0
  9
$DIMJOGANG
 40
0.7853981633974483
  9
$DIMTFILL
 70
     0
  9
$DIMTFILLCLR
 70
     0
  9
$DIMARCSYM
 70
     0
  9
$DIMLTYPE
  6

  9
$DIMLTEX1
  6

  9
$DIMLTEX2
  6

  9
$DIMTXTDIRECTION
 70
     0
  9
$LUNITS
 70
     2
  9
$LUPREC
 70
     4
  9
$SKETCHINC
 40
0.1
  9
$FILLETRAD
 40
0.5
  9
$AUNITS
 70
     0
  9
$AUPREC
 70
     0
  9
$MENU
  1
.
  9
$ELEVATION
 40
0.0
  9
$PELEVATION
 40
0.0
  9
$THICKNESS
 40
0.0
  9
$LIMCHECK
 70
     0
  9
$CHAMFERA
 40
0.5
  9
$CHAMFERB
 40
0.5
  9
$CHAMFERC
 40
1.0
  9
$CHAMFERD
 40
0.0
  9
$SKPOLY
 70
     0
  9
$TDCREATE
 40
2459453.819454641
  9
$TDUCREATE
 40
2459453.736121308
  9
$TDUPDATE
 40
2459453.819454676
  9
$TDUUPDATE
 40
2459453.736121343
  9
$TDINDWG
 40
0.0000000116
  9
$TDUSRTIMER
 40
0.0000000116
  9
$USRTIMER
 70
     1
  9
$ANGBASE
 50
0.0
  9
$ANGDIR
 70
     0
  9
$PDMODE
 70
     0
  9
$PDSIZE
 40
0.0
  9
$PLINEWID
 40
0.0
  9
$SPLFRAME
 70
     0
  9
$SPLINETYPE
 70
     6
  9
$SPLINESEGS
 70
     8
  9
$HANDSEED
  5
67
  9
$SURFTAB1
 70
     6
  9
$SURFTAB2
 70
     6
  9
$SURFTYPE
 70
     6
  9
$SURFU
 70
     6
  9
$SURFV
 70
     6
  9
$UCSBASE
  2

  9
$UCSNAME
  2

  9
$UCSORG
 10
0.0
 20
0.0
 30
0.0
  9
$UCSXDIR
 10
1.0
 20
0.0
 30
0.0
  9
$UCSYDIR
 10
0.0
 20
1.0
 30
0.0
  9
$UCSORTHOREF
  2

  9
$UCSORTHOVIEW
 70
     0
  9
$UCSORGTOP
 10
0.0
 20
0.0
 30
0.0
  9
$UCSORGBOTTOM
 10
0.0
 20
0.0
 30
0.0
  9
$UCSORGLEFT
 10
0.0
 20
0.0
 30
0.0
  9
$UCSORGRIGHT
 10
0.0
 20
0.0
 30
0.0
  9
$UCSORGFRONT
 10
0.0
 20
0.0
 30
0.0
  9
$UCSORGBACK
 10
0.0
 20
0.0
 30
0.0
  9
$PUCSBASE
  2

  9
$PUCSNAME
  2

  9
$PUCSORG
 10
0.0
 20
0.0
 30
0.0
  9
$PUCSXDIR
 10
1.0
 20
0.0
 30
0.0
  9
$PUCSYDIR
 10
0.0
 20
1.0
 30
0.0
  9
$PUCSORTHOREF
  2

  9
$PUCSORTHOVIEW
 70
     0
  9
$PUCSORGTOP
 10
0.0
 20
0.0
 30
0.0
  9
$PUCSORGBOTTOM
 10
0.0
 20
0.0
 30
0.0
  9
$PUCSORGLEFT
 10
0.0
 20
0.0
 30
0.0
  9
$PUCSORGRIGHT
 10
0.0
 20
0.0
 30
0.0
  9
$PUCSORGFRONT
 10
0.0
 20
0.0
 30
0.0
  9
$PUCSORGBACK
 10
0.0
 20
0.0
 30
0.0
  9
$USERI1
 70
     0
  9
$USERI2
 70
     0
  9
$USERI3
 70
     0
  9
$USERI4
 70
     0
  9
$USERI5
 70
     0
  9
$USERR1
 40
0.0
  9
$USERR2
 40
0.0
  9
$USERR3
 40
0.0
  9
$USERR4
 40
0.0
  9
$USERR5
 40
0.0
  9
$WORLDVIEW
 70
     1
  9
$SHADEDGE
 70
     3
  9
$SHADEDIF
 70
    70
  9
$TILEMODE
 70
     1
  9
$MAXACTVP
 70
    64
  9
$PINSBASE
 10
0.0
 20
0.0
 30
0.0
  9
$PLIMCHECK
 70
     0
  9
$PEXTMIN
 10
1.000000000000000E+20
 20
1.000000000000000E+20
 30
1.000000000000000E+20
  9
$PEXTMAX
 10
-1.000000000000000E+20
 20
-1.000000000000000E+20
 30
-1.000000000000000E+20
  9
$PLIMMIN
 10
0.0
 20
0.0
  9
$PLIMMAX
 10
12.0
 20
9.0
  9
$UNITMODE
 70
     0
  9
$VISRETAIN
 70
     1
  9
$PLINEGEN
 70
     0
  9
$PSLTSCALE
 70
     1
  9
$TREEDEPTH
 70
  3020
  9
$CMLSTYLE
  2
Standard
  9
$CMLJUST
 70
     0
  9
$CMLSCALE
 40
1.0
  9
$PROXYGRAPHICS
 70
     1
  9
$MEASUREMENT
 70
     0
  9
$CELWEIGHT
370
    -1
  9
$ENDCAPS
280
     0
  9
$JOINSTYLE
280
     0
  9
$LWDISPLAY
290
     1
  9
$INSUNITS
 70
     4
  9
$HYPERLINKBASE
  1

  9
$STYLESHEET
  1

  9
$XEDIT
290
     1
  9
$CEPSNTYPE
380
     0
  9
$PSTYLEMODE
290
     1
  9
$FINGERPRINTGUID
  2
{9A9BDFDA-845A-4DCB-A44E-0CDC624EFF93}
  9
$VERSIONGUID
  2
{FAEB1C32-E019-11D5-929B-00C0DF256EC4}
  9
$EXTNAMES
290
     1
  9
$PSVPSCALE
 40
0.0
  9
$OLESTARTUP
290
     0
  9
$SORTENTS
280
   127
  9
$INDEXCTL
280
     0
  9
$HIDETEXT
280
     1
  9
$XCLIPFRAME
280
     2
  9
$HALOGAP
280
     0
  9
$OBSCOLOR
 70
   257
  9
$OBSLTYPE
280
     0
  9
$INTERSECTIONDISPLAY
280
     0
  9
$INTERSECTIONCOLOR
 70
   257
  9
$DIMASSOC
280
     2
  9
$PROJECTNAME
  1

  9
$CAMERADISPLAY
290
     0
  9
$LENSLENGTH
 40
50.0
  9
$CAMERAHEIGHT
 40
0.0
  9
$STEPSPERSEC
 40
2.0
  9
$STEPSIZE
 40
6.0
  9
$3DDWFPREC
 40
2.0
  9
$PSOLWIDTH
 40
0.25
  9
$PSOLHEIGHT
 40
4.0
  9
$LOFTANG1
 40
1.570796326794897
  9
$LOFTANG2
 40
1.570796326794897
  9
$LOFTMAG1
 40
0.0
  9
$LOFTMAG2
 40
0.0
  9
$LOFTPARAM
 70
     7
  9
$LOFTNORMALS
280
     1
  9
$LATITUDE
 40
37.795
  9
$LONGITUDE
 40
-122.394
  9
$NORTHDIRECTION
 40
0.0
  9
$TIMEZONE
 70
 -8000
  9
$LIGHTGLYPHDISPLAY
280
     1
  9
$TILEMODELIGHTSYNCH
280
     1
  9
$CMATERIAL
347
3C
  9
$SOLIDHIST
280
     1
  9
$SHOWHIST
280
     1
  9
$DWFFRAME
280
     2
  9
$DGNFRAME
280
     2
  9
$REALWORLDSCALE
290
     1
  9
$INTERFERECOLOR
 62
   256
  9
$CSHADOW
280
     0
  9
$SHADOWPLANELOCATION
 40
0.0
  0
ENDSEC
  0
SECTION
  2
CLASSES
  0
CLASS
  1
ACDBDICTIONARYWDFLT
  2
AcDbDictionaryWithDefault
  3
ObjectDBX Classes
 90
        0
 91
        4
280
     0
281
     0
  0
CLASS
  1
VISUALSTYLE
  2
AcDbVisualStyle
  3
ObjectDBX Classes
 90
     4095
 91
        4
280
     0
281
     0
  0
CLASS
  1
MATERIAL
  2
AcDbMaterial
  3
ObjectDBX Classes
 90
     1153
 91
        4
280
     0
281
     0
  0
CLASS
  1
SUN
  2
AcDbSun
  3
SCENEOE
 90
     1024
 91
        4
280
     0
281
     0
  0
ENDSEC
  0
SECTION
  2
TABLES
  0
TABLE
  2
VPORT
  5
8
330
0
100
AcDbSymbolTable
 70
     1
  0
VPORT
  5
29
330
8
100
AcDbSymbolTableRecord
100
AcDbViewportTableRecord
  2
*Active
 70
     0
 10
0.0
 20
0.0
 11
1.0
 21
1.0
 12
0.0
 22
0.0
 13
0.0
 23
0.0
 14
0.5
 24
0.5
 15
0.5
 25
0.5
 16
0.0
 26
0.0
 36
1.0
 17
638.3317899638738
 27
-616.8907405865178
 37
0.0
 40
1233.781481173036
 41
1.034756639979667
 42
50.0
 43
0.0
 44
0.0
 50
0.0
 51
0.0
 71
     0
 72
   100
 73
     1
 74
     3
 75
     0
 76
     0
 77
     0
 78
     0
281
     0
 65
     1
110
0.0
120
0.0
130
0.0
111
1.0
121
0.0
131
0.0
112
0.0
122
1.0
132
0.0
 79
     0
146
0.0
 60
     3
 61
     5
292
     1
282
     1
141
0.0
142
0.0
 63
   250
361
3F
  0
ENDTAB
  0
TABLE
  2
LTYPE
  5
5
330
0
100
AcDbSymbolTable
 70
     1
  0
LTYPE
  5
14
330
5
100
AcDbSymbolTableRecord
100
AcDbLinetypeTableRecord
  2
ByBlock
 70
     0
  3

 72
    65
 73
     0
 40
0.0
  0
LTYPE
  5
15
330
5
100
AcDbSymbolTableRecord
100
AcDbLinetypeTableRecord
  2
ByLayer
 70
     0
  3

 72
    65
 73
     0
 40
0.0
  0
LTYPE
  5
16
330
5
100
AcDbSymbolTableRecord
100
AcDbLinetypeTableRecord
  2
Continuous
 70
     0
  3
Solid line
 72
    65
 73
     0
 40
0.0
  0
ENDTAB
  0
TABLE
  2
LAYER
  5
2
330
0
100
AcDbSymbolTable
 70
     2
  0
LAYER
  5
10
330
2
100
AcDbSymbolTableRecord
100
AcDbLayerTableRecord
  2
0
 70
     0
 62
     7
  6
Continuous
370
    -3
390
F
347
3E
  0
LAYER
  5
40
330
2
100
AcDbSymbolTableRecord
100
AcDbLayerTableRecord
  2
top 290.5
 70
     0
 62
     7
  6
Continuous
370
    -3
390
F
347
3E
  0
ENDTAB
  0
TABLE
  2
STYLE
  5
3
330
0
100
AcDbSymbolTable
 70
     1
  0
STYLE
  5
11
330
3
100
AcDbSymbolTableRecord
100
AcDbTextStyleTableRecord
  2
Standard
 70
     0
 40
0.0
 41
1.0
 50
0.0
 71
     0
 42
0.2
  3
txt
  4

  0
ENDTAB
  0
TABLE
  2
VIEW
  5
6
330
0
100
AcDbSymbolTable
 70
     0
  0
ENDTAB
  0
TABLE
  2
UCS
  5
7
330
0
100
AcDbSymbolTable
 70
     0
  0
ENDTAB
  0
TABLE
  2
APPID
  5
9
330
0
100
AcDbSymbolTable
 70
     1
  0
APPID
  5
12
330
9
100
AcDbSymbolTableRecord
100
AcDbRegAppTableRecord
  2
ACAD
 70
     0
  0
ENDTAB
  0
TABLE
  2
DIMSTYLE
  5
A
330
0
100
AcDbSymbolTable
 70
     1
100
AcDbDimStyleTable
  0
DIMSTYLE
105
27
330
A
100
AcDbSymbolTableRecord
100
AcDbDimStyleTableRecord
  2
Standard
 70
     0
178
     0
340
11
  0
ENDTAB
  0
TABLE
  2
BLOCK_RECORD
  5
1
330
0
100
AcDbSymbolTable
 70
     7
  0
BLOCK_RECORD
  5
1F
330
1
100
AcDbSymbolTableRecord
100
AcDbBlockTableRecord
  2
*Model_Space
340
22
 70
     0
280
     1
281
     0
  0
BLOCK_RECORD
  5
1B
330
1
100
AcDbSymbolTableRecord
100
AcDbBlockTableRecord
  2
*Paper_Space
340
1E
 70
     0
280
     1
281
     0
  0
BLOCK_RECORD
  5
23
330
1
100
AcDbSymbolTableRecord
100
AcDbBlockTableRecord
  2
*Paper_Space0
340
26
 70
     0
280
     1
281
     0
  0
BLOCK_RECORD
  5
47
330
1
100
AcDbSymbolTableRecord
100
AcDbBlockTableRecord
  2
block 2
340
0
102
{BLKREFS
331
48
102
}
 70
     0
280
     1
281
     0
  0
BLOCK_RECORD
  5
4C
330
1
100
AcDbSymbolTableRecord
100
AcDbBlockTableRecord
  2
block 3
340
0
102
{BLKREFS
331
4D
102
}
 70
     0
280
     1
281
     0
  0
BLOCK_RECORD
  5
51
330
1
100
AcDbSymbolTableRecord
100
AcDbBlockTableRecord
  2
block 4
340
0
102
{BLKREFS
331
52
102
}
 70
     0
280
     1
281
     0
  0
BLOCK_RECORD
  5
56
330
1
100
AcDbSymbolTableRecord
100
AcDbBlockTableRecord
  2
block 5
340
0
102
{BLKREFS
331
57
102
}
 70
     0
280
     1
281
     0
  0
BLOCK_RECORD
  5
5B
330
1
100
AcDbSymbolTableRecord
100
AcDbBlockTableRecord
  2
block 6
340
0
102
{BLKREFS
331
5C
102
}
 70
     0
280
     1
281
     0
  0
BLOCK_RECORD
  5
60
330
1
100
AcDbSymbolTableRecord
100
AcDbBlockTableRecord
  2
block 7
340
0
102
{BLKREFS
331
61
102
}
 70
     0
280
     1
281
     0
  0
ENDTAB
  0
ENDSEC
  0
SECTION
  2
BLOCKS
  0
BLOCK
  5
20
330
1F
100
AcDbEntity
  8
0
100
AcDbBlockBegin
  2
*Model_Space
 70
     0
 10
0.0
 20
0.0
 30
0.0
  3
*Model_Space
  1

  0
ENDBLK
  5
21
330
1F
100
AcDbEntity
  8
0
100
AcDbBlockEnd
  0
BLOCK
  5
1C
330
1B
100
AcDbEntity
 67
     1
  8
0
100
AcDbBlockBegin
  2
*Paper_Space
 70
     0
 10
0.0
 20
0.0
 30
0.0
  3
*Paper_Space
  1

  0
ENDBLK
  5
1D
330
1B
100
AcDbEntity
 67
     1
  8
0
100
AcDbBlockEnd
  0
BLOCK
  5
24
330
23
100
AcDbEntity
  8
0
100
AcDbBlockBegin
  2
*Paper_Space0
 70
     0
 10
0.0
 20
0.0
 30
0.0
  3
*Paper_Space0
  1

  0
ENDBLK
  5
25
330
23
100
AcDbEntity
  8
0
100
AcDbBlockEnd
  0
BLOCK
  5
49
330
47
100
AcDbEntity
  8
0
100
AcDbBlockBegin
  2
block 2
 70
     0
 10
0.0
 20
0.0
 30
0.0
  3
block 2
  1

  0
SPLINE
  5
4B
330
47
100
AcDbEntity
  8
top 290.5
 62
     7
420
 16777215
370
    25
100
AcDbSpline
210
0.0
220
0.0
230
1.0
 70
    11
 71
     3
 72
    59
 73
    55
 74
     0
 42
0.0000000001
 43
0.0000000001
 12
1.0
 22
0.0
 32
0.0
 13
1.0
 23
0.0
 33
0.0
 40
0.0
 40
0.0
 40
0.0
 40
0.0
 40
1.0
 40
1.0
 40
1.0
 40
2.0
 40
2.0
 40
2.0
 40
3.0
 40
3.0
 40
3.0
 40
4.0
 40
4.0
 40
4.0
 40
5.0
 40
5.0
 40
5.0
 40
6.0
 40
6.0
 40
6.0
 40
7.0
 40
7.0
 40
7.0
 40
8.0
 40
8.0
 40
8.0
 40
9.0
 40
9.0
 40
9.0
 40
10.0
 40
10.0
 40
10.0
 40
11.0
 40
11.0
 40
11.0
 40
12.0
 40
12.0
 40
12.0
 40
13.0
 40
13.0
 40
13.0
 40
14.0
 40
14.0
 40
14.0
 40
15.0
 40
15.0
 40
15.0
 40
16.0
 40
16.0
 40
16.0
 40
17.0
 40
17.0
 40
17.0
 40
18.0
 40
18.0
 40
18.0
 40
18.0
 10
1.999999999499866
 20
-8.99999999774988
 30
0.0
 10
1.999999999499866
 20
-5.134006749900873
 30
0.0
 10
5.134006749900873
 20
-1.999999999499866
 30
0.0
 10
8.99999999774988
 20
-1.999999999499866
 30
0.0
 10
8.99999999774988
 20
-1.999999999499866
 30
0.0
 10
54.78710091178883
 20
-1.999999999499866
 30
0.0
 10
54.78710091178883
 20
-1.999999999499866
 30
0.0
 10
73.3537963039144
 20
-2.5030027418497
 30
0.0
 10
86.18968165917072
 20
-4.734806614738241
 30
0.0
 10
100.2131562227232
 20
-7.312344913674963
 30
0.0
 10
117.3536109926274
 20
-10.46278943656517
 30
0.0
 10
132.243826140456
 20
-13.36653738764159
 30
0.0
 10
151.1317179386988
 20
-12.41890779060393
 30
0.0
 10
167.985580311635
 20
-11.57332804143921
 30
0.0
 10
183.2335949263819
 20
-8.0002592806414
 30
0.0
 10
199.9813493974814
 20
-5.440865685713274
 30
0.0
 10
209.5618841996719
 20
-3.976767352350665
 30
0.0
 10
219.8510304903658
 20
-2.351104661314172
 30
0.0
 10
234.1991276907397
 20
-1.999999999499866
 30
0.0
 10
234.1991276907397
 20
-1.999999999499866
 30
0.0
 10
285.4999999286246
 20
-1.999999999499866
 30
0.0
 10
285.4999999286246
 20
-1.999999999499866
 30
0.0
 10
289.3659931764736
 20
-1.999999999499866
 30
0.0
 10
292.4999999268743
 20
-5.134006749900553
 30
0.0
 10
292.4999999268743
 20
-8.999999997749558
 30
0.0
 10
292.4999999268743
 20
-8.999999997749558
 30
0.0
 10
292.4999999268743
 20
-82.51195532554321
 30
0.0
 10
292.4999999268743
 20
-82.51195532554321
 30
0.0
 10
292.4999999268743
 20
-90.75192375538124
 30
0.0
 10
285.8532644877736
 20
-97.44915890755617
 30
0.0
 10
277.6135320823842
 20
-97.51152566398999
 30
0.0
 10
277.6135320823842
 20
-97.51152566398999
 30
0.0
 10
234.1991276907397
 20
-97.84013045977655
 30
0.0
 10
234.1991276907397
 20
-97.84013045977655
 30
0.0
 10
219.8510304903658
 20
-98.19123512158956
 30
0.0
 10
209.5618841996719
 20
-99.37561788178493
 30
0.0
 10
199.9813493974814
 20
-100.8397162151463
 30
0.0
 10
183.2335949263819
 20
-103.399109810075
 30
0.0
 10
167.985580311635
 20
-106.9721785708735
 30
0.0
 10
151.1317179386988
 20
-107.8177583200376
 30
0.0
 10
132.243826140456
 20
-108.7653879170752
 30
0.0
 10
117.3536109926274
 20
-105.8616399659988
 30
0.0
 10
100.2131562227232
 20
-102.7111954431086
 30
0.0
 10
86.18968165917072
 20
-100.1336571441719
 30
0.0
 10
73.3537963039144
 20
-97.90185327128333
 30
0.0
 10
54.78710091178883
 20
-97.3988505289335
 30
0.0
 10
54.78710091178883
 20
-97.3988505289335
 30
0.0
 10
16.99999999574998
 20
-97.3988505289335
 30
0.0
 10
16.99999999574998
 20
-97.3988505289335
 30
0.0
 10
8.715728750358984
 20
-97.3988505289335
 30
0.0
 10
1.999999999499866
 20
-90.68312177807407
 30
0.0
 10
1.999999999499866
 20
-82.3988505326837
 30
0.0
 10
1.999999999499866
 20
-82.3988505326837
 30
0.0
 10
1.999999999499866
 20
-8.99999999774988
 30
0.0
 10
1.999999999499866
 20
-8.99999999774988
 30
0.0
  0
INSERT
  5
4D
330
47
100
AcDbEntity
  8
top 290.5
100
AcDbBlockReference
  2
block 3
 10
0.0
 20
0.0
 30
0.0
  0
INSERT
  5
52
330
47
100
AcDbEntity
  8
top 290.5
100
AcDbBlockReference
  2
block 4
 10
0.0
 20
0.0
 30
0.0
  0
INSERT
  5
57
330
47
100
AcDbEntity
  8
top 290.5
100
AcDbBlockReference
  2
block 5
 10
0.0
 20
0.0
 30
0.0
  0
INSERT
  5
5C
330
47
100
AcDbEntity
  8
top 290.5
100
AcDbBlockReference
  2
block 6
 10
0.0
 20
0.0
 30
0.0
  0
INSERT
  5
61
330
47
100
AcDbEntity
  8
top 290.5
100
AcDbBlockReference
  2
block 7
 10
0.0
 20
0.0
 30
0.0
  0
ENDBLK
  5
4A
330
47
100
AcDbEntity
  8
0
100
AcDbBlockEnd
  0
BLOCK
  5
4E
330
4C
100
AcDbEntity
  8
0
100
AcDbBlockBegin
  2
block 3
 70
     0
 10
0.0
 20
0.0
 30
0.0
  3
block 3
  1

  0
SPLINE
  5
50
330
4C
100
AcDbEntity
  8
top 290.5
 62
     7
420
 16777215
370
    25
100
AcDbSpline
210
0.0
220
0.0
230
1.0
 70
    11
 71
     3
 72
   119
 73
   115
 74
     0
 42
0.0000000001
 43
0.0000000001
 12
1.0
 22
0.0
 32
0.0
 13
1.0
 23
0.0
 33
0.0
 40
0.0
 40
0.0
 40
0.0
 40
0.0
 40
1.0
 40
1.0
 40
1.0
 40
2.0
 40
2.0
 40
2.0
 40
3.0
 40
3.0
 40
3.0
 40
4.0
 40
4.0
 40
4.0
 40
5.0
 40
5.0
 40
5.0
 40
6.0
 40
6.0
 40
6.0
 40
7.0
 40
7.0
 40
7.0
 40
8.0
 40
8.0
 40
8.0
 40
9.0
 40
9.0
 40
9.0
 40
10.0
 40
10.0
 40
10.0
 40
11.0
 40
11.0
 40
11.0
 40
12.0
 40
12.0
 40
12.0
 40
13.0
 40
13.0
 40
13.0
 40
14.0
 40
14.0
 40
14.0
 40
15.0
 40
15.0
 40
15.0
 40
16.0
 40
16.0
 40
16.0
 40
17.0
 40
17.0
 40
17.0
 40
18.0
 40
18.0
 40
18.0
 40
19.0
 40
19.0
 40
19.0
 40
20.0
 40
20.0
 40
20.0
 40
21.0
 40
21.0
 40
21.0
 40
22.0
 40
22.0
 40
22.0
 40
23.0
 40
23.0
 40
23.0
 40
24.0
 40
24.0
 40
24.0
 40
25.0
 40
25.0
 40
25.0
 40
26.0
 40
26.0
 40
26.0
 40
27.0
 40
27.0
 40
27.0
 40
28.0
 40
28.0
 40
28.0
 40
29.0
 40
29.0
 40
29.0
 40
30.0
 40
30.0
 40
30.0
 40
31.0
 40
31.0
 40
31.0
 40
32.0
 40
32.0
 40
32.0
 40
33.0
 40
33.0
 40
33.0
 40
34.0
 40
34.0
 40
34.0
 40
35.0
 40
35.0
 40
35.0
 40
36.0
 40
36.0
 40
36.0
 40
37.0
 40
37.0
 40
37.0
 40
38.0
 40
38.0
 40
38.0
 40
38.0
 10
148.2488727230233
 20
-41.06518992641122
 30
0.0
 10
147.6267848981405
 20
-41.15261606013926
 30
0.0
 10
147.0516036117373
 20
-40.71920533492716
 30
0.0
 10
146.9641455098131
 20
-40.09712200358519
 30
0.0
 10
146.9641455098131
 20
-40.09712200358519
 30
0.0
 10
144.475641974495
 20
-22.39657127989761
 30
0.0
 10
144.475641974495
 20
-22.39657127989761
 30
0.0
 10
144.3881971249654
 20
-21.77458221190629
 30
0.0
 10
144.8214366830283
 20
-21.19943839237007
 30
0.0
 10
145.443402496576
 20
-21.11182829485054
 30
0.0
 10
145.443402496576
 20
-21.11182829485054
 30
0.0
 10
222.6918887425433
 20
-10.23060738875232
 30
0.0
 10
222.6918887425433
 20
-10.23060738875232
 30
0.0
 10
222.7444518133713
 20
-10.22320335518503
 30
0.0
 10
222.7974686874681
 20
-10.21948771750105
 30
0.0
 10
222.850550663015
 20
-10.21948771750105
 30
0.0
 10
222.850550663015
 20
-10.21948771750105
 30
0.0
 10
279.2409748560628
 20
-10.21948771750105
 30
0.0
 10
279.2409748560628
 20
-10.21948771750105
 30
0.0
 10
279.8691987589949
 20
-10.21948771750105
 30
0.0
 10
280.3784748560623
 20
-10.72876381456846
 30
0.0
 10
280.3784748560623
 20
-11.35698771750057
 30
0.0
 10
280.3784748560623
 20
-11.35698771750057
 30
0.0
 10
280.3784748560623
 20
-28.95968771762603
 30
0.0
 10
280.3784748560623
 20
-28.95968771762603
 30
0.0
 10
280.3784748560623
 20
-29.2358300924722
 30
0.0
 10
280.602332481091
 20
-29.45968771750091
 30
0.0
 10
280.8784748559375
 20
-29.45968771750091
 30
0.0
 10
280.8784748559375
 20
-29.45968771750091
 30
0.0
 10
281.9079748560626
 20
-29.45968771750091
 30
0.0
 10
281.9079748560626
 20
-29.45968771750091
 30
0.0
 10
282.5361987589947
 20
-29.45968771750091
 30
0.0
 10
283.0454748560621
 20
-29.96896381456832
 30
0.0
 10
283.0454748560621
 20
-30.59718771750043
 30
0.0
 10
283.0454748560621
 20
-30.59718771750043
 30
0.0
 10
283.0454748560621
 20
-48.70118771750037
 30
0.0
 10
283.0454748560621
 20
-48.70118771750037
 30
0.0
 10
283.0454748560621
 20
-48.70118771750037
 30
0.0
 10
284.5749748560611
 20
-48.70118771750037
 30
0.0
 10
284.5749748560611
 20
-48.70118771750037
 30
0.0
 10
285.2031987589938
 20
-48.70118771750037
 30
0.0
 10
285.7124748560619
 20
-49.2104638145681
 30
0.0
 10
285.7124748560619
 20
-49.83868771750117
 30
0.0
 10
285.7124748560619
 20
-49.83868771750117
 30
0.0
 10
285.7124748560619
 20
-67.71438771750033
 30
0.0
 10
285.7124748560619
 20
-67.71438771750033
 30
0.0
 10
285.7124748560619
 20
-68.34261162043244
 30
0.0
 10
285.2031987589945
 20
-68.85188771749985
 30
0.0
 10
284.5749748560624
 20
-68.85188771749985
 30
0.0
 10
284.5749748560624
 20
-68.85188771749985
 30
0.0
 10
284.1134748559371
 20
-68.85188771749985
 30
0.0
 10
284.1134748559371
 20
-68.85188771749985
 30
0.0
 10
283.8373324810906
 20
-68.85188771749985
 30
0.0
 10
283.6134748560619
 20
-69.07574534252856
 30
0.0
 10
283.6134748560619
 20
-69.35188771737505
 30
0.0
 10
283.6134748560619
 20
-69.35188771737505
 30
0.0
 10
283.6134748560619
 20
-86.95328771750059
 30
0.0
 10
283.6134748560619
 20
-86.95328771750059
 30
0.0
 10
283.6134748560619
 20
-87.58151162043269
 30
0.0
 10
283.1041987589945
 20
-88.0907877175001
 30
0.0
 10
282.4759748560624
 20
-88.0907877175001
 30
0.0
 10
282.4759748560624
 20
-88.0907877175001
 30
0.0
 10
236.0279748560601
 20
-88.0907877175001
 30
0.0
 10
236.0279748560601
 20
-88.0907877175001
 30
0.0
 10
235.3997509531286
 20
-88.0907877175001
 30
0.0
 10
234.8904748560618
 20
-87.58151162043333
 30
0.0
 10
234.8904748560618
 20
-86.95328771750187
 30
0.0
 10
234.8904748560618
 20
-86.95328771750187
 30
0.0
 10
234.8904748560618
 20
-69.85188771724962
 30
0.0
 10
234.8904748560618
 20
-69.85188771724962
 30
0.0
 10
234.8904748560618
 20
-69.29960296755728
 30
0.0
 10
234.4427596060044
 20
-68.85188771749985
 30
0.0
 10
233.8904748563121
 20
-68.85188771749985
 30
0.0
 10
233.8904748563121
 20
-68.85188771749985
 30
0.0
 10
224.2933381870622
 20
-68.85188771749985
 30
0.0
 10
224.2933381870622
 20
-68.85188771749985
 30
0.0
 10
224.2933381870622
 20
-68.85188771749985
 30
0.0
 10
215.8148648018379
 20
-70.0434927392281
 30
0.0
 10
215.8148648018379
 20
-70.0434927392281
 30
0.0
 10
215.2679707036102
 20
-70.12035583995304
 30
0.0
 10
214.8869274867537
 20
-70.62600015644149
 30
0.0
 10
214.963768585269
 20
-71.17289734651307
 30
0.0
 10
214.963768585269
 20
-71.17289734651307
 30
0.0
 10
217.3169645259022
 20
-87.92117753095405
 30
0.0
 10
217.3169645259022
 20
-87.92117753095405
 30
0.0
 10
217.4043706060517
 20
-88.54326832029135
 30
0.0
 10
216.9709411050652
 20
-89.11843571199365
 30
0.0
 10
216.3488547796777
 20
-89.20587355729674
 30
0.0
 10
216.3488547796777
 20
-89.20587355729674
 30
0.0
 10
151.4881257404452
 20
-98.32242565070453
 30
0.0
 10
151.4881257404452
 20
-98.32242565070453
 30
0.0
 10
150.8660312914701
 20
-98.40986463782507
 30
0.0
 10
150.2908366215568
 20
-97.97645230180143
 30
0.0
 10
150.2033773573501
 20
-97.35436070322582
 30
0.0
 10
150.2033773573501
 20
-97.35436070322582
 30
0.0
 10
145.0626977221152
 20
-60.78906780880894
 30
0.0
 10
145.0626977221152
 20
-60.78906780880894
 30
0.0
 10
144.9752400032719
 20
-60.16698720229532
 30
0.0
 10
145.4086170763638
 20
-59.59178537084749
 30
0.0
 10
146.0306926457613
 20
-59.50429183083368
 30
0.0
 10
146.0306926457613
 20
-59.50429183083368
 30
0.0
 10
153.8424430499797
 20
-58.40558657669295
 30
0.0
 10
153.8424430499797
 20
-58.40558657669295
 30
0.0
 10
154.1158965378466
 20
-58.36712595412631
 30
0.0
 10
154.306394617932
 20
-58.11426784226649
 30
0.0
 10
154.2679303988963
 20
-57.84081486025939
 30
0.0
 10
154.2679303988963
 20
-57.84081486025939
 30
0.0
 10
151.9069511829767
 20
-41.05594769708301
 30
0.0
 10
151.9069511829767
 20
-41.05594769708301
 30
0.0
 10
151.8684906431411
 20
-40.78252087154916
 30
0.0
 10
151.6156723701169
 20
-40.59203121085931
 30
0.0
 10
151.342240849672
 20
-40.63045835846724
 30
0.0
 10
151.342240849672
 20
-40.63045835846724
 30
0.0
 10
148.2488727230233
 20
-41.06518992641122
 30
0.0
 10
148.2488727230233
 20
-41.06518992641122
 30
0.0
  0
ENDBLK
  5
4F
330
4C
100
AcDbEntity
  8
0
100
AcDbBlockEnd
  0
BLOCK
  5
53
330
51
100
AcDbEntity
  8
0
100
AcDbBlockBegin
  2
block 4
 70
     0
 10
0.0
 20
0.0
 30
0.0
  3
block 4
  1

  0
SPLINE
  5
55
330
51
100
AcDbEntity
  8
top 290.5
 62
     7
420
 16777215
370
    25
100
AcDbSpline
210
0.0
220
0.0
230
1.0
 70
    11
 71
     3
 72
   122
 73
   118
 74
     0
 42
0.0000000001
 43
0.0000000001
 12
1.0
 22
0.0
 32
0.0
 13
1.0
 23
0.0
 33
0.0
 40
0.0
 40
0.0
 40
0.0
 40
0.0
 40
1.0
 40
1.0
 40
1.0
 40
2.0
 40
2.0
 40
2.0
 40
3.0
 40
3.0
 40
3.0
 40
4.0
 40
4.0
 40
4.0
 40
5.0
 40
5.0
 40
5.0
 40
6.0
 40
6.0
 40
6.0
 40
7.0
 40
7.0
 40
7.0
 40
8.0
 40
8.0
 40
8.0
 40
9.0
 40
9.0
 40
9.0
 40
10.0
 40
10.0
 40
10.0
 40
11.0
 40
11.0
 40
11.0
 40
12.0
 40
12.0
 40
12.0
 40
13.0
 40
13.0
 40
13.0
 40
14.0
 40
14.0
 40
14.0
 40
15.0
 40
15.0
 40
15.0
 40
16.0
 40
16.0
 40
16.0
 40
17.0
 40
17.0
 40
17.0
 40
18.0
 40
18.0
 40
18.0
 40
19.0
 40
19.0
 40
19.0
 40
20.0
 40
20.0
 40
20.0
 40
21.0
 40
21.0
 40
21.0
 40
22.0
 40
22.0
 40
22.0
 40
23.0
 40
23.0
 40
23.0
 40
24.0
 40
24.0
 40
24.0
 40
25.0
 40
25.0
 40
25.0
 40
26.0
 40
26.0
 40
26.0
 40
27.0
 40
27.0
 40
27.0
 40
28.0
 40
28.0
 40
28.0
 40
29.0
 40
29.0
 40
29.0
 40
30.0
 40
30.0
 40
30.0
 40
31.0
 40
31.0
 40
31.0
 40
32.0
 40
32.0
 40
32.0
 40
33.0
 40
33.0
 40
33.0
 40
34.0
 40
34.0
 40
34.0
 40
35.0
 40
35.0
 40
35.0
 40
36.0
 40
36.0
 40
36.0
 40
37.0
 40
37.0
 40
37.0
 40
38.0
 40
38.0
 40
38.0
 40
39.0
 40
39.0
 40
39.0
 40
39.0
 10
132.1098547949876
 20
-97.35419980642895
 30
0.0
 10
132.022448489242
 20
-97.97632994850784
 30
0.0
 10
131.4472443304987
 20
-98.40980115590399
 30
0.0
 10
130.8251173997257
 20
-98.32237199615719
 30
0.0
 10
130.8251173997257
 20
-98.32237199615719
 30
0.0
 10
70.67797559912745
 20
-89.86973346102648
 30
0.0
 10
70.67797559912745
 20
-89.86973346102648
 30
0.0
 10
70.05580739136657
 20
-89.78226342816374
 30
0.0
 10
69.62239226198274
 20
-89.20704554621612
 30
0.0
 10
69.7098535419987
 20
-88.5849396093266
 30
0.0
 10
69.7098535419987
 20
-88.5849396093266
 30
0.0
 10
72.06438567586264
 20
-71.83731804701102
 30
0.0
 10
72.06438567586264
 20
-71.83731804701102
 30
0.0
 10
72.14127581291172
 20
-71.29040390697716
 30
0.0
 10
71.76023977134452
 20
-70.7847129008651
 30
0.0
 10
71.21332407620598
 20
-70.70783382598138
 30
0.0
 10
71.21332407620598
 20
-70.70783382598138
 30
0.0
 10
57.96367474386747
 20
-68.84535155995492
 30
0.0
 10
57.96367474386747
 20
-68.84535155995492
 30
0.0
 10
57.36194470304525
 20
-68.76076731913015
 30
0.0
 10
56.82447485606234
 20
-69.22796996665467
 30
0.0
 10
56.82447485606234
 20
-69.83561586339356
 30
0.0
 10
56.82447485606234
 20
-69.83561586339356
 30
0.0
 10
56.82447485606234
 20
-86.80147771750053
 30
0.0
 10
56.82447485606234
 20
-86.80147771750053
 30
0.0
 10
56.82447485606234
 20
-87.42970162043265
 30
0.0
 10
56.31519875899493
 20
-87.93897771750005
 30
0.0
 10
55.68697485606282
 20
-87.93897771750005
 30
0.0
 10
55.68697485606282
 20
-87.93897771750005
 30
0.0
 10
9.238974856060512
 20
-87.93897771750005
 30
0.0
 10
9.238974856060512
 20
-87.93897771750005
 30
0.0
 10
8.610750953128402
 20
-87.93897771750005
 30
0.0
 10
8.101474856060994
 20
-87.42970162043265
 30
0.0
 10
8.101474856060994
 20
-86.80147771750053
 30
0.0
 10
8.101474856060994
 20
-86.80147771750053
 30
0.0
 10
8.101474856060994
 20
-69.20007771737437
 30
0.0
 10
8.101474856060994
 20
-69.20007771737437
 30
0.0
 10
8.101474856060994
 20
-68.92393534252851
 30
0.0
 10
7.877617231032603
 20
-68.70007771749981
 30
0.0
 10
7.601474856186429
 20
-68.70007771749981
 30
0.0
 10
7.601474856186429
 20
-68.70007771749981
 30
0.0
 10
7.142974856060388
 20
-68.70007771749981
 30
0.0
 10
7.142974856060388
 20
-68.70007771749981
 30
0.0
 10
6.514750953128277
 20
-68.70007771749981
 30
0.0
 10
6.005474856060869
 20
-68.1908016204324
 30
0.0
 10
6.005474856060869
 20
-67.56257771750029
 30
0.0
 10
6.005474856060869
 20
-67.56257771750029
 30
0.0
 10
6.005474856060869
 20
-49.68687771750049
 30
0.0
 10
6.005474856060869
 20
-49.68687771750049
 30
0.0
 10
6.005474856060869
 20
-49.05865381456773
 30
0.0
 10
6.514750953128277
 20
-48.54937771750033
 30
0.0
 10
7.142974856061029
 20
-48.54937771750033
 30
0.0
 10
7.142974856061029
 20
-48.54937771750033
 30
0.0
 10
8.45747485618606
 20
-48.54937771750033
 30
0.0
 10
8.45747485618606
 20
-48.54937771750033
 30
0.0
 10
8.733617231032236
 20
-48.54937771750033
 30
0.0
 10
8.957474856060948
 20
-48.32552009247161
 30
0.0
 10
8.957474856060948
 20
-48.04937771762544
 30
0.0
 10
8.957474856060948
 20
-48.04937771762544
 30
0.0
 10
8.957474856060948
 20
-30.44537771750038
 30
0.0
 10
8.957474856060948
 20
-30.44537771750038
 30
0.0
 10
8.957474856060948
 20
-29.81715381456827
 30
0.0
 10
9.466750953128356
 20
-29.30787771750086
 30
0.0
 10
10.09497485606047
 20
-29.30787771750086
 30
0.0
 10
10.09497485606047
 20
-29.30787771750086
 30
0.0
 10
11.03047485618658
 20
-29.30787771750086
 30
0.0
 10
11.03047485618658
 20
-29.30787771750086
 30
0.0
 10
11.30661723103275
 20
-29.30787771750086
 30
0.0
 10
11.53047485606147
 20
-29.08402009247215
 30
0.0
 10
11.53047485606147
 20
-28.80787771762598
 30
0.0
 10
11.53047485606147
 20
-28.80787771762598
 30
0.0
 10
11.53047485606147
 20
-11.20517771750052
 30
0.0
 10
11.53047485606147
 20
-11.20517771750052
 30
0.0
 10
11.53047485606147
 20
-10.57695381456841
 30
0.0
 10
12.03975095312887
 20
-10.067677717501
 30
0.0
 10
12.66797485606098
 20
-10.067677717501
 30
0.0
 10
12.66797485606098
 20
-10.067677717501
 30
0.0
 10
51.47365955398119
 20
-10.067677717501
 30
0.0
 10
51.47365955398119
 20
-10.067677717501
 30
0.0
 10
51.64680640452074
 20
-10.067677717501
 30
0.0
 10
51.80205460749227
 20
-9.974242088550277
 30
0.0
 10
51.89694831533141
 20
-9.829414549510632
 30
0.0
 10
52.13385642567069
 20
-9.467843488791354
 30
0.0
 10
52.56302236061553
 20
-9.264468368948732
 30
0.0
 10
53.00641525535709
 20
-9.326690815348858
 30
0.0
 10
53.00641525535709
 20
-9.326690815348858
 30
0.0
 10
127.4368435613346
 20
-19.77170107750565
 30
0.0
 10
127.4368435613346
 20
-19.77170107750565
 30
0.0
 10
128.0587573893676
 20
-19.8589758180092
 30
0.0
 10
128.4922753612595
 20
-20.43373812762354
 30
0.0
 10
128.4053033116351
 20
-21.05569435792649
 30
0.0
 10
128.4053033116351
 20
-21.05569435792649
 30
0.0
 10
125.9915974108933
 20
-38.31663542538713
 30
0.0
 10
125.9915974108933
 20
-38.31663542538713
 30
0.0
 10
125.9533736194493
 20
-38.58998215387138
 30
0.0
 10
126.1438699444278
 20
-38.84259921615154
 30
0.0
 10
126.4171899722934
 20
-38.88101346575797
 30
0.0
 10
126.4171899722934
 20
-38.88101346575797
 30
0.0
 10
129.4990365093606
 20
-39.31415707052045
 30
0.0
 10
129.4990365093606
 20
-39.31415707052045
 30
0.0
 10
130.1211331866598
 20
-39.40159075486376
 30
0.0
 10
130.5545696461675
 20
-39.97676981466858
 30
0.0
 10
130.4671541824272
 20
-40.59886905254259
 30
0.0
 10
130.4671541824272
 20
-40.59886905254259
 30
0.0
 10
128.0441594880584
 20
-57.84230732129281
 30
0.0
 10
128.0441594880584
 20
-57.84230732129281
 30
0.0
 10
128.0057385678345
 20
-58.1157329163434
 30
0.0
 10
128.1962231012807
 20
-58.36854327830542
 30
0.0
 10
128.4696426757405
 20
-58.40700702021665
 30
0.0
 10
128.4696426757405
 20
-58.40700702021665
 30
0.0
 10
136.2789356485962
 20
-59.50559196977076
 30
0.0
 10
136.2789356485962
 20
-59.50559196977076
 30
0.0
 10
136.9009558199283
 20
-59.59309566580574
 30
0.0
 10
137.3343063098901
 20
-60.16822408625653
 30
0.0
 10
137.2469132688886
 20
-60.79025981412775
 30
0.0
 10
137.2469132688886
 20
-60.79025981412775
 30
0.0
 10
132.1098547949876
 20
-97.35419980642895
 30
0.0
 10
132.1098547949876
 20
-97.35419980642895
 30
0.0
  0
ENDBLK
  5
54
330
51
100
AcDbEntity
  8
0
100
AcDbBlockEnd
  0
BLOCK
  5
58
330
56
100
AcDbEntity
  8
0
100
AcDbBlockBegin
  2
block 5
 70
     0
 10
0.0
 20
0.0
 30
0.0
  3
block 5
  1

  0
SPLINE
  5
5A
330
56
100
AcDbEntity
  8
top 290.5
 62
     7
420
 16777215
370
    25
100
AcDbSpline
210
0.0
220
0.0
230
1.0
 70
    11
 71
     3
 72
    20
 73
    16
 74
     0
 42
0.0000000001
 43
0.0000000001
 12
1.0
 22
0.0
 32
0.0
 13
1.0
 23
0.0
 33
0.0
 40
0.0
 40
0.0
 40
0.0
 40
0.0
 40
1.0
 40
1.0
 40
1.0
 40
2.0
 40
2.0
 40
2.0
 40
3.0
 40
3.0
 40
3.0
 40
4.0
 40
4.0
 40
4.0
 40
5.0
 40
5.0
 40
5.0
 40
5.0
 10
285.0544748560618
 20
-20.22317724857406
 30
0.0
 10
285.0544748560618
 20
-19.94703487365955
 30
0.0
 10
285.2783324811458
 20
-19.72317724857373
 30
0.0
 10
285.5544748560621
 20
-19.72317724857373
 30
0.0
 10
285.8306172309748
 20
-19.72317724857373
 30
0.0
 10
286.0544748560625
 20
-19.94703487365955
 30
0.0
 10
286.0544748560625
 20
-20.22317724857406
 30
0.0
 10
286.0544748560625
 20
-20.49931962348922
 30
0.0
 10
285.8306172309748
 20
-20.7231772485744
 30
0.0
 10
285.5544748560621
 20
-20.7231772485744
 30
0.0
 10
285.2783324811458
 20
-20.7231772485744
 30
0.0
 10
285.0544748560618
 20
-20.49931962348922
 30
0.0
 10
285.0544748560618
 20
-20.22317724857406
 30
0.0
 10
285.0544748560618
 20
-20.22317724857406
 30
0.0
 10
285.0544748560618
 20
-20.22317724857406
 30
0.0
 10
285.0544748560618
 20
-20.22317724857406
 30
0.0
  0
ENDBLK
  5
59
330
56
100
AcDbEntity
  8
0
100
AcDbBlockEnd
  0
BLOCK
  5
5D
330
5B
100
AcDbEntity
  8
0
100
AcDbBlockBegin
  2
block 6
 70
     0
 10
0.0
 20
0.0
 30
0.0
  3
block 6
  1

  0
SPLINE
  5
5F
330
5B
100
AcDbEntity
  8
top 290.5
 62
     7
420
 16777215
370
    25
100
AcDbSpline
210
0.0
220
0.0
230
1.0
 70
    11
 71
     3
 72
    20
 73
    16
 74
     0
 42
0.0000000001
 43
0.0000000001
 12
1.0
 22
0.0
 32
0.0
 13
1.0
 23
0.0
 33
0.0
 40
0.0
 40
0.0
 40
0.0
 40
0.0
 40
1.0
 40
1.0
 40
1.0
 40
2.0
 40
2.0
 40
2.0
 40
3.0
 40
3.0
 40
3.0
 40
4.0
 40
4.0
 40
4.0
 40
5.0
 40
5.0
 40
5.0
 40
5.0
 10
285.0544748560618
 20
-14.47317724857466
 30
0.0
 10
285.0544748560618
 20
-14.19703487365951
 30
0.0
 10
285.2783324811458
 20
-13.97317724857433
 30
0.0
 10
285.5544748560621
 20
-13.97317724857433
 30
0.0
 10
285.8306172309748
 20
-13.97317724857433
 30
0.0
 10
286.0544748560625
 20
-14.19703487365951
 30
0.0
 10
286.0544748560625
 20
-14.47317724857466
 30
0.0
 10
286.0544748560625
 20
-14.74931962348982
 30
0.0
 10
285.8306172309748
 20
-14.97317724857372
 30
0.0
 10
285.5544748560621
 20
-14.97317724857372
 30
0.0
 10
285.2783324811458
 20
-14.97317724857372
 30
0.0
 10
285.0544748560618
 20
-14.74931962348982
 30
0.0
 10
285.0544748560618
 20
-14.47317724857466
 30
0.0
 10
285.0544748560618
 20
-14.47317724857466
 30
0.0
 10
285.0544748560618
 20
-14.47317724857466
 30
0.0
 10
285.0544748560618
 20
-14.47317724857466
 30
0.0
  0
ENDBLK
  5
5E
330
5B
100
AcDbEntity
  8
0
100
AcDbBlockEnd
  0
BLOCK
  5
62
330
60
100
AcDbEntity
  8
0
100
AcDbBlockBegin
  2
block 7
 70
     0
 10
0.0
 20
0.0
 30
0.0
  3
block 7
  1

  0
SPLINE
  5
64
330
60
100
AcDbEntity
  8
top 290.5
 62
     7
420
 16777215
370
    25
100
AcDbSpline
210
0.0
220
0.0
230
1.0
 70
    11
 71
     3
 72
    20
 73
    16
 74
     0
 42
0.0000000001
 43
0.0000000001
 12
1.0
 22
0.0
 32
0.0
 13
1.0
 23
0.0
 33
0.0
 40
0.0
 40
0.0
 40
0.0
 40
0.0
 40
1.0
 40
1.0
 40
1.0
 40
2.0
 40
2.0
 40
2.0
 40
3.0
 40
3.0
 40
3.0
 40
4.0
 40
4.0
 40
4.0
 40
5.0
 40
5.0
 40
5.0
 40
5.0
 10
285.0544748560618
 20
-25.97317724857475
 30
0.0
 10
285.0544748560618
 20
-25.69703487365959
 30
0.0
 10
285.2783324811458
 20
-25.47317724857441
 30
0.0
 10
285.5544748560621
 20
-25.47317724857441
 30
0.0
 10
285.8306172309748
 20
-25.47317724857441
 30
0.0
 10
286.0544748560625
 20
-25.69703487365959
 30
0.0
 10
286.0544748560625
 20
-25.97317724857475
 30
0.0
 10
286.0544748560625
 20
-26.24931962348991
 30
0.0
 10
285.8306172309748
 20
-26.47317724857444
 30
0.0
 10
285.5544748560621
 20
-26.47317724857444
 30
0.0
 10
285.2783324811458
 20
-26.47317724857444
 30
0.0
 10
285.0544748560618
 20
-26.24931962348991
 30
0.0
 10
285.0544748560618
 20
-25.97317724857475
 30
0.0
 10
285.0544748560618
 20
-25.97317724857475
 30
0.0
 10
285.0544748560618
 20
-25.97317724857475
 30
0.0
 10
285.0544748560618
 20
-25.97317724857475
 30
0.0
  0
ENDBLK
  5
63
330
60
100
AcDbEntity
  8
0
100
AcDbBlockEnd
  0
ENDSEC
  0
SECTION
  2
ENTITIES
  0
SPLINE
  5
41
330
1F
100
AcDbEntity
  8
top 290.5
 62
     7
420
 16777215
370
    25
100
AcDbSpline
210
0.0
220
0.0
230
1.0
 70
    11
 71
     3
 72
    17
 73
    13
 74
     0
 42
0.0000000001
 43
0.0000000001
 12
1.0
 22
0.0
 32
0.0
 13
1.0
 23
0.0
 33
0.0
 40
0.0
 40
0.0
 40
0.0
 40
0.0
 40
1.0
 40
1.0
 40
1.0
 40
2.0
 40
2.0
 40
2.0
 40
3.0
 40
3.0
 40
3.0
 40
4.0
 40
4.0
 40
4.0
 40
4.0
 10
246.7633999383091
 20
-4.495351165071429
 30
0.0
 10
246.7633999383091
 20
-5.133129593980902
 30
0.0
 10
246.2462888244571
 20
-5.650151164782547
 30
0.0
 10
245.6083999385974
 20
-5.650151164782547
 30
0.0
 10
244.9705110527389
 20
-5.650151164782547
 30
0.0
 10
244.4533999388869
 20
-5.133129593980902
 30
0.0
 10
244.4533999388869
 20
-4.495351165071429
 30
0.0
 10
244.4533999388869
 20
-3.857572736161635
 30
0.0
 10
244.9705110527389
 20
-3.34055116535999
 30
0.0
 10
245.6083999385974
 20
-3.34055116535999
 30
0.0
 10
246.2462888244571
 20
-3.34055116535999
 30
0.0
 10
246.7633999383091
 20
-3.857572736161635
 30
0.0
 10
246.7633999383091
 20
-4.495351165071429
 30
0.0
  0
SPLINE
  5
42
330
1F
100
AcDbEntity
  8
top 290.5
 62
     7
420
 16777215
370
    25
100
AcDbSpline
210
0.0
220
0.0
230
1.0
 70
    11
 71
     3
 72
    17
 73
    13
 74
     0
 42
0.0000000001
 43
0.0000000001
 12
1.0
 22
0.0
 32
0.0
 13
1.0
 23
0.0
 33
0.0
 40
0.0
 40
0.0
 40
0.0
 40
0.0
 40
1.0
 40
1.0
 40
1.0
 40
2.0
 40
2.0
 40
2.0
 40
3.0
 40
3.0
 40
3.0
 40
4.0
 40
4.0
 40
4.0
 40
4.0
 10
50.04819998748739
 20
-4.495351165071749
 30
0.0
 10
50.04819998748739
 20
-5.133129593981223
 30
0.0
 10
49.53108887363602
 20
-5.650151164782868
 30
0.0
 10
48.89319998777626
 20
-5.650151164782868
 30
0.0
 10
48.25531110191714
 20
-5.650151164782868
 30
0.0
 10
47.73819998806513
 20
-5.133129593981223
 30
0.0
 10
47.73819998806513
 20
-4.495351165071749
 30
0.0
 10
47.73819998806513
 20
-3.857572736161956
 30
0.0
 10
48.25531110191714
 20
-3.34055116536031
 30
0.0
 10
48.89319998777626
 20
-3.34055116536031
 30
0.0
 10
49.53108887363602
 20
-3.34055116536031
 30
0.0
 10
50.04819998748739
 20
-3.857572736161956
 30
0.0
 10
50.04819998748739
 20
-4.495351165071749
 30
0.0
  0
SPLINE
  5
43
330
1F
100
AcDbEntity
  8
top 290.5
 62
     7
420
 16777215
370
    25
100
AcDbSpline
210
0.0
220
0.0
230
1.0
 70
    11
 71
     3
 72
    17
 73
    13
 74
     0
 42
0.0000000001
 43
0.0000000001
 12
1.0
 22
0.0
 32
0.0
 13
1.0
 23
0.0
 33
0.0
 40
0.0
 40
0.0
 40
0.0
 40
0.0
 40
1.0
 40
1.0
 40
1.0
 40
2.0
 40
2.0
 40
2.0
 40
3.0
 40
3.0
 40
3.0
 40
4.0
 40
4.0
 40
4.0
 40
4.0
 10
50.04819998748739
 20
-94.0460201915961
 30
0.0
 10
50.04819998748739
 20
-94.68379862050524
 30
0.0
 10
49.53108887363602
 20
-95.20082019130753
 30
0.0
 10
48.89319998777626
 20
-95.20082019130753
 30
0.0
 10
48.25531110191714
 20
-95.20082019130753
 30
0.0
 10
47.73819998806513
 20
-94.68379862050524
 30
0.0
 10
47.73819998806513
 20
-94.0460201915961
 30
0.0
 10
47.73819998806513
 20
-93.4082417626863
 30
0.0
 10
48.25531110191714
 20
-92.89122019188466
 30
0.0
 10
48.89319998777626
 20
-92.89122019188466
 30
0.0
 10
49.53108887363602
 20
-92.89122019188466
 30
0.0
 10
50.04819998748739
 20
-93.4082417626863
 30
0.0
 10
50.04819998748739
 20
-94.0460201915961
 30
0.0
  0
SPLINE
  5
44
330
1F
100
AcDbEntity
  8
top 290.5
 62
     7
420
 16777215
370
    25
100
AcDbSpline
210
0.0
220
0.0
230
1.0
 70
    11
 71
     3
 72
    17
 73
    13
 74
     0
 42
0.0000000001
 43
0.0000000001
 12
1.0
 22
0.0
 32
0.0
 13
1.0
 23
0.0
 33
0.0
 40
0.0
 40
0.0
 40
0.0
 40
0.0
 40
1.0
 40
1.0
 40
1.0
 40
2.0
 40
2.0
 40
2.0
 40
3.0
 40
3.0
 40
3.0
 40
4.0
 40
4.0
 40
4.0
 40
4.0
 10
246.7633999383091
 20
-94.02020873095827
 30
0.0
 10
246.7633999383091
 20
-94.65798715986807
 30
0.0
 10
246.2462888244571
 20
-95.17500873066972
 30
0.0
 10
245.6083999385974
 20
-95.17500873066972
 30
0.0
 10
244.9705110527389
 20
-95.17500873066972
 30
0.0
 10
244.4533999388869
 20
-94.65798715986807
 30
0.0
 10
244.4533999388869
 20
-94.02020873095827
 30
0.0
 10
244.4533999388869
 20
-93.38243030204913
 30
0.0
 10
244.9705110527389
 20
-92.86540873124684
 30
0.0
 10
245.6083999385974
 20
-92.86540873124684
 30
0.0
 10
246.2462888244571
 20
-92.86540873124684
 30
0.0
 10
246.7633999383091
 20
-93.38243030204913
 30
0.0
 10
246.7633999383091
 20
-94.02020873095827
 30
0.0
  0
SPLINE
  5
45
330
1F
100
AcDbEntity
  8
top 290.5
 62
     7
420
 16777215
370
    25
100
AcDbSpline
210
0.0
220
0.0
230
1.0
 70
    11
 71
     3
 72
    17
 73
    13
 74
     0
 42
0.0000000001
 43
0.0000000001
 12
1.0
 22
0.0
 32
0.0
 13
1.0
 23
0.0
 33
0.0
 40
0.0
 40
0.0
 40
0.0
 40
0.0
 40
1.0
 40
1.0
 40
1.0
 40
2.0
 40
2.0
 40
2.0
 40
3.0
 40
3.0
 40
3.0
 40
4.0
 40
4.0
 40
4.0
 40
4.0
 10
290.3826999274032
 20
-38.25679011389256
 30
0.0
 10
290.3826999274032
 20
-38.89456854280203
 30
0.0
 10
289.8655888135513
 20
-39.41159011360368
 30
0.0
 10
289.2276999276914
 20
-39.41159011360368
 30
0.0
 10
288.589811041833
 20
-39.41159011360368
 30
0.0
 10
288.072699927981
 20
-38.89456854280203
 30
0.0
 10
288.072699927981
 20
-38.25679011389256
 30
0.0
 10
288.072699927981
 20
-37.61901168498277
 30
0.0
 10
288.589811041833
 20
-37.10199011418112
 30
0.0
 10
289.2276999276914
 20
-37.10199011418112
 30
0.0
 10
289.8655888135513
 20
-37.10199011418112
 30
0.0
 10
290.3826999274032
 20
-37.61901168498277
 30
0.0
 10
290.3826999274032
 20
-38.25679011389256
 30
0.0
  0
SPLINE
  5
46
330
1F
100
AcDbEntity
  8
top 290.5
 62
     7
420
 16777215
370
    25
100
AcDbSpline
210
0.0
220
0.0
230
1.0
 70
    11
 71
     3
 72
    17
 73
    13
 74
     0
 42
0.0000000001
 43
0.0000000001
 12
1.0
 22
0.0
 32
0.0
 13
1.0
 23
0.0
 33
0.0
 40
0.0
 40
0.0
 40
0.0
 40
0.0
 40
1.0
 40
1.0
 40
1.0
 40
2.0
 40
2.0
 40
2.0
 40
3.0
 40
3.0
 40
3.0
 40
4.0
 40
4.0
 40
4.0
 40
4.0
 10
6.427299998392525
 20
-38.25679011389256
 30
0.0
 10
6.427299998392525
 20
-38.89456854280203
 30
0.0
 10
5.91018888454115
 20
-39.41159011360368
 30
0.0
 10
5.272299998681393
 20
-39.41159011360368
 30
0.0
 10
4.634411112822278
 20
-39.41159011360368
 30
0.0
 10
4.117299998970261
 20
-38.89456854280203
 30
0.0
 10
4.117299998970261
 20
-38.25679011389256
 30
0.0
 10
4.117299998970261
 20
-37.61901168498277
 30
0.0
 10
4.634411112822278
 20
-37.10199011418112
 30
0.0
 10
5.272299998681393
 20
-37.10199011418112
 30
0.0
 10
5.91018888454115
 20
-37.10199011418112
 30
0.0
 10
6.427299998392525
 20
-37.61901168498277
 30
0.0
 10
6.427299998392525
 20
-38.25679011389256
 30
0.0
  0
INSERT
  5
48
330
1F
100
AcDbEntity
  8
top 290.5
100
AcDbBlockReference
  2
block 2
 10
0.0
 20
0.0
 30
0.0
  0
ENDSEC
  0
SECTION
  2
OBJECTS
  0
DICTIONARY
  5
C
330
0
100
AcDbDictionary
281
     1
  3
ACAD_GROUP
350
D
  3
ACAD_LAYOUT
350
1A
  3
ACAD_MATERIAL
350
3B
  3
ACAD_MLEADERSTYLE
350
66
  3
ACAD_MLINESTYLE
350
17
  3
ACAD_PLOTSETTINGS
350
19
  3
ACAD_PLOTSTYLENAME
350
E
  3
ACAD_TABLESTYLE
350
65
  3
ACAD_VISUALSTYLE
350
2A
  0
SUN
  5
3F
330
29
100
AcDbSun
 90
        1
290
     0
 63
     7
421
 16777215
 40
1.0
291
     1
 91
  2455826
 92
 54000000
292
     0
 70
     2
 71
   256
280
     1
  0
DICTIONARY
  5
D
102
{ACAD_REACTORS
330
C
102
}
330
C
100
AcDbDictionary
281
     1
  0
DICTIONARY
  5
1A
102
{ACAD_REACTORS
330
C
102
}
330
C
100
AcDbDictionary
281
     1
  3
Layout1
350
1E
  3
Layout2
350
26
  3
Model
350
22
  0
DICTIONARY
  5
3B
102
{ACAD_REACTORS
330
C
102
}
330
C
100
AcDbDictionary
281
     1
  3
ByBlock
350
3D
  3
ByLayer
350
3C
  3
Global
350
3E
  0
DICTIONARY
  5
66
102
{ACAD_REACTORS
330
C
102
}
330
C
100
AcDbDictionary
281
     1
  0
DICTIONARY
  5
17
102
{ACAD_REACTORS
330
C
102
}
330
C
100
AcDbDictionary
281
     1
  3
Standard
350
18
  0
DICTIONARY
  5
19
102
{ACAD_REACTORS
330
C
102
}
330
C
100
AcDbDictionary
281
     1
  0
ACDBDICTIONARYWDFLT
  5
E
102
{ACAD_REACTORS
330
C
102
}
330
C
100
AcDbDictionary
281
     1
  3
Normal
350
F
100
AcDbDictionaryWithDefault
340
F
  0
DICTIONARY
  5
65
102
{ACAD_REACTORS
330
C
102
}
330
C
100
AcDbDictionary
281
     1
  0
DICTIONARY
  5
2A
102
{ACAD_REACTORS
330
C
102
}
330
C
100
AcDbDictionary
281
     1
  3
2dWireframe
350
2F
  3
3D Hidden
350
31
  3
3dWireframe
350
30
  3
Basic
350
32
  3
Brighten
350
36
  3
ColorChange
350
3A
  3
Conceptual
350
34
  3
Dim
350
35
  3
Facepattern
350
39
  3
Flat
350
2B
  3
FlatWithEdges
350
2C
  3
Gouraud
350
2D
  3
GouraudWithEdges
350
2E
  3
Linepattern
350
38
  3
Realistic
350
33
  3
Thicken
350
37
  0
LAYOUT
  5
1E
102
{ACAD_REACTORS
330
1A
102
}
330
1A
100
AcDbPlotSettings
  1

  2
none_device
  4

  6

 40
0.0
 41
0.0
 42
0.0
 43
0.0
 44
0.0
 45
0.0
 46
0.0
 47
0.0
 48
0.0
 49
0.0
140
0.0
141
0.0
142
1.0
143
1.0
 70
   688
 72
     0
 73
     0
 74
     5
  7

 75
    16
 76
     0
 77
     2
 78
   300
147
1.0
148
0.0
149
0.0
100
AcDbLayout
  1
Layout1
 70
     1
 71
     1
 10
0.0
 20
0.0
 11
12.0
 21
9.0
 12
0.0
 22
0.0
 32
0.0
 14
1.000000000000000E+20
 24
1.000000000000000E+20
 34
1.000000000000000E+20
 15
-1.000000000000000E+20
 25
-1.000000000000000E+20
 35
-1.000000000000000E+20
146
0.0
 13
0.0
 23
0.0
 33
0.0
 16
1.0
 26
0.0
 36
0.0
 17
0.0
 27
1.0
 37
0.0
 76
     0
330
1B
  0
LAYOUT
  5
26
102
{ACAD_REACTORS
330
1A
102
}
330
1A
100
AcDbPlotSettings
  1

  2
none_device
  4

  6

 40
0.0
 41
0.0
 42
0.0
 43
0.0
 44
0.0
 45
0.0
 46
0.0
 47
0.0
 48
0.0
 49
0.0
140
0.0
141
0.0
142
1.0
143
1.0
 70
   688
 72
     0
 73
     0
 74
     5
  7

 75
    16
 76
     0
 77
     2
 78
   300
147
1.0
148
0.0
149
0.0
100
AcDbLayout
  1
Layout2
 70
     1
 71
     2
 10
0.0
 20
0.0
 11
0.0
 21
0.0
 12
0.0
 22
0.0
 32
0.0
 14
0.0
 24
0.0
 34
0.0
 15
0.0
 25
0.0
 35
0.0
146
0.0
 13
0.0
 23
0.0
 33
0.0
 16
1.0
 26
0.0
 36
0.0
 17
0.0
 27
1.0
 37
0.0
 76
     0
330
23
  0
LAYOUT
  5
22
102
{ACAD_REACTORS
330
1A
102
}
330
1A
100
AcDbPlotSettings
  1

  2
none_device
  4

  6

 40
0.0
 41
0.0
 42
0.0
 43
0.0
 44
0.0
 45
0.0
 46
0.0
 47
0.0
 48
0.0
 49
0.0
140
0.0
141
0.0
142
1.0
143
1.0
 70
  1712
 72
     0
 73
     0
 74
     0
  7

 75
     0
 76
     0
 77
     2
 78
   300
147
1.0
148
0.0
149
0.0
100
AcDbLayout
  1
Model
 70
     1
 71
     0
 10
0.0
 20
0.0
 11
12.0
 21
9.0
 12
0.0
 22
0.0
 32
0.0
 14
1.000000000000000E+20
 24
1.000000000000000E+20
 34
1.000000000000000E+20
 15
-1.000000000000000E+20
 25
-1.000000000000000E+20
 35
-1.000000000000000E+20
146
0.0
 13
0.0
 23
0.0
 33
0.0
 16
1.0
 26
0.0
 36
0.0
 17
0.0
 27
1.0
 37
0.0
 76
     0
330
1F
331
29
  0
MATERIAL
  5
3D
102
{ACAD_REACTORS
330
3B
102
}
330
3B
100
AcDbMaterial
  1
ByBlock
 72
     1
 94
      127
  0
MATERIAL
  5
3C
102
{ACAD_REACTORS
330
3B
102
}
330
3B
100
AcDbMaterial
  1
ByLayer
 72
     1
 94
      127
  0
MATERIAL
  5
3E
102
{ACAD_REACTORS
330
3B
102
}
330
3B
100
AcDbMaterial
  1
Global
 72
     1
 94
      127
  0
MLINESTYLE
  5
18
102
{ACAD_REACTORS
330
17
102
}
330
17
100
AcDbMlineStyle
  2
Standard
 70
     0
  3

 62
   256
 51
90.0
 52
90.0
 71
     2
 49
0.5
 62
   256
  6
BYLAYER
 49
-0.5
 62
   256
  6
BYLAYER
  0
ACDBPLACEHOLDER
  5
F
102
{ACAD_REACTORS
330
E
102
}
330
E
  0
VISUALSTYLE
  5
2F
102
{ACAD_REACTORS
330
2A
102
}
330
2A
100
AcDbVisualStyle
  2
2dWireframe
 70
     4
177
     2
291
     0
 71
     0
176
     1
 72
     2
176
     1
 73
     0
176
     1
 90
        0
176
     1
 40
-0.6
176
     1
 41
-30.0
176
     1
 62
     5
 63
     7
421
 16777215
176
     1
 74
     1
176
     1
 91
        4
176
     1
 64
     7
176
     1
 65
   257
176
     1
 75
     1
176
     1
175
     1
176
     1
 42
1.0
176
     1
 92
        0
176
     1
 66
   257
176
     1
 43
1.0
176
     1
 76
     1
176
     1
 77
     6
176
     1
 78
     2
176
     1
 67
     7
176
     1
 79
     5
176
     1
170
     0
176
     1
171
     0
176
     1
290
     0
176
     1
 93
        1
176
     1
 44
0.0
176
     1
173
     0
176
     1
  0
VISUALSTYLE
  5
31
102
{ACAD_REACTORS
330
2A
102
}
330
2A
100
AcDbVisualStyle
  2
3D Hidden
 70
     6
177
     2
291
     0
 71
     1
176
     1
 72
     2
176
     1
 73
     2
176
     1
 90
        0
176
     1
 40
-0.6
176
     1
 41
-30.0
176
     1
 62
     5
 63
     7
421
 16777215
176
     1
 74
     2
176
     1
 91
        2
176
     1
 64
     7
176
     1
 65
   257
176
     1
 75
     2
176
     1
175
     1
176
     1
 42
40.0
176
     1
 92
        0
176
     1
 66
   257
176
     1
 43
1.0
176
     1
 76
     1
176
     1
 77
     6
176
     1
 78
     2
176
     1
 67
     7
176
     1
 79
     3
176
     1
170
     0
176
     1
171
     0
176
     1
290
     0
176
     1
 93
        1
176
     1
 44
0.0
176
     1
173
     0
176
     1
  0
VISUALSTYLE
  5
30
102
{ACAD_REACTORS
330
2A
102
}
330
2A
100
AcDbVisualStyle
  2
3dWireframe
 70
     5
177
     2
291
     0
 71
     0
176
     1
 72
     2
176
     1
 73
     0
176
     1
 90
        0
176
     1
 40
-0.6
176
     1
 41
-30.0
176
     1
 62
     5
 63
     7
421
 16777215
176
     1
 74
     1
176
     1
 91
        4
176
     1
 64
     7
176
     1
 65
   257
176
     1
 75
     1
176
     1
175
     1
176
     1
 42
1.0
176
     1
 92
        0
176
     1
 66
   257
176
     1
 43
1.0
176
     1
 76
     1
176
     1
 77
     6
176
     1
 78
     2
176
     1
 67
     7
176
     1
 79
     5
176
     1
170
     0
176
     1
171
     0
176
     1
290
     0
176
     1
 93
        1
176
     1
 44
0.0
176
     1
173
     0
176
     1
  0
VISUALSTYLE
  5
32
102
{ACAD_REACTORS
330
2A
102
}
330
2A
100
AcDbVisualStyle
  2
Basic
 70
     7
177
     2
291
     1
 71
     1
176
     1
 72
     0
176
     1
 73
     1
176
     1
 90
        0
176
     1
 40
-0.6
176
     1
 41
-30.0
176
     1
 62
     5
 63
     7
421
 16777215
176
     1
 74
     0
176
     1
 91
        4
176
     1
 64
     7
176
     1
 65
   257
176
     1
 75
     1
176
     1
175
     1
176
     1
 42
1.0
176
     1
 92
        8
176
     1
 66
     7
176
     1
 43
1.0
176
     1
 76
     1
176
     1
 77
     6
176
     1
 78
     2
176
     1
 67
     7
176
     1
 79
     5
176
     1
170
     0
176
     1
171
     0
176
     1
290
     0
176
     1
 93
        1
176
     1
 44
0.0
176
     1
173
     0
176
     1
  0
VISUALSTYLE
  5
36
102
{ACAD_REACTORS
330
2A
102
}
330
2A
100
AcDbVisualStyle
  2
Brighten
 70
    12
177
     2
291
     1
 71
     2
176
     1
 72
     2
176
     1
 73
     0
176
     1
 90
        0
176
     1
 40
-0.6
176
     1
 41
-30.0
176
     1
 62
     5
 63
     7
421
 16777215
176
     1
 74
     1
176
     1
 91
        4
176
     1
 64
     7
176
     1
 65
   257
176
     1
 75
     1
176
     1
175
     1
176
     1
 42
1.0
176
     1
 92
        8
176
     1
 66
     7
176
     1
 43
1.0
176
     1
 76
     1
176
     1
 77
     6
176
     1
 78
     2
176
     1
 67
     7
176
     1
 79
     5
176
     1
170
     0
176
     1
171
     0
176
     1
290
     0
176
     1
 93
        1
176
     1
 44
50.0
176
     1
173
     0
176
     1
  0
VISUALSTYLE
  5
3A
102
{ACAD_REACTORS
330
2A
102
}
330
2A
100
AcDbVisualStyle
  2
ColorChange
 70
    16
177
     2
291
     1
 71
     2
176
     1
 72
     2
176
     1
 73
     3
176
     1
 90
        0
176
     1
 40
-0.6
176
     1
 41
-30.0
176
     1
 62
     5
 63
     8
421
  8421504
176
     1
 74
     1
176
     1
 91
        4
176
     1
 64
     7
176
     1
 65
   257
176
     1
 75
     1
176
     1
175
     1
176
     1
 42
1.0
176
     1
 92
        8
176
     1
 66
     8
424
  8421504
176
     1
 43
1.0
176
     1
 76
     1
176
     1
 77
     6
176
     1
 78
     2
176
     1
 67
     7
176
     1
 79
     5
176
     1
170
     0
176
     1
171
     0
176
     1
290
     0
176
     1
 93
        1
176
     1
 44
0.0
176
     1
173
     0
176
     1
  0
VISUALSTYLE
  5
34
102
{ACAD_REACTORS
330
2A
102
}
330
2A
100
AcDbVisualStyle
  2
Conceptual
 70
     9
177
     2
291
     0
 71
     3
176
     1
 72
     2
176
     1
 73
     0
176
     1
 90
        0
176
     1
 40
-0.6
176
     1
 41
-30.0
176
     1
 62
     5
 63
     7
421
 16777215
176
     1
 74
     2
176
     1
 91
        2
176
     1
 64
     7
176
     1
 65
   257
176
     1
 75
     1
176
     1
175
     1
176
     1
 42
40.0
176
     1
 92
        8
176
     1
 66
     7
176
     1
 43
1.0
176
     1
 76
     1
176
     1
 77
     6
176
     1
 78
     2
176
     1
 67
     7
176
     1
 79
     3
176
     1
170
     0
176
     1
171
     0
176
     1
290
     0
176
     1
 93
        1
176
     1
 44
0.0
176
     1
173
     0
176
     1
  0
VISUALSTYLE
  5
35
102
{ACAD_REACTORS
330
2A
102
}
330
2A
100
AcDbVisualStyle
  2
Dim
 70
    11
177
     2
291
     1
 71
     2
176
     1
 72
     2
176
     1
 73
     0
176
     1
 90
        0
176
     1
 40
-0.6
176
     1
 41
-30.0
176
     1
 62
     5
 63
     7
421
 16777215
176
     1
 74
     1
176
     1
 91
        4
176
     1
 64
     7
176
     1
 65
   257
176
     1
 75
     1
176
     1
175
     1
176
     1
 42
1.0
176
     1
 92
        8
176
     1
 66
     7
176
     1
 43
1.0
176
     1
 76
     1
176
     1
 77
     6
176
     1
 78
     2
176
     1
 67
     7
176
     1
 79
     5
176
     1
170
     0
176
     1
171
     0
176
     1
290
     0
176
     1
 93
        1
176
     1
 44
-50.0
176
     1
173
     0
176
     1
  0
VISUALSTYLE
  5
39
102
{ACAD_REACTORS
330
2A
102
}
330
2A
100
AcDbVisualStyle
  2
Facepattern
 70
    15
177
     2
291
     1
 71
     2
176
     1
 72
     2
176
     1
 73
     0
176
     1
 90
        0
176
     1
 40
-0.6
176
     1
 41
-30.0
176
     1
 62
     5
 63
     7
421
 16777215
176
     1
 74
     1
176
     1
 91
        4
176
     1
 64
     7
176
     1
 65
   257
176
     1
 75
     1
176
     1
175
     1
176
     1
 42
1.0
176
     1
 92
        8
176
     1
 66
     7
176
     1
 43
1.0
176
     1
 76
     1
176
     1
 77
     6
176
     1
 78
     2
176
     1
 67
     7
176
     1
 79
     5
176
     1
170
     0
176
     1
171
     0
176
     1
290
     0
176
     1
 93
        1
176
     1
 44
0.0
176
     1
173
     0
176
     1
  0
VISUALSTYLE
  5
2B
102
{ACAD_REACTORS
330
2A
102
}
330
2A
100
AcDbVisualStyle
  2
Flat
 70
     0
177
     2
291
     1
 71
     2
176
     1
 72
     1
176
     1
 73
     1
176
     1
 90
        2
176
     1
 40
-0.6
176
     1
 41
30.0
176
     1
 62
     5
 63
     7
421
 16777215
176
     1
 74
     0
176
     1
 91
        4
176
     1
 64
     7
176
     1
 65
   257
176
     1
 75
     1
176
     1
175
     1
176
     1
 42
1.0
176
     1
 92
        8
176
     1
 66
     7
176
     1
 43
1.0
176
     1
 76
     1
176
     1
 77
     6
176
     1
 78
     2
176
     1
 67
     7
176
     1
 79
     5
176
     1
170
     0
176
     1
171
     0
176
     1
290
     0
176
     1
 93
       13
176
     1
 44
0.0
176
     1
173
     0
176
     1
  0
VISUALSTYLE
  5
2C
102
{ACAD_REACTORS
330
2A
102
}
330
2A
100
AcDbVisualStyle
  2
FlatWithEdges
 70
     1
177
     2
291
     1
 71
     2
176
     1
 72
     1
176
     1
 73
     1
176
     1
 90
        2
176
     1
 40
-0.6
176
     1
 41
30.0
176
     1
 62
     5
 63
     7
421
 16777215
176
     1
 74
     1
176
     1
 91
        4
176
     1
 64
     7
176
     1
 65
   257
176
     1
 75
     1
176
     1
175
     1
176
     1
 42
1.0
176
     1
 92
        0
176
     1
 66
   257
176
     1
 43
1.0
176
     1
 76
     1
176
     1
 77
     6
176
     1
 78
     2
176
     1
 67
     7
176
     1
 79
     5
176
     1
170
     0
176
     1
171
     0
176
     1
290
     0
176
     1
 93
       13
176
     1
 44
0.0
176
     1
173
     0
176
     1
  0
VISUALSTYLE
  5
2D
102
{ACAD_REACTORS
330
2A
102
}
330
2A
100
AcDbVisualStyle
  2
Gouraud
 70
     2
177
     2
291
     1
 71
     2
176
     1
 72
     2
176
     1
 73
     1
176
     1
 90
        2
176
     1
 40
-0.6
176
     1
 41
30.0
176
     1
 62
     5
 63
     7
421
 16777215
176
     1
 74
     0
176
     1
 91
        4
176
     1
 64
     7
176
     1
 65
   257
176
     1
 75
     1
176
     1
175
     1
176
     1
 42
1.0
176
     1
 92
        0
176
     1
 66
     7
176
     1
 43
1.0
176
     1
 76
     1
176
     1
 77
     6
176
     1
 78
     2
176
     1
 67
     7
176
     1
 79
     5
176
     1
170
     0
176
     1
171
     0
176
     1
290
     0
176
     1
 93
       13
176
     1
 44
0.0
176
     1
173
     0
176
     1
  0
VISUALSTYLE
  5
2E
102
{ACAD_REACTORS
330
2A
102
}
330
2A
100
AcDbVisualStyle
  2
GouraudWithEdges
 70
     3
177
     2
291
     1
 71
     2
176
     1
 72
     2
176
     1
 73
     1
176
     1
 90
        2
176
     1
 40
-0.6
176
     1
 41
30.0
176
     1
 62
     5
 63
     7
421
 16777215
176
     1
 74
     1
176
     1
 91
        4
176
     1
 64
     7
176
     1
 65
   257
176
     1
 75
     1
176
     1
175
     1
176
     1
 42
1.0
176
     1
 92
        0
176
     1
 66
   257
176
     1
 43
1.0
176
     1
 76
     1
176
     1
 77
     6
176
     1
 78
     2
176
     1
 67
     7
176
     1
 79
     5
176
     1
170
     0
176
     1
171
     0
176
     1
290
     0
176
     1
 93
       13
176
     1
 44
0.0
176
     1
173
     0
176
     1
  0
VISUALSTYLE
  5
38
102
{ACAD_REACTORS
330
2A
102
}
330
2A
100
AcDbVisualStyle
  2
Linepattern
 70
    14
177
     2
291
     1
 71
     2
176
     1
 72
     2
176
     1
 73
     0
176
     1
 90
        0
176
     1
 40
-0.6
176
     1
 41
-30.0
176
     1
 62
     5
 63
     7
421
 16777215
176
     1
 74
     1
176
     1
 91
        4
176
     1
 64
     7
176
     1
 65
   257
176
     1
 75
     7
176
     1
175
     7
176
     1
 42
1.0
176
     1
 92
        8
176
     1
 66
     7
176
     1
 43
1.0
176
     1
 76
     1
176
     1
 77
     6
176
     1
 78
     2
176
     1
 67
     7
176
     1
 79
     5
176
     1
170
     0
176
     1
171
     0
176
     1
290
     0
176
     1
 93
        1
176
     1
 44
0.0
176
     1
173
     0
176
     1
  0
VISUALSTYLE
  5
33
102
{ACAD_REACTORS
330
2A
102
}
330
2A
100
AcDbVisualStyle
  2
Realistic
 70
     8
177
     2
291
     0
 71
     2
176
     1
 72
     2
176
     1
 73
     0
176
     1
 90
        0
176
     1
 40
-0.6
176
     1
 41
-30.0
176
     1
 62
     5
 63
     7
421
 16777215
176
     1
 74
     1
176
     1
 91
        0
176
     1
 64
     7
176
     1
 65
   257
176
     1
 75
     1
176
     1
175
     1
176
     1
 42
1.0
176
     1
 92
        8
176
     1
 66
     8
424
  7895160
176
     1
 43
1.0
176
     1
 76
     1
176
     1
 77
     6
176
     1
 78
     2
176
     1
 67
     7
176
     1
 79
     5
176
     1
170
     0
176
     1
171
     0
176
     1
290
     0
176
     1
 93
       13
176
     1
 44
0.0
176
     1
173
     0
176
     1
  0
VISUALSTYLE
  5
37
102
{ACAD_REACTORS
330
2A
102
}
330
2A
100
AcDbVisualStyle
  2
Thicken
 70
    13
177
     2
291
     1
 71
     2
176
     1
 72
     2
176
     1
 73
     0
176
     1
 90
        0
176
     1
 40
-0.6
176
     1
 41
-30.0
176
     1
 62
     5
 63
     7
421
 16777215
176
     1
 74
     1
176
     1
 91
        4
176
     1
 64
     7
176
     1
 65
   257
176
     1
 75
     1
176
     1
175
     1
176
     1
 42
1.0
176
     1
 92
       12
176
     1
 66
     7
176
     1
 43
1.0
176
     1
 76
     1
176
     1
 77
     6
176
     1
 78
     2
176
     1
 67
     7
176
     1
 79
     5
176
     1
170
     0
176
     1
171
     0
176
     1
290
     0
176
     1
 93
        1
176
     1
 44
0.0
176
     1
173
     0
176
     1
  0
ENDSEC
  0
EOF
