  0
SECTION
  2
HEADER
  9
$ACADVER
  1
AC1024
  9
$ACADMAINTVER
 70
     6
  9
$DWGCODEPAGE
  3
ANSI_1252
  9
$INSBASE
 10
0.0
 20
0.0
 30
0.0
  9
$EXTMIN
 10
1.000000000000000E+20
 20
1.000000000000000E+20
 30
1.000000000000000E+20
  9
$EXTMAX
 10
-1.000000000000000E+20
 20
-1.000000000000000E+20
 30
-1.000000000000000E+20
  9
$LIMMIN
 10
0.0
 20
0.0
  9
$LIMMAX
 10
12.0
 20
9.0
  9
$ORTHOMODE
 70
     0
  9
$REGENMODE
 70
     1
  9
$FILLMODE
 70
     1
  9
$QTEXTMODE
 70
     0
  9
$MIRRTEXT
 70
     1
  9
$LTSCALE
 40
1.0
  9
$ATTMODE
 70
     1
  9
$TEXTSIZE
 40
0.2
  9
$TRACEWID
 40
0.05
  9
$TEXTSTYLE
  7
Standard
  9
$CLAYER
  8
0
  9
$CELTYPE
  6
ByLayer
  9
$CECOLOR
 62
   256
  9
$CELTSCALE
 40
1.0
  9
$DISPSILH
 70
     0
  9
$DIMSCALE
 40
1.0
  9
$DIMASZ
 40
0.18
  9
$DIMEXO
 40
0.0625
  9
$DIMDLI
 40
0.38
  9
$DIMRND
 40
0.0
  9
$DIMDLE
 40
0.0
  9
$DIMEXE
 40
0.18
  9
$DIMTP
 40
0.0
  9
$DIMTM
 40
0.0
  9
$DIMTXT
 40
0.18
  9
$DIMCEN
 40
0.09
  9
$DIMTSZ
 40
0.0
  9
$DIMTOL
 70
     0
  9
$DIMLIM
 70
     0
  9
$DIMTIH
 70
     1
  9
$DIMTOH
 70
     1
  9
$DIMSE1
 70
     0
  9
$DIMSE2
 70
     0
  9
$DIMTAD
 70
     0
  9
$DIMZIN
 70
     0
  9
$DIMBLK
  1

  9
$DIMASO
 70
     1
  9
$DIMSHO
 70
     1
  9
$DIMPOST
  1

  9
$DIMAPOST
  1

  9
$DIMALT
 70
     0
  9
$DIMALTD
 70
     2
  9
$DIMALTF
 40
25.4
  9
$DIMLFAC
 40
1.0
  9
$DIMTOFL
 70
     0
  9
$DIMTVP
 40
0.0
  9
$DIMTIX
 70
     0
  9
$DIMSOXD
 70
     0
  9
$DIMSAH
 70
     0
  9
$DIMBLK1
  1

  9
$DIMBLK2
  1

  9
$DIMSTYLE
  2
Standard
  9
$DIMCLRD
 70
     0
  9
$DIMCLRE
 70
     0
  9
$DIMCLRT
 70
     0
  9
$DIMTFAC
 40
1.0
  9
$DIMGAP
 40
0.09
  9
$DIMJUST
 70
     0
  9
$DIMSD1
 70
     0
  9
$DIMSD2
 70
     0
  9
$DIMTOLJ
 70
     1
  9
$DIMTZIN
 70
     0
  9
$DIMALTZ
 70
     0
  9
$DIMALTTZ
 70
     0
  9
$DIMUPT
 70
     0
  9
$DIMDEC
 70
     4
  9
$DIMTDEC
 70
     4
  9
$DIMALTU
 70
     2
  9
$DIMALTTD
 70
     2
  9
$DIMTXSTY
  7
Standard
  9
$DIMAUNIT
 70
     0
  9
$DIMADEC
 70
     0
  9
$DIMALTRND
 40
0.0
  9
$DIMAZIN
 70
     0
  9
$DIMDSEP
 70
    46
  9
$DIMATFIT
 70
     3
  9
$DIMFRAC
 70
     0
  9
$DIMLDRBLK
  1

  9
$DIMLUNIT
 70
     2
  9
$DIMLWD
 70
    -2
  9
$DIMLWE
 70
    -2
  9
$DIMTMOVE
 70
     0
  9
$DIMFXL
 40
1.0
  9
$DIMFXLON
 70
     0
  9
$DIMJOGANG
 40
0.7853981633974483
  9
$DIMTFILL
 70
     0
  9
$DIMTFILLCLR
 70
     0
  9
$DIMARCSYM
 70
     0
  9
$DIMLTYPE
  6

  9
$DIMLTEX1
  6

  9
$DIMLTEX2
  6

  9
$DIMTXTDIRECTION
 70
     0
  9
$LUNITS
 70
     2
  9
$LUPREC
 70
     4
  9
$SKETCHINC
 40
0.1
  9
$FILLETRAD
 40
0.5
  9
$AUNITS
 70
     0
  9
$AUPREC
 70
     0
  9
$MENU
  1
.
  9
$ELEVATION
 40
0.0
  9
$PELEVATION
 40
0.0
  9
$THICKNESS
 40
0.0
  9
$LIMCHECK
 70
     0
  9
$CHAMFERA
 40
0.5
  9
$CHAMFERB
 40
0.5
  9
$CHAMFERC
 40
1.0
  9
$CHAMFERD
 40
0.0
  9
$SKPOLY
 70
     0
  9
$TDCREATE
 40
2459452.818193657
  9
$TDUCREATE
 40
2459452.734860324
  9
$TDUPDATE
 40
2459452.818193681
  9
$TDUUPDATE
 40
2459452.734860347
  9
$TDINDWG
 40
0.0000000116
  9
$TDUSRTIMER
 40
0.0000000116
  9
$USRTIMER
 70
     1
  9
$ANGBASE
 50
0.0
  9
$ANGDIR
 70
     0
  9
$PDMODE
 70
     0
  9
$PDSIZE
 40
0.0
  9
$PLINEWID
 40
0.0
  9
$SPLFRAME
 70
     0
  9
$SPLINETYPE
 70
     6
  9
$SPLINESEGS
 70
     8
  9
$HANDSEED
  5
71
  9
$SURFTAB1
 70
     6
  9
$SURFTAB2
 70
     6
  9
$SURFTYPE
 70
     6
  9
$SURFU
 70
     6
  9
$SURFV
 70
     6
  9
$UCSBASE
  2

  9
$UCSNAME
  2

  9
$UCSORG
 10
0.0
 20
0.0
 30
0.0
  9
$UCSXDIR
 10
1.0
 20
0.0
 30
0.0
  9
$UCSYDIR
 10
0.0
 20
1.0
 30
0.0
  9
$UCSORTHOREF
  2

  9
$UCSORTHOVIEW
 70
     0
  9
$UCSORGTOP
 10
0.0
 20
0.0
 30
0.0
  9
$UCSORGBOTTOM
 10
0.0
 20
0.0
 30
0.0
  9
$UCSORGLEFT
 10
0.0
 20
0.0
 30
0.0
  9
$UCSORGRIGHT
 10
0.0
 20
0.0
 30
0.0
  9
$UCSORGFRONT
 10
0.0
 20
0.0
 30
0.0
  9
$UCSORGBACK
 10
0.0
 20
0.0
 30
0.0
  9
$PUCSBASE
  2

  9
$PUCSNAME
  2

  9
$PUCSORG
 10
0.0
 20
0.0
 30
0.0
  9
$PUCSXDIR
 10
1.0
 20
0.0
 30
0.0
  9
$PUCSYDIR
 10
0.0
 20
1.0
 30
0.0
  9
$PUCSORTHOREF
  2

  9
$PUCSORTHOVIEW
 70
     0
  9
$PUCSORGTOP
 10
0.0
 20
0.0
 30
0.0
  9
$PUCSORGBOTTOM
 10
0.0
 20
0.0
 30
0.0
  9
$PUCSORGLEFT
 10
0.0
 20
0.0
 30
0.0
  9
$PUCSORGRIGHT
 10
0.0
 20
0.0
 30
0.0
  9
$PUCSORGFRONT
 10
0.0
 20
0.0
 30
0.0
  9
$PUCSORGBACK
 10
0.0
 20
0.0
 30
0.0
  9
$USERI1
 70
     0
  9
$USERI2
 70
     0
  9
$USERI3
 70
     0
  9
$USERI4
 70
     0
  9
$USERI5
 70
     0
  9
$USERR1
 40
0.0
  9
$USERR2
 40
0.0
  9
$USERR3
 40
0.0
  9
$USERR4
 40
0.0
  9
$USERR5
 40
0.0
  9
$WORLDVIEW
 70
     1
  9
$SHADEDGE
 70
     3
  9
$SHADEDIF
 70
    70
  9
$TILEMODE
 70
     1
  9
$MAXACTVP
 70
    64
  9
$PINSBASE
 10
0.0
 20
0.0
 30
0.0
  9
$PLIMCHECK
 70
     0
  9
$PEXTMIN
 10
1.000000000000000E+20
 20
1.000000000000000E+20
 30
1.000000000000000E+20
  9
$PEXTMAX
 10
-1.000000000000000E+20
 20
-1.000000000000000E+20
 30
-1.000000000000000E+20
  9
$PLIMMIN
 10
0.0
 20
0.0
  9
$PLIMMAX
 10
12.0
 20
9.0
  9
$UNITMODE
 70
     0
  9
$VISRETAIN
 70
     1
  9
$PLINEGEN
 70
     0
  9
$PSLTSCALE
 70
     1
  9
$TREEDEPTH
 70
  3020
  9
$CMLSTYLE
  2
Standard
  9
$CMLJUST
 70
     0
  9
$CMLSCALE
 40
1.0
  9
$PROXYGRAPHICS
 70
     1
  9
$MEASUREMENT
 70
     0
  9
$CELWEIGHT
370
    -1
  9
$ENDCAPS
280
     0
  9
$JOINSTYLE
280
     0
  9
$LWDISPLAY
290
     1
  9
$INSUNITS
 70
     4
  9
$HYPERLINKBASE
  1

  9
$STYLESHEET
  1

  9
$XEDIT
290
     1
  9
$CEPSNTYPE
380
     0
  9
$PSTYLEMODE
290
     1
  9
$FINGERPRINTGUID
  2
{7FDC8BB1-C39C-4547-8C9F-C8507DA4E2D0}
  9
$VERSIONGUID
  2
{FAEB1C32-E019-11D5-929B-00C0DF256EC4}
  9
$EXTNAMES
290
     1
  9
$PSVPSCALE
 40
0.0
  9
$OLESTARTUP
290
     0
  9
$SORTENTS
280
   127
  9
$INDEXCTL
280
     0
  9
$HIDETEXT
280
     1
  9
$XCLIPFRAME
280
     2
  9
$HALOGAP
280
     0
  9
$OBSCOLOR
 70
   257
  9
$OBSLTYPE
280
     0
  9
$INTERSECTIONDISPLAY
280
     0
  9
$INTERSECTIONCOLOR
 70
   257
  9
$DIMASSOC
280
     2
  9
$PROJECTNAME
  1

  9
$CAMERADISPLAY
290
     0
  9
$LENSLENGTH
 40
50.0
  9
$CAMERAHEIGHT
 40
0.0
  9
$STEPSPERSEC
 40
2.0
  9
$STEPSIZE
 40
6.0
  9
$3DDWFPREC
 40
2.0
  9
$PSOLWIDTH
 40
0.25
  9
$PSOLHEIGHT
 40
4.0
  9
$LOFTANG1
 40
1.570796326794897
  9
$LOFTANG2
 40
1.570796326794897
  9
$LOFTMAG1
 40
0.0
  9
$LOFTMAG2
 40
0.0
  9
$LOFTPARAM
 70
     7
  9
$LOFTNORMALS
280
     1
  9
$LATITUDE
 40
37.795
  9
$LONGITUDE
 40
-122.394
  9
$NORTHDIRECTION
 40
0.0
  9
$TIMEZONE
 70
 -8000
  9
$LIGHTGLYPHDISPLAY
280
     1
  9
$TILEMODELIGHTSYNCH
280
     1
  9
$CMATERIAL
347
3C
  9
$SOLIDHIST
280
     1
  9
$SHOWHIST
280
     1
  9
$DWFFRAME
280
     2
  9
$DGNFRAME
280
     2
  9
$REALWORLDSCALE
290
     1
  9
$INTERFERECOLOR
 62
   256
  9
$CSHADOW
280
     0
  9
$SHADOWPLANELOCATION
 40
0.0
  0
ENDSEC
  0
SECTION
  2
CLASSES
  0
CLASS
  1
ACDBDICTIONARYWDFLT
  2
AcDbDictionaryWithDefault
  3
ObjectDBX Classes
 90
        0
 91
        4
280
     0
281
     0
  0
CLASS
  1
VISUALSTYLE
  2
AcDbVisualStyle
  3
ObjectDBX Classes
 90
     4095
 91
        4
280
     0
281
     0
  0
CLASS
  1
MATERIAL
  2
AcDbMaterial
  3
ObjectDBX Classes
 90
     1153
 91
        4
280
     0
281
     0
  0
CLASS
  1
SUN
  2
AcDbSun
  3
SCENEOE
 90
     1024
 91
        4
280
     0
281
     0
  0
ENDSEC
  0
SECTION
  2
TABLES
  0
TABLE
  2
VPORT
  5
8
330
0
100
AcDbSymbolTable
 70
     1
  0
VPORT
  5
29
330
8
100
AcDbSymbolTableRecord
100
AcDbViewportTableRecord
  2
*Active
 70
     0
 10
0.0
 20
0.0
 11
1.0
 21
1.0
 12
0.0
 22
0.0
 13
0.0
 23
0.0
 14
0.5
 24
0.5
 15
0.5
 25
0.5
 16
0.0
 26
0.0
 36
1.0
 17
99.99999997500582
 27
99.99999997500566
 37
0.0
 40
199.9999999500113
 41
1.000000000000002
 42
50.0
 43
0.0
 44
0.0
 50
0.0
 51
0.0
 71
     0
 72
   100
 73
     1
 74
     3
 75
     0
 76
     0
 77
     0
 78
     0
281
     0
 65
     1
110
0.0
120
0.0
130
0.0
111
1.0
121
0.0
131
0.0
112
0.0
122
1.0
132
0.0
 79
     0
146
0.0
 60
     3
 61
     5
292
     1
282
     1
141
0.0
142
0.0
 63
   250
361
3F
  0
ENDTAB
  0
TABLE
  2
LTYPE
  5
5
330
0
100
AcDbSymbolTable
 70
     1
  0
LTYPE
  5
14
330
5
100
AcDbSymbolTableRecord
100
AcDbLinetypeTableRecord
  2
ByBlock
 70
     0
  3

 72
    65
 73
     0
 40
0.0
  0
LTYPE
  5
15
330
5
100
AcDbSymbolTableRecord
100
AcDbLinetypeTableRecord
  2
ByLayer
 70
     0
  3

 72
    65
 73
     0
 40
0.0
  0
LTYPE
  5
16
330
5
100
AcDbSymbolTableRecord
100
AcDbLinetypeTableRecord
  2
Continuous
 70
     0
  3
Solid line
 72
    65
 73
     0
 40
0.0
  0
ENDTAB
  0
TABLE
  2
LAYER
  5
2
330
0
100
AcDbSymbolTable
 70
     2
  0
LAYER
  5
10
330
2
100
AcDbSymbolTableRecord
100
AcDbLayerTableRecord
  2
0
 70
     0
 62
     7
  6
Continuous
370
    -3
390
F
347
3E
  0
LAYER
  5
40
330
2
100
AcDbSymbolTableRecord
100
AcDbLayerTableRecord
  2
Bot-mid copia
 70
     0
 62
     7
  6
Continuous
370
    -3
390
F
347
3E
  0
ENDTAB
  0
TABLE
  2
STYLE
  5
3
330
0
100
AcDbSymbolTable
 70
     1
  0
STYLE
  5
11
330
3
100
AcDbSymbolTableRecord
100
AcDbTextStyleTableRecord
  2
Standard
 70
     0
 40
0.0
 41
1.0
 50
0.0
 71
     0
 42
0.2
  3
txt
  4

  0
ENDTAB
  0
TABLE
  2
VIEW
  5
6
330
0
100
AcDbSymbolTable
 70
     0
  0
ENDTAB
  0
TABLE
  2
UCS
  5
7
330
0
100
AcDbSymbolTable
 70
     0
  0
ENDTAB
  0
TABLE
  2
APPID
  5
9
330
0
100
AcDbSymbolTable
 70
     1
  0
APPID
  5
12
330
9
100
AcDbSymbolTableRecord
100
AcDbRegAppTableRecord
  2
ACAD
 70
     0
  0
ENDTAB
  0
TABLE
  2
DIMSTYLE
  5
A
330
0
100
AcDbSymbolTable
 70
     1
100
AcDbDimStyleTable
  0
DIMSTYLE
105
27
330
A
100
AcDbSymbolTableRecord
100
AcDbDimStyleTableRecord
  2
Standard
 70
     0
178
     0
340
11
  0
ENDTAB
  0
TABLE
  2
BLOCK_RECORD
  5
1
330
0
100
AcDbSymbolTable
 70
     9
  0
BLOCK_RECORD
  5
1F
330
1
100
AcDbSymbolTableRecord
100
AcDbBlockTableRecord
  2
*Model_Space
340
22
 70
     0
280
     1
281
     0
  0
BLOCK_RECORD
  5
1B
330
1
100
AcDbSymbolTableRecord
100
AcDbBlockTableRecord
  2
*Paper_Space
340
1E
 70
     0
280
     1
281
     0
  0
BLOCK_RECORD
  5
23
330
1
100
AcDbSymbolTableRecord
100
AcDbBlockTableRecord
  2
*Paper_Space0
340
26
 70
     0
280
     1
281
     0
  0
BLOCK_RECORD
  5
42
330
1
100
AcDbSymbolTableRecord
100
AcDbBlockTableRecord
  2
block 2
340
0
102
{BLKREFS
331
43
102
}
 70
     0
280
     1
281
     0
  0
BLOCK_RECORD
  5
47
330
1
100
AcDbSymbolTableRecord
100
AcDbBlockTableRecord
  2
block 3
340
0
102
{BLKREFS
331
48
102
}
 70
     0
280
     1
281
     0
  0
BLOCK_RECORD
  5
4C
330
1
100
AcDbSymbolTableRecord
100
AcDbBlockTableRecord
  2
block 4
340
0
102
{BLKREFS
331
4D
102
}
 70
     0
280
     1
281
     0
  0
BLOCK_RECORD
  5
51
330
1
100
AcDbSymbolTableRecord
100
AcDbBlockTableRecord
  2
block 5
340
0
102
{BLKREFS
331
52
102
}
 70
     0
280
     1
281
     0
  0
BLOCK_RECORD
  5
59
330
1
100
AcDbSymbolTableRecord
100
AcDbBlockTableRecord
  2
block 6
340
0
102
{BLKREFS
331
5A
102
}
 70
     0
280
     1
281
     0
  0
BLOCK_RECORD
  5
5E
330
1
100
AcDbSymbolTableRecord
100
AcDbBlockTableRecord
  2
block 7
340
0
102
{BLKREFS
331
5F
102
}
 70
     0
280
     1
281
     0
  0
BLOCK_RECORD
  5
63
330
1
100
AcDbSymbolTableRecord
100
AcDbBlockTableRecord
  2
block 8
340
0
102
{BLKREFS
331
64
102
}
 70
     0
280
     1
281
     0
  0
BLOCK_RECORD
  5
68
330
1
100
AcDbSymbolTableRecord
100
AcDbBlockTableRecord
  2
block 9
340
0
102
{BLKREFS
331
69
102
}
 70
     0
280
     1
281
     0
  0
ENDTAB
  0
ENDSEC
  0
SECTION
  2
BLOCKS
  0
BLOCK
  5
20
330
1F
100
AcDbEntity
  8
0
100
AcDbBlockBegin
  2
*Model_Space
 70
     0
 10
0.0
 20
0.0
 30
0.0
  3
*Model_Space
  1

  0
ENDBLK
  5
21
330
1F
100
AcDbEntity
  8
0
100
AcDbBlockEnd
  0
BLOCK
  5
1C
330
1B
100
AcDbEntity
 67
     1
  8
0
100
AcDbBlockBegin
  2
*Paper_Space
 70
     0
 10
0.0
 20
0.0
 30
0.0
  3
*Paper_Space
  1

  0
ENDBLK
  5
1D
330
1B
100
AcDbEntity
 67
     1
  8
0
100
AcDbBlockEnd
  0
BLOCK
  5
24
330
23
100
AcDbEntity
  8
0
100
AcDbBlockBegin
  2
*Paper_Space0
 70
     0
 10
0.0
 20
0.0
 30
0.0
  3
*Paper_Space0
  1

  0
ENDBLK
  5
25
330
23
100
AcDbEntity
  8
0
100
AcDbBlockEnd
  0
BLOCK
  5
44
330
42
100
AcDbEntity
  8
0
100
AcDbBlockBegin
  2
block 2
 70
     0
 10
0.0
 20
0.0
 30
0.0
  3
block 2
  1

  0
SPLINE
  5
46
330
42
100
AcDbEntity
  8
Bot-mid copia
 62
     5
420
      255
370
    25
100
AcDbSpline
210
0.0
220
0.0
230
1.0
 70
    11
 71
     3
 72
    59
 73
    55
 74
     0
 42
0.0000000001
 43
0.0000000001
 12
1.0
 22
0.0
 32
0.0
 13
1.0
 23
0.0
 33
0.0
 40
0.0
 40
0.0
 40
0.0
 40
0.0
 40
1.0
 40
1.0
 40
1.0
 40
2.0
 40
2.0
 40
2.0
 40
3.0
 40
3.0
 40
3.0
 40
4.0
 40
4.0
 40
4.0
 40
5.0
 40
5.0
 40
5.0
 40
6.0
 40
6.0
 40
6.0
 40
7.0
 40
7.0
 40
7.0
 40
8.0
 40
8.0
 40
8.0
 40
9.0
 40
9.0
 40
9.0
 40
10.0
 40
10.0
 40
10.0
 40
11.0
 40
11.0
 40
11.0
 40
12.0
 40
12.0
 40
12.0
 40
13.0
 40
13.0
 40
13.0
 40
14.0
 40
14.0
 40
14.0
 40
15.0
 40
15.0
 40
15.0
 40
16.0
 40
16.0
 40
16.0
 40
17.0
 40
17.0
 40
17.0
 40
18.0
 40
18.0
 40
18.0
 40
18.0
 10
19.26985523081743
 20
181.9119679423185
 30
0.0
 10
19.25605802193685
 20
182.0469786330621
 30
0.0
 10
19.24226081305594
 20
182.1819893238051
 30
0.0
 10
19.19955923081751
 20
182.3087659423188
 30
0.0
 10
19.15746889296165
 20
182.4337278389445
 30
0.0
 10
19.08729575250869
 20
182.5506897065732
 30
0.0
 10
19.00095423081739
 20
182.6527579423186
 30
0.0
 10
18.91335871540447
 20
182.7563085810188
 30
0.0
 10
18.80912176055457
 20
182.8445298265451
 30
0.0
 10
18.69246423081737
 20
182.9120349423187
 30
0.0
 10
18.57580672214073
 20
182.9795400459057
 30
0.0
 10
18.44672864306164
 20
183.0263290272189
 30
0.0
 10
18.31367823081742
 20
183.0495549423189
 30
0.0
 10
18.18253162071314
 20
183.0724485206285
 30
0.0
 10
18.04752554339446
 20
183.0724485304164
 30
0.0
 10
17.91646723081748
 20
183.0495549423189
 30
0.0
 10
17.78350639787995
 20
183.0263290172892
 30
0.0
 10
17.65460877780097
 20
182.9795399958242
 30
0.0
 10
17.53768123081753
 20
182.9120349423187
 30
0.0
 10
17.42075366272476
 20
182.8445298766265
 30
0.0
 10
17.31579617204937
 20
182.7563087714135
 30
0.0
 10
17.22919123081751
 20
182.6527579423186
 30
0.0
 10
17.14382610251506
 20
182.5506895189038
 30
0.0
 10
17.07629182455544
 20
182.4337271422987
 30
0.0
 10
17.03058623081739
 20
182.3087659423188
 30
0.0
 10
16.984216891221
 20
182.181990030568
 30
0.0
 10
16.96031484050953
 20
182.046981287481
 30
0.0
 10
16.96029023081747
 20
181.9119679423185
 30
0.0
 10
16.96026561547269
 20
181.776923585341
 30
0.0
 10
16.98412941143838
 20
181.641874624173
 30
0.0
 10
17.03047323081735
 20
181.5150559423187
 30
0.0
 10
17.07615368418753
 20
181.3900525446598
 30
0.0
 10
17.14367520825298
 20
181.2730454959817
 30
0.0
 10
17.2290392308175
 20
181.1709359423189
 30
0.0
 10
17.31564341529946
 20
181.0673429489576
 30
0.0
 10
17.42061229300451
 20
180.9790834541965
 30
0.0
 10
17.53755923081744
 20
180.9115479423189
 30
0.0
 10
17.65450609840507
 20
180.8440124709954
 30
0.0
 10
17.78343101171529
 20
180.7972009576673
 30
0.0
 10
17.9164222308176
 20
180.7739639423186
 30
0.0
 10
18.04750954733257
 20
180.7510595881335
 30
0.0
 10
18.18254757653537
 20
180.7510595783412
 30
0.0
 10
18.31372323081731
 20
180.7739639423186
 30
0.0
 10
18.4468040706977
 20
180.7972009676014
 30
0.0
 10
18.57590952720922
 20
180.8440125210999
 30
0.0
 10
18.69258623081746
 20
180.9115479423189
 30
0.0
 10
18.80926300448865
 20
180.979083404092
 30
0.0
 10
18.91351101032969
 20
181.0673427584744
 30
0.0
 10
19.0011062308174
 20
181.1709359423189
 30
0.0
 10
19.08744709786659
 20
181.2730456837377
 30
0.0
 10
19.15760869668244
 20
181.3900532416258
 30
0.0
 10
19.19967223081755
 20
181.5150559423187
 30
0.0
 10
19.24234660649872
 20
181.6418739170854
 30
0.0
 10
19.25610091865808
 20
181.7769209297023
 30
0.0
 10
19.26985523081743
 20
181.9119679423185
 30
0.0
  0
ENDBLK
  5
45
330
42
100
AcDbEntity
  8
0
100
AcDbBlockEnd
  0
BLOCK
  5
49
330
47
100
AcDbEntity
  8
0
100
AcDbBlockBegin
  2
block 3
 70
     0
 10
0.0
 20
0.0
 30
0.0
  3
block 3
  1

  0
SPLINE
  5
4B
330
47
100
AcDbEntity
  8
Bot-mid copia
 62
     5
420
      255
370
    25
100
AcDbSpline
210
0.0
220
0.0
230
1.0
 70
    11
 71
     3
 72
    59
 73
    55
 74
     0
 42
0.0000000001
 43
0.0000000001
 12
1.0
 22
0.0
 32
0.0
 13
1.0
 23
0.0
 33
0.0
 40
0.0
 40
0.0
 40
0.0
 40
0.0
 40
1.0
 40
1.0
 40
1.0
 40
2.0
 40
2.0
 40
2.0
 40
3.0
 40
3.0
 40
3.0
 40
4.0
 40
4.0
 40
4.0
 40
5.0
 40
5.0
 40
5.0
 40
6.0
 40
6.0
 40
6.0
 40
7.0
 40
7.0
 40
7.0
 40
8.0
 40
8.0
 40
8.0
 40
9.0
 40
9.0
 40
9.0
 40
10.0
 40
10.0
 40
10.0
 40
11.0
 40
11.0
 40
11.0
 40
12.0
 40
12.0
 40
12.0
 40
13.0
 40
13.0
 40
13.0
 40
14.0
 40
14.0
 40
14.0
 40
15.0
 40
15.0
 40
15.0
 40
16.0
 40
16.0
 40
16.0
 40
17.0
 40
17.0
 40
17.0
 40
18.0
 40
18.0
 40
18.0
 40
18.0
 10
19.26985523081743
 20
100.1188839423188
 30
0.0
 10
19.25605796918919
 20
100.2538942802467
 30
0.0
 10
19.24226070756094
 20
100.3889046181746
 30
0.0
 10
19.19955923081751
 20
100.5156809423185
 30
0.0
 10
19.15746889409938
 20
100.6406428541319
 30
0.0
 10
19.08729577128929
 20
100.7576047546367
 30
0.0
 10
19.00095423081739
 20
100.8596729423189
 30
0.0
 10
18.91335869635115
 20
100.963223532257
 30
0.0
 10
18.8091216849589
 20
101.0514446457133
 30
0.0
 10
18.69246423081737
 20
101.1189499423189
 30
0.0
 10
18.57580669894492
 20
101.1864552839044
 30
0.0
 10
18.44672870777185
 20
101.2332447810326
 30
0.0
 10
18.31367823081742
 20
101.2564709423186
 30
0.0
 10
18.18253166799032
 20
101.2793647439048
 30
0.0
 10
18.04752549620681
 20
101.2793647537773
 30
0.0
 10
17.91646723081748
 20
101.2564709423186
 30
0.0
 10
17.78350633315466
 20
101.233244771017
 30
0.0
 10
17.65460880102759
 20
101.1864552333911
 30
0.0
 10
17.53768123081753
 20
101.1189499423189
 30
0.0
 10
17.4207537385184
 20
101.0514446962259
 30
0.0
 10
17.31579619218492
 20
100.9632237242932
 30
0.0
 10
17.22919123081751
 20
100.8596729423189
 30
0.0
 10
17.14382608266763
 20
100.7576045653496
 30
0.0
 10
17.0762918193734
 20
100.6406421514791
 30
0.0
 10
17.03058623081739
 20
100.5156809423185
 30
0.0
 10
16.98421700978099
 20
100.3889053310291
 30
0.0
 10
16.96031495807168
 20
100.2538969575415
 30
0.0
 10
16.96029023081747
 20
100.1188839423188
 30
0.0
 10
16.96026549776262
 20
99.98383925545477
 30
0.0
 10
16.98412929286459
 20
99.84878992467767
 30
0.0
 10
17.03047323081735
 20
99.72197094231926
 30
0.0
 10
17.07615368946358
 20
99.59696755384826
 30
0.0
 10
17.1436752281296
 20
99.47996054242715
 30
0.0
 10
17.2290392308175
 20
99.3778509423182
 30
0.0
 10
17.31564339513406
 20
99.27425790183698
 30
0.0
 10
17.42061221718777
 20
99.18599827380199
 30
0.0
 10
17.53755923081744
 20
99.11846294231884
 30
0.0
 10
17.65450607518616
 20
99.05092770858059
 30
0.0
 10
17.78343107645823
 20
99.0041167114056
 30
0.0
 10
17.9164222308176
 20
98.9808799423186
 30
0.0
 10
18.04750959452665
 20
98.95797581147366
 30
0.0
 10
18.1825475292505
 20
98.95797580159791
 30
0.0
 10
18.31372323081731
 20
98.9808799423186
 30
0.0
 10
18.4468040059708
 20
99.00411672142509
 30
0.0
 10
18.57590955040022
 20
99.05092775911696
 30
0.0
 10
18.69258623081746
 20
99.11846294231884
 30
0.0
 10
18.80926308010454
 20
99.18599822326561
 30
0.0
 10
18.91351102940226
 20
99.274257709711
 30
0.0
 10
19.0011062308174
 20
99.3778509423182
 30
0.0
 10
19.08744707906705
 20
99.4799607318028
 30
0.0
 10
19.15760869548921
 20
99.59696825682443
 30
0.0
 10
19.19967223081755
 20
99.72197094231926
 30
0.0
 10
19.24234671196581
 20
99.8487892114908
 30
0.0
 10
19.25610097139162
 20
99.98383657690479
 30
0.0
 10
19.26985523081743
 20
100.1188839423188
 30
0.0
  0
ENDBLK
  5
4A
330
47
100
AcDbEntity
  8
0
100
AcDbBlockEnd
  0
BLOCK
  5
4E
330
4C
100
AcDbEntity
  8
0
100
AcDbBlockBegin
  2
block 4
 70
     0
 10
0.0
 20
0.0
 30
0.0
  3
block 4
  1

  0
SPLINE
  5
50
330
4C
100
AcDbEntity
  8
Bot-mid copia
 62
     5
420
      255
370
    25
100
AcDbSpline
210
0.0
220
0.0
230
1.0
 70
    11
 71
     3
 72
    59
 73
    55
 74
     0
 42
0.0000000001
 43
0.0000000001
 12
1.0
 22
0.0
 32
0.0
 13
1.0
 23
0.0
 33
0.0
 40
0.0
 40
0.0
 40
0.0
 40
0.0
 40
1.0
 40
1.0
 40
1.0
 40
2.0
 40
2.0
 40
2.0
 40
3.0
 40
3.0
 40
3.0
 40
4.0
 40
4.0
 40
4.0
 40
5.0
 40
5.0
 40
5.0
 40
6.0
 40
6.0
 40
6.0
 40
7.0
 40
7.0
 40
7.0
 40
8.0
 40
8.0
 40
8.0
 40
9.0
 40
9.0
 40
9.0
 40
10.0
 40
10.0
 40
10.0
 40
11.0
 40
11.0
 40
11.0
 40
12.0
 40
12.0
 40
12.0
 40
13.0
 40
13.0
 40
13.0
 40
14.0
 40
14.0
 40
14.0
 40
15.0
 40
15.0
 40
15.0
 40
16.0
 40
16.0
 40
16.0
 40
17.0
 40
17.0
 40
17.0
 40
18.0
 40
18.0
 40
18.0
 40
18.0
 10
98.73031870881786
 20
181.9102984423185
 30
0.0
 10
98.74411591769781
 20
182.0453091330621
 30
0.0
 10
98.75791312657904
 20
182.1803198238051
 30
0.0
 10
98.80061470881715
 20
182.3070964423188
 30
0.0
 10
98.84270504667364
 20
182.4320583389445
 30
0.0
 10
98.91287818712628
 20
182.5490202065731
 30
0.0
 10
98.99921970881758
 20
182.6510884423186
 30
0.0
 10
99.08681522423082
 20
182.7546390810188
 30
0.0
 10
99.19105217908009
 20
182.8428603265451
 30
0.0
 10
99.30770970881761
 20
182.9103654423186
 30
0.0
 10
99.42436721749456
 20
182.9778705459056
 30
0.0
 10
99.55344529657302
 20
183.0246595272189
 30
0.0
 10
99.68649570881755
 20
183.0478854423189
 30
0.0
 10
99.81764231892151
 20
183.0707790206285
 30
0.0
 10
99.9526483962405
 20
183.0707790304163
 30
0.0
 10
100.0837067088172
 20
183.0478854423189
 30
0.0
 10
100.216667541755
 20
183.0246595172892
 30
0.0
 10
100.3455651618343
 20
182.9778704958242
 30
0.0
 10
100.4624927088168
 20
182.9103654423186
 30
0.0
 10
100.5794202769099
 20
182.8428603766265
 30
0.0
 10
100.684377767585
 20
182.7546392714135
 30
0.0
 10
100.7709827088175
 20
182.6510884423186
 30
0.0
 10
100.8563478371196
 20
182.5490200189038
 30
0.0
 10
100.9238821150792
 20
182.4320576422987
 30
0.0
 10
100.9695877088179
 20
182.3070964423188
 30
0.0
 10
101.015957048414
 20
182.180320530568
 30
0.0
 10
101.0398590991251
 20
182.045311787481
 30
0.0
 10
101.0398837088172
 20
181.9102984423185
 30
0.0
 10
101.0399083241626
 20
181.775254085341
 30
0.0
 10
101.0160445281959
 20
181.640205124173
 30
0.0
 10
100.969700708818
 20
181.5133864423187
 30
0.0
 10
100.9240202554474
 20
181.3883830446598
 30
0.0
 10
100.856498731382
 20
181.2713759959817
 30
0.0
 10
100.7711347088172
 20
181.1692664423189
 30
0.0
 10
100.6845305243352
 20
181.0656734489576
 30
0.0
 10
100.5795616466298
 20
180.9774139541965
 30
0.0
 10
100.4626147088179
 20
180.9098784423189
 30
0.0
 10
100.3456678412296
 20
180.8423429709954
 30
0.0
 10
100.216742927919
 20
180.7955314576672
 30
0.0
 10
100.0837517088171
 20
180.7722944423186
 30
0.0
 10
99.95266439230241
 20
180.7493900881335
 30
0.0
 10
99.81762636309928
 20
180.7493900783412
 30
0.0
 10
99.68645070881767
 20
180.7722944423186
 30
0.0
 10
99.55336986893727
 20
180.7955314676014
 30
0.0
 10
99.42426441242576
 20
180.8423430210999
 30
0.0
 10
99.3075877088172
 20
180.9098784423189
 30
0.0
 10
99.19091093514601
 20
180.9774139040919
 30
0.0
 10
99.08666292930498
 20
181.0656732584744
 30
0.0
 10
98.99906770881789
 20
181.1692664423189
 30
0.0
 10
98.9127268417687
 20
181.2713761837377
 30
0.0
 10
98.8425652429522
 20
181.3883837416258
 30
0.0
 10
98.8005017088171
 20
181.5133864423187
 30
0.0
 10
98.75782733313594
 20
181.6402044170854
 30
0.0
 10
98.7440730209769
 20
181.7752514297023
 30
0.0
 10
98.73031870881786
 20
181.9102984423185
 30
0.0
  0
ENDBLK
  5
4F
330
4C
100
AcDbEntity
  8
0
100
AcDbBlockEnd
  0
BLOCK
  5
53
330
51
100
AcDbEntity
  8
0
100
AcDbBlockBegin
  2
block 5
 70
     0
 10
0.0
 20
0.0
 30
0.0
  3
block 5
  1

  0
SPLINE
  5
55
330
51
100
AcDbEntity
  8
Bot-mid copia
 62
     5
420
      255
370
    25
100
AcDbSpline
210
0.0
220
0.0
230
1.0
 70
    11
 71
     3
 72
    59
 73
    55
 74
     0
 42
0.0000000001
 43
0.0000000001
 12
1.0
 22
0.0
 32
0.0
 13
1.0
 23
0.0
 33
0.0
 40
0.0
 40
0.0
 40
0.0
 40
0.0
 40
1.0
 40
1.0
 40
1.0
 40
2.0
 40
2.0
 40
2.0
 40
3.0
 40
3.0
 40
3.0
 40
4.0
 40
4.0
 40
4.0
 40
5.0
 40
5.0
 40
5.0
 40
6.0
 40
6.0
 40
6.0
 40
7.0
 40
7.0
 40
7.0
 40
8.0
 40
8.0
 40
8.0
 40
9.0
 40
9.0
 40
9.0
 40
10.0
 40
10.0
 40
10.0
 40
11.0
 40
11.0
 40
11.0
 40
12.0
 40
12.0
 40
12.0
 40
13.0
 40
13.0
 40
13.0
 40
14.0
 40
14.0
 40
14.0
 40
15.0
 40
15.0
 40
15.0
 40
16.0
 40
16.0
 40
16.0
 40
17.0
 40
17.0
 40
17.0
 40
18.0
 40
18.0
 40
18.0
 40
18.0
 10
98.73031870881786
 20
100.1172144423188
 30
0.0
 10
98.74411597044546
 20
100.2522247802467
 30
0.0
 10
98.75791323207436
 20
100.3872351181746
 30
0.0
 10
98.80061470881715
 20
100.5140114423184
 30
0.0
 10
98.84270504553527
 20
100.6389733541318
 30
0.0
 10
98.91287816834569
 20
100.7559352546367
 30
0.0
 10
98.99921970881758
 20
100.8580034423189
 30
0.0
 10
99.08681524328415
 20
100.961554032257
 30
0.0
 10
99.19105225467608
 20
101.0497751457133
 30
0.0
 10
99.30770970881761
 20
101.1172804423189
 30
0.0
 10
99.42436724069006
 20
101.1847857839044
 30
0.0
 10
99.55344523186281
 20
101.2315752810326
 30
0.0
 10
99.68649570881755
 20
101.2548014423186
 30
0.0
 10
99.81764227164498
 20
101.2776952439048
 30
0.0
 10
99.95264844342785
 20
101.2776952537773
 30
0.0
 10
100.0837067088172
 20
101.2548014423186
 30
0.0
 10
100.2166676064806
 20
101.231575271017
 30
0.0
 10
100.3455651386074
 20
101.1847857333911
 30
0.0
 10
100.4624927088168
 20
101.1172804423189
 30
0.0
 10
100.5794202011163
 20
101.0497751962259
 30
0.0
 10
100.6843777474497
 20
100.9615542242932
 30
0.0
 10
100.7709827088175
 20
100.8580034423189
 30
0.0
 10
100.8563478569673
 20
100.7559350653496
 30
0.0
 10
100.9238821202616
 20
100.6389726514791
 30
0.0
 10
100.9695877088179
 20
100.5140114423184
 30
0.0
 10
101.0159569298537
 20
100.387235831029
 30
0.0
 10
101.0398589815633
 20
100.2522274575415
 30
0.0
 10
101.0398837088172
 20
100.1172144423188
 30
0.0
 10
101.039908441872
 20
99.98216975545475
 30
0.0
 10
101.0160446467704
 20
99.84712042467767
 30
0.0
 10
100.969700708818
 20
99.72030144231925
 30
0.0
 10
100.9240202501714
 20
99.59529805384824
 30
0.0
 10
100.8564987115047
 20
99.47829104242714
 30
0.0
 10
100.7711347088172
 20
99.3761814423182
 30
0.0
 10
100.6845305445012
 20
99.27258840183697
 30
0.0
 10
100.5795617224466
 20
99.18432877380197
 30
0.0
 10
100.4626147088179
 20
99.11679344231884
 30
0.0
 10
100.3456678644488
 20
99.04925820858058
 30
0.0
 10
100.2167428631767
 20
99.0024472114056
 30
0.0
 10
100.0837517088171
 20
98.97921044231859
 30
0.0
 10
99.95266434510864
 20
98.95630631147364
 30
0.0
 10
99.8176264103848
 20
98.95630630159789
 30
0.0
 10
99.68645070881767
 20
98.97921044231859
 30
0.0
 10
99.55336993366417
 20
99.00244722142509
 30
0.0
 10
99.42426438923475
 20
99.04925825911694
 30
0.0
 10
99.3075877088172
 20
99.11679344231884
 30
0.0
 10
99.19091085953076
 20
99.18432872326561
 30
0.0
 10
99.08666291023239
 20
99.27258820971099
 30
0.0
 10
98.99906770881789
 20
99.3761814423182
 30
0.0
 10
98.91272686056791
 20
99.47829123180279
 30
0.0
 10
98.84256524414577
 20
99.5952987568244
 30
0.0
 10
98.8005017088171
 20
99.72030144231925
 30
0.0
 10
98.75782722766884
 20
99.84711971149079
 30
0.0
 10
98.74407296824336
 20
99.98216707690479
 30
0.0
 10
98.73031870881786
 20
100.1172144423188
 30
0.0
  0
ENDBLK
  5
54
330
51
100
AcDbEntity
  8
0
100
AcDbBlockEnd
  0
BLOCK
  5
5B
330
59
100
AcDbEntity
  8
0
100
AcDbBlockBegin
  2
block 6
 70
     0
 10
0.0
 20
0.0
 30
0.0
  3
block 6
  1

  0
SPLINE
  5
5D
330
59
100
AcDbEntity
  8
Bot-mid copia
 62
     5
420
      255
370
    25
100
AcDbSpline
210
0.0
220
0.0
230
1.0
 70
    11
 71
     3
 72
    59
 73
    55
 74
     0
 42
0.0000000001
 43
0.0000000001
 12
1.0
 22
0.0
 32
0.0
 13
1.0
 23
0.0
 33
0.0
 40
0.0
 40
0.0
 40
0.0
 40
0.0
 40
1.0
 40
1.0
 40
1.0
 40
2.0
 40
2.0
 40
2.0
 40
3.0
 40
3.0
 40
3.0
 40
4.0
 40
4.0
 40
4.0
 40
5.0
 40
5.0
 40
5.0
 40
6.0
 40
6.0
 40
6.0
 40
7.0
 40
7.0
 40
7.0
 40
8.0
 40
8.0
 40
8.0
 40
9.0
 40
9.0
 40
9.0
 40
10.0
 40
10.0
 40
10.0
 40
11.0
 40
11.0
 40
11.0
 40
12.0
 40
12.0
 40
12.0
 40
13.0
 40
13.0
 40
13.0
 40
14.0
 40
14.0
 40
14.0
 40
15.0
 40
15.0
 40
15.0
 40
16.0
 40
16.0
 40
16.0
 40
17.0
 40
17.0
 40
17.0
 40
18.0
 40
18.0
 40
18.0
 40
18.0
 10
60.15478249476147
 20
193.0002149718057
 30
0.0
 10
60.14098528588024
 20
193.1352256625494
 30
0.0
 10
60.12718807699966
 20
193.2702363532924
 30
0.0
 10
60.0844864947609
 20
193.3970129718061
 30
0.0
 10
60.04239615690569
 20
193.5219748684317
 30
0.0
 10
59.9722230164524
 20
193.6389367360604
 30
0.0
 10
59.88588149476111
 20
193.7410049718058
 30
0.0
 10
59.79828597934851
 20
193.8445556105061
 30
0.0
 10
59.69404902449796
 20
193.9327768560324
 30
0.0
 10
59.57739149476109
 20
194.0002819718059
 30
0.0
 10
59.46073398608477
 20
194.0677870753929
 30
0.0
 10
59.33165590700503
 20
194.1145760567061
 30
0.0
 10
59.19860549476114
 20
194.1378019718062
 30
0.0
 10
59.06745888465654
 20
194.1606955501157
 30
0.0
 10
58.93245280733818
 20
194.1606955599036
 30
0.0
 10
58.80139449476087
 20
194.1378019718062
 30
0.0
 10
58.66843366182399
 20
194.1145760467765
 30
0.0
 10
58.53953604174468
 20
194.0677870253115
 30
0.0
 10
58.42260849476092
 20
194.0002819718059
 30
0.0
 10
58.30568092666847
 20
193.9327769061138
 30
0.0
 10
58.20072343599276
 20
193.8445558009007
 30
0.0
 10
58.11411849476154
 20
193.7410049718058
 30
0.0
 10
58.02875336645877
 20
193.638936548391
 30
0.0
 10
57.96121908849916
 20
193.5219741717859
 30
0.0
 10
57.91551349476111
 20
193.3970129718061
 30
0.0
 10
57.86914415516504
 20
193.2702370600552
 30
0.0
 10
57.84524210445324
 20
193.1352283169682
 30
0.0
 10
57.84521749476119
 20
193.0002149718057
 30
0.0
 10
57.8451928794164
 20
192.8651706148283
 30
0.0
 10
57.86905667538178
 20
192.7301216536602
 30
0.0
 10
57.91540049476107
 20
192.6033029718059
 30
0.0
 10
57.96108094813157
 20
192.4782995741471
 30
0.0
 10
58.02860247219701
 20
192.3612925254689
 30
0.0
 10
58.11396649476121
 20
192.2591829718061
 30
0.0
 10
58.20057067924317
 20
192.1555899784449
 30
0.0
 10
58.30553955694791
 20
192.0673304836837
 30
0.0
 10
58.42248649476116
 20
191.9997949718061
 30
0.0
 10
58.53943336234879
 20
191.9322595004827
 30
0.0
 10
58.66835827565868
 20
191.8854479871545
 30
0.0
 10
58.80134949476099
 20
191.8622109718058
 30
0.0
 10
58.93243681127629
 20
191.8393066176208
 30
0.0
 10
59.06747484047877
 20
191.8393066078284
 30
0.0
 10
59.19865049476102
 20
191.8622109718058
 30
0.0
 10
59.33173133464142
 20
191.8854479970886
 30
0.0
 10
59.46083679115294
 20
191.9322595505872
 30
0.0
 10
59.57751349476086
 20
191.9997949718061
 30
0.0
 10
59.69419026843205
 20
192.0673304335792
 30
0.0
 10
59.79843827427308
 20
192.1555897879616
 30
0.0
 10
59.88603349476144
 20
192.2591829718061
 30
0.0
 10
59.97237436181063
 20
192.3612927132249
 30
0.0
 10
60.04253596062584
 20
192.4783002711131
 30
0.0
 10
60.08459949476095
 20
192.6033029718059
 30
0.0
 10
60.12727387044212
 20
192.7301209465727
 30
0.0
 10
60.14102818260179
 20
192.8651679591895
 30
0.0
 10
60.15478249476147
 20
193.0002149718057
 30
0.0
  0
ENDBLK
  5
5C
330
59
100
AcDbEntity
  8
0
100
AcDbBlockEnd
  0
BLOCK
  5
60
330
5E
100
AcDbEntity
  8
0
100
AcDbBlockBegin
  2
block 7
 70
     0
 10
0.0
 20
0.0
 30
0.0
  3
block 7
  1

  0
SPLINE
  5
62
330
5E
100
AcDbEntity
  8
Bot-mid copia
 62
     5
420
      255
370
    25
100
AcDbSpline
210
0.0
220
0.0
230
1.0
 70
    11
 71
     3
 72
    59
 73
    55
 74
     0
 42
0.0000000001
 43
0.0000000001
 12
1.0
 22
0.0
 32
0.0
 13
1.0
 23
0.0
 33
0.0
 40
0.0
 40
0.0
 40
0.0
 40
0.0
 40
1.0
 40
1.0
 40
1.0
 40
2.0
 40
2.0
 40
2.0
 40
3.0
 40
3.0
 40
3.0
 40
4.0
 40
4.0
 40
4.0
 40
5.0
 40
5.0
 40
5.0
 40
6.0
 40
6.0
 40
6.0
 40
7.0
 40
7.0
 40
7.0
 40
8.0
 40
8.0
 40
8.0
 40
9.0
 40
9.0
 40
9.0
 40
10.0
 40
10.0
 40
10.0
 40
11.0
 40
11.0
 40
11.0
 40
12.0
 40
12.0
 40
12.0
 40
13.0
 40
13.0
 40
13.0
 40
14.0
 40
14.0
 40
14.0
 40
15.0
 40
15.0
 40
15.0
 40
16.0
 40
16.0
 40
16.0
 40
17.0
 40
17.0
 40
17.0
 40
18.0
 40
18.0
 40
18.0
 40
18.0
 10
112.1547824817622
 20
141.000212505715
 30
0.0
 10
112.1409852728822
 20
141.1352231964587
 30
0.0
 10
112.127188064001
 20
141.2702338872017
 30
0.0
 10
112.0844864817629
 20
141.3970105057154
 30
0.0
 10
112.0423961439064
 20
141.521972402341
 30
0.0
 10
111.9722230034537
 20
141.6389342699697
 30
0.0
 10
111.8858814817624
 20
141.7410025057151
 30
0.0
 10
111.7982859663492
 20
141.8445531444154
 30
0.0
 10
111.6940490114999
 20
141.9327743899416
 30
0.0
 10
111.5773914817618
 20
142.0002795057152
 30
0.0
 10
111.4607339730855
 20
142.0677846093022
 30
0.0
 10
111.331655894007
 20
142.1145735906154
 30
0.0
 10
111.1986054817618
 20
142.1377995057155
 30
0.0
 10
111.0674588716585
 20
142.160693084025
 30
0.0
 10
110.9324527943389
 20
142.1606930938129
 30
0.0
 10
110.8013944817628
 20
142.1377995057155
 30
0.0
 10
110.6684336488247
 20
142.1145735806857
 30
0.0
 10
110.5395360287454
 20
142.0677845592208
 30
0.0
 10
110.4226084817629
 20
142.0002795057152
 30
0.0
 10
110.3056809136698
 20
141.9327744400231
 30
0.0
 10
110.2007234229947
 20
141.84455333481
 30
0.0
 10
110.1141184817622
 20
141.7410025057151
 30
0.0
 10
110.0287533534601
 20
141.6389340823003
 30
0.0
 10
109.9612190755005
 20
141.5219717056952
 30
0.0
 10
109.9155134817618
 20
141.3970105057154
 30
0.0
 10
109.8691441421657
 20
141.2702345939645
 30
0.0
 10
109.8452420914546
 20
141.1352258508775
 30
0.0
 10
109.8452174817625
 20
141.000212505715
 30
0.0
 10
109.8451928664171
 20
140.8651681487376
 30
0.0
 10
109.8690566623838
 20
140.7301191875695
 30
0.0
 10
109.9154004817618
 20
140.6033005057152
 30
0.0
 10
109.9610809351323
 20
140.4782971080564
 30
0.0
 10
110.0286024591977
 20
140.3612900593782
 30
0.0
 10
110.1139664817625
 20
140.2591805057154
 30
0.0
 10
110.2005706662445
 20
140.1555875123542
 30
0.0
 10
110.3055395439499
 20
140.067328017593
 30
0.0
 10
110.4224864817619
 20
139.9997925057154
 30
0.0
 10
110.5394333493501
 20
139.932257034392
 30
0.0
 10
110.6683582626607
 20
139.8854455210638
 30
0.0
 10
110.801349481763
 20
139.8622085057151
 30
0.0
 10
110.932436798277
 20
139.8393041515301
 30
0.0
 10
111.0674748274807
 20
139.8393041417377
 30
0.0
 10
111.1986504817617
 20
139.8622085057151
 30
0.0
 10
111.3317313216427
 20
139.8854455309979
 30
0.0
 10
111.4608367781536
 20
139.9322570844965
 30
0.0
 10
111.5775134817628
 20
139.9997925057154
 30
0.0
 10
111.694190255434
 20
140.0673279674885
 30
0.0
 10
111.7984382612751
 20
140.1555873218709
 30
0.0
 10
111.8860334817621
 20
140.2591805057154
 30
0.0
 10
111.9723743488113
 20
140.3612902471342
 30
0.0
 10
112.0425359476278
 20
140.4782978050224
 30
0.0
 10
112.0845994817629
 20
140.6033005057152
 30
0.0
 10
112.1272738574441
 20
140.730118480482
 30
0.0
 10
112.1410281696031
 20
140.8651654930988
 30
0.0
 10
112.1547824817622
 20
141.000212505715
 30
0.0
  0
ENDBLK
  5
61
330
5E
100
AcDbEntity
  8
0
100
AcDbBlockEnd
  0
BLOCK
  5
65
330
63
100
AcDbEntity
  8
0
100
AcDbBlockBegin
  2
block 8
 70
     0
 10
0.0
 20
0.0
 30
0.0
  3
block 8
  1

  0
SPLINE
  5
67
330
63
100
AcDbEntity
  8
Bot-mid copia
 62
     5
420
      255
370
    25
100
AcDbSpline
210
0.0
220
0.0
230
1.0
 70
    11
 71
     3
 72
    59
 73
    55
 74
     0
 42
0.0000000001
 43
0.0000000001
 12
1.0
 22
0.0
 32
0.0
 13
1.0
 23
0.0
 33
0.0
 40
0.0
 40
0.0
 40
0.0
 40
0.0
 40
1.0
 40
1.0
 40
1.0
 40
2.0
 40
2.0
 40
2.0
 40
3.0
 40
3.0
 40
3.0
 40
4.0
 40
4.0
 40
4.0
 40
5.0
 40
5.0
 40
5.0
 40
6.0
 40
6.0
 40
6.0
 40
7.0
 40
7.0
 40
7.0
 40
8.0
 40
8.0
 40
8.0
 40
9.0
 40
9.0
 40
9.0
 40
10.0
 40
10.0
 40
10.0
 40
11.0
 40
11.0
 40
11.0
 40
12.0
 40
12.0
 40
12.0
 40
13.0
 40
13.0
 40
13.0
 40
14.0
 40
14.0
 40
14.0
 40
15.0
 40
15.0
 40
15.0
 40
16.0
 40
16.0
 40
16.0
 40
17.0
 40
17.0
 40
17.0
 40
18.0
 40
18.0
 40
18.0
 40
18.0
 10
60.15478249476179
 20
89.0002125187156
 30
0.0
 10
60.14098528588185
 20
89.13522320945862
 30
0.0
 10
60.12718807700062
 20
89.27023390020162
 30
0.0
 10
60.08448649476251
 20
89.39701051871532
 30
0.0
 10
60.04239615690601
 20
89.52197241534097
 30
0.0
 10
59.97222301645337
 20
89.63893428297028
 30
0.0
 10
59.88588149476207
 20
89.74100251871509
 30
0.0
 10
59.79828597934883
 20
89.8445531574153
 30
0.0
 10
59.69404902449957
 20
89.93277440294224
 30
0.0
 10
59.57739149476205
 20
90.00027951871576
 30
0.0
 10
59.46073398608509
 20
90.06778462230213
 30
0.0
 10
59.33165590700663
 20
90.114573603616
 30
0.0
 10
59.1986054947621
 20
90.13779951871541
 30
0.0
 10
59.06745888465814
 20
90.16069309702499
 30
0.0
 10
58.93245280733915
 20
90.16069310681347
 30
0.0
 10
58.80139449476248
 20
90.13779951871541
 30
0.0
 10
58.66843366182431
 20
90.11457359368634
 30
0.0
 10
58.53953604174565
 20
90.06778457222137
 30
0.0
 10
58.42260849476253
 20
90.00027951871576
 30
0.0
 10
58.30568092666944
 20
89.932774453023
 30
0.0
 10
58.20072343599437
 20
89.84455334780998
 30
0.0
 10
58.11411849476187
 20
89.74100251871509
 30
0.0
 10
58.02875336645974
 20
89.63893409530026
 30
0.0
 10
57.96121908850012
 20
89.52197171869581
 30
0.0
 10
57.91551349476207
 20
89.39701051871532
 30
0.0
 10
57.86914415516536
 20
89.27023460696509
 30
0.0
 10
57.8452421044542
 20
89.1352258638775
 30
0.0
 10
57.84521749476215
 20
89.0002125187156
 30
0.0
 10
57.84519287941736
 20
88.86516816173814
 30
0.0
 10
57.86905667538338
 20
88.73011920057009
 30
0.0
 10
57.91540049476203
 20
88.60330051871516
 30
0.0
 10
57.96108094813189
 20
88.4782971210563
 30
0.0
 10
58.02860247219733
 20
88.36129007237814
 30
0.0
 10
58.11396649476217
 20
88.25918051871538
 30
0.0
 10
58.20057067924414
 20
88.15558752535411
 30
0.0
 10
58.30553955694951
 20
88.06732803059359
 30
0.0
 10
58.42248649476212
 20
87.99979251871602
 30
0.0
 10
58.53943336234975
 20
87.93225704739254
 30
0.0
 10
58.66835827566029
 20
87.88544553406437
 30
0.0
 10
58.80134949476259
 20
87.86220851871508
 30
0.0
 10
58.93243681127725
 20
87.83930416453065
 30
0.0
 10
59.06747484048037
 20
87.83930415473831
 30
0.0
 10
59.19865049476198
 20
87.86220851871508
 30
0.0
 10
59.33173133464238
 20
87.88544554399788
 30
0.0
 10
59.46083679115389
 20
87.9322570974964
 30
0.0
 10
59.57751349476246
 20
87.99979251871602
 30
0.0
 10
59.69419026843365
 20
88.06732798048844
 30
0.0
 10
59.79843827427468
 20
88.15558733487089
 30
0.0
 10
59.88603349476176
 20
88.25918051871538
 30
0.0
 10
59.97237436181095
 20
88.36129026013415
 30
0.0
 10
60.04253596062745
 20
88.47829781802231
 30
0.0
 10
60.08459949476255
 20
88.60330051871516
 30
0.0
 10
60.12727387044372
 20
88.73011849348191
 30
0.0
 10
60.14102818260275
 20
88.86516550609876
 30
0.0
 10
60.15478249476179
 20
89.0002125187156
 30
0.0
  0
ENDBLK
  5
66
330
63
100
AcDbEntity
  8
0
100
AcDbBlockEnd
  0
BLOCK
  5
6A
330
68
100
AcDbEntity
  8
0
100
AcDbBlockBegin
  2
block 9
 70
     0
 10
0.0
 20
0.0
 30
0.0
  3
block 9
  1

  0
SPLINE
  5
6C
330
68
100
AcDbEntity
  8
Bot-mid copia
 62
     5
420
      255
370
    25
100
AcDbSpline
210
0.0
220
0.0
230
1.0
 70
    11
 71
     3
 72
    59
 73
    55
 74
     0
 42
0.0000000001
 43
0.0000000001
 12
1.0
 22
0.0
 32
0.0
 13
1.0
 23
0.0
 33
0.0
 40
0.0
 40
0.0
 40
0.0
 40
0.0
 40
1.0
 40
1.0
 40
1.0
 40
2.0
 40
2.0
 40
2.0
 40
3.0
 40
3.0
 40
3.0
 40
4.0
 40
4.0
 40
4.0
 40
5.0
 40
5.0
 40
5.0
 40
6.0
 40
6.0
 40
6.0
 40
7.0
 40
7.0
 40
7.0
 40
8.0
 40
8.0
 40
8.0
 40
9.0
 40
9.0
 40
9.0
 40
10.0
 40
10.0
 40
10.0
 40
11.0
 40
11.0
 40
11.0
 40
12.0
 40
12.0
 40
12.0
 40
13.0
 40
13.0
 40
13.0
 40
14.0
 40
14.0
 40
14.0
 40
15.0
 40
15.0
 40
15.0
 40
16.0
 40
16.0
 40
16.0
 40
17.0
 40
17.0
 40
17.0
 40
18.0
 40
18.0
 40
18.0
 40
18.0
 10
8.154782507761418
 20
141.0002125057156
 30
0.0
 10
8.140985298880834
 20
141.1352231964593
 30
0.0
 10
8.127188089999928
 20
141.2702338872023
 30
0.0
 10
8.084486507761492
 20
141.397010505716
 30
0.0
 10
8.042396169905635
 20
141.5219724023417
 30
0.0
 10
7.972223029452676
 20
141.6389342699703
 30
0.0
 10
7.885881507761379
 20
141.7410025057158
 30
0.0
 10
7.79828599234846
 20
141.844553144416
 30
0.0
 10
7.694049037498557
 20
141.9327743899423
 30
0.0
 10
7.577391507761357
 20
142.0002795057158
 30
0.0
 10
7.46073399908472
 20
142.0677846093028
 30
0.0
 10
7.331655920005622
 20
142.1145735906161
 30
0.0
 10
7.19860550776141
 20
142.1377995057161
 30
0.0
 10
7.067458897657127
 20
142.1606930840257
 30
0.0
 10
6.932452820338451
 20
142.1606930938135
 30
0.0
 10
6.801394507761463
 20
142.1377995057161
 30
0.0
 10
6.668433674823938
 20
142.1145735806864
 30
0.0
 10
6.539536054744956
 20
142.0677845592214
 30
0.0
 10
6.422608507761516
 20
142.0002795057158
 30
0.0
 10
6.305680939668743
 20
141.9327744400237
 30
0.0
 10
6.200723448993355
 20
141.8445533348107
 30
0.0
 10
6.114118507761495
 20
141.7410025057158
 30
0.0
 10
6.028753379459046
 20
141.6389340823009
 30
0.0
 10
5.961219101499426
 20
141.5219717056959
 30
0.0
 10
5.91551350776138
 20
141.397010505716
 30
0.0
 10
5.869144168164987
 20
141.2702345939651
 30
0.0
 10
5.84524211745351
 20
141.1352258508782
 30
0.0
 10
5.845217507761455
 20
141.0002125057156
 30
0.0
 10
5.845192892416672
 20
140.8651681487382
 30
0.0
 10
5.869056688382371
 20
140.7301191875701
 30
0.0
 10
5.915400507761333
 20
140.6033005057159
 30
0.0
 10
5.961080961131522
 20
140.478297108057
 30
0.0
 10
6.02860248519696
 20
140.3612900593788
 30
0.0
 10
6.113966507761484
 20
140.2591805057161
 30
0.0
 10
6.200570692243444
 20
140.1555875123548
 30
0.0
 10
6.305539569948499
 20
140.0673280175936
 30
0.0
 10
6.422486507761428
 20
139.9997925057161
 30
0.0
 10
6.539433375349059
 20
139.9322570343926
 30
0.0
 10
6.668358288659277
 20
139.8854455210644
 30
0.0
 10
6.80134950776158
 20
139.8622085057158
 30
0.0
 10
6.932436824276557
 20
139.8393041515307
 30
0.0
 10
7.067474853479357
 20
139.8393041417384
 30
0.0
 10
7.198650507761292
 20
139.8622085057158
 30
0.0
 10
7.331731347641688
 20
139.8854455309986
 30
0.0
 10
7.460836804153203
 20
139.9322570844971
 30
0.0
 10
7.577513507761446
 20
139.9997925057161
 30
0.0
 10
7.694190281432635
 20
140.0673279674891
 30
0.0
 10
7.79843828727367
 20
140.1555873218716
 30
0.0
 10
7.886033507761389
 20
140.2591805057161
 30
0.0
 10
7.972374374810578
 20
140.3612902471348
 30
0.0
 10
8.042535973626432
 20
140.478297805023
 30
0.0
 10
8.08459950776154
 20
140.6033005057159
 30
0.0
 10
8.127273883442708
 20
140.7301184804826
 30
0.0
 10
8.141028195602063
 20
140.8651654930995
 30
0.0
 10
8.154782507761418
 20
141.0002125057156
 30
0.0
  0
ENDBLK
  5
6B
330
68
100
AcDbEntity
  8
0
100
AcDbBlockEnd
  0
ENDSEC
  0
SECTION
  2
ENTITIES
  0
SPLINE
  5
41
330
1F
100
AcDbEntity
  8
Bot-mid copia
 62
     5
420
      255
370
    25
100
AcDbSpline
210
0.0
220
0.0
230
1.0
 70
    11
 71
     3
 72
    29
 73
    25
 74
     0
 42
0.0000000001
 43
0.0000000001
 12
1.0
 22
0.0
 32
0.0
 13
1.0
 23
0.0
 33
0.0
 40
0.0
 40
0.0
 40
0.0
 40
0.0
 40
1.0
 40
1.0
 40
1.0
 40
2.0
 40
2.0
 40
2.0
 40
3.0
 40
3.0
 40
3.0
 40
4.0
 40
4.0
 40
4.0
 40
5.0
 40
5.0
 40
5.0
 40
6.0
 40
6.0
 40
6.0
 40
7.0
 40
7.0
 40
7.0
 40
8.0
 40
8.0
 40
8.0
 40
8.0
 10
78.63703701737691
 20
83.9999999790117
 30
0.0
 10
78.63703701737691
 20
83.9999999790117
 30
0.0
 10
39.36296295312194
 20
83.9999999790117
 30
0.0
 10
39.36296295312194
 20
83.9999999790117
 30
0.0
 10
18.72796830534348
 20
83.9999999790117
 30
0.0
 10
1.999999999499866
 20
100.727968284855
 30
0.0
 10
1.999999999499866
 20
121.3629629326335
 30
0.0
 10
1.999999999499866
 20
121.3629629326335
 30
0.0
 10
1.999999999499866
 20
160.6370369968888
 30
0.0
 10
1.999999999499866
 20
160.6370369968888
 30
0.0
 10
1.999999999499866
 20
181.2720316446672
 30
0.0
 10
18.7279683053438
 20
197.9999999505111
 30
0.0
 10
39.36296295312226
 20
197.9999999505111
 30
0.0
 10
39.36296295312226
 20
197.9999999505111
 30
0.0
 10
78.63703701737755
 20
197.9999999505111
 30
0.0
 10
78.63703701737755
 20
197.9999999505111
 30
0.0
 10
99.272031665156
 20
197.9999999505111
 30
0.0
 10
115.9999999709993
 20
181.2720316446675
 30
0.0
 10
115.9999999709993
 20
160.6370369968891
 30
0.0
 10
115.9999999709993
 20
160.6370369968891
 30
0.0
 10
115.9999999709993
 20
121.3629629326341
 30
0.0
 10
115.9999999709993
 20
121.3629629326341
 30
0.0
 10
115.9999999709993
 20
100.7279682848556
 30
0.0
 10
99.27203166515537
 20
83.9999999790117
 30
0.0
 10
78.63703701737691
 20
83.9999999790117
 30
0.0
  0
INSERT
  5
43
330
1F
100
AcDbEntity
  8
Bot-mid copia
100
AcDbBlockReference
  2
block 2
 10
0.0
 20
0.0
 30
0.0
  0
INSERT
  5
48
330
1F
100
AcDbEntity
  8
Bot-mid copia
100
AcDbBlockReference
  2
block 3
 10
0.0
 20
0.0
 30
0.0
  0
INSERT
  5
4D
330
1F
100
AcDbEntity
  8
Bot-mid copia
100
AcDbBlockReference
  2
block 4
 10
0.0
 20
0.0
 30
0.0
  0
INSERT
  5
52
330
1F
100
AcDbEntity
  8
Bot-mid copia
100
AcDbBlockReference
  2
block 5
 10
0.0
 20
0.0
 30
0.0
  0
POLYLINE
  5
56
330
1F
100
AcDbEntity
  8
Bot-mid copia
 62
     5
420
      255
370
    25
100
AcDb2dPolyline
 66
     1
 10
0.0
 20
0.0
 30
0.0
  0
VERTEX
  5
57
330
56
100
AcDbEntity
  8
Bot-mid copia
 62
     5
420
      255
370
    25
100
AcDbVertex
100
AcDb2dVertex
 10
104.0000024530908
 20
140.9999999647613
 30
0.0
  0
VERTEX
  5
6E
330
56
100
AcDbEntity
  8
0
100
AcDbVertex
100
AcDb2dVertex
 10
104.0000024530908
 20
140.9999999647613
 30
0.0
  0
SEQEND
  5
58
330
56
100
AcDbEntity
  8
Bot-mid copia
 62
     5
420
      255
370
    25
  0
INSERT
  5
5A
330
1F
100
AcDbEntity
  8
Bot-mid copia
100
AcDbBlockReference
  2
block 6
 10
0.0
 20
0.0
 30
0.0
  0
INSERT
  5
5F
330
1F
100
AcDbEntity
  8
Bot-mid copia
100
AcDbBlockReference
  2
block 7
 10
0.0
 20
0.0
 30
0.0
  0
INSERT
  5
64
330
1F
100
AcDbEntity
  8
Bot-mid copia
100
AcDbBlockReference
  2
block 8
 10
0.0
 20
0.0
 30
0.0
  0
INSERT
  5
69
330
1F
100
AcDbEntity
  8
Bot-mid copia
100
AcDbBlockReference
  2
block 9
 10
0.0
 20
0.0
 30
0.0
  0
SPLINE
  5
6D
330
1F
100
AcDbEntity
  8
Bot-mid copia
 62
     5
420
      255
370
    25
100
AcDbSpline
210
0.0
220
0.0
230
1.0
 70
    11
 71
     3
 72
    29
 73
    25
 74
     0
 42
0.0000000001
 43
0.0000000001
 12
1.0
 22
0.0
 32
0.0
 13
1.0
 23
0.0
 33
0.0
 40
0.0
 40
0.0
 40
0.0
 40
0.0
 40
1.0
 40
1.0
 40
1.0
 40
2.0
 40
2.0
 40
2.0
 40
3.0
 40
3.0
 40
3.0
 40
4.0
 40
4.0
 40
4.0
 40
5.0
 40
5.0
 40
5.0
 40
6.0
 40
6.0
 40
6.0
 40
7.0
 40
7.0
 40
7.0
 40
8.0
 40
8.0
 40
8.0
 40
8.0
 10
95.00000121081757
 20
102.0000012140562
 30
0.0
 10
95.00000121081757
 20
102.0000012140562
 30
0.0
 10
23.00000122881757
 20
102.0000012140562
 30
0.0
 10
23.00000122881757
 20
102.0000012140562
 30
0.0
 10
21.34314697973957
 20
102.0000012140562
 30
0.0
 10
20.00000122956762
 20
103.3431469642281
 30
0.0
 10
20.00000122956762
 20
105.0000012133061
 30
0.0
 10
20.00000122956762
 20
105.0000012133061
 30
0.0
 10
20.00000122956762
 20
177.0000011953064
 30
0.0
 10
20.00000122956762
 20
177.0000011953064
 30
0.0
 10
20.00000122956762
 20
178.6568554443844
 30
0.0
 10
21.34314697973957
 20
180.0000011945564
 30
0.0
 10
23.00000122881757
 20
180.0000011945564
 30
0.0
 10
23.00000122881757
 20
180.0000011945564
 30
0.0
 10
95.00000121081757
 20
180.0000011945564
 30
0.0
 10
95.00000121081757
 20
180.0000011945564
 30
0.0
 10
96.65685545989558
 20
180.0000011945564
 30
0.0
 10
98.00000121006752
 20
178.6568554443844
 30
0.0
 10
98.00000121006752
 20
177.0000011953064
 30
0.0
 10
98.00000121006752
 20
177.0000011953064
 30
0.0
 10
98.00000121006752
 20
105.0000012133061
 30
0.0
 10
98.00000121006752
 20
105.0000012133061
 30
0.0
 10
98.00000121006752
 20
103.3431469642281
 30
0.0
 10
96.65685545989558
 20
102.0000012140562
 30
0.0
 10
95.00000121081757
 20
102.0000012140562
 30
0.0
  0
ENDSEC
  0
SECTION
  2
OBJECTS
  0
DICTIONARY
  5
C
330
0
100
AcDbDictionary
281
     1
  3
ACAD_GROUP
350
D
  3
ACAD_LAYOUT
350
1A
  3
ACAD_MATERIAL
350
3B
  3
ACAD_MLEADERSTYLE
350
70
  3
ACAD_MLINESTYLE
350
17
  3
ACAD_PLOTSETTINGS
350
19
  3
ACAD_PLOTSTYLENAME
350
E
  3
ACAD_TABLESTYLE
350
6F
  3
ACAD_VISUALSTYLE
350
2A
  0
SUN
  5
3F
330
29
100
AcDbSun
 90
        1
290
     0
 63
     7
421
 16777215
 40
1.0
291
     1
 91
  2455826
 92
 54000000
292
     0
 70
     2
 71
   256
280
     1
  0
DICTIONARY
  5
D
102
{ACAD_REACTORS
330
C
102
}
330
C
100
AcDbDictionary
281
     1
  0
DICTIONARY
  5
1A
102
{ACAD_REACTORS
330
C
102
}
330
C
100
AcDbDictionary
281
     1
  3
Layout1
350
1E
  3
Layout2
350
26
  3
Model
350
22
  0
DICTIONARY
  5
3B
102
{ACAD_REACTORS
330
C
102
}
330
C
100
AcDbDictionary
281
     1
  3
ByBlock
350
3D
  3
ByLayer
350
3C
  3
Global
350
3E
  0
DICTIONARY
  5
70
102
{ACAD_REACTORS
330
C
102
}
330
C
100
AcDbDictionary
281
     1
  0
DICTIONARY
  5
17
102
{ACAD_REACTORS
330
C
102
}
330
C
100
AcDbDictionary
281
     1
  3
Standard
350
18
  0
DICTIONARY
  5
19
102
{ACAD_REACTORS
330
C
102
}
330
C
100
AcDbDictionary
281
     1
  0
ACDBDICTIONARYWDFLT
  5
E
102
{ACAD_REACTORS
330
C
102
}
330
C
100
AcDbDictionary
281
     1
  3
Normal
350
F
100
AcDbDictionaryWithDefault
340
F
  0
DICTIONARY
  5
6F
102
{ACAD_REACTORS
330
C
102
}
330
C
100
AcDbDictionary
281
     1
  0
DICTIONARY
  5
2A
102
{ACAD_REACTORS
330
C
102
}
330
C
100
AcDbDictionary
281
     1
  3
2dWireframe
350
2F
  3
3D Hidden
350
31
  3
3dWireframe
350
30
  3
Basic
350
32
  3
Brighten
350
36
  3
ColorChange
350
3A
  3
Conceptual
350
34
  3
Dim
350
35
  3
Facepattern
350
39
  3
Flat
350
2B
  3
FlatWithEdges
350
2C
  3
Gouraud
350
2D
  3
GouraudWithEdges
350
2E
  3
Linepattern
350
38
  3
Realistic
350
33
  3
Thicken
350
37
  0
LAYOUT
  5
1E
102
{ACAD_REACTORS
330
1A
102
}
330
1A
100
AcDbPlotSettings
  1

  2
none_device
  4

  6

 40
0.0
 41
0.0
 42
0.0
 43
0.0
 44
0.0
 45
0.0
 46
0.0
 47
0.0
 48
0.0
 49
0.0
140
0.0
141
0.0
142
1.0
143
1.0
 70
   688
 72
     0
 73
     0
 74
     5
  7

 75
    16
 76
     0
 77
     2
 78
   300
147
1.0
148
0.0
149
0.0
100
AcDbLayout
  1
Layout1
 70
     1
 71
     1
 10
0.0
 20
0.0
 11
12.0
 21
9.0
 12
0.0
 22
0.0
 32
0.0
 14
1.000000000000000E+20
 24
1.000000000000000E+20
 34
1.000000000000000E+20
 15
-1.000000000000000E+20
 25
-1.000000000000000E+20
 35
-1.000000000000000E+20
146
0.0
 13
0.0
 23
0.0
 33
0.0
 16
1.0
 26
0.0
 36
0.0
 17
0.0
 27
1.0
 37
0.0
 76
     0
330
1B
  0
LAYOUT
  5
26
102
{ACAD_REACTORS
330
1A
102
}
330
1A
100
AcDbPlotSettings
  1

  2
none_device
  4

  6

 40
0.0
 41
0.0
 42
0.0
 43
0.0
 44
0.0
 45
0.0
 46
0.0
 47
0.0
 48
0.0
 49
0.0
140
0.0
141
0.0
142
1.0
143
1.0
 70
   688
 72
     0
 73
     0
 74
     5
  7

 75
    16
 76
     0
 77
     2
 78
   300
147
1.0
148
0.0
149
0.0
100
AcDbLayout
  1
Layout2
 70
     1
 71
     2
 10
0.0
 20
0.0
 11
0.0
 21
0.0
 12
0.0
 22
0.0
 32
0.0
 14
0.0
 24
0.0
 34
0.0
 15
0.0
 25
0.0
 35
0.0
146
0.0
 13
0.0
 23
0.0
 33
0.0
 16
1.0
 26
0.0
 36
0.0
 17
0.0
 27
1.0
 37
0.0
 76
     0
330
23
  0
LAYOUT
  5
22
102
{ACAD_REACTORS
330
1A
102
}
330
1A
100
AcDbPlotSettings
  1

  2
none_device
  4

  6

 40
0.0
 41
0.0
 42
0.0
 43
0.0
 44
0.0
 45
0.0
 46
0.0
 47
0.0
 48
0.0
 49
0.0
140
0.0
141
0.0
142
1.0
143
1.0
 70
  1712
 72
     0
 73
     0
 74
     0
  7

 75
     0
 76
     0
 77
     2
 78
   300
147
1.0
148
0.0
149
0.0
100
AcDbLayout
  1
Model
 70
     1
 71
     0
 10
0.0
 20
0.0
 11
12.0
 21
9.0
 12
0.0
 22
0.0
 32
0.0
 14
1.000000000000000E+20
 24
1.000000000000000E+20
 34
1.000000000000000E+20
 15
-1.000000000000000E+20
 25
-1.000000000000000E+20
 35
-1.000000000000000E+20
146
0.0
 13
0.0
 23
0.0
 33
0.0
 16
1.0
 26
0.0
 36
0.0
 17
0.0
 27
1.0
 37
0.0
 76
     0
330
1F
331
29
  0
MATERIAL
  5
3D
102
{ACAD_REACTORS
330
3B
102
}
330
3B
100
AcDbMaterial
  1
ByBlock
 72
     1
 94
      127
  0
MATERIAL
  5
3C
102
{ACAD_REACTORS
330
3B
102
}
330
3B
100
AcDbMaterial
  1
ByLayer
 72
     1
 94
      127
  0
MATERIAL
  5
3E
102
{ACAD_REACTORS
330
3B
102
}
330
3B
100
AcDbMaterial
  1
Global
 72
     1
 94
      127
  0
MLINESTYLE
  5
18
102
{ACAD_REACTORS
330
17
102
}
330
17
100
AcDbMlineStyle
  2
Standard
 70
     0
  3

 62
   256
 51
90.0
 52
90.0
 71
     2
 49
0.5
 62
   256
  6
BYLAYER
 49
-0.5
 62
   256
  6
BYLAYER
  0
ACDBPLACEHOLDER
  5
F
102
{ACAD_REACTORS
330
E
102
}
330
E
  0
VISUALSTYLE
  5
2F
102
{ACAD_REACTORS
330
2A
102
}
330
2A
100
AcDbVisualStyle
  2
2dWireframe
 70
     4
177
     2
291
     0
 71
     0
176
     1
 72
     2
176
     1
 73
     0
176
     1
 90
        0
176
     1
 40
-0.6
176
     1
 41
-30.0
176
     1
 62
     5
 63
     7
421
 16777215
176
     1
 74
     1
176
     1
 91
        4
176
     1
 64
     7
176
     1
 65
   257
176
     1
 75
     1
176
     1
175
     1
176
     1
 42
1.0
176
     1
 92
        0
176
     1
 66
   257
176
     1
 43
1.0
176
     1
 76
     1
176
     1
 77
     6
176
     1
 78
     2
176
     1
 67
     7
176
     1
 79
     5
176
     1
170
     0
176
     1
171
     0
176
     1
290
     0
176
     1
 93
        1
176
     1
 44
0.0
176
     1
173
     0
176
     1
  0
VISUALSTYLE
  5
31
102
{ACAD_REACTORS
330
2A
102
}
330
2A
100
AcDbVisualStyle
  2
3D Hidden
 70
     6
177
     2
291
     0
 71
     1
176
     1
 72
     2
176
     1
 73
     2
176
     1
 90
        0
176
     1
 40
-0.6
176
     1
 41
-30.0
176
     1
 62
     5
 63
     7
421
 16777215
176
     1
 74
     2
176
     1
 91
        2
176
     1
 64
     7
176
     1
 65
   257
176
     1
 75
     2
176
     1
175
     1
176
     1
 42
40.0
176
     1
 92
        0
176
     1
 66
   257
176
     1
 43
1.0
176
     1
 76
     1
176
     1
 77
     6
176
     1
 78
     2
176
     1
 67
     7
176
     1
 79
     3
176
     1
170
     0
176
     1
171
     0
176
     1
290
     0
176
     1
 93
        1
176
     1
 44
0.0
176
     1
173
     0
176
     1
  0
VISUALSTYLE
  5
30
102
{ACAD_REACTORS
330
2A
102
}
330
2A
100
AcDbVisualStyle
  2
3dWireframe
 70
     5
177
     2
291
     0
 71
     0
176
     1
 72
     2
176
     1
 73
     0
176
     1
 90
        0
176
     1
 40
-0.6
176
     1
 41
-30.0
176
     1
 62
     5
 63
     7
421
 16777215
176
     1
 74
     1
176
     1
 91
        4
176
     1
 64
     7
176
     1
 65
   257
176
     1
 75
     1
176
     1
175
     1
176
     1
 42
1.0
176
     1
 92
        0
176
     1
 66
   257
176
     1
 43
1.0
176
     1
 76
     1
176
     1
 77
     6
176
     1
 78
     2
176
     1
 67
     7
176
     1
 79
     5
176
     1
170
     0
176
     1
171
     0
176
     1
290
     0
176
     1
 93
        1
176
     1
 44
0.0
176
     1
173
     0
176
     1
  0
VISUALSTYLE
  5
32
102
{ACAD_REACTORS
330
2A
102
}
330
2A
100
AcDbVisualStyle
  2
Basic
 70
     7
177
     2
291
     1
 71
     1
176
     1
 72
     0
176
     1
 73
     1
176
     1
 90
        0
176
     1
 40
-0.6
176
     1
 41
-30.0
176
     1
 62
     5
 63
     7
421
 16777215
176
     1
 74
     0
176
     1
 91
        4
176
     1
 64
     7
176
     1
 65
   257
176
     1
 75
     1
176
     1
175
     1
176
     1
 42
1.0
176
     1
 92
        8
176
     1
 66
     7
176
     1
 43
1.0
176
     1
 76
     1
176
     1
 77
     6
176
     1
 78
     2
176
     1
 67
     7
176
     1
 79
     5
176
     1
170
     0
176
     1
171
     0
176
     1
290
     0
176
     1
 93
        1
176
     1
 44
0.0
176
     1
173
     0
176
     1
  0
VISUALSTYLE
  5
36
102
{ACAD_REACTORS
330
2A
102
}
330
2A
100
AcDbVisualStyle
  2
Brighten
 70
    12
177
     2
291
     1
 71
     2
176
     1
 72
     2
176
     1
 73
     0
176
     1
 90
        0
176
     1
 40
-0.6
176
     1
 41
-30.0
176
     1
 62
     5
 63
     7
421
 16777215
176
     1
 74
     1
176
     1
 91
        4
176
     1
 64
     7
176
     1
 65
   257
176
     1
 75
     1
176
     1
175
     1
176
     1
 42
1.0
176
     1
 92
        8
176
     1
 66
     7
176
     1
 43
1.0
176
     1
 76
     1
176
     1
 77
     6
176
     1
 78
     2
176
     1
 67
     7
176
     1
 79
     5
176
     1
170
     0
176
     1
171
     0
176
     1
290
     0
176
     1
 93
        1
176
     1
 44
50.0
176
     1
173
     0
176
     1
  0
VISUALSTYLE
  5
3A
102
{ACAD_REACTORS
330
2A
102
}
330
2A
100
AcDbVisualStyle
  2
ColorChange
 70
    16
177
     2
291
     1
 71
     2
176
     1
 72
     2
176
     1
 73
     3
176
     1
 90
        0
176
     1
 40
-0.6
176
     1
 41
-30.0
176
     1
 62
     5
 63
     8
421
  8421504
176
     1
 74
     1
176
     1
 91
        4
176
     1
 64
     7
176
     1
 65
   257
176
     1
 75
     1
176
     1
175
     1
176
     1
 42
1.0
176
     1
 92
        8
176
     1
 66
     8
424
  8421504
176
     1
 43
1.0
176
     1
 76
     1
176
     1
 77
     6
176
     1
 78
     2
176
     1
 67
     7
176
     1
 79
     5
176
     1
170
     0
176
     1
171
     0
176
     1
290
     0
176
     1
 93
        1
176
     1
 44
0.0
176
     1
173
     0
176
     1
  0
VISUALSTYLE
  5
34
102
{ACAD_REACTORS
330
2A
102
}
330
2A
100
AcDbVisualStyle
  2
Conceptual
 70
     9
177
     2
291
     0
 71
     3
176
     1
 72
     2
176
     1
 73
     0
176
     1
 90
        0
176
     1
 40
-0.6
176
     1
 41
-30.0
176
     1
 62
     5
 63
     7
421
 16777215
176
     1
 74
     2
176
     1
 91
        2
176
     1
 64
     7
176
     1
 65
   257
176
     1
 75
     1
176
     1
175
     1
176
     1
 42
40.0
176
     1
 92
        8
176
     1
 66
     7
176
     1
 43
1.0
176
     1
 76
     1
176
     1
 77
     6
176
     1
 78
     2
176
     1
 67
     7
176
     1
 79
     3
176
     1
170
     0
176
     1
171
     0
176
     1
290
     0
176
     1
 93
        1
176
     1
 44
0.0
176
     1
173
     0
176
     1
  0
VISUALSTYLE
  5
35
102
{ACAD_REACTORS
330
2A
102
}
330
2A
100
AcDbVisualStyle
  2
Dim
 70
    11
177
     2
291
     1
 71
     2
176
     1
 72
     2
176
     1
 73
     0
176
     1
 90
        0
176
     1
 40
-0.6
176
     1
 41
-30.0
176
     1
 62
     5
 63
     7
421
 16777215
176
     1
 74
     1
176
     1
 91
        4
176
     1
 64
     7
176
     1
 65
   257
176
     1
 75
     1
176
     1
175
     1
176
     1
 42
1.0
176
     1
 92
        8
176
     1
 66
     7
176
     1
 43
1.0
176
     1
 76
     1
176
     1
 77
     6
176
     1
 78
     2
176
     1
 67
     7
176
     1
 79
     5
176
     1
170
     0
176
     1
171
     0
176
     1
290
     0
176
     1
 93
        1
176
     1
 44
-50.0
176
     1
173
     0
176
     1
  0
VISUALSTYLE
  5
39
102
{ACAD_REACTORS
330
2A
102
}
330
2A
100
AcDbVisualStyle
  2
Facepattern
 70
    15
177
     2
291
     1
 71
     2
176
     1
 72
     2
176
     1
 73
     0
176
     1
 90
        0
176
     1
 40
-0.6
176
     1
 41
-30.0
176
     1
 62
     5
 63
     7
421
 16777215
176
     1
 74
     1
176
     1
 91
        4
176
     1
 64
     7
176
     1
 65
   257
176
     1
 75
     1
176
     1
175
     1
176
     1
 42
1.0
176
     1
 92
        8
176
     1
 66
     7
176
     1
 43
1.0
176
     1
 76
     1
176
     1
 77
     6
176
     1
 78
     2
176
     1
 67
     7
176
     1
 79
     5
176
     1
170
     0
176
     1
171
     0
176
     1
290
     0
176
     1
 93
        1
176
     1
 44
0.0
176
     1
173
     0
176
     1
  0
VISUALSTYLE
  5
2B
102
{ACAD_REACTORS
330
2A
102
}
330
2A
100
AcDbVisualStyle
  2
Flat
 70
     0
177
     2
291
     1
 71
     2
176
     1
 72
     1
176
     1
 73
     1
176
     1
 90
        2
176
     1
 40
-0.6
176
     1
 41
30.0
176
     1
 62
     5
 63
     7
421
 16777215
176
     1
 74
     0
176
     1
 91
        4
176
     1
 64
     7
176
     1
 65
   257
176
     1
 75
     1
176
     1
175
     1
176
     1
 42
1.0
176
     1
 92
        8
176
     1
 66
     7
176
     1
 43
1.0
176
     1
 76
     1
176
     1
 77
     6
176
     1
 78
     2
176
     1
 67
     7
176
     1
 79
     5
176
     1
170
     0
176
     1
171
     0
176
     1
290
     0
176
     1
 93
       13
176
     1
 44
0.0
176
     1
173
     0
176
     1
  0
VISUALSTYLE
  5
2C
102
{ACAD_REACTORS
330
2A
102
}
330
2A
100
AcDbVisualStyle
  2
FlatWithEdges
 70
     1
177
     2
291
     1
 71
     2
176
     1
 72
     1
176
     1
 73
     1
176
     1
 90
        2
176
     1
 40
-0.6
176
     1
 41
30.0
176
     1
 62
     5
 63
     7
421
 16777215
176
     1
 74
     1
176
     1
 91
        4
176
     1
 64
     7
176
     1
 65
   257
176
     1
 75
     1
176
     1
175
     1
176
     1
 42
1.0
176
     1
 92
        0
176
     1
 66
   257
176
     1
 43
1.0
176
     1
 76
     1
176
     1
 77
     6
176
     1
 78
     2
176
     1
 67
     7
176
     1
 79
     5
176
     1
170
     0
176
     1
171
     0
176
     1
290
     0
176
     1
 93
       13
176
     1
 44
0.0
176
     1
173
     0
176
     1
  0
VISUALSTYLE
  5
2D
102
{ACAD_REACTORS
330
2A
102
}
330
2A
100
AcDbVisualStyle
  2
Gouraud
 70
     2
177
     2
291
     1
 71
     2
176
     1
 72
     2
176
     1
 73
     1
176
     1
 90
        2
176
     1
 40
-0.6
176
     1
 41
30.0
176
     1
 62
     5
 63
     7
421
 16777215
176
     1
 74
     0
176
     1
 91
        4
176
     1
 64
     7
176
     1
 65
   257
176
     1
 75
     1
176
     1
175
     1
176
     1
 42
1.0
176
     1
 92
        0
176
     1
 66
     7
176
     1
 43
1.0
176
     1
 76
     1
176
     1
 77
     6
176
     1
 78
     2
176
     1
 67
     7
176
     1
 79
     5
176
     1
170
     0
176
     1
171
     0
176
     1
290
     0
176
     1
 93
       13
176
     1
 44
0.0
176
     1
173
     0
176
     1
  0
VISUALSTYLE
  5
2E
102
{ACAD_REACTORS
330
2A
102
}
330
2A
100
AcDbVisualStyle
  2
GouraudWithEdges
 70
     3
177
     2
291
     1
 71
     2
176
     1
 72
     2
176
     1
 73
     1
176
     1
 90
        2
176
     1
 40
-0.6
176
     1
 41
30.0
176
     1
 62
     5
 63
     7
421
 16777215
176
     1
 74
     1
176
     1
 91
        4
176
     1
 64
     7
176
     1
 65
   257
176
     1
 75
     1
176
     1
175
     1
176
     1
 42
1.0
176
     1
 92
        0
176
     1
 66
   257
176
     1
 43
1.0
176
     1
 76
     1
176
     1
 77
     6
176
     1
 78
     2
176
     1
 67
     7
176
     1
 79
     5
176
     1
170
     0
176
     1
171
     0
176
     1
290
     0
176
     1
 93
       13
176
     1
 44
0.0
176
     1
173
     0
176
     1
  0
VISUALSTYLE
  5
38
102
{ACAD_REACTORS
330
2A
102
}
330
2A
100
AcDbVisualStyle
  2
Linepattern
 70
    14
177
     2
291
     1
 71
     2
176
     1
 72
     2
176
     1
 73
     0
176
     1
 90
        0
176
     1
 40
-0.6
176
     1
 41
-30.0
176
     1
 62
     5
 63
     7
421
 16777215
176
     1
 74
     1
176
     1
 91
        4
176
     1
 64
     7
176
     1
 65
   257
176
     1
 75
     7
176
     1
175
     7
176
     1
 42
1.0
176
     1
 92
        8
176
     1
 66
     7
176
     1
 43
1.0
176
     1
 76
     1
176
     1
 77
     6
176
     1
 78
     2
176
     1
 67
     7
176
     1
 79
     5
176
     1
170
     0
176
     1
171
     0
176
     1
290
     0
176
     1
 93
        1
176
     1
 44
0.0
176
     1
173
     0
176
     1
  0
VISUALSTYLE
  5
33
102
{ACAD_REACTORS
330
2A
102
}
330
2A
100
AcDbVisualStyle
  2
Realistic
 70
     8
177
     2
291
     0
 71
     2
176
     1
 72
     2
176
     1
 73
     0
176
     1
 90
        0
176
     1
 40
-0.6
176
     1
 41
-30.0
176
     1
 62
     5
 63
     7
421
 16777215
176
     1
 74
     1
176
     1
 91
        0
176
     1
 64
     7
176
     1
 65
   257
176
     1
 75
     1
176
     1
175
     1
176
     1
 42
1.0
176
     1
 92
        8
176
     1
 66
     8
424
  7895160
176
     1
 43
1.0
176
     1
 76
     1
176
     1
 77
     6
176
     1
 78
     2
176
     1
 67
     7
176
     1
 79
     5
176
     1
170
     0
176
     1
171
     0
176
     1
290
     0
176
     1
 93
       13
176
     1
 44
0.0
176
     1
173
     0
176
     1
  0
VISUALSTYLE
  5
37
102
{ACAD_REACTORS
330
2A
102
}
330
2A
100
AcDbVisualStyle
  2
Thicken
 70
    13
177
     2
291
     1
 71
     2
176
     1
 72
     2
176
     1
 73
     0
176
     1
 90
        0
176
     1
 40
-0.6
176
     1
 41
-30.0
176
     1
 62
     5
 63
     7
421
 16777215
176
     1
 74
     1
176
     1
 91
        4
176
     1
 64
     7
176
     1
 65
   257
176
     1
 75
     1
176
     1
175
     1
176
     1
 42
1.0
176
     1
 92
       12
176
     1
 66
     7
176
     1
 43
1.0
176
     1
 76
     1
176
     1
 77
     6
176
     1
 78
     2
176
     1
 67
     7
176
     1
 79
     5
176
     1
170
     0
176
     1
171
     0
176
     1
290
     0
176
     1
 93
        1
176
     1
 44
0.0
176
     1
173
     0
176
     1
  0
ENDSEC
  0
EOF
