  0
SECTION
  2
HEADER
  9
$ACADVER
  1
AC1024
  9
$ACADMAINTVER
 70
     6
  9
$DWGCODEPAGE
  3
ANSI_1252
  9
$INSBASE
 10
0.0
 20
0.0
 30
0.0
  9
$EXTMIN
 10
1.000000000000000E+20
 20
1.000000000000000E+20
 30
1.000000000000000E+20
  9
$EXTMAX
 10
-1.000000000000000E+20
 20
-1.000000000000000E+20
 30
-1.000000000000000E+20
  9
$LIMMIN
 10
0.0
 20
0.0
  9
$LIMMAX
 10
12.0
 20
9.0
  9
$ORTHOMODE
 70
     0
  9
$REGENMODE
 70
     1
  9
$FILLMODE
 70
     1
  9
$QTEXTMODE
 70
     0
  9
$MIRRTEXT
 70
     1
  9
$LTSCALE
 40
1.0
  9
$ATTMODE
 70
     1
  9
$TEXTSIZE
 40
0.2
  9
$TRACEWID
 40
0.05
  9
$TEXTSTYLE
  7
Standard
  9
$CLAYER
  8
0
  9
$CELTYPE
  6
ByLayer
  9
$CECOLOR
 62
   256
  9
$CELTSCALE
 40
1.0
  9
$DISPSILH
 70
     0
  9
$DIMSCALE
 40
1.0
  9
$DIMASZ
 40
0.18
  9
$DIMEXO
 40
0.0625
  9
$DIMDLI
 40
0.38
  9
$DIMRND
 40
0.0
  9
$DIMDLE
 40
0.0
  9
$DIMEXE
 40
0.18
  9
$DIMTP
 40
0.0
  9
$DIMTM
 40
0.0
  9
$DIMTXT
 40
0.18
  9
$DIMCEN
 40
0.09
  9
$DIMTSZ
 40
0.0
  9
$DIMTOL
 70
     0
  9
$DIMLIM
 70
     0
  9
$DIMTIH
 70
     1
  9
$DIMTOH
 70
     1
  9
$DIMSE1
 70
     0
  9
$DIMSE2
 70
     0
  9
$DIMTAD
 70
     0
  9
$DIMZIN
 70
     0
  9
$DIMBLK
  1

  9
$DIMASO
 70
     1
  9
$DIMSHO
 70
     1
  9
$DIMPOST
  1

  9
$DIMAPOST
  1

  9
$DIMALT
 70
     0
  9
$DIMALTD
 70
     2
  9
$DIMALTF
 40
25.4
  9
$DIMLFAC
 40
1.0
  9
$DIMTOFL
 70
     0
  9
$DIMTVP
 40
0.0
  9
$DIMTIX
 70
     0
  9
$DIMSOXD
 70
     0
  9
$DIMSAH
 70
     0
  9
$DIMBLK1
  1

  9
$DIMBLK2
  1

  9
$DIMSTYLE
  2
Standard
  9
$DIMCLRD
 70
     0
  9
$DIMCLRE
 70
     0
  9
$DIMCLRT
 70
     0
  9
$DIMTFAC
 40
1.0
  9
$DIMGAP
 40
0.09
  9
$DIMJUST
 70
     0
  9
$DIMSD1
 70
     0
  9
$DIMSD2
 70
     0
  9
$DIMTOLJ
 70
     1
  9
$DIMTZIN
 70
     0
  9
$DIMALTZ
 70
     0
  9
$DIMALTTZ
 70
     0
  9
$DIMUPT
 70
     0
  9
$DIMDEC
 70
     4
  9
$DIMTDEC
 70
     4
  9
$DIMALTU
 70
     2
  9
$DIMALTTD
 70
     2
  9
$DIMTXSTY
  7
Standard
  9
$DIMAUNIT
 70
     0
  9
$DIMADEC
 70
     0
  9
$DIMALTRND
 40
0.0
  9
$DIMAZIN
 70
     0
  9
$DIMDSEP
 70
    46
  9
$DIMATFIT
 70
     3
  9
$DIMFRAC
 70
     0
  9
$DIMLDRBLK
  1

  9
$DIMLUNIT
 70
     2
  9
$DIMLWD
 70
    -2
  9
$DIMLWE
 70
    -2
  9
$DIMTMOVE
 70
     0
  9
$DIMFXL
 40
1.0
  9
$DIMFXLON
 70
     0
  9
$DIMJOGANG
 40
0.7853981633974483
  9
$DIMTFILL
 70
     0
  9
$DIMTFILLCLR
 70
     0
  9
$DIMARCSYM
 70
     0
  9
$DIMLTYPE
  6

  9
$DIMLTEX1
  6

  9
$DIMLTEX2
  6

  9
$DIMTXTDIRECTION
 70
     0
  9
$LUNITS
 70
     2
  9
$LUPREC
 70
     4
  9
$SKETCHINC
 40
0.1
  9
$FILLETRAD
 40
0.5
  9
$AUNITS
 70
     0
  9
$AUPREC
 70
     0
  9
$MENU
  1
.
  9
$ELEVATION
 40
0.0
  9
$PELEVATION
 40
0.0
  9
$THICKNESS
 40
0.0
  9
$LIMCHECK
 70
     0
  9
$CHAMFERA
 40
0.5
  9
$CHAMFERB
 40
0.5
  9
$CHAMFERC
 40
1.0
  9
$CHAMFERD
 40
0.0
  9
$SKPOLY
 70
     0
  9
$TDCREATE
 40
2459453.819090683
  9
$TDUCREATE
 40
2459453.73575735
  9
$TDUPDATE
 40
2459453.819090706
  9
$TDUUPDATE
 40
2459453.735757373
  9
$TDINDWG
 40
0.0000000116
  9
$TDUSRTIMER
 40
0.0000000116
  9
$USRTIMER
 70
     1
  9
$ANGBASE
 50
0.0
  9
$ANGDIR
 70
     0
  9
$PDMODE
 70
     0
  9
$PDSIZE
 40
0.0
  9
$PLINEWID
 40
0.0
  9
$SPLFRAME
 70
     0
  9
$SPLINETYPE
 70
     6
  9
$SPLINESEGS
 70
     8
  9
$HANDSEED
  5
67
  9
$SURFTAB1
 70
     6
  9
$SURFTAB2
 70
     6
  9
$SURFTYPE
 70
     6
  9
$SURFU
 70
     6
  9
$SURFV
 70
     6
  9
$UCSBASE
  2

  9
$UCSNAME
  2

  9
$UCSORG
 10
0.0
 20
0.0
 30
0.0
  9
$UCSXDIR
 10
1.0
 20
0.0
 30
0.0
  9
$UCSYDIR
 10
0.0
 20
1.0
 30
0.0
  9
$UCSORTHOREF
  2

  9
$UCSORTHOVIEW
 70
     0
  9
$UCSORGTOP
 10
0.0
 20
0.0
 30
0.0
  9
$UCSORGBOTTOM
 10
0.0
 20
0.0
 30
0.0
  9
$UCSORGLEFT
 10
0.0
 20
0.0
 30
0.0
  9
$UCSORGRIGHT
 10
0.0
 20
0.0
 30
0.0
  9
$UCSORGFRONT
 10
0.0
 20
0.0
 30
0.0
  9
$UCSORGBACK
 10
0.0
 20
0.0
 30
0.0
  9
$PUCSBASE
  2

  9
$PUCSNAME
  2

  9
$PUCSORG
 10
0.0
 20
0.0
 30
0.0
  9
$PUCSXDIR
 10
1.0
 20
0.0
 30
0.0
  9
$PUCSYDIR
 10
0.0
 20
1.0
 30
0.0
  9
$PUCSORTHOREF
  2

  9
$PUCSORTHOVIEW
 70
     0
  9
$PUCSORGTOP
 10
0.0
 20
0.0
 30
0.0
  9
$PUCSORGBOTTOM
 10
0.0
 20
0.0
 30
0.0
  9
$PUCSORGLEFT
 10
0.0
 20
0.0
 30
0.0
  9
$PUCSORGRIGHT
 10
0.0
 20
0.0
 30
0.0
  9
$PUCSORGFRONT
 10
0.0
 20
0.0
 30
0.0
  9
$PUCSORGBACK
 10
0.0
 20
0.0
 30
0.0
  9
$USERI1
 70
     0
  9
$USERI2
 70
     0
  9
$USERI3
 70
     0
  9
$USERI4
 70
     0
  9
$USERI5
 70
     0
  9
$USERR1
 40
0.0
  9
$USERR2
 40
0.0
  9
$USERR3
 40
0.0
  9
$USERR4
 40
0.0
  9
$USERR5
 40
0.0
  9
$WORLDVIEW
 70
     1
  9
$SHADEDGE
 70
     3
  9
$SHADEDIF
 70
    70
  9
$TILEMODE
 70
     1
  9
$MAXACTVP
 70
    64
  9
$PINSBASE
 10
0.0
 20
0.0
 30
0.0
  9
$PLIMCHECK
 70
     0
  9
$PEXTMIN
 10
1.000000000000000E+20
 20
1.000000000000000E+20
 30
1.000000000000000E+20
  9
$PEXTMAX
 10
-1.000000000000000E+20
 20
-1.000000000000000E+20
 30
-1.000000000000000E+20
  9
$PLIMMIN
 10
0.0
 20
0.0
  9
$PLIMMAX
 10
12.0
 20
9.0
  9
$UNITMODE
 70
     0
  9
$VISRETAIN
 70
     1
  9
$PLINEGEN
 70
     0
  9
$PSLTSCALE
 70
     1
  9
$TREEDEPTH
 70
  3020
  9
$CMLSTYLE
  2
Standard
  9
$CMLJUST
 70
     0
  9
$CMLSCALE
 40
1.0
  9
$PROXYGRAPHICS
 70
     1
  9
$MEASUREMENT
 70
     0
  9
$CELWEIGHT
370
    -1
  9
$ENDCAPS
280
     0
  9
$JOINSTYLE
280
     0
  9
$LWDISPLAY
290
     1
  9
$INSUNITS
 70
     4
  9
$HYPERLINKBASE
  1

  9
$STYLESHEET
  1

  9
$XEDIT
290
     1
  9
$CEPSNTYPE
380
     0
  9
$PSTYLEMODE
290
     1
  9
$FINGERPRINTGUID
  2
{C891000D-D0C6-4D56-A046-2713E690CBB1}
  9
$VERSIONGUID
  2
{FAEB1C32-E019-11D5-929B-00C0DF256EC4}
  9
$EXTNAMES
290
     1
  9
$PSVPSCALE
 40
0.0
  9
$OLESTARTUP
290
     0
  9
$SORTENTS
280
   127
  9
$INDEXCTL
280
     0
  9
$HIDETEXT
280
     1
  9
$XCLIPFRAME
280
     2
  9
$HALOGAP
280
     0
  9
$OBSCOLOR
 70
   257
  9
$OBSLTYPE
280
     0
  9
$INTERSECTIONDISPLAY
280
     0
  9
$INTERSECTIONCOLOR
 70
   257
  9
$DIMASSOC
280
     2
  9
$PROJECTNAME
  1

  9
$CAMERADISPLAY
290
     0
  9
$LENSLENGTH
 40
50.0
  9
$CAMERAHEIGHT
 40
0.0
  9
$STEPSPERSEC
 40
2.0
  9
$STEPSIZE
 40
6.0
  9
$3DDWFPREC
 40
2.0
  9
$PSOLWIDTH
 40
0.25
  9
$PSOLHEIGHT
 40
4.0
  9
$LOFTANG1
 40
1.570796326794897
  9
$LOFTANG2
 40
1.570796326794897
  9
$LOFTMAG1
 40
0.0
  9
$LOFTMAG2
 40
0.0
  9
$LOFTPARAM
 70
     7
  9
$LOFTNORMALS
280
     1
  9
$LATITUDE
 40
37.795
  9
$LONGITUDE
 40
-122.394
  9
$NORTHDIRECTION
 40
0.0
  9
$TIMEZONE
 70
 -8000
  9
$LIGHTGLYPHDISPLAY
280
     1
  9
$TILEMODELIGHTSYNCH
280
     1
  9
$CMATERIAL
347
3C
  9
$SOLIDHIST
280
     1
  9
$SHOWHIST
280
     1
  9
$DWFFRAME
280
     2
  9
$DGNFRAME
280
     2
  9
$REALWORLDSCALE
290
     1
  9
$INTERFERECOLOR
 62
   256
  9
$CSHADOW
280
     0
  9
$SHADOWPLANELOCATION
 40
0.0
  0
ENDSEC
  0
SECTION
  2
CLASSES
  0
CLASS
  1
ACDBDICTIONARYWDFLT
  2
AcDbDictionaryWithDefault
  3
ObjectDBX Classes
 90
        0
 91
        4
280
     0
281
     0
  0
CLASS
  1
VISUALSTYLE
  2
AcDbVisualStyle
  3
ObjectDBX Classes
 90
     4095
 91
        4
280
     0
281
     0
  0
CLASS
  1
MATERIAL
  2
AcDbMaterial
  3
ObjectDBX Classes
 90
     1153
 91
        4
280
     0
281
     0
  0
CLASS
  1
SUN
  2
AcDbSun
  3
SCENEOE
 90
     1024
 91
        4
280
     0
281
     0
  0
ENDSEC
  0
SECTION
  2
TABLES
  0
TABLE
  2
VPORT
  5
8
330
0
100
AcDbSymbolTable
 70
     1
  0
VPORT
  5
29
330
8
100
AcDbSymbolTableRecord
100
AcDbViewportTableRecord
  2
*Active
 70
     0
 10
0.0
 20
0.0
 11
1.0
 21
1.0
 12
0.0
 22
0.0
 13
0.0
 23
0.0
 14
0.5
 24
0.5
 15
0.5
 25
0.5
 16
0.0
 26
0.0
 36
1.0
 17
638.3317899638738
 27
-616.8907405865178
 37
0.0
 40
1233.781481173036
 41
1.034756639979667
 42
50.0
 43
0.0
 44
0.0
 50
0.0
 51
0.0
 71
     0
 72
   100
 73
     1
 74
     3
 75
     0
 76
     0
 77
     0
 78
     0
281
     0
 65
     1
110
0.0
120
0.0
130
0.0
111
1.0
121
0.0
131
0.0
112
0.0
122
1.0
132
0.0
 79
     0
146
0.0
 60
     3
 61
     5
292
     1
282
     1
141
0.0
142
0.0
 63
   250
361
3F
  0
ENDTAB
  0
TABLE
  2
LTYPE
  5
5
330
0
100
AcDbSymbolTable
 70
     1
  0
LTYPE
  5
14
330
5
100
AcDbSymbolTableRecord
100
AcDbLinetypeTableRecord
  2
ByBlock
 70
     0
  3

 72
    65
 73
     0
 40
0.0
  0
LTYPE
  5
15
330
5
100
AcDbSymbolTableRecord
100
AcDbLinetypeTableRecord
  2
ByLayer
 70
     0
  3

 72
    65
 73
     0
 40
0.0
  0
LTYPE
  5
16
330
5
100
AcDbSymbolTableRecord
100
AcDbLinetypeTableRecord
  2
Continuous
 70
     0
  3
Solid line
 72
    65
 73
     0
 40
0.0
  0
ENDTAB
  0
TABLE
  2
LAYER
  5
2
330
0
100
AcDbSymbolTable
 70
     2
  0
LAYER
  5
10
330
2
100
AcDbSymbolTableRecord
100
AcDbLayerTableRecord
  2
0
 70
     0
 62
     7
  6
Continuous
370
    -3
390
F
347
3E
  0
LAYER
  5
40
330
2
100
AcDbSymbolTableRecord
100
AcDbLayerTableRecord
  2
top 292.5
 70
     0
 62
     7
  6
Continuous
370
    -3
390
F
347
3E
  0
ENDTAB
  0
TABLE
  2
STYLE
  5
3
330
0
100
AcDbSymbolTable
 70
     1
  0
STYLE
  5
11
330
3
100
AcDbSymbolTableRecord
100
AcDbTextStyleTableRecord
  2
Standard
 70
     0
 40
0.0
 41
1.0
 50
0.0
 71
     0
 42
0.2
  3
txt
  4

  0
ENDTAB
  0
TABLE
  2
VIEW
  5
6
330
0
100
AcDbSymbolTable
 70
     0
  0
ENDTAB
  0
TABLE
  2
UCS
  5
7
330
0
100
AcDbSymbolTable
 70
     0
  0
ENDTAB
  0
TABLE
  2
APPID
  5
9
330
0
100
AcDbSymbolTable
 70
     1
  0
APPID
  5
12
330
9
100
AcDbSymbolTableRecord
100
AcDbRegAppTableRecord
  2
ACAD
 70
     0
  0
ENDTAB
  0
TABLE
  2
DIMSTYLE
  5
A
330
0
100
AcDbSymbolTable
 70
     1
100
AcDbDimStyleTable
  0
DIMSTYLE
105
27
330
A
100
AcDbSymbolTableRecord
100
AcDbDimStyleTableRecord
  2
Standard
 70
     0
178
     0
340
11
  0
ENDTAB
  0
TABLE
  2
BLOCK_RECORD
  5
1
330
0
100
AcDbSymbolTable
 70
     7
  0
BLOCK_RECORD
  5
1F
330
1
100
AcDbSymbolTableRecord
100
AcDbBlockTableRecord
  2
*Model_Space
340
22
 70
     0
280
     1
281
     0
  0
BLOCK_RECORD
  5
1B
330
1
100
AcDbSymbolTableRecord
100
AcDbBlockTableRecord
  2
*Paper_Space
340
1E
 70
     0
280
     1
281
     0
  0
BLOCK_RECORD
  5
23
330
1
100
AcDbSymbolTableRecord
100
AcDbBlockTableRecord
  2
*Paper_Space0
340
26
 70
     0
280
     1
281
     0
  0
BLOCK_RECORD
  5
47
330
1
100
AcDbSymbolTableRecord
100
AcDbBlockTableRecord
  2
block 2
340
0
102
{BLKREFS
331
48
102
}
 70
     0
280
     1
281
     0
  0
BLOCK_RECORD
  5
4C
330
1
100
AcDbSymbolTableRecord
100
AcDbBlockTableRecord
  2
block 3
340
0
102
{BLKREFS
331
4D
102
}
 70
     0
280
     1
281
     0
  0
BLOCK_RECORD
  5
51
330
1
100
AcDbSymbolTableRecord
100
AcDbBlockTableRecord
  2
block 4
340
0
102
{BLKREFS
331
52
102
}
 70
     0
280
     1
281
     0
  0
BLOCK_RECORD
  5
56
330
1
100
AcDbSymbolTableRecord
100
AcDbBlockTableRecord
  2
block 5
340
0
102
{BLKREFS
331
57
102
}
 70
     0
280
     1
281
     0
  0
BLOCK_RECORD
  5
5B
330
1
100
AcDbSymbolTableRecord
100
AcDbBlockTableRecord
  2
block 6
340
0
102
{BLKREFS
331
5C
102
}
 70
     0
280
     1
281
     0
  0
BLOCK_RECORD
  5
60
330
1
100
AcDbSymbolTableRecord
100
AcDbBlockTableRecord
  2
block 7
340
0
102
{BLKREFS
331
61
102
}
 70
     0
280
     1
281
     0
  0
ENDTAB
  0
ENDSEC
  0
SECTION
  2
BLOCKS
  0
BLOCK
  5
20
330
1F
100
AcDbEntity
  8
0
100
AcDbBlockBegin
  2
*Model_Space
 70
     0
 10
0.0
 20
0.0
 30
0.0
  3
*Model_Space
  1

  0
ENDBLK
  5
21
330
1F
100
AcDbEntity
  8
0
100
AcDbBlockEnd
  0
BLOCK
  5
1C
330
1B
100
AcDbEntity
 67
     1
  8
0
100
AcDbBlockBegin
  2
*Paper_Space
 70
     0
 10
0.0
 20
0.0
 30
0.0
  3
*Paper_Space
  1

  0
ENDBLK
  5
1D
330
1B
100
AcDbEntity
 67
     1
  8
0
100
AcDbBlockEnd
  0
BLOCK
  5
24
330
23
100
AcDbEntity
  8
0
100
AcDbBlockBegin
  2
*Paper_Space0
 70
     0
 10
0.0
 20
0.0
 30
0.0
  3
*Paper_Space0
  1

  0
ENDBLK
  5
25
330
23
100
AcDbEntity
  8
0
100
AcDbBlockEnd
  0
BLOCK
  5
49
330
47
100
AcDbEntity
  8
0
100
AcDbBlockBegin
  2
block 2
 70
     0
 10
0.0
 20
0.0
 30
0.0
  3
block 2
  1

  0
SPLINE
  5
4B
330
47
100
AcDbEntity
  8
top 292.5
 62
     7
420
 16777215
370
    25
100
AcDbSpline
210
0.0
220
0.0
230
1.0
 70
    11
 71
     3
 72
    59
 73
    55
 74
     0
 42
0.0000000001
 43
0.0000000001
 12
1.0
 22
0.0
 32
0.0
 13
1.0
 23
0.0
 33
0.0
 40
0.0
 40
0.0
 40
0.0
 40
0.0
 40
1.0
 40
1.0
 40
1.0
 40
2.0
 40
2.0
 40
2.0
 40
3.0
 40
3.0
 40
3.0
 40
4.0
 40
4.0
 40
4.0
 40
5.0
 40
5.0
 40
5.0
 40
6.0
 40
6.0
 40
6.0
 40
7.0
 40
7.0
 40
7.0
 40
8.0
 40
8.0
 40
8.0
 40
9.0
 40
9.0
 40
9.0
 40
10.0
 40
10.0
 40
10.0
 40
11.0
 40
11.0
 40
11.0
 40
12.0
 40
12.0
 40
12.0
 40
13.0
 40
13.0
 40
13.0
 40
14.0
 40
14.0
 40
14.0
 40
15.0
 40
15.0
 40
15.0
 40
16.0
 40
16.0
 40
16.0
 40
17.0
 40
17.0
 40
17.0
 40
18.0
 40
18.0
 40
18.0
 40
18.0
 10
0.9999999997500936
 20
-7.999999998000106
 30
0.0
 10
0.9999999997500936
 20
-4.134006750151101
 30
0.0
 10
4.134006750151101
 20
-0.9999999997500936
 30
0.0
 10
7.999999998000106
 20
-0.9999999997500936
 30
0.0
 10
7.999999998000106
 20
-0.9999999997500936
 30
0.0
 10
54.15052329353558
 20
-0.9999999997500936
 30
0.0
 10
54.15052329353558
 20
-0.9999999997500936
 30
0.0
 10
72.84504447149317
 20
-1.512493359880355
 30
0.0
 10
85.76930081026262
 20
-3.786406739804335
 30
0.0
 10
99.8893225308789
 20
-6.412577836833452
 30
0.0
 10
117.1477838740697
 20
-9.622464709212444
 30
0.0
 10
132.1405134119006
 20
-12.58100035747943
 30
0.0
 10
151.1584423309567
 20
-11.61549095672314
 30
0.0
 10
168.1283381797828
 20
-10.75395687266931
 30
0.0
 10
183.4813305199326
 20
-7.113471720158133
 30
0.0
 10
200.3443879478045
 20
-4.505787680042831
 30
0.0
 10
209.9908816815079
 20
-3.014064849823947
 30
0.0
 10
220.3508654681779
 20
-1.357729277824368
 30
0.0
 10
234.7977447491058
 20
-0.9999999997500936
 30
0.0
 10
234.7977447491058
 20
-0.9999999997500936
 30
0.0
 10
286.499999928375
 20
-0.9999999997500936
 30
0.0
 10
286.499999928375
 20
-0.9999999997500936
 30
0.0
 10
290.365993176224
 20
-0.9999999997500936
 30
0.0
 10
293.4999999266247
 20
-4.13400675015078
 30
0.0
 10
293.4999999266247
 20
-7.999999997999786
 30
0.0
 10
293.4999999266247
 20
-7.999999997999786
 30
0.0
 10
293.4999999266247
 20
-83.31327455154873
 30
0.0
 10
293.4999999266247
 20
-83.31327455154873
 30
0.0
 10
293.4999999266247
 20
-91.55271615705958
 30
0.0
 10
286.8540831295813
 20
-98.24972967848039
 30
0.0
 10
278.6148831842485
 20
-98.31283460261275
 30
0.0
 10
278.6148831842485
 20
-98.31283460261275
 30
0.0
 10
234.7977447491058
 20
-98.64843480833393
 30
0.0
 10
234.7977447491058
 20
-98.64843480833393
 30
0.0
 10
220.3508654681779
 20
-99.0061640864082
 30
0.0
 10
209.9908816815079
 20
-100.2128936911353
 30
0.0
 10
200.3443879478045
 20
-101.7046165213529
 30
0.0
 10
183.4813305199326
 20
-104.3123005614689
 30
0.0
 10
168.1283381797828
 20
-107.95278571398
 30
0.0
 10
151.1584423309567
 20
-108.8143197980352
 30
0.0
 10
132.1405134119006
 20
-109.7798291987895
 30
0.0
 10
117.1477838740697
 20
-106.8212935505232
 30
0.0
 10
99.8893225308789
 20
-103.6114066781442
 30
0.0
 10
85.76930081026262
 20
-100.9852355811144
 30
0.0
 10
72.84504447149317
 20
-98.7113222011911
 30
0.0
 10
54.15052329353558
 20
-98.19882884106019
 30
0.0
 10
54.15052329353558
 20
-98.19882884106019
 30
0.0
 10
15.99999999600021
 20
-98.19882884106019
 30
0.0
 10
15.99999999600021
 20
-98.19882884106019
 30
0.0
 10
7.715728750609212
 20
-98.19882884106019
 30
0.0
 10
0.9999999997500936
 20
-91.48310009020075
 30
0.0
 10
0.9999999997500936
 20
-83.1988288448104
 30
0.0
 10
0.9999999997500936
 20
-83.1988288448104
 30
0.0
 10
0.9999999997500936
 20
-7.999999998000106
 30
0.0
 10
0.9999999997500936
 20
-7.999999998000106
 30
0.0
  0
INSERT
  5
4D
330
47
100
AcDbEntity
  8
top 292.5
100
AcDbBlockReference
  2
block 3
 10
0.0
 20
0.0
 30
0.0
  0
INSERT
  5
52
330
47
100
AcDbEntity
  8
top 292.5
100
AcDbBlockReference
  2
block 4
 10
0.0
 20
0.0
 30
0.0
  0
INSERT
  5
57
330
47
100
AcDbEntity
  8
top 292.5
100
AcDbBlockReference
  2
block 5
 10
0.0
 20
0.0
 30
0.0
  0
INSERT
  5
5C
330
47
100
AcDbEntity
  8
top 292.5
100
AcDbBlockReference
  2
block 6
 10
0.0
 20
0.0
 30
0.0
  0
INSERT
  5
61
330
47
100
AcDbEntity
  8
top 292.5
100
AcDbBlockReference
  2
block 7
 10
0.0
 20
0.0
 30
0.0
  0
ENDBLK
  5
4A
330
47
100
AcDbEntity
  8
0
100
AcDbBlockEnd
  0
BLOCK
  5
4E
330
4C
100
AcDbEntity
  8
0
100
AcDbBlockBegin
  2
block 3
 70
     0
 10
0.0
 20
0.0
 30
0.0
  3
block 3
  1

  0
SPLINE
  5
50
330
4C
100
AcDbEntity
  8
top 292.5
 62
     7
420
 16777215
370
    25
100
AcDbSpline
210
0.0
220
0.0
230
1.0
 70
    11
 71
     3
 72
   101
 73
    97
 74
     0
 42
0.0000000001
 43
0.0000000001
 12
1.0
 22
0.0
 32
0.0
 13
1.0
 23
0.0
 33
0.0
 40
0.0
 40
0.0
 40
0.0
 40
0.0
 40
1.0
 40
1.0
 40
1.0
 40
2.0
 40
2.0
 40
2.0
 40
3.0
 40
3.0
 40
3.0
 40
4.0
 40
4.0
 40
4.0
 40
5.0
 40
5.0
 40
5.0
 40
6.0
 40
6.0
 40
6.0
 40
7.0
 40
7.0
 40
7.0
 40
8.0
 40
8.0
 40
8.0
 40
9.0
 40
9.0
 40
9.0
 40
10.0
 40
10.0
 40
10.0
 40
11.0
 40
11.0
 40
11.0
 40
12.0
 40
12.0
 40
12.0
 40
13.0
 40
13.0
 40
13.0
 40
14.0
 40
14.0
 40
14.0
 40
15.0
 40
15.0
 40
15.0
 40
16.0
 40
16.0
 40
16.0
 40
17.0
 40
17.0
 40
17.0
 40
18.0
 40
18.0
 40
18.0
 40
19.0
 40
19.0
 40
19.0
 40
20.0
 40
20.0
 40
20.0
 40
21.0
 40
21.0
 40
21.0
 40
22.0
 40
22.0
 40
22.0
 40
23.0
 40
23.0
 40
23.0
 40
24.0
 40
24.0
 40
24.0
 40
25.0
 40
25.0
 40
25.0
 40
26.0
 40
26.0
 40
26.0
 40
27.0
 40
27.0
 40
27.0
 40
28.0
 40
28.0
 40
28.0
 40
29.0
 40
29.0
 40
29.0
 40
30.0
 40
30.0
 40
30.0
 40
31.0
 40
31.0
 40
31.0
 40
32.0
 40
32.0
 40
32.0
 40
32.0
 10
148.2488727230243
 20
-41.06518992641122
 30
0.0
 10
147.6267848981402
 20
-41.15261606013829
 30
0.0
 10
147.0516036117395
 20
-40.71920533492683
 30
0.0
 10
146.9641455098138
 20
-40.09712200358519
 30
0.0
 10
146.9641455098138
 20
-40.09712200358519
 30
0.0
 10
144.4756419744957
 20
-22.39657127989825
 30
0.0
 10
144.4756419744957
 20
-22.39657127989825
 30
0.0
 10
144.3881971249667
 20
-21.77458221190725
 30
0.0
 10
144.821436683028
 20
-21.1994383923704
 30
0.0
 10
145.4434024965786
 20
-21.11182829485022
 30
0.0
 10
145.4434024965786
 20
-21.11182829485022
 30
0.0
 10
222.6918887425439
 20
-10.23060738875232
 30
0.0
 10
222.6918887425439
 20
-10.23060738875232
 30
0.0
 10
222.7444518302678
 20
-10.2232033536042
 30
0.0
 10
222.7974687044192
 20
-10.21948771670984
 30
0.0
 10
222.8505506799661
 20
-10.21948771750105
 30
0.0
 10
222.8505506799661
 20
-10.21948771750105
 30
0.0
 10
279.2409748560609
 20
-10.21948771750105
 30
0.0
 10
279.2409748560609
 20
-10.21948771750105
 30
0.0
 10
279.8691987589936
 20
-10.21948771750105
 30
0.0
 10
280.378474856063
 20
-10.7287638145691
 30
0.0
 10
280.378474856063
 20
-11.35698771750121
 30
0.0
 10
280.378474856063
 20
-11.35698771750121
 30
0.0
 10
280.378474856063
 20
-29.45968771750155
 30
0.0
 10
280.378474856063
 20
-29.45968771750155
 30
0.0
 10
280.378474856063
 20
-29.45968771750155
 30
0.0
 10
281.9079748560607
 20
-29.45968771750155
 30
0.0
 10
281.9079748560607
 20
-29.45968771750155
 30
0.0
 10
282.5361987589947
 20
-29.45968771750155
 30
0.0
 10
283.0454748560628
 20
-29.96896381456832
 30
0.0
 10
283.0454748560628
 20
-30.59718771750107
 30
0.0
 10
283.0454748560628
 20
-30.59718771750107
 30
0.0
 10
283.0454748560628
 20
-48.70118771750101
 30
0.0
 10
283.0454748560628
 20
-48.70118771750101
 30
0.0
 10
283.0454748560628
 20
-48.70118771750101
 30
0.0
 10
284.5749748560605
 20
-48.70118771750101
 30
0.0
 10
284.5749748560605
 20
-48.70118771750101
 30
0.0
 10
285.2031987589945
 20
-48.70118771750101
 30
0.0
 10
285.7124748560626
 20
-49.21046381456907
 30
0.0
 10
285.7124748560626
 20
-49.83868771750117
 30
0.0
 10
285.7124748560626
 20
-49.83868771750117
 30
0.0
 10
285.7124748560626
 20
-67.71438771750097
 30
0.0
 10
285.7124748560626
 20
-67.71438771750097
 30
0.0
 10
285.7124748560626
 20
-68.34261162043309
 30
0.0
 10
285.2031987589945
 20
-68.85188771750049
 30
0.0
 10
284.5749748560605
 20
-68.85188771750049
 30
0.0
 10
284.5749748560605
 20
-68.85188771750049
 30
0.0
 10
283.6134748560626
 20
-68.85188771750049
 30
0.0
 10
283.6134748560626
 20
-68.85188771750049
 30
0.0
 10
283.6134748560626
 20
-68.85188771750049
 30
0.0
 10
283.6134748560626
 20
-86.95328771750059
 30
0.0
 10
283.6134748560626
 20
-86.95328771750059
 30
0.0
 10
283.6134748560626
 20
-87.58151162043333
 30
0.0
 10
283.1041987589945
 20
-88.09078771750075
 30
0.0
 10
282.4759748560605
 20
-88.09078771750075
 30
0.0
 10
282.4759748560605
 20
-88.09078771750075
 30
0.0
 10
236.0279748560607
 20
-88.09078771750075
 30
0.0
 10
236.0279748560607
 20
-88.09078771750075
 30
0.0
 10
235.399750953128
 20
-88.09078771750075
 30
0.0
 10
234.8904748560625
 20
-87.58151162043333
 30
0.0
 10
234.8904748560625
 20
-86.95328771750059
 30
0.0
 10
234.8904748560625
 20
-86.95328771750059
 30
0.0
 10
234.8904748560625
 20
-68.85188771750049
 30
0.0
 10
234.8904748560625
 20
-68.85188771750049
 30
0.0
 10
234.8904748560625
 20
-68.85188771750049
 30
0.0
 10
224.2933381870628
 20
-68.85188771750049
 30
0.0
 10
224.2933381870628
 20
-68.85188771750049
 30
0.0
 10
224.2933381870628
 20
-68.85188771750049
 30
0.0
 10
214.8246371080456
 20
-70.18266405450754
 30
0.0
 10
214.8246371080456
 20
-70.18266405450754
 30
0.0
 10
214.8246371080456
 20
-70.18266405450754
 30
0.0
 10
217.3169645259028
 20
-87.92117753095405
 30
0.0
 10
217.3169645259028
 20
-87.92117753095405
 30
0.0
 10
217.4043706060485
 20
-88.54326832029135
 30
0.0
 10
216.9709411050626
 20
-89.1184357119943
 30
0.0
 10
216.3488547796739
 20
-89.20587355729738
 30
0.0
 10
216.3488547796739
 20
-89.20587355729738
 30
0.0
 10
151.4881257404465
 20
-98.32242565070517
 30
0.0
 10
151.4881257404465
 20
-98.32242565070517
 30
0.0
 10
150.8660312733844
 20
-98.40986463091525
 30
0.0
 10
150.2908366099292
 20
-97.97645228632109
 30
0.0
 10
150.2033773549912
 20
-97.35436068644219
 30
0.0
 10
150.2033773549912
 20
-97.35436068644219
 30
0.0
 10
145.0626977221159
 20
-60.78906780880958
 30
0.0
 10
145.0626977221159
 20
-60.78906780880958
 30
0.0
 10
144.9752400032742
 20
-60.16698720229532
 30
0.0
 10
145.4086170763641
 20
-59.59178537084684
 30
0.0
 10
146.0306926457629
 20
-59.50429183083368
 30
0.0
 10
146.0306926457629
 20
-59.50429183083368
 30
0.0
 10
154.3375762966314
 20
-58.33594719096718
 30
0.0
 10
154.3375762966314
 20
-58.33594719096718
 30
0.0
 10
154.3375762966314
 20
-58.33594719096718
 30
0.0
 10
151.8373147060181
 20
-40.56088234132213
 30
0.0
 10
151.8373147060181
 20
-40.56088234132213
 30
0.0
 10
151.8373147060181
 20
-40.56088234132213
 30
0.0
 10
148.2488727230243
 20
-41.06518992641122
 30
0.0
 10
148.2488727230243
 20
-41.06518992641122
 30
0.0
  0
ENDBLK
  5
4F
330
4C
100
AcDbEntity
  8
0
100
AcDbBlockEnd
  0
BLOCK
  5
53
330
51
100
AcDbEntity
  8
0
100
AcDbBlockBegin
  2
block 4
 70
     0
 10
0.0
 20
0.0
 30
0.0
  3
block 4
  1

  0
SPLINE
  5
55
330
51
100
AcDbEntity
  8
top 292.5
 62
     7
420
 16777215
370
    25
100
AcDbSpline
210
0.0
220
0.0
230
1.0
 70
    11
 71
     3
 72
    98
 73
    94
 74
     0
 42
0.0000000001
 43
0.0000000001
 12
1.0
 22
0.0
 32
0.0
 13
1.0
 23
0.0
 33
0.0
 40
0.0
 40
0.0
 40
0.0
 40
0.0
 40
1.0
 40
1.0
 40
1.0
 40
2.0
 40
2.0
 40
2.0
 40
3.0
 40
3.0
 40
3.0
 40
4.0
 40
4.0
 40
4.0
 40
5.0
 40
5.0
 40
5.0
 40
6.0
 40
6.0
 40
6.0
 40
7.0
 40
7.0
 40
7.0
 40
8.0
 40
8.0
 40
8.0
 40
9.0
 40
9.0
 40
9.0
 40
10.0
 40
10.0
 40
10.0
 40
11.0
 40
11.0
 40
11.0
 40
12.0
 40
12.0
 40
12.0
 40
13.0
 40
13.0
 40
13.0
 40
14.0
 40
14.0
 40
14.0
 40
15.0
 40
15.0
 40
15.0
 40
16.0
 40
16.0
 40
16.0
 40
17.0
 40
17.0
 40
17.0
 40
18.0
 40
18.0
 40
18.0
 40
19.0
 40
19.0
 40
19.0
 40
20.0
 40
20.0
 40
20.0
 40
21.0
 40
21.0
 40
21.0
 40
22.0
 40
22.0
 40
22.0
 40
23.0
 40
23.0
 40
23.0
 40
24.0
 40
24.0
 40
24.0
 40
25.0
 40
25.0
 40
25.0
 40
26.0
 40
26.0
 40
26.0
 40
27.0
 40
27.0
 40
27.0
 40
28.0
 40
28.0
 40
28.0
 40
29.0
 40
29.0
 40
29.0
 40
30.0
 40
30.0
 40
30.0
 40
31.0
 40
31.0
 40
31.0
 40
31.0
 10
132.1098547949882
 20
-97.35419980642895
 30
0.0
 10
132.0224220917928
 20
-97.97635195713829
 30
0.0
 10
131.4472281706807
 20
-98.40979888492147
 30
0.0
 10
130.825117399726
 20
-98.32237199615783
 30
0.0
 10
130.825117399726
 20
-98.32237199615783
 30
0.0
 10
70.67797559912809
 20
-89.86973346102712
 30
0.0
 10
70.67797559912809
 20
-89.86973346102712
 30
0.0
 10
70.05580739136721
 20
-89.78226342816374
 30
0.0
 10
69.62239226198338
 20
-89.20704554621612
 30
0.0
 10
69.70985354199934
 20
-88.5849396093266
 30
0.0
 10
69.70985354199934
 20
-88.5849396093266
 30
0.0
 10
72.20360840941191
 20
-70.84703652958946
 30
0.0
 10
72.20360840941191
 20
-70.84703652958946
 30
0.0
 10
72.20360840941191
 20
-70.84703652958946
 30
0.0
 10
56.82447485606298
 20
-68.68521603219259
 30
0.0
 10
56.82447485606298
 20
-68.68521603219259
 30
0.0
 10
56.82447485606298
 20
-68.68521603219259
 30
0.0
 10
56.82447485606298
 20
-86.80147771750053
 30
0.0
 10
56.82447485606298
 20
-86.80147771750053
 30
0.0
 10
56.82447485606298
 20
-87.42970162043329
 30
0.0
 10
56.31519875899493
 20
-87.93897771750069
 30
0.0
 10
55.68697485606089
 20
-87.93897771750069
 30
0.0
 10
55.68697485606089
 20
-87.93897771750069
 30
0.0
 10
9.238974856061796
 20
-87.93897771750069
 30
0.0
 10
9.238974856061796
 20
-87.93897771750069
 30
0.0
 10
8.610750953129044
 20
-87.93897771750069
 30
0.0
 10
8.101474856061635
 20
-87.42970162043329
 30
0.0
 10
8.101474856061635
 20
-86.80147771750053
 30
0.0
 10
8.101474856061635
 20
-86.80147771750053
 30
0.0
 10
8.101474856061635
 20
-68.70007771749981
 30
0.0
 10
8.101474856061635
 20
-68.70007771749981
 30
0.0
 10
8.101474856061635
 20
-68.70007771749981
 30
0.0
 10
7.142974856061671
 20
-68.70007771749981
 30
0.0
 10
7.142974856061671
 20
-68.70007771749981
 30
0.0
 10
6.51475095312956
 20
-68.70007771749981
 30
0.0
 10
6.00547485606151
 20
-68.19080162043304
 30
0.0
 10
6.00547485606151
 20
-67.56257771750029
 30
0.0
 10
6.00547485606151
 20
-67.56257771750029
 30
0.0
 10
6.00547485606151
 20
-49.68687771750177
 30
0.0
 10
6.00547485606151
 20
-49.68687771750177
 30
0.0
 10
6.00547485606151
 20
-49.05865381456838
 30
0.0
 10
6.51475095312956
 20
-48.54937771750097
 30
0.0
 10
7.142974856061671
 20
-48.54937771750097
 30
0.0
 10
7.142974856061671
 20
-48.54937771750097
 30
0.0
 10
8.957474856061589
 20
-48.54937771750097
 30
0.0
 10
8.957474856061589
 20
-48.54937771750097
 30
0.0
 10
8.957474856061589
 20
-48.54937771750097
 30
0.0
 10
8.957474856061589
 20
-30.44537771750102
 30
0.0
 10
8.957474856061589
 20
-30.44537771750102
 30
0.0
 10
8.957474856061589
 20
-29.81715381456827
 30
0.0
 10
9.466750953129639
 20
-29.30787771750086
 30
0.0
 10
10.09497485606239
 20
-29.30787771750086
 30
0.0
 10
10.09497485606239
 20
-29.30787771750086
 30
0.0
 10
11.53047485606211
 20
-29.30787771750086
 30
0.0
 10
11.53047485606211
 20
-29.30787771750086
 30
0.0
 10
11.53047485606211
 20
-29.30787771750086
 30
0.0
 10
11.53047485606211
 20
-11.20517771750052
 30
0.0
 10
11.53047485606211
 20
-11.20517771750052
 30
0.0
 10
11.53047485606211
 20
-10.57695381456841
 30
0.0
 10
12.03975095312887
 20
-10.067677717501
 30
0.0
 10
12.66797485606163
 20
-10.067677717501
 30
0.0
 10
12.66797485606163
 20
-10.067677717501
 30
0.0
 10
51.77814204666752
 20
-10.067677717501
 30
0.0
 10
51.77814204666752
 20
-10.067677717501
 30
0.0
 10
51.96060095438212
 20
-9.56111765673004
 30
0.0
 10
52.47322143346474
 20
-9.251866377707314
 30
0.0
 10
53.00641525535773
 20
-9.326690815348858
 30
0.0
 10
53.00641525535773
 20
-9.326690815348858
 30
0.0
 10
127.4368435613346
 20
-19.77170107750565
 30
0.0
 10
127.4368435613346
 20
-19.77170107750565
 30
0.0
 10
128.0587573893689
 20
-19.85897581801017
 30
0.0
 10
128.4922753612602
 20
-20.43373812762354
 30
0.0
 10
128.4053033116357
 20
-21.05569435792649
 30
0.0
 10
128.4053033116357
 20
-21.05569435792649
 30
0.0
 10
125.9224012316837
 20
-38.81147250188298
 30
0.0
 10
125.9224012316837
 20
-38.81147250188298
 30
0.0
 10
125.9224012316837
 20
-38.81147250188298
 30
0.0
 10
129.4990365093613
 20
-39.31415707052045
 30
0.0
 10
129.4990365093613
 20
-39.31415707052045
 30
0.0
 10
130.1211332021411
 20
-39.40159076649295
 30
0.0
 10
130.5545696530792
 20
-39.97676983275743
 30
0.0
 10
130.467154180069
 20
-40.59886906932912
 30
0.0
 10
130.467154180069
 20
-40.59886906932912
 30
0.0
 10
127.9745954487934
 20
-58.33736544898459
 30
0.0
 10
127.9745954487934
 20
-58.33736544898459
 30
0.0
 10
127.9745954487934
 20
-58.33736544898459
 30
0.0
 10
136.2789356485926
 20
-59.50559196977076
 30
0.0
 10
136.2789356485926
 20
-59.50559196977076
 30
0.0
 10
136.900955819926
 20
-59.59309566580574
 30
0.0
 10
137.3343063098901
 20
-60.16822408625717
 30
0.0
 10
137.2469132688892
 20
-60.79025981412839
 30
0.0
 10
137.2469132688892
 20
-60.79025981412839
 30
0.0
 10
132.1098547949882
 20
-97.35419980642895
 30
0.0
 10
132.1098547949882
 20
-97.35419980642895
 30
0.0
  0
ENDBLK
  5
54
330
51
100
AcDbEntity
  8
0
100
AcDbBlockEnd
  0
BLOCK
  5
58
330
56
100
AcDbEntity
  8
0
100
AcDbBlockBegin
  2
block 5
 70
     0
 10
0.0
 20
0.0
 30
0.0
  3
block 5
  1

  0
SPLINE
  5
5A
330
56
100
AcDbEntity
  8
top 292.5
 62
     7
420
 16777215
370
    25
100
AcDbSpline
210
0.0
220
0.0
230
1.0
 70
    11
 71
     3
 72
    20
 73
    16
 74
     0
 42
0.0000000001
 43
0.0000000001
 12
1.0
 22
0.0
 32
0.0
 13
1.0
 23
0.0
 33
0.0
 40
0.0
 40
0.0
 40
0.0
 40
0.0
 40
1.0
 40
1.0
 40
1.0
 40
2.0
 40
2.0
 40
2.0
 40
3.0
 40
3.0
 40
3.0
 40
4.0
 40
4.0
 40
4.0
 40
5.0
 40
5.0
 40
5.0
 40
5.0
 10
285.0544748560625
 20
-20.22317724857471
 30
0.0
 10
285.0544748560625
 20
-19.94703487365955
 30
0.0
 10
285.2783324811464
 20
-19.72317724857437
 30
0.0
 10
285.5544748560628
 20
-19.72317724857437
 30
0.0
 10
285.8306172309754
 20
-19.72317724857437
 30
0.0
 10
286.0544748560632
 20
-19.94703487365955
 30
0.0
 10
286.0544748560632
 20
-20.22317724857471
 30
0.0
 10
286.0544748560632
 20
-20.49931962348986
 30
0.0
 10
285.8306172309754
 20
-20.7231772485744
 30
0.0
 10
285.5544748560628
 20
-20.7231772485744
 30
0.0
 10
285.2783324811464
 20
-20.7231772485744
 30
0.0
 10
285.0544748560625
 20
-20.49931962348986
 30
0.0
 10
285.0544748560625
 20
-20.22317724857471
 30
0.0
 10
285.0544748560625
 20
-20.22317724857471
 30
0.0
 10
285.0544748560625
 20
-20.22317724857471
 30
0.0
 10
285.0544748560625
 20
-20.22317724857471
 30
0.0
  0
ENDBLK
  5
59
330
56
100
AcDbEntity
  8
0
100
AcDbBlockEnd
  0
BLOCK
  5
5D
330
5B
100
AcDbEntity
  8
0
100
AcDbBlockBegin
  2
block 6
 70
     0
 10
0.0
 20
0.0
 30
0.0
  3
block 6
  1

  0
SPLINE
  5
5F
330
5B
100
AcDbEntity
  8
top 292.5
 62
     7
420
 16777215
370
    25
100
AcDbSpline
210
0.0
220
0.0
230
1.0
 70
    11
 71
     3
 72
    20
 73
    16
 74
     0
 42
0.0000000001
 43
0.0000000001
 12
1.0
 22
0.0
 32
0.0
 13
1.0
 23
0.0
 33
0.0
 40
0.0
 40
0.0
 40
0.0
 40
0.0
 40
1.0
 40
1.0
 40
1.0
 40
2.0
 40
2.0
 40
2.0
 40
3.0
 40
3.0
 40
3.0
 40
4.0
 40
4.0
 40
4.0
 40
5.0
 40
5.0
 40
5.0
 40
5.0
 10
285.0544748560625
 20
-14.47317724857466
 30
0.0
 10
285.0544748560625
 20
-14.19703487365951
 30
0.0
 10
285.2783324811464
 20
-13.97317724857497
 30
0.0
 10
285.5544748560628
 20
-13.97317724857497
 30
0.0
 10
285.8306172309754
 20
-13.97317724857497
 30
0.0
 10
286.0544748560632
 20
-14.19703487365951
 30
0.0
 10
286.0544748560632
 20
-14.47317724857466
 30
0.0
 10
286.0544748560632
 20
-14.74931962348982
 30
0.0
 10
285.8306172309754
 20
-14.97317724857436
 30
0.0
 10
285.5544748560628
 20
-14.97317724857436
 30
0.0
 10
285.2783324811464
 20
-14.97317724857436
 30
0.0
 10
285.0544748560625
 20
-14.74931962348982
 30
0.0
 10
285.0544748560625
 20
-14.47317724857466
 30
0.0
 10
285.0544748560625
 20
-14.47317724857466
 30
0.0
 10
285.0544748560625
 20
-14.47317724857466
 30
0.0
 10
285.0544748560625
 20
-14.47317724857466
 30
0.0
  0
ENDBLK
  5
5E
330
5B
100
AcDbEntity
  8
0
100
AcDbBlockEnd
  0
BLOCK
  5
62
330
60
100
AcDbEntity
  8
0
100
AcDbBlockBegin
  2
block 7
 70
     0
 10
0.0
 20
0.0
 30
0.0
  3
block 7
  1

  0
SPLINE
  5
64
330
60
100
AcDbEntity
  8
top 292.5
 62
     7
420
 16777215
370
    25
100
AcDbSpline
210
0.0
220
0.0
230
1.0
 70
    11
 71
     3
 72
    20
 73
    16
 74
     0
 42
0.0000000001
 43
0.0000000001
 12
1.0
 22
0.0
 32
0.0
 13
1.0
 23
0.0
 33
0.0
 40
0.0
 40
0.0
 40
0.0
 40
0.0
 40
1.0
 40
1.0
 40
1.0
 40
2.0
 40
2.0
 40
2.0
 40
3.0
 40
3.0
 40
3.0
 40
4.0
 40
4.0
 40
4.0
 40
5.0
 40
5.0
 40
5.0
 40
5.0
 10
285.0544748560625
 20
-25.97317724857475
 30
0.0
 10
285.0544748560625
 20
-25.69703487366023
 30
0.0
 10
285.2783324811464
 20
-25.47317724857441
 30
0.0
 10
285.5544748560628
 20
-25.47317724857441
 30
0.0
 10
285.8306172309754
 20
-25.47317724857441
 30
0.0
 10
286.0544748560632
 20
-25.69703487366023
 30
0.0
 10
286.0544748560632
 20
-25.97317724857475
 30
0.0
 10
286.0544748560632
 20
-26.24931962348991
 30
0.0
 10
285.8306172309754
 20
-26.47317724857444
 30
0.0
 10
285.5544748560628
 20
-26.47317724857444
 30
0.0
 10
285.2783324811464
 20
-26.47317724857444
 30
0.0
 10
285.0544748560625
 20
-26.24931962348991
 30
0.0
 10
285.0544748560625
 20
-25.97317724857475
 30
0.0
 10
285.0544748560625
 20
-25.97317724857475
 30
0.0
 10
285.0544748560625
 20
-25.97317724857475
 30
0.0
 10
285.0544748560625
 20
-25.97317724857475
 30
0.0
  0
ENDBLK
  5
63
330
60
100
AcDbEntity
  8
0
100
AcDbBlockEnd
  0
ENDSEC
  0
SECTION
  2
ENTITIES
  0
SPLINE
  5
41
330
1F
100
AcDbEntity
  8
top 292.5
 62
     7
420
 16777215
370
    25
100
AcDbSpline
210
0.0
220
0.0
230
1.0
 70
    11
 71
     3
 72
    17
 73
    13
 74
     0
 42
0.0000000001
 43
0.0000000001
 12
1.0
 22
0.0
 32
0.0
 13
1.0
 23
0.0
 33
0.0
 40
0.0
 40
0.0
 40
0.0
 40
0.0
 40
1.0
 40
1.0
 40
1.0
 40
2.0
 40
2.0
 40
2.0
 40
3.0
 40
3.0
 40
3.0
 40
4.0
 40
4.0
 40
4.0
 40
4.0
 10
247.1750720095722
 20
-4.540199813945762
 30
0.0
 10
247.1750720095722
 20
-5.401681180705039
 30
0.0
 10
246.4767033767226
 20
-6.100049813555285
 30
0.0
 10
245.6152220099621
 20
-6.100049813555285
 30
0.0
 10
244.7537406432015
 20
-6.100049813555285
 30
0.0
 10
244.0553720103519
 20
-5.401681180705039
 30
0.0
 10
244.0553720103519
 20
-4.540199813945762
 30
0.0
 10
244.0553720103519
 20
-3.678718447185201
 30
0.0
 10
244.7537406432015
 20
-2.980349814335597
 30
0.0
 10
245.6152220099621
 20
-2.980349814335597
 30
0.0
 10
246.4767033767226
 20
-2.980349814335597
 30
0.0
 10
247.1750720095722
 20
-3.678718447185201
 30
0.0
 10
247.1750720095722
 20
-4.540199813945762
 30
0.0
  0
SPLINE
  5
42
330
1F
100
AcDbEntity
  8
top 292.5
 62
     7
420
 16777215
370
    25
100
AcDbSpline
210
0.0
220
0.0
230
1.0
 70
    11
 71
     3
 72
    17
 73
    13
 74
     0
 42
0.0000000001
 43
0.0000000001
 12
1.0
 22
0.0
 32
0.0
 13
1.0
 23
0.0
 33
0.0
 40
0.0
 40
0.0
 40
0.0
 40
0.0
 40
1.0
 40
1.0
 40
1.0
 40
2.0
 40
2.0
 40
2.0
 40
3.0
 40
3.0
 40
3.0
 40
4.0
 40
4.0
 40
4.0
 40
4.0
 10
50.45987205875112
 20
-4.540199813945762
 30
0.0
 10
50.45987205875112
 20
-5.401681180705681
 30
0.0
 10
49.76150342590152
 20
-6.100049813555926
 30
0.0
 10
48.90002205914095
 20
-6.100049813555926
 30
0.0
 10
48.03854069238039
 20
-6.100049813555926
 30
0.0
 10
47.34017205953079
 20
-5.401681180705681
 30
0.0
 10
47.34017205953079
 20
-4.540199813945762
 30
0.0
 10
47.34017205953079
 20
-3.678718447185201
 30
0.0
 10
48.03854069238039
 20
-2.980349814335597
 30
0.0
 10
48.90002205914095
 20
-2.980349814335597
 30
0.0
 10
49.76150342590152
 20
-2.980349814335597
 30
0.0
 10
50.45987205875112
 20
-3.678718447185201
 30
0.0
 10
50.45987205875112
 20
-4.540199813945762
 30
0.0
  0
SPLINE
  5
43
330
1F
100
AcDbEntity
  8
top 292.5
 62
     7
420
 16777215
370
    25
100
AcDbSpline
210
0.0
220
0.0
230
1.0
 70
    11
 71
     3
 72
    17
 73
    13
 74
     0
 42
0.0000000001
 43
0.0000000001
 12
1.0
 22
0.0
 32
0.0
 13
1.0
 23
0.0
 33
0.0
 40
0.0
 40
0.0
 40
0.0
 40
0.0
 40
1.0
 40
1.0
 40
1.0
 40
2.0
 40
2.0
 40
2.0
 40
3.0
 40
3.0
 40
3.0
 40
4.0
 40
4.0
 40
4.0
 40
4.0
 10
50.45987205875112
 20
-94.09086884047043
 30
0.0
 10
50.45987205875112
 20
-94.95235020722971
 30
0.0
 10
49.76150342590152
 20
-95.6507188400806
 30
0.0
 10
48.90002205914095
 20
-95.6507188400806
 30
0.0
 10
48.03854069238039
 20
-95.6507188400806
 30
0.0
 10
47.34017205953079
 20
-94.95235020722971
 30
0.0
 10
47.34017205953079
 20
-94.09086884047043
 30
0.0
 10
47.34017205953079
 20
-93.22938747370986
 30
0.0
 10
48.03854069238039
 20
-92.53101884086027
 30
0.0
 10
48.90002205914095
 20
-92.53101884086027
 30
0.0
 10
49.76150342590152
 20
-92.53101884086027
 30
0.0
 10
50.45987205875112
 20
-93.22938747370986
 30
0.0
 10
50.45987205875112
 20
-94.09086884047043
 30
0.0
  0
SPLINE
  5
44
330
1F
100
AcDbEntity
  8
top 292.5
 62
     7
420
 16777215
370
    25
100
AcDbSpline
210
0.0
220
0.0
230
1.0
 70
    11
 71
     3
 72
    17
 73
    13
 74
     0
 42
0.0000000001
 43
0.0000000001
 12
1.0
 22
0.0
 32
0.0
 13
1.0
 23
0.0
 33
0.0
 40
0.0
 40
0.0
 40
0.0
 40
0.0
 40
1.0
 40
1.0
 40
1.0
 40
2.0
 40
2.0
 40
2.0
 40
3.0
 40
3.0
 40
3.0
 40
4.0
 40
4.0
 40
4.0
 40
4.0
 10
247.1750720095722
 20
-94.06505737983261
 30
0.0
 10
247.1750720095722
 20
-94.92653874659318
 30
0.0
 10
246.4767033767226
 20
-95.62490737944277
 30
0.0
 10
245.6152220099621
 20
-95.62490737944277
 30
0.0
 10
244.7537406432015
 20
-95.62490737944277
 30
0.0
 10
244.0553720103519
 20
-94.92653874659318
 30
0.0
 10
244.0553720103519
 20
-94.06505737983261
 30
0.0
 10
244.0553720103519
 20
-93.20357601307205
 30
0.0
 10
244.7537406432015
 20
-92.50520738022244
 30
0.0
 10
245.6152220099621
 20
-92.50520738022244
 30
0.0
 10
246.4767033767226
 20
-92.50520738022244
 30
0.0
 10
247.1750720095722
 20
-93.20357601307205
 30
0.0
 10
247.1750720095722
 20
-94.06505737983261
 30
0.0
  0
SPLINE
  5
45
330
1F
100
AcDbEntity
  8
top 292.5
 62
     7
420
 16777215
370
    25
100
AcDbSpline
210
0.0
220
0.0
230
1.0
 70
    11
 71
     3
 72
    17
 73
    13
 74
     0
 42
0.0000000001
 43
0.0000000001
 12
1.0
 22
0.0
 32
0.0
 13
1.0
 23
0.0
 33
0.0
 40
0.0
 40
0.0
 40
0.0
 40
0.0
 40
1.0
 40
1.0
 40
1.0
 40
2.0
 40
2.0
 40
2.0
 40
3.0
 40
3.0
 40
3.0
 40
4.0
 40
4.0
 40
4.0
 40
4.0
 10
290.7943719986663
 20
-38.30163876276625
 30
0.0
 10
290.7943719986663
 20
-39.16312012952681
 30
0.0
 10
290.0960033658167
 20
-39.86148876237642
 30
0.0
 10
289.2345219990561
 20
-39.86148876237642
 30
0.0
 10
288.3730406322956
 20
-39.86148876237642
 30
0.0
 10
287.674671999446
 20
-39.16312012952681
 30
0.0
 10
287.674671999446
 20
-38.30163876276625
 30
0.0
 10
287.674671999446
 20
-37.44015739600633
 30
0.0
 10
288.3730406322956
 20
-36.74178876315609
 30
0.0
 10
289.2345219990561
 20
-36.74178876315609
 30
0.0
 10
290.0960033658167
 20
-36.74178876315609
 30
0.0
 10
290.7943719986663
 20
-37.44015739600633
 30
0.0
 10
290.7943719986663
 20
-38.30163876276625
 30
0.0
  0
SPLINE
  5
46
330
1F
100
AcDbEntity
  8
top 292.5
 62
     7
420
 16777215
370
    25
100
AcDbSpline
210
0.0
220
0.0
230
1.0
 70
    11
 71
     3
 72
    17
 73
    13
 74
     0
 42
0.0000000001
 43
0.0000000001
 12
1.0
 22
0.0
 32
0.0
 13
1.0
 23
0.0
 33
0.0
 40
0.0
 40
0.0
 40
0.0
 40
0.0
 40
1.0
 40
1.0
 40
1.0
 40
2.0
 40
2.0
 40
2.0
 40
3.0
 40
3.0
 40
3.0
 40
4.0
 40
4.0
 40
4.0
 40
4.0
 10
6.838972069656892
 20
-38.30163876276625
 30
0.0
 10
6.838972069656892
 20
-39.16312012952681
 30
0.0
 10
6.140603436806004
 20
-39.86148876237642
 30
0.0
 10
5.279122070046727
 20
-39.86148876237642
 30
0.0
 10
4.417640703286166
 20
-39.86148876237642
 30
0.0
 10
3.719272070436562
 20
-39.16312012952681
 30
0.0
 10
3.719272070436562
 20
-38.30163876276625
 30
0.0
 10
3.719272070436562
 20
-37.44015739600633
 30
0.0
 10
4.417640703286166
 20
-36.74178876315609
 30
0.0
 10
5.279122070046727
 20
-36.74178876315609
 30
0.0
 10
6.140603436806004
 20
-36.74178876315609
 30
0.0
 10
6.838972069656892
 20
-37.44015739600633
 30
0.0
 10
6.838972069656892
 20
-38.30163876276625
 30
0.0
  0
INSERT
  5
48
330
1F
100
AcDbEntity
  8
top 292.5
100
AcDbBlockReference
  2
block 2
 10
0.0
 20
0.0
 30
0.0
  0
ENDSEC
  0
SECTION
  2
OBJECTS
  0
DICTIONARY
  5
C
330
0
100
AcDbDictionary
281
     1
  3
ACAD_GROUP
350
D
  3
ACAD_LAYOUT
350
1A
  3
ACAD_MATERIAL
350
3B
  3
ACAD_MLEADERSTYLE
350
66
  3
ACAD_MLINESTYLE
350
17
  3
ACAD_PLOTSETTINGS
350
19
  3
ACAD_PLOTSTYLENAME
350
E
  3
ACAD_TABLESTYLE
350
65
  3
ACAD_VISUALSTYLE
350
2A
  0
SUN
  5
3F
330
29
100
AcDbSun
 90
        1
290
     0
 63
     7
421
 16777215
 40
1.0
291
     1
 91
  2455826
 92
 54000000
292
     0
 70
     2
 71
   256
280
     1
  0
DICTIONARY
  5
D
102
{ACAD_REACTORS
330
C
102
}
330
C
100
AcDbDictionary
281
     1
  0
DICTIONARY
  5
1A
102
{ACAD_REACTORS
330
C
102
}
330
C
100
AcDbDictionary
281
     1
  3
Layout1
350
1E
  3
Layout2
350
26
  3
Model
350
22
  0
DICTIONARY
  5
3B
102
{ACAD_REACTORS
330
C
102
}
330
C
100
AcDbDictionary
281
     1
  3
ByBlock
350
3D
  3
ByLayer
350
3C
  3
Global
350
3E
  0
DICTIONARY
  5
66
102
{ACAD_REACTORS
330
C
102
}
330
C
100
AcDbDictionary
281
     1
  0
DICTIONARY
  5
17
102
{ACAD_REACTORS
330
C
102
}
330
C
100
AcDbDictionary
281
     1
  3
Standard
350
18
  0
DICTIONARY
  5
19
102
{ACAD_REACTORS
330
C
102
}
330
C
100
AcDbDictionary
281
     1
  0
ACDBDICTIONARYWDFLT
  5
E
102
{ACAD_REACTORS
330
C
102
}
330
C
100
AcDbDictionary
281
     1
  3
Normal
350
F
100
AcDbDictionaryWithDefault
340
F
  0
DICTIONARY
  5
65
102
{ACAD_REACTORS
330
C
102
}
330
C
100
AcDbDictionary
281
     1
  0
DICTIONARY
  5
2A
102
{ACAD_REACTORS
330
C
102
}
330
C
100
AcDbDictionary
281
     1
  3
2dWireframe
350
2F
  3
3D Hidden
350
31
  3
3dWireframe
350
30
  3
Basic
350
32
  3
Brighten
350
36
  3
ColorChange
350
3A
  3
Conceptual
350
34
  3
Dim
350
35
  3
Facepattern
350
39
  3
Flat
350
2B
  3
FlatWithEdges
350
2C
  3
Gouraud
350
2D
  3
GouraudWithEdges
350
2E
  3
Linepattern
350
38
  3
Realistic
350
33
  3
Thicken
350
37
  0
LAYOUT
  5
1E
102
{ACAD_REACTORS
330
1A
102
}
330
1A
100
AcDbPlotSettings
  1

  2
none_device
  4

  6

 40
0.0
 41
0.0
 42
0.0
 43
0.0
 44
0.0
 45
0.0
 46
0.0
 47
0.0
 48
0.0
 49
0.0
140
0.0
141
0.0
142
1.0
143
1.0
 70
   688
 72
     0
 73
     0
 74
     5
  7

 75
    16
 76
     0
 77
     2
 78
   300
147
1.0
148
0.0
149
0.0
100
AcDbLayout
  1
Layout1
 70
     1
 71
     1
 10
0.0
 20
0.0
 11
12.0
 21
9.0
 12
0.0
 22
0.0
 32
0.0
 14
1.000000000000000E+20
 24
1.000000000000000E+20
 34
1.000000000000000E+20
 15
-1.000000000000000E+20
 25
-1.000000000000000E+20
 35
-1.000000000000000E+20
146
0.0
 13
0.0
 23
0.0
 33
0.0
 16
1.0
 26
0.0
 36
0.0
 17
0.0
 27
1.0
 37
0.0
 76
     0
330
1B
  0
LAYOUT
  5
26
102
{ACAD_REACTORS
330
1A
102
}
330
1A
100
AcDbPlotSettings
  1

  2
none_device
  4

  6

 40
0.0
 41
0.0
 42
0.0
 43
0.0
 44
0.0
 45
0.0
 46
0.0
 47
0.0
 48
0.0
 49
0.0
140
0.0
141
0.0
142
1.0
143
1.0
 70
   688
 72
     0
 73
     0
 74
     5
  7

 75
    16
 76
     0
 77
     2
 78
   300
147
1.0
148
0.0
149
0.0
100
AcDbLayout
  1
Layout2
 70
     1
 71
     2
 10
0.0
 20
0.0
 11
0.0
 21
0.0
 12
0.0
 22
0.0
 32
0.0
 14
0.0
 24
0.0
 34
0.0
 15
0.0
 25
0.0
 35
0.0
146
0.0
 13
0.0
 23
0.0
 33
0.0
 16
1.0
 26
0.0
 36
0.0
 17
0.0
 27
1.0
 37
0.0
 76
     0
330
23
  0
LAYOUT
  5
22
102
{ACAD_REACTORS
330
1A
102
}
330
1A
100
AcDbPlotSettings
  1

  2
none_device
  4

  6

 40
0.0
 41
0.0
 42
0.0
 43
0.0
 44
0.0
 45
0.0
 46
0.0
 47
0.0
 48
0.0
 49
0.0
140
0.0
141
0.0
142
1.0
143
1.0
 70
  1712
 72
     0
 73
     0
 74
     0
  7

 75
     0
 76
     0
 77
     2
 78
   300
147
1.0
148
0.0
149
0.0
100
AcDbLayout
  1
Model
 70
     1
 71
     0
 10
0.0
 20
0.0
 11
12.0
 21
9.0
 12
0.0
 22
0.0
 32
0.0
 14
1.000000000000000E+20
 24
1.000000000000000E+20
 34
1.000000000000000E+20
 15
-1.000000000000000E+20
 25
-1.000000000000000E+20
 35
-1.000000000000000E+20
146
0.0
 13
0.0
 23
0.0
 33
0.0
 16
1.0
 26
0.0
 36
0.0
 17
0.0
 27
1.0
 37
0.0
 76
     0
330
1F
331
29
  0
MATERIAL
  5
3D
102
{ACAD_REACTORS
330
3B
102
}
330
3B
100
AcDbMaterial
  1
ByBlock
 72
     1
 94
      127
  0
MATERIAL
  5
3C
102
{ACAD_REACTORS
330
3B
102
}
330
3B
100
AcDbMaterial
  1
ByLayer
 72
     1
 94
      127
  0
MATERIAL
  5
3E
102
{ACAD_REACTORS
330
3B
102
}
330
3B
100
AcDbMaterial
  1
Global
 72
     1
 94
      127
  0
MLINESTYLE
  5
18
102
{ACAD_REACTORS
330
17
102
}
330
17
100
AcDbMlineStyle
  2
Standard
 70
     0
  3

 62
   256
 51
90.0
 52
90.0
 71
     2
 49
0.5
 62
   256
  6
BYLAYER
 49
-0.5
 62
   256
  6
BYLAYER
  0
ACDBPLACEHOLDER
  5
F
102
{ACAD_REACTORS
330
E
102
}
330
E
  0
VISUALSTYLE
  5
2F
102
{ACAD_REACTORS
330
2A
102
}
330
2A
100
AcDbVisualStyle
  2
2dWireframe
 70
     4
177
     2
291
     0
 71
     0
176
     1
 72
     2
176
     1
 73
     0
176
     1
 90
        0
176
     1
 40
-0.6
176
     1
 41
-30.0
176
     1
 62
     5
 63
     7
421
 16777215
176
     1
 74
     1
176
     1
 91
        4
176
     1
 64
     7
176
     1
 65
   257
176
     1
 75
     1
176
     1
175
     1
176
     1
 42
1.0
176
     1
 92
        0
176
     1
 66
   257
176
     1
 43
1.0
176
     1
 76
     1
176
     1
 77
     6
176
     1
 78
     2
176
     1
 67
     7
176
     1
 79
     5
176
     1
170
     0
176
     1
171
     0
176
     1
290
     0
176
     1
 93
        1
176
     1
 44
0.0
176
     1
173
     0
176
     1
  0
VISUALSTYLE
  5
31
102
{ACAD_REACTORS
330
2A
102
}
330
2A
100
AcDbVisualStyle
  2
3D Hidden
 70
     6
177
     2
291
     0
 71
     1
176
     1
 72
     2
176
     1
 73
     2
176
     1
 90
        0
176
     1
 40
-0.6
176
     1
 41
-30.0
176
     1
 62
     5
 63
     7
421
 16777215
176
     1
 74
     2
176
     1
 91
        2
176
     1
 64
     7
176
     1
 65
   257
176
     1
 75
     2
176
     1
175
     1
176
     1
 42
40.0
176
     1
 92
        0
176
     1
 66
   257
176
     1
 43
1.0
176
     1
 76
     1
176
     1
 77
     6
176
     1
 78
     2
176
     1
 67
     7
176
     1
 79
     3
176
     1
170
     0
176
     1
171
     0
176
     1
290
     0
176
     1
 93
        1
176
     1
 44
0.0
176
     1
173
     0
176
     1
  0
VISUALSTYLE
  5
30
102
{ACAD_REACTORS
330
2A
102
}
330
2A
100
AcDbVisualStyle
  2
3dWireframe
 70
     5
177
     2
291
     0
 71
     0
176
     1
 72
     2
176
     1
 73
     0
176
     1
 90
        0
176
     1
 40
-0.6
176
     1
 41
-30.0
176
     1
 62
     5
 63
     7
421
 16777215
176
     1
 74
     1
176
     1
 91
        4
176
     1
 64
     7
176
     1
 65
   257
176
     1
 75
     1
176
     1
175
     1
176
     1
 42
1.0
176
     1
 92
        0
176
     1
 66
   257
176
     1
 43
1.0
176
     1
 76
     1
176
     1
 77
     6
176
     1
 78
     2
176
     1
 67
     7
176
     1
 79
     5
176
     1
170
     0
176
     1
171
     0
176
     1
290
     0
176
     1
 93
        1
176
     1
 44
0.0
176
     1
173
     0
176
     1
  0
VISUALSTYLE
  5
32
102
{ACAD_REACTORS
330
2A
102
}
330
2A
100
AcDbVisualStyle
  2
Basic
 70
     7
177
     2
291
     1
 71
     1
176
     1
 72
     0
176
     1
 73
     1
176
     1
 90
        0
176
     1
 40
-0.6
176
     1
 41
-30.0
176
     1
 62
     5
 63
     7
421
 16777215
176
     1
 74
     0
176
     1
 91
        4
176
     1
 64
     7
176
     1
 65
   257
176
     1
 75
     1
176
     1
175
     1
176
     1
 42
1.0
176
     1
 92
        8
176
     1
 66
     7
176
     1
 43
1.0
176
     1
 76
     1
176
     1
 77
     6
176
     1
 78
     2
176
     1
 67
     7
176
     1
 79
     5
176
     1
170
     0
176
     1
171
     0
176
     1
290
     0
176
     1
 93
        1
176
     1
 44
0.0
176
     1
173
     0
176
     1
  0
VISUALSTYLE
  5
36
102
{ACAD_REACTORS
330
2A
102
}
330
2A
100
AcDbVisualStyle
  2
Brighten
 70
    12
177
     2
291
     1
 71
     2
176
     1
 72
     2
176
     1
 73
     0
176
     1
 90
        0
176
     1
 40
-0.6
176
     1
 41
-30.0
176
     1
 62
     5
 63
     7
421
 16777215
176
     1
 74
     1
176
     1
 91
        4
176
     1
 64
     7
176
     1
 65
   257
176
     1
 75
     1
176
     1
175
     1
176
     1
 42
1.0
176
     1
 92
        8
176
     1
 66
     7
176
     1
 43
1.0
176
     1
 76
     1
176
     1
 77
     6
176
     1
 78
     2
176
     1
 67
     7
176
     1
 79
     5
176
     1
170
     0
176
     1
171
     0
176
     1
290
     0
176
     1
 93
        1
176
     1
 44
50.0
176
     1
173
     0
176
     1
  0
VISUALSTYLE
  5
3A
102
{ACAD_REACTORS
330
2A
102
}
330
2A
100
AcDbVisualStyle
  2
ColorChange
 70
    16
177
     2
291
     1
 71
     2
176
     1
 72
     2
176
     1
 73
     3
176
     1
 90
        0
176
     1
 40
-0.6
176
     1
 41
-30.0
176
     1
 62
     5
 63
     8
421
  8421504
176
     1
 74
     1
176
     1
 91
        4
176
     1
 64
     7
176
     1
 65
   257
176
     1
 75
     1
176
     1
175
     1
176
     1
 42
1.0
176
     1
 92
        8
176
     1
 66
     8
424
  8421504
176
     1
 43
1.0
176
     1
 76
     1
176
     1
 77
     6
176
     1
 78
     2
176
     1
 67
     7
176
     1
 79
     5
176
     1
170
     0
176
     1
171
     0
176
     1
290
     0
176
     1
 93
        1
176
     1
 44
0.0
176
     1
173
     0
176
     1
  0
VISUALSTYLE
  5
34
102
{ACAD_REACTORS
330
2A
102
}
330
2A
100
AcDbVisualStyle
  2
Conceptual
 70
     9
177
     2
291
     0
 71
     3
176
     1
 72
     2
176
     1
 73
     0
176
     1
 90
        0
176
     1
 40
-0.6
176
     1
 41
-30.0
176
     1
 62
     5
 63
     7
421
 16777215
176
     1
 74
     2
176
     1
 91
        2
176
     1
 64
     7
176
     1
 65
   257
176
     1
 75
     1
176
     1
175
     1
176
     1
 42
40.0
176
     1
 92
        8
176
     1
 66
     7
176
     1
 43
1.0
176
     1
 76
     1
176
     1
 77
     6
176
     1
 78
     2
176
     1
 67
     7
176
     1
 79
     3
176
     1
170
     0
176
     1
171
     0
176
     1
290
     0
176
     1
 93
        1
176
     1
 44
0.0
176
     1
173
     0
176
     1
  0
VISUALSTYLE
  5
35
102
{ACAD_REACTORS
330
2A
102
}
330
2A
100
AcDbVisualStyle
  2
Dim
 70
    11
177
     2
291
     1
 71
     2
176
     1
 72
     2
176
     1
 73
     0
176
     1
 90
        0
176
     1
 40
-0.6
176
     1
 41
-30.0
176
     1
 62
     5
 63
     7
421
 16777215
176
     1
 74
     1
176
     1
 91
        4
176
     1
 64
     7
176
     1
 65
   257
176
     1
 75
     1
176
     1
175
     1
176
     1
 42
1.0
176
     1
 92
        8
176
     1
 66
     7
176
     1
 43
1.0
176
     1
 76
     1
176
     1
 77
     6
176
     1
 78
     2
176
     1
 67
     7
176
     1
 79
     5
176
     1
170
     0
176
     1
171
     0
176
     1
290
     0
176
     1
 93
        1
176
     1
 44
-50.0
176
     1
173
     0
176
     1
  0
VISUALSTYLE
  5
39
102
{ACAD_REACTORS
330
2A
102
}
330
2A
100
AcDbVisualStyle
  2
Facepattern
 70
    15
177
     2
291
     1
 71
     2
176
     1
 72
     2
176
     1
 73
     0
176
     1
 90
        0
176
     1
 40
-0.6
176
     1
 41
-30.0
176
     1
 62
     5
 63
     7
421
 16777215
176
     1
 74
     1
176
     1
 91
        4
176
     1
 64
     7
176
     1
 65
   257
176
     1
 75
     1
176
     1
175
     1
176
     1
 42
1.0
176
     1
 92
        8
176
     1
 66
     7
176
     1
 43
1.0
176
     1
 76
     1
176
     1
 77
     6
176
     1
 78
     2
176
     1
 67
     7
176
     1
 79
     5
176
     1
170
     0
176
     1
171
     0
176
     1
290
     0
176
     1
 93
        1
176
     1
 44
0.0
176
     1
173
     0
176
     1
  0
VISUALSTYLE
  5
2B
102
{ACAD_REACTORS
330
2A
102
}
330
2A
100
AcDbVisualStyle
  2
Flat
 70
     0
177
     2
291
     1
 71
     2
176
     1
 72
     1
176
     1
 73
     1
176
     1
 90
        2
176
     1
 40
-0.6
176
     1
 41
30.0
176
     1
 62
     5
 63
     7
421
 16777215
176
     1
 74
     0
176
     1
 91
        4
176
     1
 64
     7
176
     1
 65
   257
176
     1
 75
     1
176
     1
175
     1
176
     1
 42
1.0
176
     1
 92
        8
176
     1
 66
     7
176
     1
 43
1.0
176
     1
 76
     1
176
     1
 77
     6
176
     1
 78
     2
176
     1
 67
     7
176
     1
 79
     5
176
     1
170
     0
176
     1
171
     0
176
     1
290
     0
176
     1
 93
       13
176
     1
 44
0.0
176
     1
173
     0
176
     1
  0
VISUALSTYLE
  5
2C
102
{ACAD_REACTORS
330
2A
102
}
330
2A
100
AcDbVisualStyle
  2
FlatWithEdges
 70
     1
177
     2
291
     1
 71
     2
176
     1
 72
     1
176
     1
 73
     1
176
     1
 90
        2
176
     1
 40
-0.6
176
     1
 41
30.0
176
     1
 62
     5
 63
     7
421
 16777215
176
     1
 74
     1
176
     1
 91
        4
176
     1
 64
     7
176
     1
 65
   257
176
     1
 75
     1
176
     1
175
     1
176
     1
 42
1.0
176
     1
 92
        0
176
     1
 66
   257
176
     1
 43
1.0
176
     1
 76
     1
176
     1
 77
     6
176
     1
 78
     2
176
     1
 67
     7
176
     1
 79
     5
176
     1
170
     0
176
     1
171
     0
176
     1
290
     0
176
     1
 93
       13
176
     1
 44
0.0
176
     1
173
     0
176
     1
  0
VISUALSTYLE
  5
2D
102
{ACAD_REACTORS
330
2A
102
}
330
2A
100
AcDbVisualStyle
  2
Gouraud
 70
     2
177
     2
291
     1
 71
     2
176
     1
 72
     2
176
     1
 73
     1
176
     1
 90
        2
176
     1
 40
-0.6
176
     1
 41
30.0
176
     1
 62
     5
 63
     7
421
 16777215
176
     1
 74
     0
176
     1
 91
        4
176
     1
 64
     7
176
     1
 65
   257
176
     1
 75
     1
176
     1
175
     1
176
     1
 42
1.0
176
     1
 92
        0
176
     1
 66
     7
176
     1
 43
1.0
176
     1
 76
     1
176
     1
 77
     6
176
     1
 78
     2
176
     1
 67
     7
176
     1
 79
     5
176
     1
170
     0
176
     1
171
     0
176
     1
290
     0
176
     1
 93
       13
176
     1
 44
0.0
176
     1
173
     0
176
     1
  0
VISUALSTYLE
  5
2E
102
{ACAD_REACTORS
330
2A
102
}
330
2A
100
AcDbVisualStyle
  2
GouraudWithEdges
 70
     3
177
     2
291
     1
 71
     2
176
     1
 72
     2
176
     1
 73
     1
176
     1
 90
        2
176
     1
 40
-0.6
176
     1
 41
30.0
176
     1
 62
     5
 63
     7
421
 16777215
176
     1
 74
     1
176
     1
 91
        4
176
     1
 64
     7
176
     1
 65
   257
176
     1
 75
     1
176
     1
175
     1
176
     1
 42
1.0
176
     1
 92
        0
176
     1
 66
   257
176
     1
 43
1.0
176
     1
 76
     1
176
     1
 77
     6
176
     1
 78
     2
176
     1
 67
     7
176
     1
 79
     5
176
     1
170
     0
176
     1
171
     0
176
     1
290
     0
176
     1
 93
       13
176
     1
 44
0.0
176
     1
173
     0
176
     1
  0
VISUALSTYLE
  5
38
102
{ACAD_REACTORS
330
2A
102
}
330
2A
100
AcDbVisualStyle
  2
Linepattern
 70
    14
177
     2
291
     1
 71
     2
176
     1
 72
     2
176
     1
 73
     0
176
     1
 90
        0
176
     1
 40
-0.6
176
     1
 41
-30.0
176
     1
 62
     5
 63
     7
421
 16777215
176
     1
 74
     1
176
     1
 91
        4
176
     1
 64
     7
176
     1
 65
   257
176
     1
 75
     7
176
     1
175
     7
176
     1
 42
1.0
176
     1
 92
        8
176
     1
 66
     7
176
     1
 43
1.0
176
     1
 76
     1
176
     1
 77
     6
176
     1
 78
     2
176
     1
 67
     7
176
     1
 79
     5
176
     1
170
     0
176
     1
171
     0
176
     1
290
     0
176
     1
 93
        1
176
     1
 44
0.0
176
     1
173
     0
176
     1
  0
VISUALSTYLE
  5
33
102
{ACAD_REACTORS
330
2A
102
}
330
2A
100
AcDbVisualStyle
  2
Realistic
 70
     8
177
     2
291
     0
 71
     2
176
     1
 72
     2
176
     1
 73
     0
176
     1
 90
        0
176
     1
 40
-0.6
176
     1
 41
-30.0
176
     1
 62
     5
 63
     7
421
 16777215
176
     1
 74
     1
176
     1
 91
        0
176
     1
 64
     7
176
     1
 65
   257
176
     1
 75
     1
176
     1
175
     1
176
     1
 42
1.0
176
     1
 92
        8
176
     1
 66
     8
424
  7895160
176
     1
 43
1.0
176
     1
 76
     1
176
     1
 77
     6
176
     1
 78
     2
176
     1
 67
     7
176
     1
 79
     5
176
     1
170
     0
176
     1
171
     0
176
     1
290
     0
176
     1
 93
       13
176
     1
 44
0.0
176
     1
173
     0
176
     1
  0
VISUALSTYLE
  5
37
102
{ACAD_REACTORS
330
2A
102
}
330
2A
100
AcDbVisualStyle
  2
Thicken
 70
    13
177
     2
291
     1
 71
     2
176
     1
 72
     2
176
     1
 73
     0
176
     1
 90
        0
176
     1
 40
-0.6
176
     1
 41
-30.0
176
     1
 62
     5
 63
     7
421
 16777215
176
     1
 74
     1
176
     1
 91
        4
176
     1
 64
     7
176
     1
 65
   257
176
     1
 75
     1
176
     1
175
     1
176
     1
 42
1.0
176
     1
 92
       12
176
     1
 66
     7
176
     1
 43
1.0
176
     1
 76
     1
176
     1
 77
     6
176
     1
 78
     2
176
     1
 67
     7
176
     1
 79
     5
176
     1
170
     0
176
     1
171
     0
176
     1
290
     0
176
     1
 93
        1
176
     1
 44
0.0
176
     1
173
     0
176
     1
  0
ENDSEC
  0
EOF
